<svg width="24" height="24" viewBox="0 0 24 24" fill="none" xmlns="http://www.w3.org/2000/svg">
<g clip-path="url(#clip0_1_308)">
<path fill-rule="evenodd" clip-rule="evenodd" d="M12.6116 9.25132C12.5835 9.25132 12.5694 9.25132 12.5553 9.25132C12.1898 9.18103 11.8242 9.18103 11.4587 9.25132C11.3884 9.26538 11.304 9.23727 11.2478 9.19509C11.1775 9.15291 11.1353 9.08261 11.1353 9.01231C10.9385 7.88753 11.0228 6.20036 11.8523 5.21618C12.2741 4.72408 12.8365 4.47101 13.4833 4.47101C14.0035 4.47101 14.6081 4.63973 15.2407 4.9631C15.3673 5.0334 15.4516 5.13182 15.4657 5.25835C15.5079 5.53955 15.2548 5.79263 14.8049 6.24254C14.1863 6.86117 13.2583 7.80317 12.8787 9.05449C12.8365 9.18103 12.7241 9.25132 12.6116 9.25132ZM11.9929 8.6327C12.1335 8.6327 12.2741 8.6327 12.4147 8.66082C12.8787 7.39544 13.7926 6.46749 14.4112 5.84886C14.5659 5.69421 14.7487 5.51143 14.8471 5.38489C13.7223 4.86468 12.8506 4.92092 12.2882 5.58173C11.6696 6.29878 11.529 7.59227 11.6415 8.64676C11.768 8.6327 11.8805 8.6327 11.9929 8.6327Z" fill="black"/>
<path fill-rule="evenodd" clip-rule="evenodd" d="M11.993 15.3673C10.1371 15.3673 8.63269 13.8489 8.63269 11.993C8.63269 10.1371 10.1371 8.63269 11.993 8.63269C13.8489 8.63269 15.3673 10.1371 15.3673 11.993C15.3673 13.8489 13.8489 15.3673 11.993 15.3673ZM11.993 9.19508C10.4464 9.19508 9.19508 10.4464 9.19508 11.993C9.19508 13.5395 10.4464 14.8049 11.993 14.8049C13.5395 14.8049 14.8049 13.5395 14.8049 11.993C14.8049 10.4464 13.5395 9.19508 11.993 9.19508Z" fill="black"/>
<path fill-rule="evenodd" clip-rule="evenodd" d="M19.2478 11.7258C19.0509 11.7258 18.7697 11.6555 18.3901 11.5571C17.7715 11.3884 16.9279 11.1775 16.0281 11.1775C15.6625 11.1775 15.311 11.2056 14.9877 11.29C14.8471 11.3181 14.7065 11.2337 14.6502 11.0931C14.5377 10.7557 14.355 10.4323 14.116 10.1511C14.0597 10.0949 14.0457 10.0246 14.0457 9.9543C14.0457 9.86994 14.0878 9.79964 14.1441 9.75746C14.9174 9.12477 16.1546 8.44991 17.3216 8.44991C18.1652 8.44991 19.5852 8.81546 19.7117 11.29C19.7258 11.4446 19.6555 11.5431 19.6133 11.5993C19.529 11.6836 19.4024 11.7258 19.2478 11.7258ZM16.0281 10.6151C16.9982 10.6151 17.884 10.8401 18.5307 11.0088C18.7697 11.0791 18.9947 11.1353 19.1353 11.1634C19.0228 9.72934 18.4182 9.0123 17.3216 9.0123C16.5483 9.0123 15.55 9.39191 14.7205 10.0246C14.8752 10.2214 15.0017 10.4464 15.1001 10.6854C15.3954 10.6432 15.7047 10.6151 16.0281 10.6151Z" fill="black"/>
<path fill-rule="evenodd" clip-rule="evenodd" d="M16.239 18.4042C15.8734 18.4042 15.7609 18.0105 15.5782 17.3076C15.3391 16.464 14.9877 15.1845 14.1019 14.2285C14.0035 14.116 14.0035 13.9613 14.1019 13.8489C14.3409 13.5677 14.5377 13.2583 14.6502 12.9069C14.6783 12.8366 14.7346 12.7803 14.7908 12.7522C14.8611 12.71 14.9455 12.71 15.0158 12.7381C16.3796 13.2443 17.9121 14.4112 18.0667 15.775C18.137 16.4218 17.9121 17.3919 16.4639 18.3339C16.3936 18.3761 16.3233 18.4042 16.239 18.4042ZM14.6783 14.0316C15.536 15.058 15.8875 16.3093 16.1124 17.167C16.1687 17.3638 16.239 17.6169 16.2952 17.7575C17.1669 17.167 17.5746 16.5202 17.5044 15.8313C17.3919 14.833 16.239 13.877 15.072 13.3708C14.9736 13.5958 14.833 13.8207 14.6783 14.0316Z" fill="black"/>
<path fill-rule="evenodd" clip-rule="evenodd" d="M10.5167 19.529C9.9824 19.529 9.39189 19.3603 8.74514 19.0369C8.63266 18.9666 8.5483 18.8682 8.53424 18.7417C8.47801 18.4605 8.73108 18.2074 9.18099 17.7575C9.79962 17.1248 10.7276 16.1828 11.1212 14.9455C11.1634 14.8049 11.304 14.7206 11.4446 14.7487C11.8102 14.819 12.1757 14.819 12.5413 14.7487C12.6116 14.7346 12.6819 14.7487 12.7522 14.7909C12.8084 14.833 12.8506 14.9033 12.8646 14.9877C13.0615 16.1125 12.9771 17.7856 12.1335 18.7838C11.7258 19.2759 11.1634 19.529 10.5167 19.529ZM9.15287 18.6011C9.65903 18.8401 10.1089 18.9666 10.5167 18.9666C10.9947 18.9666 11.4024 18.7838 11.7117 18.4183C12.3304 17.6872 12.471 16.3937 12.3444 15.3533C12.0914 15.3673 11.8383 15.3673 11.5852 15.3392C11.1212 16.6046 10.2074 17.5185 9.58873 18.1511C9.43407 18.3058 9.25129 18.4886 9.15287 18.6011Z" fill="black"/>
<path fill-rule="evenodd" clip-rule="evenodd" d="M6.66429 15.5501C5.83477 15.5501 4.40067 15.1845 4.2882 12.696C4.27414 12.5554 4.33038 12.4569 4.38661 12.4007C4.47097 12.3163 4.59751 12.2601 4.75217 12.2601C4.949 12.2601 5.2302 12.3445 5.60981 12.4429C6.22844 12.5975 7.05797 12.8225 7.97185 12.8225C8.33741 12.8225 8.6889 12.7803 9.01227 12.71C9.15287 12.6819 9.29347 12.7522 9.33565 12.8928C9.46219 13.2443 9.64496 13.5677 9.88398 13.8348C9.92616 13.891 9.95428 13.9754 9.95428 14.0457C9.94022 14.116 9.9121 14.1863 9.8418 14.2425C9.08257 14.8752 7.84531 15.5501 6.66429 15.5501ZM4.85059 12.8366C4.96306 14.2706 5.58169 14.9877 6.66429 14.9877C7.43758 14.9877 8.43582 14.594 9.27941 13.9754C9.12475 13.7645 8.99821 13.5395 8.8998 13.3005C8.60454 13.3568 8.28117 13.3849 7.97185 13.3849C6.98767 13.3849 6.11596 13.1459 5.46922 12.9771C5.21614 12.9209 5.00524 12.8647 4.85059 12.8366Z" fill="black"/>
<path fill-rule="evenodd" clip-rule="evenodd" d="M9.08257 11.2759C9.04039 11.2759 9.01227 11.2759 8.98415 11.2619C7.62036 10.7416 6.08784 9.57469 5.93319 8.22495C5.86289 7.5782 6.08784 6.60808 7.536 5.66608C7.6063 5.6239 7.6766 5.59578 7.76095 5.59578C8.12651 5.59578 8.22493 5.98945 8.42176 6.69244C8.64672 7.53603 8.99821 8.8014 9.88398 9.77153C9.9824 9.86994 9.9824 10.0387 9.89804 10.1511C9.64496 10.4183 9.46219 10.7416 9.34971 11.0931C9.32159 11.1634 9.26535 11.2197 9.19505 11.2478C9.16693 11.2619 9.12475 11.2759 9.08257 11.2759ZM7.70472 6.22847C6.81895 6.83304 6.42528 7.47979 6.49558 8.15465C6.60805 9.1529 7.76095 10.123 8.91385 10.6292C9.02633 10.3902 9.15287 10.1652 9.30753 9.96836C8.44988 8.92794 8.11245 7.67662 7.87343 6.83304C7.81719 6.62214 7.76095 6.38313 7.70472 6.22847Z" fill="black"/>
<path fill-rule="evenodd" clip-rule="evenodd" d="M11.993 21.9613C6.5097 21.9613 2.0387 17.4903 2.0387 11.993C2.0387 6.50967 6.5097 2.03867 11.993 2.03867C17.4904 2.03867 21.9614 6.50967 21.9614 11.993C21.9614 17.4903 17.4904 21.9613 11.993 21.9613ZM11.993 2.60106C6.81901 2.60106 2.60109 6.81898 2.60109 11.993C2.60109 17.181 6.81901 21.3989 11.993 21.3989C17.1811 21.3989 21.399 17.181 21.399 11.993C21.399 6.81898 17.1811 2.60106 11.993 2.60106Z" fill="black"/>
<path fill-rule="evenodd" clip-rule="evenodd" d="M21.6801 24H2.31986C1.04042 24 0 22.9596 0 21.6801V2.31986C0 1.04042 1.04042 0 2.31986 0H21.6801C22.9596 0 24 1.04042 24 2.31986V21.6801C24 22.9596 22.9596 24 21.6801 24ZM2.31986 0.56239C1.34974 0.56239 0.56239 1.34974 0.56239 2.31986V21.6801C0.56239 22.6503 1.34974 23.4376 2.31986 23.4376H21.6801C22.6503 23.4376 23.4376 22.6503 23.4376 21.6801V2.31986C23.4376 1.34974 22.6503 0.56239 21.6801 0.56239H2.31986Z" fill="black"/>
<path fill-rule="evenodd" clip-rule="evenodd" d="M3.0229 4.65378C2.12308 4.65378 1.39197 3.92267 1.39197 3.03691C1.39197 2.13708 2.12308 1.40598 3.0229 1.40598C3.90866 1.40598 4.63977 2.13708 4.63977 3.03691C4.63977 3.92267 3.90866 4.65378 3.0229 4.65378ZM3.0229 1.96837C2.43239 1.96837 1.95436 2.4464 1.95436 3.03691C1.95436 3.61336 2.43239 4.09139 3.0229 4.09139C3.59935 4.09139 4.07738 3.61336 4.07738 3.03691C4.07738 2.4464 3.59935 1.96837 3.0229 1.96837Z" fill="black"/>
<path fill-rule="evenodd" clip-rule="evenodd" d="M21.0194 4.65378C20.1195 4.65378 19.3884 3.92267 19.3884 3.03691C19.3884 2.13708 20.1195 1.40598 21.0194 1.40598C21.9192 1.40598 22.6362 2.13708 22.6362 3.03691C22.6362 3.92267 21.9192 4.65378 21.0194 4.65378ZM21.0194 1.96837C20.4288 1.96837 19.9508 2.4464 19.9508 3.03691C19.9508 3.61336 20.4288 4.09139 21.0194 4.09139C21.6099 4.09139 22.0738 3.61336 22.0738 3.03691C22.0738 2.4464 21.6099 1.96837 21.0194 1.96837Z" fill="black"/>
<path fill-rule="evenodd" clip-rule="evenodd" d="M3.0229 22.355C2.12308 22.355 1.39197 21.6239 1.39197 20.7381C1.39197 19.8383 2.12308 19.1072 3.0229 19.1072C3.90866 19.1072 4.63977 19.8383 4.63977 20.7381C4.63977 21.6239 3.90866 22.355 3.0229 22.355ZM3.0229 19.6696C2.43239 19.6696 1.95436 20.1476 1.95436 20.7381C1.95436 21.3146 2.43239 21.7926 3.0229 21.7926C3.59935 21.7926 4.07738 21.3146 4.07738 20.7381C4.07738 20.1476 3.59935 19.6696 3.0229 19.6696Z" fill="black"/>
<path fill-rule="evenodd" clip-rule="evenodd" d="M21.0194 22.355C20.1195 22.355 19.3884 21.6239 19.3884 20.7381C19.3884 19.8383 20.1195 19.1072 21.0194 19.1072C21.9192 19.1072 22.6362 19.8383 22.6362 20.7381C22.6362 21.6239 21.9192 22.355 21.0194 22.355ZM21.0194 19.6696C20.4288 19.6696 19.9508 20.1476 19.9508 20.7381C19.9508 21.3146 20.4288 21.7926 21.0194 21.7926C21.6099 21.7926 22.0738 21.3146 22.0738 20.7381C22.0738 20.1476 21.6099 19.6696 21.0194 19.6696Z" fill="black"/>
<path fill-rule="evenodd" clip-rule="evenodd" d="M3.02289 4.09139C3.59934 4.09139 4.07737 3.61336 4.07737 3.03691C4.07737 2.4464 3.59934 1.96837 3.02289 1.96837C2.43238 1.96837 1.95435 2.4464 1.95435 3.03691C1.95435 3.61336 2.43238 4.09139 3.02289 4.09139Z" fill="#A99BD4"/>
<path fill-rule="evenodd" clip-rule="evenodd" d="M4.07737 20.7381C4.07737 20.1476 3.59934 19.6696 3.02289 19.6696C2.43238 19.6696 1.95435 20.1476 1.95435 20.7381C1.95435 21.3146 2.43238 21.7926 3.02289 21.7926C3.59934 21.7926 4.07737 21.3146 4.07737 20.7381Z" fill="#A99BD4"/>
<path fill-rule="evenodd" clip-rule="evenodd" d="M21.0193 19.6696C20.4288 19.6696 19.9508 20.1476 19.9508 20.7381C19.9508 21.3146 20.4288 21.7926 21.0193 21.7926C21.6099 21.7926 22.0738 21.3146 22.0738 20.7381C22.0738 20.1476 21.6099 19.6696 21.0193 19.6696Z" fill="#A99BD4"/>
<path fill-rule="evenodd" clip-rule="evenodd" d="M19.9508 3.03691C19.9508 3.61336 20.4288 4.09139 21.0193 4.09139C21.6099 4.09139 22.0738 3.61336 22.0738 3.03691C22.0738 2.4464 21.6099 1.96837 21.0193 1.96837C20.4288 1.96837 19.9508 2.4464 19.9508 3.03691Z" fill="#A99BD4"/>
<path fill-rule="evenodd" clip-rule="evenodd" d="M22.6362 3.03691C22.6362 3.92267 21.9191 4.65378 21.0193 4.65378C20.1195 4.65378 19.3884 3.92267 19.3884 3.03691C19.3884 2.13709 20.1195 1.40598 21.0193 1.40598C21.9191 1.40598 22.6362 2.13709 22.6362 3.03691ZM11.993 2.03867C17.4903 2.03867 21.9613 6.50967 21.9613 11.993C21.9613 17.4903 17.4903 21.9613 11.993 21.9613C6.50965 21.9613 2.03865 17.4903 2.03865 11.993C2.03865 6.50967 6.50965 2.03867 11.993 2.03867ZM2.31985 23.4376H21.6801C22.6503 23.4376 23.4376 22.6503 23.4376 21.6801V2.31986C23.4376 1.34974 22.6503 0.562393 21.6801 0.562393H2.31985C1.34972 0.562393 0.562378 1.34974 0.562378 2.31986V21.6801C0.562378 22.6503 1.34972 23.4376 2.31985 23.4376ZM19.3884 20.7381C19.3884 19.8383 20.1195 19.1072 21.0193 19.1072C21.9191 19.1072 22.6362 19.8383 22.6362 20.7381C22.6362 21.6239 21.9191 22.355 21.0193 22.355C20.1195 22.355 19.3884 21.6239 19.3884 20.7381ZM3.02284 19.1072C3.9086 19.1072 4.63971 19.8383 4.63971 20.7381C4.63971 21.6239 3.9086 22.355 3.02284 22.355C2.12301 22.355 1.3919 21.6239 1.3919 20.7381C1.3919 19.8383 2.12301 19.1072 3.02284 19.1072ZM4.63971 3.03691C4.63971 3.92267 3.9086 4.65378 3.02284 4.65378C2.12301 4.65378 1.3919 3.92267 1.3919 3.03691C1.3919 2.13709 2.12301 1.40598 3.02284 1.40598C3.9086 1.40598 4.63971 2.13709 4.63971 3.03691Z" fill="#4F4F74"/>
<path fill-rule="evenodd" clip-rule="evenodd" d="M8.8998 13.3005C8.60454 13.3568 8.28117 13.3849 7.97185 13.3849C6.98767 13.3849 6.11596 13.1459 5.46922 12.9772C5.21614 12.9209 5.00524 12.8647 4.85059 12.8366C4.96306 14.2707 5.58169 14.9877 6.66429 14.9877C7.43758 14.9877 8.43582 14.594 9.27941 13.9754C9.12475 13.7645 8.99821 13.5396 8.8998 13.3005Z" fill="#474768"/>
<path fill-rule="evenodd" clip-rule="evenodd" d="M11.5852 15.3392C11.1212 16.6046 10.2073 17.5185 9.58868 18.1512C9.43403 18.3058 9.25125 18.4886 9.15283 18.6011C10.0386 19.0229 11.0368 19.2056 11.7117 18.4183C12.3303 17.6872 12.4709 16.3937 12.3444 15.3533C12.2319 15.3533 12.1194 15.3673 11.9929 15.3673C11.8523 15.3673 11.7117 15.3533 11.5852 15.3392Z" fill="#474768"/>
<path fill-rule="evenodd" clip-rule="evenodd" d="M14.6783 14.0316C15.536 15.058 15.8875 16.3093 16.1124 17.167C16.1687 17.3638 16.239 17.6169 16.2952 17.7575C17.1669 17.167 17.5747 16.5202 17.5044 15.8313C17.3919 14.833 16.239 13.877 15.072 13.3708C14.9736 13.5958 14.833 13.8207 14.6783 14.0316Z" fill="#474768"/>
<path fill-rule="evenodd" clip-rule="evenodd" d="M16.0281 10.6151C16.9983 10.6151 17.884 10.8401 18.5308 11.0088C18.7698 11.0791 18.9947 11.1353 19.1353 11.1635C19.0229 9.72936 18.4183 9.01231 17.3216 9.01231C16.5483 9.01231 15.5501 9.39193 14.7206 10.0246C14.8752 10.2215 15.0018 10.4464 15.1002 10.6854C15.3954 10.6432 15.7048 10.6151 16.0281 10.6151Z" fill="#474768"/>
<path fill-rule="evenodd" clip-rule="evenodd" d="M12.4147 8.66081C12.8787 7.39544 13.7926 6.46749 14.4112 5.84886C14.5658 5.69421 14.7486 5.51143 14.847 5.38489C13.7223 4.86468 12.8505 4.92092 12.2882 5.58173C11.6695 6.29878 11.5289 7.59227 11.6414 8.64675C11.7258 8.64675 11.7961 8.63269 11.8804 8.63269H11.9929C12.1335 8.63269 12.2741 8.63269 12.4147 8.66081Z" fill="#474768"/>
<path fill-rule="evenodd" clip-rule="evenodd" d="M9.30748 9.96836C8.44983 8.92794 8.1124 7.67662 7.87338 6.83304C7.81714 6.62214 7.7609 6.38313 7.70466 6.22847C6.8189 6.83304 6.42523 7.47979 6.49553 8.15466C6.608 9.1529 7.7609 10.123 8.9138 10.6292C9.02628 10.3902 9.15282 10.1652 9.30748 9.96836Z" fill="#474768"/>
<path fill-rule="evenodd" clip-rule="evenodd" d="M8.42181 6.69245C8.63271 7.46573 8.94202 8.61863 9.68719 9.54658C10.0809 9.18102 10.5589 8.89983 11.0932 8.75923C10.9526 7.63445 11.0791 6.13006 11.8524 5.21617C12.2742 4.72408 12.8366 4.47101 13.4833 4.47101C14.0035 4.47101 14.6081 4.63972 15.2408 4.9631C15.3673 5.0334 15.4517 5.13181 15.4657 5.25835C15.5079 5.53955 15.2549 5.79262 14.8049 6.24254C14.2425 6.81898 13.399 7.66257 12.9772 8.77329C13.4974 8.92795 13.9754 9.2232 14.355 9.58876C15.1283 9.01231 16.2531 8.44992 17.3216 8.44992C18.1652 8.44992 19.5853 8.81547 19.7118 11.29C19.7259 11.4446 19.6556 11.5431 19.6134 11.5993C19.529 11.6837 19.4025 11.7258 19.2478 11.7258C19.051 11.7258 18.7698 11.6555 18.3902 11.5571C17.7715 11.3884 16.928 11.1775 16.0281 11.1775C15.7751 11.1775 15.522 11.1916 15.283 11.2337C15.3392 11.4728 15.3673 11.7399 15.3673 11.993C15.3673 12.2882 15.3252 12.5694 15.2549 12.8366C16.5624 13.3849 17.9262 14.4956 18.0668 15.775C18.1371 16.4218 17.9121 17.3919 16.464 18.3339C16.3937 18.3761 16.3234 18.4042 16.239 18.4042C15.8735 18.4042 15.761 18.0105 15.5782 17.3076C15.3673 16.5343 15.044 15.3814 14.2988 14.4534C13.9051 14.819 13.4271 15.1002 12.9069 15.2408C13.0334 16.3515 12.9209 17.8559 12.1336 18.7838C11.7259 19.2759 11.1635 19.529 10.5167 19.529C9.98244 19.529 9.39193 19.3603 8.74519 19.0369C8.63271 18.9666 8.54835 18.8682 8.53429 18.7417C8.47805 18.4605 8.73113 18.2074 9.18104 17.7575C9.75749 17.181 10.587 16.3374 11.0229 15.2267C10.5027 15.058 10.0246 14.7768 9.64501 14.3972C8.87172 14.9877 7.74694 15.5501 6.66434 15.5501C5.83482 15.5501 4.40072 15.1845 4.28824 12.696C4.27418 12.5554 4.33042 12.4569 4.38666 12.4007C4.47102 12.3163 4.59756 12.2601 4.75222 12.2601C4.94905 12.2601 5.23025 12.3445 5.60986 12.4429C6.22849 12.5975 7.05802 12.8225 7.9719 12.8225C8.22498 12.8225 8.47805 12.8084 8.71707 12.7663C8.66083 12.5132 8.63271 12.2601 8.63271 11.993C8.63271 11.7118 8.66083 11.4306 8.73113 11.1634C7.43763 10.6151 6.07383 9.5044 5.93324 8.22496C5.86294 7.57821 6.08789 6.60809 7.53605 5.66609C7.60635 5.62391 7.67665 5.59579 7.761 5.59579C8.12656 5.59579 8.22498 5.98946 8.42181 6.69245ZM21.399 11.993C21.399 6.81898 17.181 2.60106 11.993 2.60106C6.819 2.60106 2.60107 6.81898 2.60107 11.993C2.60107 17.181 6.819 21.3989 11.993 21.3989C17.181 21.3989 21.399 17.181 21.399 11.993Z" fill="#A0A0BA"/>
<path fill-rule="evenodd" clip-rule="evenodd" d="M9.19507 11.993C9.19507 13.5395 10.4464 14.8049 11.993 14.8049C13.5395 14.8049 14.8049 13.5395 14.8049 11.993C14.8049 10.4464 13.5395 9.19508 11.993 9.19508C10.4464 9.19508 9.19507 10.4464 9.19507 11.993Z" fill="#27273D"/>
</g>
<defs>
<clipPath id="clip0_1_308">
<rect width="24" height="24" fill="white"/>
</clipPath>
</defs>
</svg>
