<svg width="14" height="21" viewBox="0 0 14 21" fill="none" xmlns="http://www.w3.org/2000/svg">
<path d="M6.05718 20.5C5.78416 20.499 5.51461 20.4387 5.26718 20.3233C4.86302 20.1433 4.53843 19.8221 4.35432 19.4198C4.1702 19.0175 4.13922 18.5618 4.26718 18.1383L5.56802 13.8333H2.50302C2.11252 13.8338 1.72734 13.7428 1.37835 13.5676C1.02936 13.3924 0.72627 13.1379 0.49336 12.8244C0.260451 12.511 0.104205 12.1474 0.0371425 11.7627C-0.0299197 11.378 -0.00593272 10.9829 0.107182 10.6091L2.62718 2.27581C2.78079 1.76038 3.09742 1.30867 3.52956 0.988472C3.96169 0.668277 4.48602 0.496871 5.02385 0.499981H8.10135C8.45114 0.500273 8.79567 0.585252 9.10548 0.747655C9.41529 0.910058 9.68117 1.14506 9.8804 1.43257C10.0796 1.72008 10.2063 2.05155 10.2496 2.39866C10.2928 2.74577 10.2514 3.09819 10.1288 3.42581L8.72635 7.16665H10.8572C11.3114 7.16661 11.757 7.29032 12.1462 7.52449C12.5354 7.75865 12.8535 8.09442 13.0662 8.49574C13.2789 8.89705 13.3783 9.34873 13.3537 9.80228C13.3291 10.2558 13.1813 10.6941 12.9263 11.07L7.59302 19.6533C7.42814 19.9115 7.20119 20.1243 6.9329 20.2722C6.66461 20.4201 6.36353 20.4984 6.05718 20.5Z" fill="#F9FEF7"/>
</svg>
