<svg width="33" height="27" viewBox="0 0 33 27" fill="none" xmlns="http://www.w3.org/2000/svg">
<path d="M4.85176 10.3646C4.42312 10.3646 4.0349 10.1029 3.83844 9.68174L3.1842 8.27691C2.98257 7.84498 3.15741 7.25184 3.58182 6.92613L5.08253 5.77698C5.30021 5.61145 5.56622 5.52195 5.8397 5.52223C6.07569 5.51753 6.30586 5.59569 6.49018 5.74314L7.67646 6.74048C7.81215 6.84978 7.92145 6.98827 7.99623 7.14564C8.07101 7.30301 8.10934 7.47522 8.10839 7.64946C8.10375 7.81244 8.06191 7.97222 7.98607 8.11656C7.91024 8.26091 7.8024 8.386 7.67082 8.4823L5.52245 10.1273C5.33142 10.2787 5.09547 10.3622 4.85176 10.3646Z" fill="#404142"/>
<path d="M5.83959 5.57018C6.06413 5.56521 6.28326 5.63942 6.45858 5.7798L7.64533 6.77667C8.18442 7.22975 8.21262 8.00478 7.6411 8.44282L5.49273 10.0878C5.31014 10.2324 5.08454 10.312 4.85165 10.3139C4.45356 10.3139 4.07521 10.0723 3.88251 9.65918L3.83551 9.56048L3.22733 8.25435C3.03087 7.83417 3.21135 7.26735 3.61038 6.96279L3.68746 6.90498L5.11203 5.81317C5.32162 5.65496 5.57698 5.56918 5.83959 5.56877M5.83959 5.47101C5.55538 5.47086 5.27898 5.56399 5.05281 5.73609L3.62871 6.8279L3.5521 6.88618C3.1103 7.22505 2.92935 7.84451 3.13991 8.29618L3.74809 9.60231L3.79509 9.70054C3.99954 10.1395 4.40609 10.4117 4.85259 10.4117C5.10688 10.4095 5.35325 10.3229 5.55289 10.1654L7.70126 8.52037C7.83868 8.4197 7.95125 8.28893 8.03035 8.13806C8.10945 7.98719 8.15299 7.82022 8.15763 7.64993C8.15884 7.46848 8.11912 7.2891 8.0414 7.12513C7.96369 6.96116 7.84999 6.81683 7.70878 6.70288L6.52203 5.70554C6.32949 5.54963 6.08824 5.46644 5.84053 5.47054L5.83959 5.47101Z" fill="black"/>
<path d="M13.4841 5.2355C12.9487 5.2355 12.5074 4.83929 12.4115 4.27153L12.153 2.74309C12.0736 2.27309 12.3993 1.74763 12.8952 1.54647L14.6468 0.835834C14.7947 0.77633 14.9527 0.745852 15.1121 0.746064C15.4849 0.746064 15.8298 0.911034 16.0131 1.17658L16.8925 2.45263C16.9943 2.59401 17.0628 2.75651 17.0931 2.92805C17.1234 3.09958 17.1146 3.27573 17.0673 3.44339C17.0199 3.59966 16.9373 3.74297 16.8258 3.86233C16.7144 3.98169 16.577 4.07392 16.4244 4.13194L13.9146 5.14855C13.778 5.20504 13.6318 5.23456 13.4841 5.2355Z" fill="#404142"/>
<path d="M15.1124 0.794922C15.456 0.794922 15.7901 0.939213 15.973 1.20429L16.8528 2.47987C17.2528 3.05985 17.0737 3.81467 16.4063 4.08539L13.8984 5.10341C13.7671 5.15783 13.6265 5.18624 13.4843 5.18707C12.98 5.18707 12.5523 4.81107 12.4597 4.26305L12.2012 2.73508C12.1237 2.27777 12.4475 1.78098 12.9137 1.59157L14.6668 0.880932C14.8089 0.823599 14.9607 0.794389 15.1138 0.794922M15.1138 0.697632C14.9481 0.697631 14.7839 0.729545 14.6302 0.791632L12.8771 1.49992C12.3601 1.70954 12.0222 2.2585 12.1053 2.75012L12.3638 4.27809C12.464 4.86982 12.9246 5.28295 13.4843 5.28295C13.639 5.28219 13.7921 5.25139 13.9351 5.19224L16.443 4.17422C16.6022 4.11368 16.7455 4.01748 16.8619 3.893C16.9782 3.76851 17.0645 3.61905 17.1141 3.45606C17.1638 3.28119 17.1733 3.09734 17.1419 2.91828C17.1105 2.73922 17.039 2.56958 16.9327 2.42206L16.0533 1.14883C15.8583 0.866832 15.5067 0.697632 15.1133 0.697632H15.1138Z" fill="black"/>
<g style="mix-blend-mode:multiply" opacity="0.63">
<path d="M13.7843 3.83111C13.5023 4.01347 13.202 4.18314 12.8791 4.25834L12.27 2.95221C12.074 2.53156 12.2545 1.96521 12.6535 1.66065L12.7297 1.6019C12.7439 1.86542 12.8272 2.12055 12.9712 2.34168C13.2264 2.74682 13.6015 3.06078 13.8929 3.44007C13.9292 3.47953 13.9538 3.52837 13.9639 3.58107C13.9747 3.69011 13.8746 3.77236 13.7843 3.83111Z" fill="#333D6A"/>
</g>
<path d="M9.1238 26.3845C8.79293 26.382 8.46404 26.3333 8.14666 26.2398L8.01037 26.1994C7.50254 26.0521 7.03858 25.7826 6.65911 25.4145C5.96782 24.7894 5.31297 24.1251 4.6978 23.4249C3.8328 22.4278 3.05107 21.3614 2.3605 20.2365C2.05077 19.7331 1.73069 19.2128 1.39652 18.4857C1.32179 18.324 1.23719 18.1403 1.15118 17.9405C0.895732 17.3618 0.70653 16.756 0.587185 16.1348C0.515275 15.74 0.378035 14.6778 0.653455 13.3439C0.89369 12.2023 1.38159 11.1273 2.08273 10.1949L2.09589 10.1771L2.11657 10.1705C3.9478 9.58518 5.65379 8.66341 7.14698 7.45246L7.15214 7.44823L8.59223 6.68495H8.59552L10.0032 5.93859C12.0152 4.87733 14.4301 4.20241 14.4541 4.19583C16.0591 3.75074 17.0278 3.4819 18.1501 3.4819C18.3612 3.4819 18.5731 3.4913 18.8002 3.5101C20.1895 3.62478 21.3382 4.04872 21.9571 4.27667C23.0104 4.66536 23.8052 5.10669 24.3852 5.42911C25.1217 5.83801 25.6222 6.17312 26.1063 6.49695C27.1559 7.19403 28.1605 7.95647 29.1143 8.77974C29.5979 9.20274 29.9077 9.60741 30.1568 9.93218C30.4186 10.2734 30.5915 10.4985 30.7837 10.4985C30.8033 10.4984 30.8229 10.4962 30.842 10.492C30.8649 10.4873 30.8871 10.4801 30.9083 10.4703C31.0493 10.4074 31.1433 10.2485 31.2119 10.1014C31.2312 10.0619 31.2486 10.0224 31.266 9.98435C31.3007 9.89832 31.3437 9.81585 31.3943 9.73807L31.43 9.69483C31.4471 9.6761 31.4679 9.66103 31.491 9.65053C31.5141 9.64003 31.539 9.63432 31.5644 9.63373H31.5799C31.6805 9.64219 31.7679 9.73619 31.8436 9.9115C32.0819 10.4755 32.1806 11.9974 31.6885 12.6046C31.6598 12.6403 31.6297 12.6751 31.5987 12.708C31.3671 12.9552 31.0923 13.1581 30.788 13.3068L30.7753 13.3129C30.4674 13.4671 30.1356 13.5291 29.6266 13.5291C29.5796 13.5291 29.5293 13.5291 29.4786 13.5291C29.1617 13.523 28.8455 13.4968 28.532 13.4506H28.5268C28.125 13.3909 27.6488 13.2969 26.887 13.1272C26.2525 12.9839 25.9239 12.9007 25.7063 12.8452C25.4722 12.7823 25.235 12.7313 24.9957 12.6925C24.4641 12.6018 23.9147 12.5083 23.3432 12.5083C23.1062 12.508 22.8695 12.5246 22.6349 12.5581C22.0573 12.6403 21.6366 12.8058 21.2559 12.9684C20.3982 13.334 18.4096 14.5471 17.5152 15.1017L17.5265 15.113L17.2285 15.2803L16.9742 15.4401L16.9667 15.4321C16.2246 15.9021 14.4757 17.0466 13.1827 18.153L13.1103 18.215C12.7757 18.4993 12.3964 18.8218 12.2061 19.335C12.0759 19.6852 11.9847 20.2393 11.9602 20.4235C11.9292 20.6613 11.9255 20.8414 11.9255 20.8432V21.771C11.9147 21.9506 11.9024 22.0892 11.8926 22.2011L11.8897 22.2363C11.8771 22.3825 11.8724 22.4511 11.8681 22.5136C11.8644 22.5662 11.8611 22.6142 11.854 22.6993C11.8362 22.9084 11.8122 23.1251 11.7826 23.3432L11.6745 23.9918V23.9969C11.3977 24.819 11.1077 25.5277 10.9996 25.6462C10.9577 25.6932 10.9215 25.7265 10.9197 25.7279C10.8615 25.7836 10.7998 25.8354 10.735 25.883L10.7284 25.8873C10.454 26.0846 10.1436 26.2261 9.8147 26.3037C9.58841 26.3579 9.35648 26.3851 9.1238 26.3845Z" fill="#939EA3"/>
<path d="M18.1518 3.54913C18.3591 3.54913 18.572 3.55853 18.7962 3.57733C20.1766 3.69154 21.3243 4.11454 21.9358 4.34014C22.9787 4.7246 23.766 5.1617 24.3535 5.48788C25.0679 5.88456 25.5586 6.21074 26.0699 6.5529C27.1177 7.24796 28.1201 8.00918 29.0709 8.83193C30.0898 9.72493 30.3587 10.5676 30.7854 10.5676C30.8099 10.5676 30.8343 10.5651 30.8583 10.5601C30.8856 10.5542 30.9123 10.5454 30.9377 10.5338C31.0971 10.4633 31.1967 10.2988 31.2757 10.1315C31.3457 9.98625 31.3997 9.84102 31.4637 9.76206C31.4753 9.74484 31.4907 9.73049 31.5087 9.72007C31.5267 9.70965 31.5468 9.70344 31.5675 9.7019H31.5769C31.9609 9.73574 32.2138 11.8512 31.6385 12.5614C31.6108 12.5957 31.5816 12.6291 31.552 12.6606C31.3243 12.9022 31.0547 13.1006 30.7563 13.2462L30.7375 13.256C30.4231 13.413 30.0795 13.4624 29.6236 13.4624H29.477C29.1623 13.4565 28.8484 13.4308 28.537 13.3853C28.106 13.3242 27.6045 13.2227 26.9 13.0638C25.5304 12.7546 25.6183 12.7348 25.0049 12.6286C24.4292 12.5308 23.9009 12.4439 23.3411 12.4439C23.1008 12.4437 22.8609 12.4605 22.623 12.4942C22.051 12.5755 21.6303 12.7372 21.2266 12.9097C20.3397 13.2857 18.291 14.542 17.4017 15.0942L17.4102 15.1022L17.1926 15.2244L16.9834 15.356L16.9754 15.348C16.4683 15.669 14.5474 16.8957 13.136 18.105C12.7929 18.3988 12.3506 18.7461 12.1391 19.3153C12.0104 19.6621 11.9178 20.2083 11.89 20.4188C11.8581 20.6637 11.8543 20.8461 11.8543 20.8461V21.4157C11.8543 21.7696 11.8543 21.764 11.8543 21.7715C11.8426 21.9684 11.8294 22.1155 11.8191 22.2344C11.796 22.5023 11.7993 22.5108 11.7833 22.6969C11.7702 22.8506 11.7486 23.0696 11.7124 23.338L11.6052 23.9786C11.303 24.8759 11.0299 25.5104 10.9449 25.6034C10.904 25.6504 10.8683 25.6819 10.8683 25.6819C10.8127 25.7355 10.7535 25.7851 10.6911 25.8304L10.6854 25.8342C10.4169 26.0262 10.1136 26.1643 9.79243 26.2407C9.57234 26.2937 9.34671 26.3203 9.12033 26.3197C8.7959 26.3173 8.47338 26.2698 8.162 26.1787C8.1103 26.1641 8.06518 26.1505 8.02711 26.1387C7.5298 25.9951 7.07544 25.7314 6.70406 25.3708C6.01497 24.7452 5.36247 24.0804 4.7498 23.3798C3.88744 22.3854 3.10793 21.322 2.41907 20.2003C2.09477 19.673 1.78645 19.1691 1.45933 18.4571C1.38272 18.2916 1.29953 18.1102 1.21493 17.9133C0.960751 17.3396 0.772944 16.7388 0.655157 16.1226C0.603457 15.8368 0.435667 14.7412 0.720957 13.358C0.957697 12.2251 1.44155 11.1584 2.13801 10.2339C3.9776 9.64702 5.69179 8.72259 7.19286 7.50794L8.62354 6.74936H8.62636L10.0364 6.00112C12.0649 4.93093 14.4732 4.26212 14.4732 4.26212C16.0932 3.8128 17.0384 3.55054 18.1509 3.55054M18.1509 3.4133C17.0191 3.4133 16.0472 3.68261 14.4379 4.12958C14.4139 4.13616 11.9916 4.81296 9.97291 5.87798L8.56855 6.62293H8.56479L8.55821 6.62622L7.12753 7.38433L7.11578 7.39091L7.10544 7.39937C5.61768 8.60303 3.91882 9.51916 2.09571 10.1009L2.05388 10.1141L2.02756 10.1493C1.32016 11.0906 0.828072 12.1757 0.586067 13.328C0.308297 14.6736 0.445067 15.7466 0.519327 16.1451C0.639253 16.7717 0.830045 17.3825 1.08803 17.9659C1.17451 18.1675 1.25911 18.3508 1.33384 18.5125C1.66989 19.2438 1.99184 19.7655 2.30157 20.2703C2.99409 21.3989 3.77818 22.4686 4.64593 23.4687C5.26305 24.1705 5.9196 24.8366 6.61241 25.4638C6.99974 25.8385 7.47283 26.1128 7.99045 26.2628C8.02899 26.2746 8.07505 26.2887 8.12722 26.3032C8.45078 26.399 8.78619 26.4488 9.12362 26.4513C9.36108 26.4516 9.59775 26.4237 9.82862 26.3681C10.1657 26.289 10.484 26.1449 10.7658 25.9437L10.7743 25.9376C10.8414 25.8886 10.9051 25.8352 10.9651 25.7778C10.9651 25.7778 11.0046 25.7402 11.0483 25.6922C11.1785 25.5512 11.4934 24.7424 11.7373 24.0186L11.7406 24.0082V23.9974L11.8491 23.3549C11.8788 23.1354 11.9027 22.9174 11.9211 22.7073C11.9281 22.6217 11.9319 22.5728 11.9352 22.5193C11.9394 22.4582 11.9441 22.3886 11.9568 22.2434L11.9596 22.2072C11.9695 22.0953 11.9817 21.9562 11.9925 21.7767C11.9925 21.771 11.9925 21.7706 11.9925 21.7203C11.9925 21.67 11.9925 21.5891 11.9925 21.4129V20.8442C11.9925 20.8442 11.9967 20.6665 12.0273 20.4329C12.0508 20.2511 12.141 19.7035 12.2689 19.3595C12.4531 18.8631 12.8249 18.5468 13.1529 18.2677L13.2262 18.2056C14.4868 17.1246 16.1872 16.0084 16.9543 15.521L16.9618 15.529L17.0558 15.4688L17.2621 15.3391L17.4765 15.2188L17.6386 15.1281L17.624 15.1139C18.549 14.5415 20.4492 13.3862 21.2797 13.0323C21.6557 12.8716 22.0721 12.7076 22.6427 12.6267C22.8741 12.5944 23.1075 12.5787 23.3411 12.5797C23.9051 12.5797 24.4536 12.6737 24.9819 12.7625C25.2193 12.8011 25.4546 12.8516 25.6869 12.9139C25.905 12.9693 26.234 13.0525 26.8694 13.1959C27.6341 13.3684 28.1111 13.4624 28.5168 13.5197H28.5266C28.8402 13.5653 29.1564 13.5911 29.4732 13.5968H29.6222C30.1425 13.5968 30.4832 13.5329 30.7972 13.3759L30.8104 13.3693C31.1252 13.2164 31.4094 13.007 31.6488 12.7517C31.6799 12.7193 31.7113 12.6831 31.7428 12.646C32.2598 12.0096 32.1574 10.4732 31.9073 9.88285C31.8223 9.68216 31.7142 9.57453 31.5859 9.56325C31.5788 9.56278 31.5718 9.56278 31.5647 9.56325C31.5054 9.5634 31.4482 9.58493 31.4035 9.62388H31.3988L31.3654 9.66477L31.3584 9.67323L31.3269 9.7113V9.71647C31.2798 9.79279 31.2389 9.8728 31.2047 9.9557C31.1873 9.9933 31.1699 10.0328 31.1511 10.0718C31.0862 10.2076 31.0035 10.3538 30.8813 10.4078C30.8644 10.4154 30.8468 10.421 30.8287 10.4248C30.8143 10.428 30.7997 10.4298 30.785 10.4299C30.6266 10.4299 30.4532 10.2034 30.213 9.89037C29.9728 9.57735 29.649 9.15576 29.1611 8.72806C28.205 7.90267 27.1978 7.13835 26.1456 6.43963C25.6606 6.11486 25.1586 5.77928 24.4198 5.36897C23.8379 5.04561 23.0403 4.6024 21.9828 4.2123C21.3615 3.98294 20.2057 3.55712 18.807 3.4415C18.5791 3.42223 18.3643 3.4133 18.149 3.4133H18.1509Z" fill="black"/>
<path d="M31.5531 12.6582C31.3255 12.8999 31.0559 13.0983 30.7574 13.2438L30.7386 13.2537C30.3918 13.4271 30.0097 13.4694 29.4781 13.4586C28.767 13.4445 28.156 13.3439 26.9016 13.0619C25.532 12.7527 25.6199 12.7329 25.0065 12.6267C24.192 12.4885 23.4724 12.372 22.6246 12.4923C22.0526 12.5736 21.6319 12.7353 21.2282 12.9078C20.3413 13.2838 18.2926 14.5401 17.4033 15.0923L17.4118 15.1003L17.1942 15.2225L16.985 15.3546L16.977 15.3461C16.4699 15.6671 14.549 16.8938 13.1376 18.1032C12.5792 18.5797 12.3076 18.8782 12.1407 19.3129C11.8959 19.9498 11.9086 20.801 11.7492 20.808C11.6961 20.8104 11.6519 20.7173 11.6082 20.7352C11.5645 20.753 11.5941 20.8527 11.5932 21.0538C11.5932 21.2113 11.6049 21.3429 11.6172 21.6178C11.6298 21.9069 11.6289 21.9938 11.6378 22.4243C11.658 23.4292 11.7276 23.3451 11.7008 23.7323C11.7008 23.7323 11.6233 24.843 10.946 25.5997C10.9211 25.6279 10.8948 25.6542 10.8694 25.6781C10.8167 25.3299 10.7867 24.9647 10.8247 24.6338C10.8797 24.1539 11.0395 23.6872 11.0861 23.1998C11.1801 22.1954 11.1251 21.1854 11.1363 20.1787C11.1533 18.6667 11.3713 17.0522 12.364 15.9125C13.1785 14.9781 14.385 14.5095 15.4585 13.8915C16.64 13.209 17.6905 12.3184 18.8683 11.6289C19.5812 11.2205 20.324 10.8668 21.0905 10.5709C21.7015 10.3294 22.3233 10.1089 22.9705 10.0177C25.2307 9.69909 27.3744 10.9493 29.5763 11.5481C30.13 11.6989 30.7175 11.8174 31.164 12.1746C31.3273 12.3056 31.4601 12.4706 31.5531 12.6582Z" fill="#404142" stroke="black" stroke-width="0.13771" stroke-miterlimit="10"/>
<path d="M9.45503 25.0732C8.89103 25.0732 8.43607 24.888 8.21799 24.7987C7.72573 24.6008 7.29125 24.282 6.95463 23.8719C5.71353 22.4858 4.63493 20.9623 3.73983 19.3312C3.73858 19.3286 3.73716 19.3261 3.7356 19.3237C3.51611 18.928 3.30414 18.5214 3.10486 18.1153C2.83602 17.5659 2.55825 16.9977 2.27907 16.217C2.05676 15.5957 1.7522 14.7445 1.63141 13.7053C1.56138 13.1004 1.43119 11.9753 1.82787 10.7796C2.23254 9.56182 2.96339 8.89442 4.41992 7.56432C4.43872 7.5474 6.18806 5.95927 8.22692 4.86276L9.62329 4.11499L11.0009 3.37991C12.9716 2.3304 15.3249 1.6959 15.3469 1.68791C16.4486 1.39322 17.2448 1.18031 17.9977 1.09101C18.252 1.06022 18.5078 1.04453 18.7638 1.04401C19.0415 1.04462 19.3188 1.0622 19.5943 1.09665C20.9493 1.26115 22.0642 1.74807 22.663 2.00986C23.688 2.4573 24.4598 2.9555 25.0238 3.31928C25.7401 3.78411 26.2289 4.16105 26.6989 4.5253C27.7323 5.31958 28.7146 6.17842 29.6396 7.09667C30.2577 7.71801 30.8485 8.37413 31.396 9.0467C31.6127 9.29204 31.8952 9.69671 31.9981 10.2217C32.0451 10.46 32.1556 11.0174 31.8068 11.5377C31.651 11.7652 31.4391 11.9487 31.1916 12.0702L31.1723 12.0801C30.9058 12.2093 30.6144 12.2681 30.2253 12.2681C30.1148 12.2681 29.9936 12.2638 29.8549 12.2544C29.1574 12.2074 28.5751 12.0834 27.2591 11.7013C26.6293 11.518 26.3026 11.4131 26.0869 11.3436C25.8555 11.2658 25.6202 11.2 25.3819 11.1467C24.7921 11.0113 24.1829 10.8712 23.5362 10.8712C23.3706 10.8711 23.205 10.8802 23.0404 10.8985C22.4651 10.9615 22.0444 11.1208 21.6628 11.2787C20.8027 11.6336 18.7958 12.849 17.9005 13.4027L17.9117 13.4144L17.6175 13.5775L17.3576 13.7406L17.3482 13.7288C16.411 14.2571 14.2843 15.4758 13.5412 16.0718C13.2122 16.3369 12.8668 16.6358 12.5772 17.0912C12.1458 17.7751 12.0725 18.4453 11.9944 19.1555C11.968 19.3778 11.9581 19.6018 11.9648 19.8257C11.9648 20.0367 11.9705 20.3549 11.9526 20.9659C11.9155 22.2556 11.8422 22.8153 11.6264 23.4607C11.4662 23.9415 11.2753 24.3236 10.8655 24.6267L10.858 24.6319C10.588 24.8261 10.2797 24.9604 9.9537 25.0258C9.78945 25.058 9.62241 25.0739 9.45503 25.0732Z" fill="#DBDBDB"/>
<path d="M18.7636 1.11596C19.0384 1.1164 19.3129 1.13367 19.5856 1.16766C20.9312 1.33122 22.0428 1.81673 22.6359 2.07617C23.6516 2.51938 24.4149 3.01147 24.9859 3.37995C25.682 3.8288 26.1609 4.19493 26.6573 4.57986C27.6889 5.37145 28.6688 6.22829 29.591 7.14512C30.0925 7.64943 30.6993 8.29944 31.3427 9.09045C31.5175 9.28738 31.8235 9.68782 31.9311 10.2354C31.9781 10.4657 32.0825 11.0029 31.7497 11.4983C31.6006 11.7161 31.3977 11.8918 31.1608 12.0082L31.1415 12.0176C30.8713 12.1487 30.5832 12.1971 30.226 12.1971C30.1113 12.1971 29.991 12.192 29.8598 12.1835C29.1398 12.1365 28.5283 11.9955 27.2786 11.6327C25.9156 11.2369 26.0058 11.2172 25.3986 11.0776C24.7566 10.93 24.1766 10.7998 23.5374 10.7998C23.3694 10.8 23.2015 10.8092 23.0345 10.8276C22.4649 10.8901 22.0428 11.0452 21.6381 11.2125C20.7489 11.5796 18.6875 12.834 17.7954 13.3853L17.8034 13.3942L17.5853 13.515L17.3757 13.6466L17.3682 13.6372C16.4376 14.1608 14.2577 15.4077 13.5015 16.0159C13.1532 16.2979 12.8111 16.5954 12.5225 17.0499C12.0915 17.7328 12.0116 18.3908 11.9293 19.1437C11.8664 19.7153 11.9251 19.6452 11.887 20.9598C11.8518 22.1818 11.786 22.7712 11.5641 23.4348C11.3949 23.9424 11.2013 24.2907 10.8277 24.5671L10.822 24.5708C10.5593 24.7593 10.2596 24.8898 9.94265 24.9539C9.78267 24.986 9.61984 25.0018 9.45667 25.0009C8.90583 25.0009 8.46309 24.8204 8.24548 24.7316C7.76399 24.5386 7.33899 24.2273 7.00985 23.8264C6.37526 23.1142 5.78119 22.367 5.23043 21.5882C4.7135 20.8503 4.23655 20.0851 3.80163 19.296L3.79881 19.2904C3.59389 18.921 3.38098 18.5168 3.16854 18.083C2.88654 17.5081 2.62005 16.9601 2.34557 16.1921C2.11762 15.567 1.81964 14.7304 1.69932 13.6993C1.63023 13.1 1.50098 11.9847 1.89296 10.8031C2.29199 9.60228 3.03412 8.92313 4.46715 7.61606C4.46715 7.61606 6.20615 6.03075 8.25958 4.92531L9.65266 4.17895H9.65501L11.033 3.44105C13.0197 2.38308 15.3646 1.75657 15.3646 1.75657C16.4742 1.46 17.261 1.24991 18.0055 1.16202C18.257 1.13134 18.5102 1.11564 18.7636 1.11502M18.7636 0.977308C18.5049 0.977606 18.2464 0.993301 17.9895 1.02431C17.2314 1.11361 16.4333 1.32746 15.3288 1.62262C15.3053 1.6292 12.9459 2.26558 10.9682 3.31885L9.59626 4.05346L9.58968 4.05722L8.19472 4.80405C6.1474 5.90479 4.39195 7.49856 4.37362 7.51595C2.95328 8.81268 2.17167 9.52661 1.76136 10.7589C1.35951 11.9692 1.49111 13.1047 1.56161 13.7143C1.68381 14.7615 1.98978 15.6173 2.2135 16.2415C2.4955 17.0259 2.77233 17.5956 3.04211 18.1469C3.24139 18.5534 3.45383 18.9604 3.67332 19.3567L3.67943 19.3679C4.57673 21.003 5.65835 22.53 6.90316 23.9189C7.24666 24.3365 7.68968 24.6608 8.19143 24.8622C8.41562 24.9529 8.87669 25.1409 9.45479 25.1409C9.62733 25.141 9.79944 25.1237 9.9685 25.0892C10.3038 25.0221 10.6209 24.8841 10.8986 24.6846L10.909 24.6775C11.332 24.3636 11.5284 23.9725 11.6929 23.4786C11.911 22.8262 11.9853 22.2622 12.0219 20.9645C12.0398 20.3535 12.0365 20.0325 12.0346 19.8215C12.0277 19.6003 12.0375 19.379 12.0638 19.1593C12.1408 18.4575 12.2132 17.7963 12.6362 17.1242C12.9182 16.6758 13.2608 16.383 13.5851 16.1216C14.3094 15.5398 16.3694 14.3563 17.3296 13.8144L17.3404 13.8285L17.4462 13.7618L17.653 13.6325L17.8678 13.5131L18.021 13.4285L18.0069 13.4135C18.9337 12.8429 20.8551 11.6825 21.6884 11.3385C22.0644 11.1824 22.4808 11.0254 23.0472 10.9625C23.2092 10.9446 23.3721 10.9356 23.535 10.9357C24.1742 10.9357 24.7801 11.0767 25.3657 11.2097C25.6024 11.2621 25.836 11.3273 26.0655 11.4052C26.2817 11.4743 26.6088 11.5796 27.2405 11.7629C28.5622 12.1469 29.1478 12.2719 29.8509 12.3189C29.9919 12.3283 30.1141 12.333 30.2269 12.333C30.6264 12.333 30.9272 12.2733 31.2026 12.1393L31.2139 12.1342L31.2233 12.129C31.4817 12.0023 31.7027 11.8107 31.8649 11.573C32.23 11.0301 32.1158 10.453 32.067 10.2067C31.9626 9.66996 31.6722 9.25495 31.448 9.00115C30.8995 8.32764 30.3073 7.67058 29.6888 7.0483C28.7616 6.12771 27.777 5.26682 26.7409 4.47082C26.2681 4.10563 25.7793 3.72775 25.0607 3.26433C24.4967 2.89914 23.7202 2.39953 22.6914 1.94833C22.0879 1.68795 20.9674 1.1968 19.6016 1.02995C19.3235 0.995103 19.0435 0.977366 18.7631 0.976837L18.7636 0.977308Z" fill="black"/>
<path d="M18.0038 1.16153C17.9305 1.22478 17.8506 1.27993 17.7655 1.32603C17.4534 1.49758 17.0962 1.56385 16.7484 1.63999C14.4614 2.1443 12.3304 3.1783 10.2432 4.2405C8.43179 5.16593 6.61148 6.12943 5.09996 7.49196C3.58844 8.85449 2.3937 10.6701 2.16481 12.692C2.02804 13.914 2.24565 15.1487 2.59439 16.3261C2.89823 17.3518 3.30054 18.3458 3.79571 19.2941C3.59079 18.9247 3.37788 18.5205 3.16544 18.0867C2.88344 17.5119 2.61695 16.9639 2.34247 16.1959C2.11781 15.567 1.81983 14.7304 1.69951 13.6992C1.63042 13.1 1.50117 11.9847 1.89315 10.8031C2.29218 9.60226 3.03431 8.92311 4.46734 7.61604C4.46734 7.61604 6.20634 6.03073 8.25977 4.92529L9.65285 4.17893H9.6552L11.0332 3.44103C13.0199 2.38306 15.3648 1.75655 15.3648 1.75655C16.4744 1.45951 17.2612 1.24942 18.0038 1.16153Z" fill="white"/>
<path d="M10.7659 24.5793C10.5883 23.1519 10.4153 21.7391 10.2518 20.3799C9.79115 16.54 9.72065 15.7851 10.2489 14.801C10.6118 14.1256 11.2613 13.5846 12.4866 12.7085C12.2431 12.3132 11.9809 11.9227 11.7059 11.5471C11.246 10.9253 10.7481 10.3324 10.2151 9.77195C8.82248 8.28017 7.05998 6.7146 6.3672 6.11065L6.31738 6.06741L6.57165 5.87565L6.60455 5.90338C7.37253 6.56138 8.13957 7.24335 8.88452 7.93425C9.58952 8.58849 9.94296 8.91608 10.381 9.35976C10.6569 9.63894 10.8848 9.87958 11.1053 10.1118C11.5635 10.5949 11.9593 11.0123 12.5858 11.5636C12.7968 11.7516 13.0139 11.933 13.2306 12.1079C13.8162 11.7422 14.4178 11.3841 15.0166 11.0438C15.7348 10.6363 16.4736 10.242 17.2115 9.87112C17.0757 9.59946 16.9295 9.32968 16.7744 9.06789C16.765 9.05238 16.7237 8.98188 16.6677 8.8907C16.4905 8.5993 16.3556 8.40002 16.2255 8.20732C16.1949 8.16032 16.1653 8.11849 16.1352 8.07384C15.8015 7.57658 15.5327 7.13384 15.2963 6.74092C15.2652 6.69016 15.2375 6.64316 15.2103 6.59992L15.1426 6.48665C14.6162 5.61433 13.8477 4.3035 12.8584 2.59035L12.8292 2.53395L13.1075 2.42303L13.1305 2.46298C13.4539 3.02698 14.5908 4.99158 15.645 6.53459C15.6732 6.57595 16.3392 7.54744 17.008 8.2656C17.3732 8.65653 17.7616 9.02506 18.1713 9.36916C19.4144 8.75158 19.9009 8.61716 20.4578 8.57016C20.62 8.55606 20.776 8.54901 20.9344 8.54901C21.6135 8.54901 22.2682 8.68108 23.259 8.8813C24.3517 9.10438 25.4263 9.40853 26.4738 9.79122C28.1003 10.3773 29.6715 11.1069 31.1686 11.9716L31.2561 12.0218L31.1653 12.066C30.9021 12.1934 30.6126 12.2503 30.2253 12.2503C30.1149 12.2503 29.9936 12.246 29.855 12.2366C29.1584 12.1896 28.5771 12.066 27.2625 11.6839C26.6313 11.5006 26.3051 11.3953 26.0875 11.3262C25.8562 11.2479 25.6208 11.1822 25.3825 11.1293C24.7945 10.994 24.184 10.853 23.5358 10.853C23.3699 10.8529 23.204 10.862 23.039 10.8802C22.4624 10.9432 22.0398 11.1035 21.6568 11.2619C20.7892 11.62 18.7653 12.8481 17.8761 13.3966L17.8864 13.4079C17.8864 13.4079 17.7454 13.4845 17.6101 13.5616L17.4023 13.6913L17.3619 13.7167L17.3535 13.7059C16.421 14.2308 14.2754 15.4604 13.5333 16.0559C13.2043 16.3209 12.857 16.6199 12.566 17.0786C12.1327 17.7652 12.0589 18.4378 11.9809 19.1494C11.9544 19.3724 11.9445 19.597 11.9513 19.8215C11.9513 20.0325 11.9564 20.3507 11.9391 20.9617C11.9015 22.25 11.8281 22.8088 11.6133 23.4527C11.454 23.9307 11.2641 24.3105 10.8581 24.6108L10.8487 24.6174L10.7777 24.6606L10.7659 24.5793Z" fill="#404142"/>
<path d="M13.0846 2.49118C13.2693 2.81454 14.4866 4.93518 15.6014 6.56655C15.6381 6.6206 16.3027 7.58786 16.9705 8.3032C17.3451 8.70438 17.7441 9.08204 18.1653 9.43402C19.4568 8.79012 19.9264 8.67168 20.464 8.62374C20.6262 8.60964 20.7818 8.60259 20.934 8.60259C21.6076 8.60259 22.25 8.73278 23.2483 8.93394C24.3385 9.15666 25.4105 9.46017 26.4556 9.84198C28.0787 10.4264 29.6464 11.1545 31.1401 12.0176C30.8698 12.1487 30.5822 12.1971 30.225 12.1971C30.1103 12.1971 29.99 12.192 29.8584 12.1835C29.1384 12.1365 28.5269 11.9955 27.2772 11.6327C25.9142 11.2369 26.0044 11.2167 25.3972 11.0771C24.7547 10.9296 24.1752 10.7998 23.5355 10.7998C23.3675 10.7997 23.1996 10.809 23.0326 10.8276C22.463 10.8901 22.0409 11.0456 21.6362 11.213C20.747 11.5796 18.6856 12.834 17.7935 13.3853L17.8015 13.3942L17.5834 13.5155L17.3738 13.6466L17.3663 13.6372C16.4357 14.1608 14.2558 15.4077 13.4991 16.0164C13.1508 16.296 12.8092 16.5959 12.5206 17.0504C12.0896 17.7328 12.0102 18.3908 11.9274 19.1437C11.8645 19.7153 11.9232 19.6452 11.8851 20.9598C11.8494 22.1818 11.7841 22.7712 11.5622 23.4348C11.393 23.9424 11.1994 24.2907 10.8258 24.5671C10.8241 24.5687 10.8222 24.57 10.8201 24.5708C10.5884 22.7049 10.4112 21.2437 10.3064 20.3714C9.84909 16.5747 9.77624 15.7926 10.2961 14.8254C10.6608 14.1462 11.3376 13.5935 12.5582 12.7221C12.3631 12.403 12.0938 11.9856 11.7488 11.5147C11.2877 10.8911 10.7884 10.2967 10.2538 9.73482C8.7695 8.14528 6.90548 6.50874 6.39976 6.06882L6.56755 5.94286C7.20252 6.48524 7.97755 7.16486 8.84564 7.97185C9.55064 8.62609 9.90361 8.95274 10.3407 9.39595C11.1966 10.2622 11.6215 10.7876 12.5497 11.6049C12.8317 11.8536 13.0709 12.0491 13.2265 12.1741C13.803 11.8138 14.409 11.4527 15.0445 11.0908C15.8115 10.656 16.5602 10.2589 17.2845 9.89603C17.1562 9.63706 17.0025 9.34942 16.822 9.04157C16.8126 9.02606 16.7708 8.95556 16.7149 8.86344C16.4958 8.50389 16.3417 8.2844 16.1809 8.0447C15.8477 7.54838 15.5854 7.1141 15.3425 6.71319C15.2875 6.61919 15.2395 6.5407 15.1897 6.45845C14.7911 5.79716 14.1172 4.65929 12.906 2.56262L13.0841 2.49165M13.1311 2.3577L13.0446 2.39248L12.9558 2.42773L12.867 2.46345L12.7523 2.51045L12.8139 2.61714C13.8037 4.33029 14.5721 5.64159 15.099 6.51438L15.1667 6.62765C15.1939 6.67465 15.2217 6.72165 15.2517 6.76865C15.4891 7.1611 15.7579 7.60619 16.0926 8.10486L16.1828 8.23787C16.3125 8.4301 16.4474 8.62891 16.6241 8.91984C16.6796 9.01102 16.721 9.08105 16.7304 9.09656C16.8751 9.3419 17.0124 9.59429 17.1416 9.84856C16.4183 10.2128 15.6959 10.6006 14.9923 10.9982C14.402 11.3328 13.8112 11.6844 13.235 12.0435C13.0282 11.8757 12.8218 11.7018 12.6212 11.5265C12.1049 11.0686 11.612 10.5849 11.1444 10.0774C10.9235 9.8448 10.6956 9.60416 10.4192 9.32545C9.98022 8.88083 9.62631 8.5523 8.92084 7.89853C8.17542 7.20669 7.40791 6.52331 6.63899 5.86625L6.57413 5.81032L6.50551 5.86202L6.37109 5.96307L6.33819 5.98798L6.23291 6.06741L6.33208 6.15389C7.02439 6.75737 8.78501 8.32153 10.1762 9.81143C10.7081 10.3702 11.2048 10.9615 11.6633 11.5819C11.9274 11.9429 12.1803 12.3175 12.4153 12.6972C11.2097 13.5578 10.5663 14.0959 10.2021 14.7751C9.91583 15.3085 9.81807 15.7706 9.82606 16.5404C9.83687 17.3455 9.97458 18.5262 10.1983 20.386C10.3619 21.7461 10.5348 23.159 10.7125 24.5859L10.7332 24.7513L10.8742 24.6634L10.8892 24.6536C11.3052 24.3448 11.5002 23.957 11.6614 23.4706C11.8781 22.8215 11.9519 22.2598 11.9904 20.965C12.0083 20.354 12.005 20.0339 12.0026 19.8229C11.9959 19.6006 12.0058 19.3782 12.0322 19.1574C12.1093 18.4524 12.1826 17.785 12.6094 17.1091C12.8961 16.6556 13.2383 16.3618 13.5649 16.0996C14.2939 15.5125 16.3873 14.3136 17.3381 13.7749L17.3484 13.7876L17.4293 13.7369L17.6365 13.6071C17.7728 13.531 17.8518 13.4878 17.8518 13.4878L17.9693 13.4224L17.9571 13.4088C18.8703 12.8448 20.8288 11.6609 21.6752 11.3117C22.055 11.1547 22.4742 10.9963 23.0429 10.9357C23.206 10.9176 23.37 10.9085 23.5341 10.9084C24.1761 10.9084 24.7838 11.0494 25.3718 11.1834C25.6087 11.2362 25.8426 11.3014 26.0726 11.3789C26.2883 11.4484 26.6149 11.5532 27.2476 11.737C28.5664 12.1205 29.1506 12.2446 29.8518 12.2916C29.9928 12.301 30.1136 12.3057 30.2255 12.3057C30.6198 12.3057 30.9164 12.247 31.1876 12.1177L31.3685 12.0298L31.1941 11.9288C29.6952 11.0632 28.1224 10.3325 26.4941 9.74516C25.4442 9.36153 24.3671 9.0566 23.2718 8.83289C22.2778 8.6322 21.6207 8.49966 20.9364 8.49966C20.7766 8.49966 20.6191 8.50671 20.4551 8.52128C19.8963 8.5711 19.4084 8.70317 18.1813 9.31088C17.7829 8.97468 17.4048 8.61513 17.049 8.23411C16.3807 7.5183 15.718 6.55057 15.6898 6.50968C14.6365 4.96432 13.5001 3.00395 13.1772 2.43995L13.1302 2.35911L13.1311 2.3577Z" fill="black"/>
<path d="M18.8414 7.18134C17.7167 7.18134 16.6131 6.74941 15.8146 5.99647C15.0856 5.30698 14.7045 4.42526 14.7693 3.57268C14.8267 2.81786 15.2229 2.14999 15.886 1.69268C16.4529 1.30117 17.1626 1.0939 17.9381 1.0939C19.0717 1.0939 20.1795 1.52912 20.9785 2.2877C21.6896 2.96356 22.067 3.83259 22.0125 4.67295C21.9655 5.41179 21.5928 6.07308 20.9625 6.53556C20.3858 6.95762 19.6522 7.18134 18.8414 7.18134Z" fill="#3F3F3F"/>
<path d="M17.938 1.16153C19.0068 1.16153 20.1226 1.56855 20.931 2.33653C22.2893 3.62668 22.294 5.47472 20.9225 6.47911C20.3411 6.9054 19.6041 7.11314 18.8413 7.11314C17.7834 7.11314 16.6751 6.71364 15.862 5.9466C14.4595 4.62402 14.4948 2.73744 15.925 1.74856C16.4979 1.35235 17.2071 1.162 17.938 1.162M17.938 1.02429C17.1484 1.02429 16.4251 1.23532 15.847 1.63529C15.1664 2.10529 14.7594 2.79196 14.7006 3.56793C14.6344 4.44166 15.0231 5.345 15.7675 6.04671C16.5788 6.81187 17.6992 7.25038 18.8413 7.25038C19.6671 7.25038 20.4149 7.02196 21.0033 6.59238C21.6501 6.11768 22.0326 5.43806 22.081 4.67901C22.136 3.81797 21.752 2.92873 21.0245 2.23924C20.2133 1.46844 19.0881 1.02664 17.9371 1.02664L17.938 1.02429Z" fill="black"/>
<path d="M18.8795 6.89929C17.8413 6.89993 16.8412 6.5077 16.0802 5.80137C15.4053 5.16405 15.0528 4.34672 15.1125 3.55806C15.1656 2.8634 15.5303 2.24911 16.1394 1.82799C16.6597 1.46891 17.3111 1.27903 18.0237 1.27903C19.0671 1.27762 20.072 1.67296 20.8347 2.38494C21.4927 3.01098 21.8429 3.81609 21.7931 4.59394C21.7498 5.27403 21.4067 5.88221 20.8277 6.30662C20.2975 6.69437 19.624 6.89929 18.8795 6.89929Z" fill="#646566"/>
<path d="M18.0232 1.34769C19.0102 1.34769 20.0405 1.72369 20.7873 2.4348C22.0398 3.62578 22.0459 5.32765 20.7873 6.25026C20.2548 6.64083 19.5794 6.83071 18.88 6.83071C17.9038 6.83071 16.8797 6.46082 16.1282 5.74971C14.8347 4.52771 14.8643 2.79106 16.1789 1.88302C16.7039 1.52018 17.3539 1.34581 18.0237 1.34581M18.0237 1.2081C17.2971 1.2081 16.632 1.40221 16.1004 1.76975C15.4739 2.20262 15.0984 2.83524 15.0439 3.55105C14.9823 4.36039 15.3428 5.19605 16.0332 5.84982C16.8071 6.5679 17.8239 6.96681 18.8796 6.96654C19.6386 6.96654 20.3267 6.75645 20.8681 6.3593C21.4641 5.92267 21.8171 5.29616 21.8617 4.59586C21.9125 3.79686 21.5557 2.97342 20.8822 2.33328C20.1066 1.60925 19.0847 1.20704 18.0237 1.2081Z" fill="black"/>
<g style="mix-blend-mode:multiply" opacity="0.44">
<path d="M31.6394 12.5591C31.6008 12.6061 31.5529 12.6582 31.5529 12.6582C31.3252 12.8999 31.0556 13.0983 30.7572 13.2438L30.7384 13.2537C30.3915 13.4271 30.0094 13.4694 29.4778 13.4586C28.7667 13.4445 28.1557 13.344 26.9013 13.062C25.5317 12.7527 25.6196 12.733 25.0062 12.6267C24.1917 12.4886 23.4722 12.372 22.6243 12.4923C22.0523 12.5736 21.6316 12.7353 21.2279 12.9078C20.341 13.2838 18.2923 14.5401 17.4031 15.0924L17.4115 15.1003L17.1939 15.2225L16.9848 15.3546L16.9768 15.3462C16.4696 15.6672 14.5487 16.8939 13.1373 18.1032C12.7397 18.4425 12.3496 18.7654 12.1405 19.313C11.9313 19.8605 11.8585 20.7159 11.8556 20.77C11.8491 20.8588 11.842 20.9904 11.8204 21.2329C11.7964 21.4975 11.7856 21.5549 11.7847 21.6954C11.7847 21.9435 11.7847 22.0159 11.7847 22.0159C11.7847 22.0568 11.7847 22.0831 11.7847 22.1226C11.781 22.2068 11.769 22.2904 11.749 22.3722C11.7147 22.5245 11.691 22.6791 11.678 22.8347C11.6671 22.9503 11.6659 23.0666 11.6742 23.1825C11.6846 23.3094 11.701 23.378 11.7062 23.5265C11.7081 23.5949 11.7064 23.6633 11.701 23.7314C11.701 23.7314 11.6235 24.842 10.9462 25.5987C10.9213 25.6269 10.895 25.6533 10.8696 25.6772C10.8141 25.7308 10.7549 25.7805 10.6924 25.8257L10.6868 25.8295C10.4182 26.0215 10.1149 26.1596 9.79375 26.2361C9.00368 26.4278 8.32171 26.2215 8.02843 26.1327C7.53113 25.989 7.07677 25.7253 6.70538 25.3647C6.01599 24.7411 5.36302 24.0784 4.74971 23.3799C3.88736 22.3854 3.10784 21.322 2.41898 20.2003C2.09468 19.673 1.78636 19.1691 1.45924 18.4571C1.38263 18.2916 1.29944 18.1102 1.21484 17.9133C1.28158 18.0073 1.34879 18.1013 1.41788 18.1911C2.09359 19.0828 2.84679 19.9131 3.66871 20.6722C4.62113 21.5521 5.63206 22.3664 6.69457 23.1096C7.45926 23.6506 8.36448 24.1906 9.27581 23.973C10.4207 23.6995 10.9678 22.375 11.0571 21.2C11.1464 20.025 10.9711 18.7945 11.4308 17.7112C11.7551 16.9479 12.3632 16.3449 12.9841 15.795C15.3675 13.6878 18.1394 12.0662 21.1443 11.0212C21.9832 10.7298 22.8522 10.4826 23.7405 10.4817C25.1421 10.4817 26.4698 11.0894 27.8573 11.2877C28.9317 11.4414 30.1833 11.236 30.9376 10.5319C31.0666 10.4125 31.1802 10.2773 31.2756 10.1296C31.3457 10.0215 31.4053 9.90691 31.4537 9.78746C31.4575 9.77853 31.4608 9.7696 31.4645 9.7602C31.4786 9.59758 31.4926 9.43528 31.5063 9.27328C31.6976 9.56965 31.8417 9.89389 31.9336 10.2344C32.1841 11.1702 31.9989 12.1191 31.6394 12.5591Z" fill="#333D6A"/>
</g>
<path d="M13.9299 15.1492C13.4739 15.1524 13.0333 14.9847 12.6947 14.6792C12.6221 14.6122 12.5564 14.5381 12.4987 14.4578C12.4033 14.3342 12.3346 14.192 12.2969 14.0404C12.2593 13.8888 12.2535 13.7311 12.28 13.5771C12.3065 13.4232 12.3647 13.2764 12.4509 13.1462C12.5371 13.0159 12.6494 12.9049 12.7807 12.8203C13.0599 12.6313 13.3906 12.5328 13.7278 12.5383C14.1861 12.5346 14.629 12.7034 14.9686 13.0112C15.0951 13.1273 15.1988 13.2662 15.2741 13.4205C15.5204 13.9286 15.3737 14.5015 14.9084 14.8451C14.6228 15.0477 14.2801 15.1542 13.9299 15.1492Z" fill="#646566"/>
<path d="M13.7266 12.607C14.1674 12.6035 14.5934 12.7655 14.9204 13.061C15.0406 13.1713 15.1392 13.3032 15.2109 13.4497C15.4374 13.9169 15.3209 14.4527 14.8664 14.7892C14.5928 14.9836 14.2643 15.0855 13.9287 15.0801C13.49 15.0837 13.0657 14.9229 12.7396 14.6294C12.6699 14.5656 12.607 14.4949 12.5516 14.4184C12.1822 13.9042 12.279 13.2537 12.8172 12.8772C13.0856 12.6963 13.403 12.602 13.7266 12.607ZM13.7266 12.4693C13.375 12.4635 13.0303 12.5666 12.7396 12.7644C12.601 12.8545 12.4825 12.9722 12.3916 13.1102C12.3006 13.2482 12.2392 13.4035 12.2112 13.5663C12.1832 13.7292 12.1891 13.8961 12.2287 14.0566C12.2683 14.217 12.3406 14.3676 12.4412 14.4987C12.5016 14.5824 12.5701 14.66 12.6456 14.7305C12.9972 15.0472 13.4545 15.2211 13.9278 15.2178C14.2932 15.223 14.6507 15.1117 14.9486 14.9001C15.4412 14.5359 15.5967 13.9286 15.3354 13.3895C15.2562 13.2278 15.1475 13.0823 15.0149 12.9604C14.6624 12.6407 14.2025 12.4654 13.7266 12.4693Z" fill="black"/>
<path d="M13.9468 14.8136C13.5803 14.8206 13.2242 14.692 12.9466 14.4527C12.6496 14.1862 12.4935 13.8478 12.5072 13.499C12.5255 13.0215 12.8437 12.7184 12.941 12.6366L12.9546 12.6253L12.972 12.622C13.1397 12.5891 13.3101 12.5726 13.481 12.5727C13.9199 12.5651 14.3512 12.6883 14.7199 12.9266C14.9191 13.0587 15.0946 13.2232 15.2393 13.4135L15.2539 13.4328V13.4572C15.2505 13.7614 15.1599 14.0583 14.993 14.3126C14.9487 14.3799 14.898 14.4429 14.8417 14.5006C14.6429 14.6971 14.3087 14.8136 13.9468 14.8136Z" fill="#646566"/>
<path d="M13.4808 12.6417C13.9061 12.6355 14.3237 12.7547 14.6817 12.9844C14.8744 13.1117 15.0442 13.2706 15.1841 13.4544C15.1812 13.7455 15.0947 14.0297 14.935 14.2731C14.8939 14.3369 14.8467 14.3966 14.794 14.4512C14.606 14.6359 14.2878 14.744 13.948 14.744C13.5987 14.75 13.2593 14.6278 12.9939 14.4005C12.9159 14.3304 12.5573 14.0094 12.577 13.5009C12.5954 13.0262 12.9286 12.7371 12.9864 12.6887C13.1498 12.6571 13.3158 12.6414 13.4822 12.6417M13.4822 12.504C13.307 12.504 13.1321 12.5209 12.9601 12.5543L12.9253 12.5614L12.898 12.5839C12.7956 12.6699 12.4591 12.9905 12.4393 13.4962C12.4252 13.8661 12.5892 14.2238 12.9023 14.5039C13.1922 14.7548 13.5646 14.8897 13.948 14.8827C14.3273 14.8827 14.6798 14.7581 14.8908 14.5499C14.9505 14.4891 15.004 14.4225 15.0506 14.3511C15.2251 14.0857 15.3197 13.7757 15.3232 13.4581V13.4111L15.2941 13.3731C15.1451 13.1762 14.9638 13.0062 14.7578 12.8702C14.3772 12.6262 13.9334 12.4992 13.4813 12.505L13.4822 12.504Z" fill="black"/>
<g style="mix-blend-mode:multiply" opacity="0.58">
<path d="M14.8675 14.7892C14.2697 15.2315 13.3165 15.1652 12.7417 14.6294C12.672 14.5656 12.6091 14.4949 12.5537 14.4184C12.6644 14.4607 12.7797 14.4897 12.8973 14.5049C13.0842 14.5292 13.2742 14.5162 13.4561 14.4668C13.5501 14.4414 13.6385 14.4066 13.7325 14.3897C13.8265 14.3728 13.9101 14.3723 13.9985 14.3592C14.4144 14.2943 14.7312 13.9564 14.9742 13.6119C15.0212 13.5437 15.0767 13.4709 15.1585 13.4521C15.1758 13.4487 15.1935 13.4479 15.2111 13.4497C15.4386 13.9169 15.322 14.4527 14.8675 14.7892Z" fill="#333D6A"/>
</g>
<path d="M14.0348 14.4451C13.9953 14.4451 13.9554 14.4451 13.9159 14.4409C13.5735 14.4184 13.2488 14.2805 12.9947 14.0499C12.7409 13.8149 12.6126 13.515 12.6342 13.2095C12.6462 13.0626 12.6916 12.9203 12.767 12.7936C12.8423 12.6668 12.9456 12.559 13.0689 12.4782C13.2073 12.3822 13.3632 12.3142 13.5277 12.278C13.6394 12.2524 13.7537 12.2396 13.8684 12.2399C14.2538 12.2374 14.626 12.3798 14.9113 12.6389C15.159 12.8716 15.2873 13.1653 15.2681 13.4666C15.2581 13.61 15.2163 13.7493 15.1457 13.8745C15.075 13.9996 14.9773 14.1074 14.8596 14.1899C14.6187 14.3603 14.3298 14.4497 14.0348 14.4451Z" fill="#646566"/>
<path d="M13.8676 12.3099C14.2351 12.3064 14.5905 12.4405 14.864 12.6859C15.3293 13.1221 15.311 13.7669 14.817 14.1312C14.589 14.2945 14.3149 14.3809 14.0345 14.3779C13.9964 14.3779 13.9583 14.3779 13.9207 14.3737C13.5942 14.352 13.2844 14.2211 13.0414 14.0019C12.561 13.555 12.5925 12.8965 13.1067 12.5369C13.2381 12.447 13.3855 12.3832 13.541 12.3489C13.648 12.3236 13.7576 12.3105 13.8676 12.3099ZM13.8676 12.1722C13.7476 12.1721 13.6279 12.1855 13.5109 12.2122C13.338 12.2507 13.1743 12.3224 13.0287 12.4232C12.8974 12.5095 12.7874 12.6246 12.707 12.7597C12.6266 12.8947 12.578 13.0463 12.5648 13.2029C12.5427 13.5253 12.6818 13.8515 12.9474 14.0987C13.2129 14.3401 13.5523 14.4844 13.9104 14.5081C13.9513 14.5109 13.9931 14.5128 14.0345 14.5128C14.3448 14.5174 14.6485 14.4231 14.9016 14.2435C15.0274 14.155 15.1319 14.0395 15.2074 13.9056C15.283 13.7716 15.3277 13.6224 15.3383 13.4689C15.3571 13.147 15.2222 12.834 14.9594 12.5877C14.6612 12.3157 14.2713 12.1662 13.8676 12.1689V12.1722Z" fill="black"/>
<g opacity="0.44">
<path d="M10.3626 6.34097C10.1704 6.16648 9.91956 6.07068 9.65996 6.0726C9.46691 6.06987 9.2777 6.12665 9.11805 6.23522C9.01419 6.30654 8.93075 6.40375 8.876 6.51722C8.79072 6.64016 8.74185 6.78465 8.735 6.93411C8.72513 7.17569 8.83182 7.40881 9.03439 7.59211C9.22126 7.75353 9.461 7.84053 9.7079 7.83651C9.95324 7.83651 10.1821 7.75473 10.3189 7.61843C10.3578 7.57866 10.3927 7.53522 10.4232 7.48871C10.51 7.35768 10.5661 7.20875 10.5873 7.05302C10.5982 7.01084 10.6051 6.96772 10.608 6.92424C10.6124 6.81497 10.5927 6.70607 10.5503 6.60527C10.5079 6.50446 10.4438 6.41423 10.3626 6.34097ZM9.33566 6.27329C9.34835 6.26765 9.36104 6.26295 9.3742 6.25825C9.36108 6.26288 9.34821 6.26821 9.33566 6.27423V6.27329ZM9.39911 6.24979C9.41227 6.24556 9.4259 6.2418 9.43953 6.23851C9.4259 6.24274 9.41227 6.24697 9.39911 6.25073V6.24979ZM10.1436 6.34661C10.1351 6.34097 10.1262 6.33627 10.1173 6.3311C10.1262 6.33721 10.1351 6.34097 10.1436 6.34755V6.34661ZM9.92645 6.24979C9.91658 6.24697 9.90718 6.24368 9.89731 6.24133C9.90718 6.24697 9.91658 6.24697 9.92645 6.25073V6.24979ZM9.66419 6.21031C9.64163 6.21031 9.61954 6.21031 9.59745 6.21031C9.61813 6.21031 9.63881 6.21031 9.65996 6.21031H9.66419ZM9.46397 6.23193C9.47854 6.22864 9.49358 6.22629 9.50815 6.22347C9.49358 6.22723 9.47854 6.22958 9.46397 6.23287V6.23193ZM9.53024 6.21971C9.55092 6.21689 9.5716 6.21454 9.59228 6.21266C9.5716 6.21517 9.55092 6.21783 9.53024 6.22065V6.21971ZM9.67124 7.6941H9.71213H9.70931H9.67124ZM9.12792 7.48636C9.14821 7.50433 9.16939 7.52128 9.19137 7.53712C9.16925 7.52159 9.14792 7.50497 9.12745 7.4873L9.12792 7.48636ZM9.21393 7.55169C9.22897 7.56156 9.24401 7.5719 9.26093 7.58083C9.24354 7.57284 9.2285 7.56297 9.21487 7.55263L9.21393 7.55169ZM9.28772 7.5954C9.30229 7.60245 9.31592 7.61044 9.33049 7.61702C9.31545 7.60997 9.30182 7.60339 9.28725 7.59634L9.28772 7.5954ZM9.36245 7.62924C9.37655 7.63488 9.39018 7.64099 9.40475 7.64569C9.38971 7.64193 9.37608 7.63582 9.36198 7.63018L9.36245 7.62924ZM9.59369 7.68799C9.60732 7.68799 9.62142 7.69175 9.63505 7.69269C9.62095 7.69269 9.60685 7.69034 9.59322 7.68893L9.59369 7.68799ZM9.78874 7.69222C9.77699 7.69222 9.76524 7.69222 9.75349 7.69222C9.76477 7.6941 9.77887 7.6941 9.78827 7.69316L9.78874 7.69222ZM10.2254 7.51691C10.2357 7.50699 10.2454 7.49648 10.2545 7.48542C10.2452 7.49617 10.2354 7.50637 10.2249 7.51597L10.2254 7.51691ZM9.90295 7.67483C9.91376 7.67483 9.92457 7.67107 9.93491 7.66825C9.9241 7.67201 9.91329 7.67342 9.90248 7.67577L9.90295 7.67483ZM10.1615 7.56861C10.1671 7.56485 10.1737 7.56109 10.1788 7.55686C10.1732 7.56297 10.1666 7.56579 10.161 7.56955L10.1615 7.56861Z" fill="black"/>
<path d="M13.3117 6.01195C13.3507 5.97225 13.3856 5.9288 13.4161 5.88223C13.5028 5.75137 13.5587 5.60257 13.5796 5.44701C13.5908 5.40472 13.5977 5.36143 13.6003 5.31776C13.6035 5.20908 13.5829 5.10102 13.5397 5.00121C13.4966 4.9014 13.4321 4.81227 13.3507 4.74013C13.158 4.56492 12.9062 4.4689 12.6457 4.47129C12.4528 4.46846 12.2636 4.52543 12.1043 4.63438C12.0002 4.70555 11.9166 4.80279 11.8618 4.91638C11.7763 5.03923 11.7275 5.18378 11.7208 5.33327C11.7114 5.57485 11.8176 5.80797 12.0206 5.99127C12.2073 6.15317 12.4471 6.24038 12.6942 6.23614C12.9442 6.23238 13.1731 6.15295 13.3117 6.01195ZM12.6613 6.09091C12.6747 6.09162 12.6882 6.09162 12.7017 6.09091H12.6993C12.6866 6.09467 12.6739 6.09373 12.6613 6.09279V6.09091ZM13.2149 5.91607C13.2253 5.90573 13.2351 5.89492 13.2441 5.88458C13.2351 5.89492 13.2253 5.90573 13.2149 5.91795V5.91607ZM13.0321 6.03216C13.0412 6.02905 13.0502 6.02544 13.0589 6.02135C13.0495 6.0255 13.04 6.02911 13.0302 6.03216H13.0321ZM13.0946 6.00302C13.1021 5.99879 13.1106 5.9955 13.1176 5.99127C13.1087 5.9955 13.1002 5.99879 13.0927 6.00302H13.0946ZM13.1529 5.96777C13.1585 5.96354 13.1651 5.96025 13.1707 5.95602C13.1627 5.96025 13.1566 5.96495 13.151 5.96777H13.1529ZM13.0664 4.70723L13.0377 4.6936C13.0457 4.69595 13.0556 4.70206 13.065 4.70723H13.0664ZM12.994 4.6748C12.9841 4.67104 12.9743 4.66681 12.9639 4.66352L12.994 4.6748ZM12.6556 4.60947C12.6335 4.60947 12.611 4.60947 12.5889 4.60947C12.6096 4.60947 12.6307 4.60712 12.6514 4.60712L12.6556 4.60947ZM12.4559 4.63109C12.4704 4.6278 12.485 4.62498 12.5 4.62263C12.4836 4.62498 12.469 4.6278 12.4545 4.63109H12.4559ZM12.5217 4.61887C12.5423 4.61542 12.563 4.61308 12.5837 4.61182C12.5624 4.61339 12.5413 4.61574 12.5203 4.61887H12.5217ZM12.1828 5.93487C12.1607 5.91889 12.1396 5.90197 12.1189 5.88364C12.1381 5.90338 12.1593 5.9203 12.1814 5.93628L12.1828 5.93487ZM12.626 6.08997C12.6124 6.08997 12.5987 6.08715 12.5846 6.08527C12.5987 6.08856 12.611 6.09044 12.6246 6.09138L12.626 6.08997ZM12.5489 6.08104C12.5348 6.07869 12.5207 6.07587 12.5071 6.07258C12.5193 6.07728 12.5334 6.0801 12.5475 6.08245L12.5489 6.08104ZM12.4718 6.06553C12.4577 6.06224 12.4436 6.05754 12.4295 6.05331C12.4422 6.05895 12.4577 6.06365 12.4704 6.06694L12.4718 6.06553ZM12.3957 6.04344C12.3816 6.03874 12.3675 6.03263 12.3534 6.02699C12.3661 6.03404 12.3802 6.04015 12.3943 6.04485L12.3957 6.04344ZM12.3219 6.0143C12.3073 6.00772 12.2932 6.0002 12.2791 5.99268C12.2918 6.00161 12.3059 6.00913 12.3205 6.01571L12.3219 6.0143ZM12.2505 5.97811C12.235 5.96918 12.2204 5.95931 12.2035 5.94944C12.219 5.96072 12.2336 5.97059 12.2491 5.97952L12.2505 5.97811Z" fill="black"/>
<path d="M13.78 7.65934C13.5879 7.48468 13.3371 7.3887 13.0774 7.3905C12.8845 7.38786 12.6955 7.44464 12.536 7.55312C12.432 7.62444 12.3484 7.72164 12.2934 7.83512C12.208 7.95797 12.1591 8.10252 12.1524 8.25201C12.143 8.49312 12.2493 8.72624 12.4523 8.91001C12.6388 9.07171 12.8785 9.15875 13.1253 9.15441C13.3707 9.15441 13.5996 9.0731 13.7363 8.93633C13.7752 8.89653 13.8101 8.85309 13.8407 8.80661C13.9274 8.67561 13.9833 8.52665 14.0042 8.37092C14.0152 8.32874 14.0221 8.28562 14.0249 8.24214C14.0295 8.13296 14.0099 8.02412 13.9676 7.92338C13.9253 7.82264 13.8612 7.73248 13.78 7.65934ZM13.2635 7.54795C13.2551 7.54795 13.2466 7.54372 13.2377 7.54231C13.2466 7.54372 13.2569 7.54607 13.2635 7.54795ZM13.0816 7.52868C13.0595 7.52868 13.037 7.52868 13.0149 7.52868C13.0356 7.52868 13.0562 7.52633 13.0774 7.52633L13.0816 7.52868ZM13.0887 9.012H13.1296H13.1267H13.0887ZM12.5453 8.80426C12.566 8.82259 12.5872 8.83951 12.6093 8.85549C12.5867 8.83951 12.5656 8.82259 12.5449 8.80426H12.5453ZM12.6318 8.87006C12.6464 8.87993 12.6614 8.8898 12.6788 8.89873C12.661 8.8898 12.6459 8.87899 12.6314 8.87006H12.6318ZM12.7056 8.9133C12.7197 8.92082 12.7338 8.92834 12.7484 8.93492C12.7333 8.92834 12.7193 8.92082 12.7052 8.9133H12.7056ZM12.7799 8.94761C12.794 8.95325 12.8081 8.95936 12.8222 8.96406C12.8076 8.95936 12.7935 8.95325 12.7794 8.94761H12.7799ZM12.856 8.97393C12.8701 8.97816 12.8837 8.98286 12.8983 8.98615C12.8833 8.98286 12.8696 8.97816 12.8555 8.97299L12.856 8.97393ZM13.0111 9.00589C13.0252 9.00589 13.0388 9.00965 13.0525 9.01059C13.0384 9.00965 13.0248 9.00777 13.0107 9.00589H13.0111ZM13.6428 8.83528C13.6531 8.82494 13.663 8.81413 13.6719 8.80379C13.6625 8.81413 13.6527 8.82494 13.6423 8.83528H13.6428ZM13.3909 8.97534C13.4008 8.97205 13.4111 8.9697 13.421 8.96594C13.4106 8.9697 13.4003 8.97299 13.3904 8.97534H13.3909ZM13.4581 8.95137C13.467 8.94761 13.4764 8.94479 13.4849 8.94056C13.476 8.94479 13.4665 8.94761 13.4576 8.95137H13.4581ZM13.5206 8.92223C13.5281 8.918 13.5366 8.91471 13.5436 8.91001C13.5361 8.91471 13.5277 8.918 13.5201 8.92223H13.5206Z" fill="black"/>
</g>
<path d="M9.63768 7.65695C9.40768 7.6613 9.1842 7.58045 9.01023 7.42994C8.82223 7.26262 8.72447 7.04829 8.73293 6.82786C8.73926 6.72311 8.76686 6.62075 8.81405 6.52701C8.86124 6.43328 8.92703 6.35014 9.00741 6.28267L9.02104 6.27092L9.03843 6.26763C9.14233 6.24734 9.24794 6.23711 9.3538 6.23708C9.62662 6.23244 9.89463 6.30918 10.1237 6.45751C10.2477 6.53955 10.357 6.64187 10.447 6.76019L10.4616 6.77945V6.8039C10.4592 6.99443 10.4025 7.18032 10.298 7.3397C10.2705 7.3822 10.239 7.42201 10.204 7.45861C10.0757 7.58457 9.86516 7.65695 9.63768 7.65695Z" fill="#3F3F3F"/>
<path d="M9.356 6.30758C9.61512 6.3039 9.8696 6.37647 10.0878 6.51626C10.2055 6.59392 10.3091 6.69102 10.3942 6.80343C10.3923 6.98089 10.3396 7.15409 10.2424 7.30257C10.217 7.34146 10.1879 7.37781 10.1555 7.41114C10.0417 7.52347 9.84668 7.58974 9.63847 7.58974C9.42544 7.59323 9.21848 7.51868 9.05661 7.38012C9.00961 7.33782 8.79059 7.14183 8.80281 6.83163C8.80882 6.73656 8.83403 6.64368 8.87692 6.55862C8.91982 6.47356 8.97951 6.39808 9.05238 6.33672C9.15195 6.31731 9.25315 6.30755 9.35459 6.30758M9.35459 6.16987C9.24418 6.16994 9.13402 6.18048 9.02559 6.20136L8.99034 6.20841L8.96355 6.23097C8.87601 6.30483 8.80438 6.39569 8.753 6.49805C8.70162 6.60041 8.67156 6.71214 8.66463 6.82646C8.65523 7.06804 8.76192 7.30116 8.96449 7.48446C9.15139 7.64568 9.39123 7.73221 9.638 7.72745C9.88287 7.72745 10.1122 7.64567 10.249 7.5089C10.288 7.46937 10.3229 7.42608 10.3533 7.37965C10.4662 7.20963 10.5279 7.01077 10.531 6.80672V6.75972L10.5019 6.72165C10.4073 6.5971 10.2924 6.48937 10.1621 6.40299C9.92197 6.24808 9.64171 6.16702 9.356 6.16987H9.35459Z" fill="black"/>
<path d="M9.69161 7.43366C9.45098 7.43572 9.21828 7.3477 9.03925 7.18691C8.96323 7.12103 8.90316 7.03873 8.86359 6.94624C8.82402 6.85375 8.80598 6.75348 8.81083 6.65299C8.81839 6.55949 8.84717 6.46895 8.89498 6.38824C8.94278 6.30753 9.00836 6.23878 9.08672 6.18722C9.23509 6.0857 9.41128 6.03266 9.59103 6.03541C9.83322 6.03352 10.0673 6.12277 10.2467 6.28545C10.3207 6.35092 10.3791 6.43205 10.4178 6.52294C10.4565 6.61384 10.4745 6.71221 10.4704 6.81091C10.4641 6.90225 10.4375 6.99104 10.3925 7.0708C10.3476 7.15056 10.2854 7.21929 10.2105 7.27198C10.0591 7.37958 9.87735 7.4362 9.69161 7.43366Z" fill="#646566"/>
<path d="M9.59085 6.10594C9.8156 6.10417 10.0328 6.18687 10.1995 6.33765C10.4815 6.6032 10.4721 6.99565 10.1718 7.21843C10.0323 7.31758 9.86486 7.36962 9.69378 7.36695C9.47035 7.36877 9.25435 7.28677 9.08842 7.13712C8.79561 6.86452 8.81488 6.46314 9.12837 6.24412C9.26477 6.15184 9.42619 6.10362 9.59085 6.10594ZM9.59085 5.9687C9.39791 5.96573 9.20878 6.02253 9.04941 6.13132C8.96262 6.18865 8.89004 6.265 8.83718 6.35459C8.78433 6.44417 8.75259 6.54463 8.74438 6.64832C8.7395 6.75821 8.7592 6.86781 8.80205 6.96912C8.8449 7.07043 8.90982 7.1609 8.99207 7.23394C9.18374 7.40698 9.43321 7.50204 9.69143 7.50043C9.89157 7.50363 10.0876 7.44323 10.2512 7.32794C10.3343 7.26929 10.4033 7.19281 10.453 7.10409C10.5028 7.01538 10.5321 6.91667 10.5388 6.81517C10.5425 6.70632 10.5223 6.598 10.4795 6.49785C10.4367 6.39771 10.3724 6.3082 10.2912 6.23566C10.0999 6.06086 9.84996 5.96425 9.59085 5.96494V5.9687Z" fill="black"/>
<path d="M12.628 6.05896C12.398 6.063 12.1747 5.98219 12.0005 5.83195C11.8125 5.66416 11.7148 5.45031 11.7237 5.22941C11.7301 5.12472 11.7577 5.02242 11.8048 4.92871C11.8519 4.83499 11.9175 4.75181 11.9977 4.68421L12.0113 4.67293L12.0287 4.66964C12.1326 4.64935 12.2382 4.63912 12.3441 4.63909C12.6172 4.63344 12.8859 4.70919 13.1158 4.8567C13.24 4.93878 13.3493 5.04127 13.4392 5.15985L13.4538 5.17912V5.20309C13.4515 5.39364 13.3948 5.57957 13.2902 5.73889C13.2628 5.78161 13.2313 5.82159 13.1962 5.85827C13.0688 5.98235 12.8555 6.05896 12.628 6.05896Z" fill="#3F3F3F"/>
<path d="M12.3439 4.70531C12.6032 4.70159 12.8579 4.77433 13.0761 4.91446C13.1936 4.99224 13.297 5.08934 13.3821 5.20163C13.3803 5.37912 13.3276 5.55237 13.2303 5.70077C13.2049 5.73956 13.1759 5.77591 13.1438 5.80934C13.0296 5.92167 12.835 5.98747 12.6268 5.98747C12.4141 5.99049 12.2076 5.9156 12.0463 5.77691C11.9993 5.73414 11.7799 5.53815 11.7921 5.22842C11.798 5.13327 11.8232 5.0403 11.8661 4.95516C11.909 4.87001 11.9687 4.79445 12.0416 4.73304C12.1412 4.71363 12.2424 4.70387 12.3439 4.7039M12.3439 4.56619C12.2334 4.5662 12.1232 4.57691 12.0149 4.59815L11.9801 4.60473L11.9528 4.62776C11.8653 4.70162 11.7936 4.79248 11.7423 4.89484C11.6909 4.9972 11.6608 5.10893 11.6539 5.22325C11.6445 5.46436 11.7512 5.69748 11.9538 5.88125C12.1405 6.04294 12.3803 6.12998 12.6273 6.12565C12.8726 6.12565 13.1015 6.04434 13.2383 5.90757C13.2773 5.86791 13.3122 5.82445 13.3426 5.77785C13.4547 5.6076 13.5155 5.40874 13.5179 5.20492V5.15792L13.4916 5.11891C13.3972 4.99425 13.2823 4.8865 13.1518 4.80025C12.9109 4.64563 12.63 4.56507 12.3439 4.56854V4.56619Z" fill="black"/>
<path d="M12.6822 5.8319C12.4413 5.83346 12.2084 5.74495 12.0294 5.58374C11.9533 5.51786 11.8931 5.43559 11.8534 5.34311C11.8137 5.25064 11.7954 5.15036 11.8 5.04982C11.8077 4.95629 11.8365 4.86573 11.8843 4.78496C11.9321 4.7042 11.9976 4.63534 12.0759 4.58358C12.224 4.48309 12.3994 4.43074 12.5783 4.43365C12.8204 4.43178 13.0543 4.52104 13.2335 4.68369C13.3079 4.74894 13.3668 4.82997 13.4059 4.92087C13.445 5.01177 13.4634 5.11026 13.4596 5.20915C13.4533 5.30044 13.4267 5.38918 13.3818 5.46888C13.3368 5.54857 13.2746 5.6172 13.1997 5.66975C13.0487 5.77722 12.8675 5.834 12.6822 5.8319Z" fill="#646566"/>
<path d="M12.5792 4.50228C12.8037 4.50054 13.0208 4.58305 13.1874 4.73351C13.4694 4.99953 13.46 5.39151 13.1597 5.61476C13.0203 5.71357 12.853 5.76542 12.6822 5.76282C12.4586 5.76453 12.2425 5.68254 12.0763 5.53298C11.7835 5.26085 11.8028 4.85947 12.1163 4.63998C12.253 4.548 12.4145 4.49996 12.5792 4.50228ZM12.5792 4.36457C12.3862 4.36183 12.197 4.41861 12.0373 4.52719C11.9507 4.58469 11.8782 4.66109 11.8254 4.75064C11.7726 4.84019 11.7407 4.94056 11.7323 5.04419C11.727 5.15529 11.7468 5.26616 11.7901 5.36859C11.8335 5.47102 11.8993 5.56238 11.9828 5.63592C12.1745 5.80895 12.4239 5.90402 12.6822 5.90241C12.8825 5.90491 13.0784 5.8435 13.2415 5.7271C13.3246 5.66854 13.3935 5.59215 13.4433 5.50351C13.493 5.41487 13.5224 5.31623 13.5291 5.2148C13.5328 5.10595 13.5126 4.99761 13.4698 4.89746C13.427 4.79731 13.3627 4.70781 13.2814 4.63528C13.0893 4.4609 12.8387 4.36511 12.5792 4.36692V4.36457Z" fill="black"/>
<path d="M13.0552 8.97578C12.8253 8.97991 12.6019 8.89908 12.4278 8.74877C12.2398 8.58098 12.142 8.36713 12.151 8.14623C12.1574 8.04154 12.1849 7.93924 12.232 7.84553C12.2791 7.75181 12.3448 7.66863 12.425 7.60103L12.4386 7.58975L12.456 7.58646C12.5598 7.56594 12.6655 7.55571 12.7714 7.55591C13.0441 7.55111 13.3121 7.62768 13.5412 7.77587C13.6653 7.85794 13.7747 7.96044 13.8646 8.07902L13.8791 8.09829V8.12226C13.8768 8.3128 13.8201 8.49871 13.7156 8.65806C13.6883 8.70085 13.6568 8.74083 13.6216 8.77744C13.4919 8.90152 13.2827 8.97578 13.0552 8.97578Z" fill="#3F3F3F"/>
<path d="M12.7711 7.6245C13.0304 7.62083 13.2851 7.69357 13.5034 7.83365C13.6209 7.91129 13.7244 8.0084 13.8093 8.12082C13.8076 8.2983 13.7549 8.47153 13.6575 8.61996C13.6321 8.65875 13.6032 8.69509 13.5711 8.72853C13.4568 8.84086 13.2623 8.90666 13.0541 8.90666C12.8412 8.91029 12.6344 8.8359 12.4727 8.69751C12.4257 8.65474 12.2062 8.45875 12.2184 8.14902C12.2243 8.05386 12.2495 7.9609 12.2924 7.87575C12.3353 7.7906 12.395 7.71504 12.468 7.65364C12.5675 7.63422 12.6687 7.62446 12.7702 7.6245M12.7702 7.48679C12.6597 7.48677 12.5496 7.49747 12.4412 7.51875L12.4064 7.52533L12.3791 7.54836C12.2919 7.62228 12.2206 7.71313 12.1694 7.8154C12.1183 7.91767 12.0884 8.02924 12.0816 8.14338C12.0722 8.38496 12.1789 8.61808 12.3815 8.80138C12.5683 8.96287 12.8081 9.04988 13.055 9.04578C13.3003 9.04578 13.5292 8.96447 13.666 8.8277C13.705 8.78803 13.74 8.74457 13.7703 8.69798C13.8824 8.52772 13.9433 8.32887 13.9456 8.12505V8.07805L13.9165 8.03951C13.8221 7.91484 13.7072 7.80709 13.5767 7.72084C13.3359 7.56623 13.0549 7.48566 12.7688 7.48914L12.7702 7.48679Z" fill="black"/>
<path d="M13.1091 8.75063C12.8687 8.75215 12.6364 8.66382 12.4577 8.50295C12.3817 8.43716 12.3216 8.35495 12.2821 8.26253C12.2425 8.17011 12.2244 8.06991 12.2293 7.96949C12.237 7.87597 12.2658 7.78541 12.3136 7.70464C12.3614 7.62388 12.4269 7.55502 12.5052 7.50326C12.6532 7.40277 12.8287 7.35041 13.0076 7.35333C13.2496 7.35129 13.4835 7.44038 13.6628 7.6029C13.7367 7.66819 13.7951 7.74906 13.834 7.83968C13.8728 7.9303 13.8911 8.02842 13.8874 8.12695C13.8813 8.21832 13.8547 8.30715 13.8097 8.38693C13.7648 8.46671 13.7025 8.53542 13.6275 8.58802C13.4764 8.69588 13.2948 8.75283 13.1091 8.75063Z" fill="#646566"/>
<path d="M13.0064 7.42197C13.231 7.42023 13.448 7.50275 13.6146 7.65321C13.8966 7.91923 13.8872 8.31121 13.5869 8.53446C13.4475 8.63326 13.2802 8.68511 13.1094 8.68251C12.8862 8.68374 12.6707 8.60161 12.5049 8.45221C12.2121 8.18008 12.2314 7.7787 12.5449 7.55921C12.6816 7.46723 12.8431 7.41918 13.0078 7.4215M13.0078 7.28379C12.8148 7.28105 12.6256 7.33783 12.4659 7.44641C12.3793 7.50391 12.3069 7.58031 12.254 7.66986C12.2012 7.75941 12.1693 7.85978 12.1609 7.96341C12.1559 8.07415 12.1758 8.1846 12.2191 8.28666C12.2624 8.38873 12.3279 8.47981 12.4109 8.55326C12.6027 8.72641 12.8524 8.82148 13.1108 8.81975C13.3111 8.82202 13.5069 8.76063 13.6701 8.64444C13.7531 8.58583 13.822 8.50943 13.8718 8.4208C13.9216 8.33217 13.9509 8.23355 13.9577 8.13213C13.9615 8.02328 13.9413 7.91492 13.8985 7.81476C13.8557 7.71461 13.7913 7.62511 13.71 7.55263C13.5181 7.37783 13.2674 7.28183 13.0078 7.28379Z" fill="black"/>
<path d="M17.6478 3.28219C17.4167 3.28648 17.1922 3.20549 17.017 3.05471C16.829 2.88645 16.7308 2.67166 16.7393 2.45029C16.7461 2.34504 16.7742 2.24227 16.822 2.14822C16.8697 2.05418 16.9361 1.97082 17.017 1.90321L17.0311 1.89146L17.0495 1.88817C17.1535 1.86787 17.2593 1.85763 17.3653 1.85762C17.6386 1.85299 17.907 1.92972 18.1366 2.07805C18.2607 2.16055 18.3701 2.26316 18.4604 2.38167L18.4755 2.40141V2.42632C18.4731 2.61736 18.4161 2.80374 18.3114 2.96353C18.2839 3.00636 18.2525 3.04649 18.2174 3.08338C18.0872 3.20793 17.8757 3.28219 17.6478 3.28219Z" fill="#A57116"/>
<path d="M17.3638 1.92861C17.6238 1.92443 17.8792 1.9972 18.098 2.13776C18.2156 2.21541 18.3193 2.31252 18.4044 2.42493C18.4024 2.60238 18.3497 2.77557 18.2526 2.92407C18.2271 2.96296 18.198 2.99931 18.1656 3.03264C18.0519 3.14497 17.8568 3.21124 17.6486 3.21124C17.4349 3.21608 17.2269 3.14233 17.064 3.00397C17.017 2.9612 16.7979 2.76521 16.8102 2.45548C16.8164 2.35968 16.8421 2.26617 16.8857 2.18066C16.9294 2.09515 16.99 2.01946 17.064 1.95822C17.1635 1.93859 17.2647 1.92867 17.3662 1.92861M17.3662 1.78761C17.2557 1.78766 17.1455 1.79836 17.0372 1.81957L17.001 1.82662L16.9728 1.85012C16.8848 1.92439 16.8128 2.01576 16.7612 2.11869C16.7095 2.22162 16.6794 2.33396 16.6724 2.4489C16.663 2.69189 16.7697 2.92642 16.9737 3.1069C17.1614 3.26932 17.4024 3.35684 17.6505 3.35271C17.8968 3.35271 18.1271 3.27046 18.2662 3.13275C18.3053 3.09282 18.3404 3.04922 18.371 3.00256C18.4836 2.8316 18.5447 2.63195 18.5473 2.42728V2.37746L18.5172 2.33751C18.4221 2.21263 18.3068 2.1046 18.176 2.01791C17.9348 1.86174 17.653 1.78001 17.3657 1.78291L17.3662 1.78761Z" fill="black"/>
<path d="M17.7013 3.05755C17.4597 3.0592 17.2263 2.97033 17.0471 2.80845C16.9709 2.74237 16.9107 2.65985 16.871 2.56712C16.8314 2.47438 16.8133 2.37386 16.8182 2.27312C16.8254 2.17884 16.8541 2.08747 16.9021 2.00601C16.95 1.92454 17.016 1.85514 17.095 1.80312C17.2434 1.70253 17.4191 1.65002 17.5984 1.65272C17.8414 1.65045 18.0764 1.73991 18.2564 1.90323C18.331 1.96874 18.3901 2.05006 18.4294 2.14128C18.4686 2.2325 18.4871 2.33132 18.4834 2.43057C18.477 2.52225 18.4502 2.61136 18.4051 2.69143C18.36 2.77151 18.2976 2.84053 18.2225 2.89352C18.0706 3.00213 17.888 3.05958 17.7013 3.05755Z" fill="#FED110"/>
<path d="M17.5983 1.72556C17.8238 1.72321 18.042 1.80594 18.2093 1.95727C18.4913 2.22282 18.4819 2.61527 18.1815 2.83805C18.042 2.93704 17.8746 2.98891 17.7035 2.9861C17.4802 2.98806 17.2642 2.90622 17.0982 2.75674C16.8054 2.48414 16.8246 2.08276 17.1381 1.86374C17.2746 1.77175 17.436 1.72369 17.6006 1.72603M17.6006 1.58503C17.4067 1.58237 17.2167 1.63948 17.0563 1.74859C16.9689 1.80638 16.8958 1.88337 16.8426 1.9737C16.7894 2.06403 16.7575 2.16531 16.7494 2.26982C16.744 2.38103 16.7635 2.49204 16.8066 2.59469C16.8497 2.69734 16.9153 2.78902 16.9985 2.86296C17.191 3.03701 17.4417 3.1326 17.7012 3.13086C17.9032 3.13364 18.1007 3.07189 18.2652 2.95461C18.349 2.89552 18.4185 2.81841 18.4686 2.72895C18.5187 2.63949 18.5481 2.53994 18.5547 2.43761C18.5585 2.32807 18.5382 2.21903 18.4951 2.11822C18.4521 2.01742 18.3874 1.92733 18.3056 1.85434C18.1128 1.67902 17.8612 1.58255 17.6006 1.58409V1.58503Z" fill="black"/>
<path d="M19.8549 5.98752C19.6245 5.99134 19.4007 5.91039 19.226 5.76004C19.038 5.59178 18.9398 5.37746 18.9483 5.15609C18.9546 5.05103 18.9823 4.94836 19.0296 4.85432C19.0768 4.76028 19.1427 4.67682 19.2232 4.60901L19.2373 4.59726L19.2556 4.5935C19.3597 4.57319 19.4655 4.56296 19.5715 4.56295C19.8448 4.55826 20.1133 4.63516 20.3427 4.78385C20.4669 4.86604 20.5764 4.96852 20.6666 5.087L20.6816 5.10721V5.13212C20.6791 5.32313 20.6222 5.50948 20.5176 5.66933C20.4899 5.71189 20.4585 5.75185 20.4236 5.78871C20.2943 5.91326 20.0828 5.98752 19.8549 5.98752Z" fill="#891D2A"/>
<path d="M19.5708 4.63436C19.8299 4.63067 20.0843 4.70324 20.3025 4.84304C20.4202 4.92069 20.5239 5.0178 20.609 5.13021C20.6071 5.30766 20.5544 5.48087 20.4572 5.62934C20.4318 5.66831 20.4027 5.70468 20.3702 5.73792C20.2565 5.85072 20.0614 5.91652 19.8532 5.91652C19.6407 5.91966 19.4343 5.84513 19.2728 5.7069C19.2258 5.6646 19.0068 5.46861 19.019 5.15841C19.025 5.06333 19.0502 4.97046 19.0931 4.8854C19.136 4.80033 19.1957 4.72485 19.2685 4.6635C19.3681 4.64408 19.4693 4.63432 19.5708 4.63436ZM19.5708 4.49336C19.4603 4.49343 19.3501 4.50413 19.2418 4.52532L19.2056 4.53237L19.1774 4.55587C19.0893 4.6301 19.0173 4.72146 18.9657 4.82439C18.914 4.92733 18.8839 5.03969 18.877 5.15465C18.8676 5.39764 18.9743 5.6317 19.1783 5.81265C19.366 5.97506 19.6069 6.06258 19.8551 6.05846C20.1014 6.05846 20.3317 5.97621 20.4708 5.83897C20.51 5.79899 20.5451 5.75522 20.5756 5.70831C20.6882 5.53737 20.7494 5.3377 20.7519 5.13303V5.08321L20.7218 5.04373C20.6269 4.91859 20.5115 4.81038 20.3806 4.72366C20.139 4.56866 19.8573 4.48793 19.5703 4.49148L19.5708 4.49336Z" fill="black"/>
<path d="M19.9083 5.76286C19.6669 5.76446 19.4335 5.67579 19.2541 5.51423C19.1779 5.44808 19.1176 5.36548 19.078 5.27267C19.0383 5.17985 19.0203 5.07924 19.0252 4.97843C19.0327 4.88455 19.0615 4.79362 19.1095 4.71257C19.1575 4.63153 19.2233 4.56251 19.302 4.51078C19.4502 4.40978 19.6261 4.35708 19.8054 4.35991C20.0485 4.35782 20.2835 4.44744 20.4634 4.61089C20.538 4.67631 20.5971 4.75755 20.6364 4.84869C20.6757 4.93983 20.6941 5.03859 20.6904 5.13776C20.6841 5.22946 20.6574 5.31859 20.6122 5.39868C20.5671 5.47876 20.5047 5.54778 20.4296 5.60071C20.2775 5.70886 20.0949 5.76567 19.9083 5.76286Z" fill="#FF3445"/>
<path d="M19.8056 4.4313C20.0302 4.42959 20.2474 4.51209 20.4142 4.66254C20.6962 4.92856 20.6868 5.32054 20.3865 5.54332C20.247 5.64247 20.0796 5.69451 19.9085 5.69184C19.6851 5.69366 19.4691 5.61165 19.3031 5.46201C19.0103 5.18941 19.0296 4.78803 19.3431 4.56901C19.4795 4.47682 19.6409 4.42875 19.8056 4.4313ZM19.8056 4.2903C19.6116 4.28736 19.4215 4.34449 19.2613 4.45386C19.1738 4.51165 19.1007 4.58864 19.0475 4.67897C18.9944 4.7693 18.9625 4.87058 18.9544 4.97509C18.9493 5.08639 18.9693 5.19742 19.0128 5.29999C19.0563 5.40256 19.1223 5.49406 19.2058 5.56776C19.3984 5.7416 19.649 5.83716 19.9085 5.83566C20.1105 5.83843 20.308 5.77669 20.4725 5.65941C20.5562 5.60027 20.6257 5.52315 20.6758 5.43369C20.7259 5.34424 20.7553 5.24472 20.762 5.14241C20.7658 5.03287 20.7454 4.92385 20.7024 4.82306C20.6593 4.72226 20.5946 4.63216 20.5129 4.55914C20.3201 4.38398 20.0684 4.28769 19.8079 4.28936L19.8056 4.2903Z" fill="black"/>
<path d="M16.829 5.48933C16.5982 5.49275 16.3742 5.41111 16.1997 5.25997C16.0117 5.09171 15.9134 4.87692 15.9219 4.65555C15.9284 4.55051 15.9561 4.44787 16.0033 4.35384C16.0506 4.25981 16.1164 4.17633 16.1968 4.10847L16.2109 4.09672L16.2293 4.09343C16.3333 4.07313 16.4391 4.06289 16.5451 4.06288C16.8184 4.05825 17.0868 4.13498 17.3164 4.28331C17.4404 4.3657 17.5497 4.46833 17.6397 4.58693L17.6553 4.60667V4.63158C17.6529 4.82262 17.5959 5.009 17.4912 5.16879C17.4638 5.21167 17.4323 5.2518 17.3972 5.28864C17.2684 5.41507 17.0569 5.48933 16.829 5.48933Z" fill="#223F56"/>
<path d="M16.5468 4.13572C16.806 4.132 17.0605 4.20475 17.2786 4.34487C17.3963 4.42252 17.4999 4.51963 17.585 4.63204C17.583 4.80949 17.5304 4.98268 17.4332 5.13118C17.4077 5.17006 17.3786 5.20642 17.3462 5.23975C17.2325 5.35208 17.0375 5.41835 16.8292 5.41835C16.6162 5.42184 16.4093 5.34728 16.2474 5.20873C16.2004 5.16596 15.9814 4.96997 15.9936 4.66024C15.9996 4.56516 16.0248 4.47229 16.0677 4.38723C16.1106 4.30217 16.1703 4.22668 16.2432 4.16533C16.3427 4.14569 16.4439 4.13578 16.5454 4.13572M16.5454 3.99472C16.4349 3.99474 16.3247 4.00545 16.2164 4.02668L16.1802 4.03373L16.152 4.05723C16.064 4.1315 15.992 4.22287 15.9404 4.32579C15.8887 4.42872 15.8585 4.54107 15.8516 4.65601C15.8422 4.899 15.9489 5.13353 16.1529 5.31636C16.3406 5.47805 16.5811 5.56504 16.8288 5.56076C17.0751 5.56076 17.3054 5.47851 17.4445 5.3408C17.4835 5.30087 17.5186 5.25727 17.5493 5.21061C17.6618 5.03965 17.723 4.84 17.7255 4.63533V4.58551L17.6955 4.54556C17.6004 4.42068 17.4851 4.31264 17.3542 4.22596C17.1136 4.07115 16.8329 3.99026 16.5468 3.99331L16.5454 3.99472Z" fill="black"/>
<path d="M16.8824 5.26467C16.6409 5.26633 16.4075 5.17746 16.2282 5.01557C16.152 4.9495 16.0918 4.86698 16.0522 4.77425C16.0125 4.68151 15.9944 4.58098 15.9993 4.48024C16.0065 4.38597 16.0352 4.2946 16.0832 4.21313C16.1312 4.13167 16.1972 4.06226 16.2761 4.01024C16.4245 3.9096 16.6003 3.85709 16.7795 3.85984C17.0226 3.85758 17.2575 3.94704 17.4375 4.11036C17.5122 4.17587 17.5713 4.25719 17.6105 4.34841C17.6498 4.43963 17.6682 4.53845 17.6645 4.6377C17.6581 4.72938 17.6314 4.81849 17.5863 4.89856C17.5411 4.97863 17.4788 5.04766 17.4037 5.10064C17.2517 5.20925 17.0692 5.2667 16.8824 5.26467Z" fill="#65B2FF"/>
<path d="M16.7816 3.9327C17.0064 3.93093 17.2236 4.01363 17.3903 4.16441C17.6723 4.42996 17.6629 4.82241 17.3626 5.04519C17.2231 5.14418 17.0556 5.19604 16.8846 5.19324C16.6612 5.19519 16.4452 5.11336 16.2792 4.96388C15.9864 4.69128 16.0057 4.2899 16.3192 4.07088C16.4557 3.97888 16.617 3.93083 16.7816 3.93317M16.7816 3.79217C16.5877 3.7895 16.3977 3.84661 16.2374 3.95573C16.1499 4.01352 16.0768 4.09051 16.0236 4.18084C15.9704 4.27117 15.9386 4.37245 15.9305 4.47696C15.9254 4.58827 15.9453 4.6993 15.9888 4.80188C16.0323 4.90446 16.0983 4.99596 16.1819 5.06963C16.3743 5.24375 16.6251 5.33935 16.8846 5.33753C17.0865 5.3403 17.2841 5.27856 17.4486 5.16128C17.5324 5.10219 17.6019 5.02508 17.652 4.93562C17.7021 4.84615 17.7315 4.7466 17.7381 4.64428C17.7419 4.53473 17.7216 4.42569 17.6785 4.32489C17.6355 4.22408 17.5708 4.13399 17.489 4.06101C17.2962 3.88568 17.0446 3.78922 16.784 3.79076L16.7816 3.79217Z" fill="black"/>
<path d="M20.0678 3.70895C19.8373 3.71317 19.6134 3.63216 19.439 3.48147C19.251 3.31321 19.1523 3.09842 19.1612 2.87705C19.1676 2.77199 19.1952 2.66932 19.2425 2.57528C19.2898 2.48124 19.3557 2.39778 19.4362 2.32997L19.4503 2.31822L19.4681 2.31493C19.5722 2.29466 19.6779 2.28444 19.784 2.28438C20.0572 2.27975 20.3257 2.35648 20.5552 2.50481C20.6795 2.58705 20.789 2.68971 20.8791 2.80843L20.8941 2.82817V2.85308C20.892 3.04438 20.8349 3.23104 20.7296 3.39076C20.7022 3.43352 20.6707 3.4735 20.6356 3.51014C20.5073 3.63516 20.2958 3.70895 20.0678 3.70895Z" fill="#627726"/>
<path d="M19.7841 2.35577C20.0435 2.35205 20.2982 2.42479 20.5164 2.56492C20.6339 2.64283 20.7375 2.7399 20.8228 2.85209C20.8206 3.02958 20.7678 3.20275 20.6706 3.35123C20.6453 3.39013 20.6163 3.4265 20.5841 3.4598C20.4699 3.57213 20.2753 3.63793 20.0671 3.63793C19.8543 3.64081 19.6479 3.56575 19.4866 3.4269C19.4396 3.38413 19.2201 3.18814 19.2324 2.87841C19.2383 2.78325 19.2635 2.69029 19.3064 2.60514C19.3493 2.52 19.409 2.44444 19.4819 2.38303C19.5815 2.36364 19.6827 2.35388 19.7841 2.35389M19.7841 2.21289C19.6737 2.21296 19.5635 2.22366 19.4551 2.24485L19.4189 2.2519L19.3907 2.2754C19.3028 2.34974 19.2309 2.44113 19.1793 2.54404C19.1277 2.64695 19.0974 2.75926 19.0904 2.87418C19.081 3.11717 19.1882 3.3517 19.3922 3.53453C19.5797 3.69682 19.8205 3.78419 20.0685 3.77987C20.3148 3.77987 20.5451 3.69809 20.6847 3.56038C20.7237 3.52045 20.7588 3.47685 20.7895 3.43019C20.9016 3.25926 20.9624 3.05979 20.9648 2.85538V2.80556L20.9342 2.76561C20.8395 2.64063 20.7243 2.53257 20.5935 2.44601C20.3519 2.29066 20.0699 2.20975 19.7827 2.21336L19.7841 2.21289Z" fill="black"/>
<path d="M20.1221 3.48475C19.8806 3.4865 19.6471 3.39762 19.4679 3.23565C19.3916 3.1696 19.3314 3.0871 19.2917 2.99437C19.2519 2.90164 19.2338 2.80109 19.2385 2.70032C19.246 2.6061 19.2747 2.51481 19.3227 2.43338C19.3707 2.35194 19.4366 2.2825 19.5154 2.23032C19.6638 2.12948 19.8398 2.07695 20.0192 2.07992C20.2622 2.07775 20.4972 2.16719 20.6772 2.33043C20.7518 2.39597 20.8108 2.47731 20.85 2.56853C20.8892 2.65975 20.9076 2.75856 20.9038 2.85777C20.8976 2.94946 20.871 3.03859 20.8258 3.11863C20.7807 3.19866 20.7182 3.26756 20.6429 3.32025C20.4913 3.42914 20.3088 3.48677 20.1221 3.48475Z" fill="#B5E237"/>
<path d="M20.0192 2.15278C20.2438 2.15103 20.4609 2.23373 20.6274 2.38448C20.9094 2.65003 20.9 3.04248 20.5997 3.26526C20.4603 3.36407 20.293 3.41592 20.1222 3.41331C19.8986 3.41503 19.6825 3.33304 19.5163 3.18348C19.2235 2.91135 19.2428 2.50997 19.5563 2.29048C19.693 2.1985 19.8545 2.15046 20.0192 2.15278ZM20.0192 2.01178C19.8251 2.00874 19.6348 2.06587 19.4745 2.17533C19.3872 2.23328 19.3142 2.31031 19.261 2.40061C19.2078 2.4909 19.1759 2.59211 19.1676 2.69656C19.1632 2.80735 19.1835 2.91773 19.2271 3.01967C19.2706 3.12162 19.3364 3.21258 19.4195 3.28594C19.6126 3.46042 19.8642 3.55603 20.1245 3.55385C20.3243 3.5562 20.5197 3.49534 20.6829 3.37994C20.7667 3.32088 20.8363 3.24379 20.8865 3.15432C20.9367 3.06486 20.9662 2.9653 20.9729 2.86294C20.9765 2.75331 20.9561 2.6442 20.913 2.54333C20.8698 2.44246 20.8051 2.3523 20.7233 2.2792C20.5305 2.10393 20.2788 2.00762 20.0183 2.00942L20.0192 2.01178Z" fill="black"/>
<path d="M19.8037 11.7319C19.3477 11.735 18.9071 11.5674 18.5685 11.2619C18.2682 10.9822 18.1164 10.6292 18.1413 10.2678C18.1653 9.92471 18.3476 9.6178 18.6546 9.40301C18.9338 9.21363 19.2647 9.11514 19.6021 9.12101C20.0604 9.11731 20.5033 9.28609 20.8429 9.59383C21.1362 9.86878 21.2861 10.2166 21.2659 10.5724C21.2466 10.9079 21.0751 11.2116 20.7827 11.4278C20.4969 11.6305 20.154 11.737 19.8037 11.7319Z" fill="#646566"/>
<path d="M19.602 9.18964C20.0428 9.18613 20.4688 9.34815 20.7958 9.64366C21.3518 10.1654 21.3307 10.9362 20.7413 11.3719C20.4679 11.5662 20.1395 11.6681 19.8041 11.6628C19.3654 11.6663 18.9412 11.5055 18.615 11.2121C18.0407 10.6777 18.0787 9.88994 18.6935 9.45989C18.9616 9.27907 19.2787 9.18475 19.602 9.18964ZM19.602 9.05193C19.2503 9.04691 18.9056 9.15065 18.615 9.34897C18.2907 9.57598 18.098 9.90122 18.0726 10.2655C18.0463 10.6481 18.2056 11.0208 18.522 11.315C18.8734 11.6319 19.3308 11.8058 19.8041 11.8024C20.1694 11.8068 20.5266 11.6949 20.824 11.4828C21.1328 11.2539 21.3142 10.9319 21.3354 10.5761C21.357 10.2001 21.1991 9.8326 20.8908 9.54214C20.538 9.22271 20.0779 9.04771 19.602 9.05193Z" fill="black"/>
<path d="M19.8203 11.3963C19.454 11.403 19.0981 11.2745 18.8206 11.0353C18.5231 10.7688 18.3671 10.4304 18.3807 10.0817C18.3995 9.60369 18.7177 9.30101 18.8145 9.21923L18.8281 9.20795L18.846 9.20466C19.0137 9.17175 19.1841 9.15522 19.355 9.15531C19.7938 9.14763 20.225 9.27084 20.5935 9.50922C20.792 9.64126 20.9668 9.80588 21.1105 9.99614L21.125 10.0154V10.0394C21.1217 10.3437 21.0312 10.6408 20.8642 10.8952C20.8198 10.9626 20.7692 11.0255 20.7128 11.0832C20.5169 11.2792 20.1822 11.3963 19.8203 11.3963Z" fill="#646566"/>
<path d="M19.3549 9.22389C19.7801 9.21792 20.1977 9.33707 20.5558 9.56652C20.7483 9.69404 20.9182 9.8529 21.0582 10.0365C21.0547 10.3276 20.9683 10.6116 20.8091 10.8553C20.7679 10.919 20.7207 10.9787 20.6681 11.0334C20.4801 11.2181 20.1615 11.3262 19.8221 11.3262C19.4728 11.3321 19.1334 11.2098 18.868 10.9826C18.7905 10.9126 18.4314 10.5911 18.4511 10.0831C18.4699 9.60788 18.8027 9.3193 18.861 9.27042C19.0244 9.23899 19.1904 9.22325 19.3568 9.22342M19.3568 9.08618C19.1814 9.0862 19.0064 9.10304 18.8342 9.13647L18.7994 9.14305L18.7721 9.16608C18.6697 9.25209 18.3336 9.57216 18.3139 10.0784C18.2993 10.4478 18.4638 10.8059 18.7764 11.086C19.0662 11.3358 19.4377 11.4703 19.8202 11.4639C20.2 11.4639 20.5525 11.3394 20.7631 11.1312C20.8229 11.0701 20.8765 11.0034 20.9233 10.9319C21.0976 10.6664 21.1922 10.3565 21.1959 10.0389V9.99187L21.1668 9.95333C21.0176 9.75687 20.8363 9.58701 20.6305 9.4509C20.25 9.2067 19.8061 9.07971 19.354 9.08571L19.3568 9.08618Z" fill="black"/>
<g style="mix-blend-mode:multiply" opacity="0.58">
<path d="M20.7411 11.3699C20.1432 11.8122 19.1901 11.7436 18.6152 11.2101C18.5456 11.1464 18.4826 11.0757 18.4272 10.9991C18.5379 11.0415 18.6533 11.0705 18.7708 11.0856C18.9576 11.1099 19.1474 11.097 19.3292 11.0475C19.4232 11.0221 19.512 10.9874 19.606 10.97C19.7 10.9526 19.7837 10.953 19.8716 10.9394C20.288 10.8746 20.6048 10.5371 20.8473 10.1926C20.8943 10.1244 20.9502 10.0516 21.0315 10.0328C21.0491 10.0302 21.067 10.0302 21.0846 10.0328C21.3126 10.4995 21.196 11.0353 20.7411 11.3699Z" fill="#333D6A"/>
</g>
<g style="mix-blend-mode:multiply" opacity="0.63">
<path d="M4.74217 9.13509C4.46017 9.31792 4.15937 9.48712 3.83648 9.56232L3.2283 8.25619C3.03184 7.83601 3.21232 7.26919 3.61135 6.96463L3.68749 6.90494C3.70163 7.16839 3.78513 7.42344 3.92954 7.64425C4.18428 8.04939 4.55934 8.36382 4.85121 8.74311C4.88748 8.78255 4.91192 8.83142 4.92171 8.88411C4.93205 8.99409 4.83241 9.07634 4.74217 9.13509Z" fill="#333D6A"/>
</g>
<path d="M19.9087 11.0278C19.5248 11.0305 19.1538 10.8895 18.8686 10.6325C18.6143 10.3975 18.4865 10.0977 18.5076 9.79217C18.52 9.64508 18.5657 9.50274 18.6413 9.37595C18.7168 9.24915 18.8203 9.14123 18.9438 9.06038C19.1792 8.90055 19.4583 8.81733 19.7428 8.82209C20.1288 8.81902 20.5019 8.96111 20.7881 9.22018C21.0358 9.45283 21.1641 9.74658 21.1448 10.0474C21.1349 10.1908 21.0931 10.3301 21.0224 10.4552C20.9517 10.5804 20.854 10.6882 20.7364 10.7707C20.4949 10.9424 20.2049 11.0324 19.9087 11.0278Z" fill="#646566"/>
<path d="M19.7398 8.89066C20.1082 8.88797 20.4643 9.02347 20.7376 9.27042C21.2029 9.70658 21.1851 10.3514 20.6906 10.7157C20.4618 10.8779 20.1872 10.963 19.9067 10.9587C19.5402 10.9617 19.1858 10.8276 18.9131 10.5827C18.4328 10.1362 18.4647 9.47769 18.9789 9.11767C19.2029 8.9666 19.4678 8.88771 19.738 8.8916M19.738 8.75436C19.4395 8.74964 19.1468 8.83713 18.8999 9.00487C18.6231 9.19898 18.4586 9.47487 18.437 9.78836C18.4144 10.115 18.5503 10.4332 18.8196 10.6837C19.1176 10.9524 19.5054 11.1 19.9067 11.0973C20.2182 11.1019 20.523 11.0069 20.7767 10.8261C20.9016 10.7376 21.0054 10.6224 21.0804 10.4888C21.1554 10.3553 21.1999 10.2067 21.2105 10.0539C21.2293 9.73196 21.0948 9.41894 20.8321 9.17266C20.5333 8.90152 20.1433 8.7527 19.7398 8.75577L19.738 8.75436Z" fill="black"/>
<path d="M6.83479 14.024C5.6431 14.0249 4.49522 13.5747 3.62187 12.7639C2.84966 12.0336 2.44687 11.0964 2.51408 10.1949C2.57471 9.39922 2.99207 8.69563 3.68908 8.21341C4.28504 7.80169 5.03234 7.58408 5.85108 7.58408C7.0524 7.58408 8.22834 8.04656 9.07669 8.85308C9.83198 9.57077 10.2324 10.4934 10.1756 11.3836C10.1253 12.16 9.73187 12.8565 9.06917 13.3439C8.46287 13.7885 7.68878 14.024 6.83479 14.024Z" fill="#3F3F3F"/>
<path d="M5.85047 7.65034C6.98411 7.65034 8.16945 8.08368 9.02861 8.90054C10.4687 10.2697 10.4757 12.2267 9.02861 13.2875C8.41761 13.7368 7.63976 13.9549 6.83512 13.9549C5.71276 13.9549 4.53541 13.5319 3.67108 12.7141C2.184 11.3102 2.21784 9.31226 3.72983 8.26792C4.33331 7.85103 5.08014 7.65034 5.85094 7.65034M5.85094 7.51263C5.01998 7.51263 4.25905 7.73447 3.65134 8.15465C2.93553 8.64862 2.50736 9.37054 2.44673 10.1874C2.37623 11.1119 2.78842 12.0674 3.57755 12.8138C4.43812 13.6264 5.62628 14.0926 6.83606 14.0926C7.70509 14.0926 8.4914 13.8525 9.11086 13.3984C9.79095 12.9002 10.1919 12.1854 10.245 11.3859C10.3033 10.475 9.89482 9.53269 9.12496 8.8009C8.26392 7.98216 7.07106 7.51263 5.85188 7.51263H5.85094Z" fill="black"/>
<path d="M6.86477 13.5823C5.79565 13.5829 4.76593 13.1787 3.98273 12.451C3.28807 11.7953 2.92476 10.954 2.9868 10.1423C3.04085 9.42746 3.41638 8.79531 4.04336 8.36244C4.57869 7.99255 5.24891 7.79844 5.98258 7.79844C7.05679 7.79683 8.09137 8.20397 8.87637 8.93725C9.55411 9.58162 9.91366 10.4098 9.86337 11.2097C9.81872 11.9091 9.46622 12.5351 8.87026 12.9717C8.32177 13.3708 7.6304 13.5823 6.86477 13.5823Z" fill="#646566"/>
<path d="M5.98254 7.86606C6.99774 7.86606 8.05947 8.25428 8.82886 8.98607C10.119 10.2123 10.1251 11.9649 8.82886 12.9153C8.28037 13.3176 7.58477 13.5131 6.86473 13.5131C5.85893 13.5131 4.80472 13.1324 4.03016 12.4016C2.69818 11.1443 2.72873 9.35502 4.0828 8.41925C4.6233 8.04607 5.29211 7.86606 5.98301 7.86606M5.98301 7.72882C5.23524 7.72882 4.55139 7.9281 4.00478 8.30598C3.36041 8.75107 2.97454 9.40155 2.91861 10.139C2.85516 10.9714 3.22599 11.831 3.93569 12.5031C4.73212 13.2417 5.7785 13.6518 6.86473 13.6508C7.6454 13.6508 8.35322 13.4351 8.91017 13.0262C9.52117 12.5773 9.88589 11.9334 9.93195 11.2129C9.98412 10.3928 9.61705 9.5449 8.92427 8.88643C8.15065 8.15041 7.07858 7.72882 5.98301 7.72882Z" fill="black"/>
<g style="mix-blend-mode:multiply" opacity="0.5">
<path d="M5.4342 10.3763H5.5752H5.8995H6.2285C6.2473 10.3763 6.26591 10.3726 6.28323 10.3653C6.30056 10.358 6.31625 10.3473 6.32939 10.3339C6.34252 10.3204 6.35284 10.3045 6.35973 10.287C6.36662 10.2695 6.36994 10.2508 6.3695 10.2321C6.36668 10.0049 6.36418 9.77897 6.36198 9.55431V9.52564C6.36182 9.50454 6.35691 9.48375 6.34764 9.4648C6.33837 9.44584 6.32496 9.42921 6.3084 9.41613L5.33033 8.63405L5.25654 8.57577C5.23148 8.55567 5.20031 8.54472 5.16818 8.54475C5.13387 8.54427 5.10051 8.55611 5.07418 8.57812L4.25121 9.27372C4.2348 9.28721 4.22164 9.30422 4.21272 9.32351C4.20381 9.34279 4.19937 9.36384 4.19973 9.38508C4.20009 9.40632 4.20525 9.42721 4.21481 9.44618C4.22438 9.46514 4.23811 9.48171 4.25497 9.49462L5.34114 10.3481C5.36784 10.3683 5.40082 10.3783 5.4342 10.3763Z" fill="black"/>
<path d="M8.60375 11.2854L7.69007 10.5559L7.59983 10.484C7.5747 10.4636 7.54334 10.4525 7.511 10.4525H7.50113L7.30326 10.4661L6.74537 10.5047C6.70896 10.5069 6.67482 10.5231 6.65011 10.5499C6.62539 10.5767 6.61203 10.612 6.61283 10.6485V10.6852C6.61533 10.8964 6.61815 11.1086 6.62129 11.322C6.62144 11.3432 6.62638 11.3641 6.63574 11.3832C6.6451 11.4022 6.65863 11.4189 6.67534 11.432L7.70934 12.2456C7.73712 12.2678 7.77227 12.2787 7.80775 12.2761C7.84322 12.2734 7.8764 12.2575 7.90063 12.2315L7.90721 12.2244L8.61221 11.4954C8.6261 11.4813 8.63684 11.4643 8.64373 11.4457C8.65061 11.427 8.65349 11.4072 8.65216 11.3873C8.65136 11.368 8.64666 11.3489 8.63834 11.3314C8.63002 11.3139 8.61826 11.2982 8.60375 11.2854Z" fill="black"/>
<path d="M6.31863 10.4891L5.77155 10.4708L5.56757 10.4638L5.46417 10.46H5.45994C5.4251 10.4603 5.39161 10.4736 5.36594 10.4971L4.37894 11.3962C4.36327 11.4101 4.3509 11.4274 4.34273 11.4467C4.33455 11.4659 4.33077 11.4868 4.33167 11.5077C4.33257 11.5287 4.33813 11.5491 4.34793 11.5677C4.35773 11.5862 4.37154 11.6023 4.38834 11.6148L5.32834 12.3348C5.35329 12.3536 5.38361 12.3638 5.41482 12.364C5.45161 12.3642 5.48703 12.35 5.51352 12.3245L5.51587 12.3221L5.56287 12.278L6.06577 11.7901L6.4601 11.4141C6.47522 11.3997 6.48694 11.3821 6.49442 11.3626C6.50189 11.343 6.50494 11.3221 6.50334 11.3013C6.48736 11.0738 6.47091 10.8476 6.45399 10.6226C6.45214 10.5875 6.43723 10.5543 6.41219 10.5296C6.38715 10.5049 6.35378 10.4905 6.31863 10.4891Z" fill="black"/>
<path d="M6.74283 10.3702L7.39754 10.382H7.47556H7.47838C7.49708 10.382 7.5156 10.3784 7.53287 10.3712C7.55014 10.364 7.56581 10.3534 7.57896 10.3402L8.41227 9.54115C8.427 9.52732 8.43859 9.51048 8.44624 9.49178C8.4539 9.47308 8.45744 9.45295 8.45664 9.43276C8.45584 9.41257 8.45071 9.39279 8.44159 9.37476C8.43248 9.35672 8.41959 9.34086 8.40381 9.32824L7.62878 8.69468L7.57285 8.64768C7.54637 8.62526 7.51255 8.61339 7.47786 8.61434C7.44318 8.6153 7.41006 8.62901 7.38485 8.65285L6.52005 9.44292C6.50197 9.45928 6.48843 9.48004 6.48077 9.50319C6.47311 9.52634 6.47159 9.55108 6.47634 9.57499L6.60559 10.2527C6.61109 10.2853 6.62784 10.3149 6.65292 10.3363C6.678 10.3578 6.70982 10.3698 6.74283 10.3702Z" fill="black"/>
</g>
<path d="M5.39882 10.249C5.38284 10.249 5.36729 10.2437 5.35464 10.2339L4.26847 9.3804C4.26017 9.37391 4.25341 9.36564 4.24869 9.35621C4.24398 9.34678 4.24142 9.33642 4.24121 9.32588C4.24112 9.31527 4.24334 9.30477 4.24772 9.29511C4.25211 9.28545 4.25855 9.27686 4.26659 9.26995L5.08956 8.57435C5.10281 8.56351 5.11945 8.55769 5.13656 8.5579C5.15263 8.55788 5.16822 8.56335 5.18075 8.57341L5.25406 8.63169L6.2326 9.4133C6.24074 9.42001 6.24734 9.4284 6.25197 9.43788C6.25659 9.44737 6.25912 9.45774 6.25939 9.46829C6.25939 9.70329 6.26409 9.93829 6.26691 10.1733C6.26715 10.1827 6.26548 10.192 6.262 10.2007C6.25853 10.2095 6.25332 10.2174 6.2467 10.224C6.23327 10.2376 6.21504 10.2454 6.19594 10.2457L5.39882 10.249Z" fill="white"/>
<path d="M5.13592 8.62893L5.20924 8.68722L6.18731 9.46929C6.19013 9.70335 6.1928 9.93835 6.1953 10.1743H5.54106H5.40006L4.31295 9.32454L5.13592 8.62893ZM5.13592 8.48793C5.10151 8.48736 5.06808 8.4994 5.04192 8.52177L4.21895 9.21738C4.20265 9.2309 4.1896 9.24792 4.18078 9.26718C4.17196 9.28643 4.16759 9.30743 4.16799 9.32861C4.1684 9.34979 4.17357 9.3706 4.18313 9.3895C4.19268 9.40841 4.20637 9.42492 4.22318 9.43781L5.31123 10.289C5.33623 10.3088 5.36721 10.3196 5.39912 10.3195H5.54012H5.86489H6.19389C6.21269 10.3195 6.2313 10.3158 6.24862 10.3085C6.26595 10.3012 6.28164 10.2905 6.29478 10.2771C6.30791 10.2636 6.31823 10.2477 6.32512 10.2302C6.33201 10.2127 6.33533 10.194 6.33489 10.1752C6.33207 9.94963 6.32957 9.72482 6.32737 9.50079V9.46882C6.32721 9.44772 6.32231 9.42693 6.31303 9.40798C6.30376 9.38903 6.29035 9.3724 6.2738 9.35931L5.29572 8.5777L5.2224 8.51895C5.19722 8.49875 5.16586 8.4878 5.13357 8.48793H5.13592Z" fill="black"/>
<path d="M7.76334 12.1488C7.74746 12.149 7.73202 12.1436 7.71963 12.1337C7.37653 11.8649 7.03186 11.5937 6.68563 11.3202C6.67728 11.3136 6.6705 11.3053 6.66579 11.2957C6.66107 11.2862 6.65854 11.2758 6.65837 11.2652C6.65555 11.0508 6.65273 10.8373 6.64991 10.6246V10.5917C6.64974 10.5735 6.6565 10.5559 6.66881 10.5426C6.68112 10.5292 6.69806 10.5211 6.71618 10.5197L7.28676 10.4807L7.47241 10.468H7.47711C7.49329 10.4681 7.50899 10.4736 7.52176 10.4836L8.52521 11.2854C8.53302 11.2916 8.53944 11.2993 8.54405 11.3081C8.54867 11.317 8.55137 11.3267 8.552 11.3366C8.55258 11.3465 8.55112 11.3564 8.54773 11.3657C8.54433 11.375 8.53907 11.3835 8.53226 11.3907L7.81504 12.1267C7.80841 12.1337 7.8004 12.1393 7.7915 12.1431C7.7826 12.1469 7.77301 12.1489 7.76334 12.1488Z" fill="white"/>
<path d="M7.47589 10.5389L7.56613 10.6109L8.47981 11.3403L7.77152 12.0707L7.76447 12.0777L6.73048 11.2642C6.72734 11.0386 6.72436 10.8141 6.72154 10.5906L7.4773 10.5389M7.4773 10.3979H7.46743L7.2705 10.4116L6.71167 10.4501C6.67527 10.4523 6.64113 10.4685 6.61642 10.4953C6.5917 10.5221 6.57834 10.5575 6.57914 10.5939V10.6325C6.58196 10.843 6.5843 11.0555 6.58759 11.2679C6.5878 11.2892 6.59282 11.3101 6.60226 11.3292C6.6117 11.3482 6.62532 11.3649 6.64211 11.3779L7.67611 12.191C7.70111 12.2108 7.7321 12.2216 7.764 12.2215C7.78335 12.2217 7.80251 12.2178 7.8203 12.2102C7.83809 12.2026 7.85412 12.1914 7.8674 12.1774L7.87398 12.1698L8.58133 11.4409C8.59532 11.4268 8.60615 11.4098 8.61313 11.3912C8.62011 11.3726 8.62308 11.3527 8.62184 11.3329C8.62059 11.313 8.61517 11.2937 8.60592 11.2761C8.59667 11.2585 8.58381 11.2431 8.56817 11.2308L7.65449 10.5013L7.56378 10.4299C7.5386 10.4097 7.50724 10.3988 7.47495 10.3989L7.4773 10.3979Z" fill="black"/>
<path d="M5.37528 12.2357C5.36021 12.2359 5.34549 12.2311 5.33345 12.2221L4.39345 11.502C4.38523 11.4957 4.3785 11.4876 4.37372 11.4784C4.36894 11.4691 4.36624 11.459 4.36579 11.4486C4.36534 11.4382 4.36716 11.4279 4.37113 11.4182C4.3751 11.4086 4.38111 11.4 4.38875 11.393L5.37575 10.4939C5.38857 10.482 5.40531 10.4753 5.42275 10.4751L5.52615 10.4788L6.27815 10.5042C6.29605 10.5044 6.3132 10.5114 6.32612 10.5238C6.33904 10.5362 6.34676 10.5531 6.34771 10.5709C6.36463 10.7956 6.38108 11.0221 6.39753 11.2492C6.39824 11.2596 6.39662 11.2701 6.3928 11.2798C6.38898 11.2896 6.38306 11.2984 6.37544 11.3056L5.42745 12.2159C5.41326 12.229 5.39457 12.2361 5.37528 12.2357Z" fill="white"/>
<path d="M5.42448 10.5465L5.52741 10.5498L6.27941 10.5752C6.29633 10.8005 6.31294 11.0265 6.32923 11.2534L5.42401 12.122L5.37701 12.169L4.43701 11.4494L5.42401 10.5503M5.42401 10.4093C5.38917 10.4096 5.35568 10.4228 5.33001 10.4464L4.34301 11.3455C4.32743 11.3594 4.31513 11.3766 4.307 11.3959C4.29888 11.4151 4.29513 11.4359 4.29603 11.4568C4.29693 11.4776 4.30245 11.4981 4.3122 11.5165C4.32195 11.535 4.33569 11.5511 4.35241 11.5636L5.29241 12.2836C5.31931 12.3046 5.35289 12.3151 5.38694 12.3132C5.42099 12.3113 5.45319 12.2971 5.47759 12.2733L5.47994 12.2709C5.49545 12.2564 5.51096 12.2418 5.52694 12.2268L6.03548 11.7394L6.42981 11.361C6.44501 11.3466 6.45682 11.3291 6.46438 11.3095C6.47194 11.29 6.47506 11.2691 6.47352 11.2482C6.45691 11.0214 6.44031 10.7951 6.4237 10.5695C6.42137 10.5344 6.40599 10.5015 6.3806 10.4771C6.35521 10.4528 6.32163 10.4388 6.28646 10.4379L5.7375 10.4196L5.5354 10.4126L5.43247 10.4093H5.42401Z" fill="black"/>
<path d="M7.40493 10.2555L6.70839 10.2419C6.69202 10.2417 6.67621 10.2359 6.66369 10.2253C6.65117 10.2148 6.64271 10.2002 6.63977 10.1841C6.59653 9.95754 6.55329 9.731 6.51052 9.50587C6.50826 9.49393 6.5091 9.48161 6.51297 9.47009C6.51684 9.45856 6.5236 9.44823 6.53261 9.44007L7.39976 8.64953C7.41269 8.63794 7.42939 8.63143 7.44676 8.6312C7.46384 8.63065 7.48054 8.63633 7.49376 8.64718L8.32519 9.32633C8.33292 9.33277 8.33921 9.34076 8.34366 9.34979C8.34811 9.35882 8.35062 9.36868 8.35102 9.37873C8.35142 9.38879 8.3497 9.39882 8.34598 9.40817C8.34226 9.41752 8.33661 9.42599 8.32942 9.43302L7.4947 10.232C7.48093 10.2454 7.46265 10.2531 7.44347 10.2536L7.40493 10.2555Z" fill="white"/>
<path d="M7.44749 8.70317L7.50389 8.75017L8.27892 9.38372L7.4442 10.1827L6.711 10.1696C6.66808 9.9424 6.62515 9.71633 6.58222 9.49136L7.44937 8.70081M7.44937 8.55981C7.41458 8.56041 7.38118 8.5736 7.35537 8.59695L6.48822 9.38749C6.47006 9.40379 6.45643 9.42454 6.44869 9.44769C6.44095 9.47084 6.43934 9.4956 6.44404 9.51956C6.48728 9.74422 6.53005 9.97075 6.57329 10.1973C6.57909 10.2296 6.59596 10.2589 6.62102 10.28C6.64607 10.3012 6.67772 10.313 6.71053 10.3134L7.36571 10.3251H7.44373H7.44608C7.46486 10.3252 7.48348 10.3216 7.50083 10.3144C7.51818 10.3072 7.53392 10.2967 7.54713 10.2833L8.38138 9.48431C8.39611 9.47047 8.4077 9.45364 8.41535 9.43494C8.42301 9.41624 8.42656 9.39611 8.42576 9.37592C8.42495 9.35573 8.41982 9.33595 8.4107 9.31791C8.40159 9.29988 8.3887 9.28401 8.37292 9.2714L7.59413 8.63924L7.53773 8.59224C7.51237 8.57122 7.48044 8.55975 7.44749 8.55981H7.44937Z" fill="black"/>
<path d="M6.19514 10.1756H5.6067C5.56414 10.176 5.52271 10.1619 5.4892 10.1357C5.32689 10.0104 5.1638 9.8822 4.99993 9.75123C4.87648 9.65253 4.75459 9.5543 4.63427 9.45654C4.61214 9.43842 4.59431 9.41561 4.58207 9.38977C4.56983 9.36392 4.56348 9.33568 4.56348 9.30708C4.56348 9.27848 4.56983 9.25024 4.58207 9.22439C4.59431 9.19854 4.61214 9.17574 4.63427 9.15762L5.14657 8.73791C5.16469 8.72334 5.18724 8.71539 5.21049 8.71539C5.23374 8.71539 5.25629 8.72334 5.27441 8.73791L6.18809 9.46829C6.19028 9.70204 6.19263 9.93782 6.19514 10.1756Z" fill="#9F9FA0"/>
<path d="M8.47874 11.3403L7.77045 12.0707L6.88027 11.3699C6.86593 11.3588 6.85428 11.3445 6.84615 11.3283C6.83802 11.312 6.83362 11.2941 6.83327 11.2759C6.83327 11.1161 6.82904 10.9568 6.82716 10.7979C6.82671 10.7606 6.84059 10.7245 6.86594 10.697C6.89129 10.6696 6.92618 10.6529 6.96346 10.6504L7.56459 10.609L8.47874 11.3403Z" fill="#9F9FA0"/>
<path d="M6.32785 11.2533L5.42357 12.1219L4.69037 11.5579C4.67274 11.5442 4.6583 11.5267 4.64806 11.5069C4.63781 11.487 4.63199 11.4651 4.63101 11.4428C4.63003 11.4205 4.6339 11.3982 4.64236 11.3775C4.65083 11.3568 4.66368 11.3382 4.68003 11.3229L5.52603 10.5516L6.27803 10.577C6.29495 10.801 6.31156 11.0265 6.32785 11.2533Z" fill="#9F9FA0"/>
<path d="M8.20701 9.45142L7.47052 10.1564C7.45359 10.1726 7.43098 10.1816 7.40754 10.1813L6.88819 10.1719C6.86781 10.1714 6.84822 10.164 6.83265 10.1508C6.81709 10.1377 6.80651 10.1196 6.80265 10.0996C6.77132 9.94289 6.74139 9.78544 6.71288 9.6272C6.70498 9.58598 6.70779 9.54342 6.72104 9.50359C6.73429 9.46376 6.75753 9.428 6.78855 9.39972L7.44655 8.79953C7.46221 8.78518 7.48251 8.77695 7.50375 8.77634C7.52498 8.77574 7.54572 8.7828 7.56217 8.79624L8.20043 9.31794C8.21041 9.32576 8.2186 9.33563 8.22443 9.34688C8.23026 9.35814 8.23361 9.37052 8.23423 9.38318C8.23485 9.39584 8.23275 9.40849 8.22805 9.42027C8.22335 9.43204 8.21618 9.44267 8.20701 9.45142Z" fill="#9F9FA0"/>
<path opacity="0.38" d="M13.9207 14.3723C13.5943 14.351 13.2846 14.2206 13.0414 14.0019C12.561 13.555 12.5925 12.8965 13.1067 12.5369C13.2381 12.447 13.3855 12.3832 13.541 12.3489C13.3811 12.4528 13.2433 12.5871 13.1354 12.7442C13.1264 12.7592 13.1114 12.7837 13.0949 12.8156C13.0435 12.9231 13.0097 13.0382 12.9948 13.1564C12.9718 13.366 13.0498 13.758 13.3511 14.0466C13.5014 14.1889 13.6863 14.2895 13.8874 14.3384C13.9006 14.3474 13.912 14.3589 13.9207 14.3723Z" fill="#EFF2F4"/>
<path opacity="0.38" d="M19.7945 10.9544C19.4678 10.9328 19.1579 10.8015 18.9152 10.5817C18.4348 10.1352 18.4668 9.47675 18.981 9.1172C19.112 9.02676 19.2596 8.96289 19.4152 8.9292C19.2552 9.03279 19.1173 9.16715 19.0096 9.32447C18.9949 9.34755 18.9814 9.37139 18.9692 9.39591C18.9177 9.50337 18.8839 9.61843 18.8691 9.73666C18.8456 9.94628 18.9236 10.3383 19.2249 10.6268C19.3753 10.7693 19.5603 10.8699 19.7616 10.9187C19.775 10.9282 19.7862 10.9403 19.7945 10.9544Z" fill="#EFF2F4"/>
<g style="mix-blend-mode:multiply" opacity="0.44">
<path d="M30.1539 13.438C29.9321 13.4488 29.6266 13.4558 29.2638 13.438C28.3938 13.3962 27.694 13.2387 26.9015 13.062C26.4315 12.9567 26.2008 12.8998 26.0029 12.851C25.5216 12.732 25.4351 12.6996 25.0065 12.6268C24.192 12.4886 23.4724 12.372 22.6245 12.4923C22.0525 12.5737 21.6319 12.7353 21.2282 12.9078C20.3413 13.2838 18.2925 14.5401 17.4033 15.0924L17.4118 15.1004L17.1942 15.2226L16.985 15.3547L16.977 15.3462C16.4699 15.6672 14.549 16.8939 13.1376 18.1032C12.7945 18.397 12.3522 18.7443 12.1407 19.3135C12.0119 19.6598 11.9193 20.2065 11.8916 20.417C11.8597 20.6619 11.8559 20.8442 11.8559 20.8442V21.4139C11.8559 21.7678 11.8559 21.7622 11.8559 21.7697C11.8446 21.9666 11.831 22.1137 11.8206 22.2326C11.7976 22.5005 11.8009 22.509 11.7849 22.6951C11.7718 22.8488 11.7501 23.0678 11.714 23.3362L11.6068 23.9768C11.3046 24.874 11.0315 25.5085 10.9464 25.6016C10.9056 25.6486 10.8698 25.6801 10.8698 25.6801C10.8143 25.7337 10.7551 25.7833 10.6926 25.8286L10.687 25.8324C10.4184 26.0244 10.1152 26.1624 9.794 26.2389C9.10733 26.4053 8.50291 26.2718 8.16357 26.1755C8.29846 26.1491 8.431 26.1285 8.5203 26.1007C9.57216 25.7976 10.5079 25.0695 11.0113 24.0919C12.1666 21.858 11.1105 18.843 12.599 16.822C12.9886 16.2923 13.5216 15.8872 14.056 15.5018C15.8828 14.1828 17.809 13.0073 19.8172 11.9857C20.683 11.5429 21.5835 11.1256 22.547 10.994C23.2346 10.9 23.863 10.9127 24.8354 11.041C26.4792 11.2663 28.0947 11.6639 29.6553 12.2273C29.6308 12.2541 29.33 12.5901 29.4419 12.9036C29.4926 13.0446 29.6125 13.1386 29.7267 13.2241C29.8547 13.3212 29.9995 13.3937 30.1539 13.438Z" fill="#333D6A"/>
</g>
</svg>
