<svg width="17" height="16" viewBox="0 0 17 16" fill="none" xmlns="http://www.w3.org/2000/svg">
<path d="M2.10938 0.0437498C1.675 0.18125 1.35 0.503125 1.21875 0.934375C1.15625 1.12813 1.15625 1.25 1.15625 8.30937V15.4875L1.23438 15.6469C1.28437 15.7469 1.3625 15.8375 1.44375 15.8937L1.57188 15.9844L5.79688 15.9937L10.0188 16L10.1594 15.9281C10.2438 15.8844 10.3344 15.7969 10.4 15.7062L10.5 15.5563L10.5031 13.9562C10.5031 12.2375 10.5063 12.2 10.6656 12.0812C10.7406 12.025 10.7969 12.0156 11.0406 12.0156C11.2875 12.0187 11.35 12.0312 11.4688 12.0938C11.5437 12.1375 11.65 12.2344 11.7031 12.3062L11.7969 12.4437L11.8156 13.0719C11.8344 13.65 11.8406 13.725 11.9187 13.9531C12.0813 14.4281 12.4 14.8281 12.8156 15.0719C13.2344 15.3187 13.7844 15.4062 14.2625 15.3C14.8406 15.1687 15.3594 14.7719 15.6156 14.2594C15.8594 13.7719 15.8469 14.1094 15.8375 8.90625L15.8281 4.26562L15.7406 4.02187C15.6406 3.74062 15.4875 3.48125 15.3 3.28438C15.2312 3.20937 14.6406 2.75 13.9938 2.2625C13.1438 1.625 12.7781 1.36875 12.6813 1.34062C12.3906 1.2625 12.0656 1.39375 11.9156 1.65C11.8438 1.76875 11.8281 1.83437 11.8281 2C11.8281 2.3125 11.9 2.40938 12.4031 2.7875C12.6375 2.95937 12.875 3.14687 12.9313 3.2C13.1438 3.39687 13.1375 3.37187 13.1562 4.57812L13.1719 5.67188L13.2719 5.88125C13.4438 6.24375 13.7312 6.5 14.1125 6.625C14.3469 6.70312 14.4563 6.81563 14.4844 7.00937C14.4938 7.08125 14.5 8.56875 14.4938 10.3125L14.4844 13.4844L14.4156 13.6094C14.2875 13.85 14.0875 13.9719 13.825 13.9719C13.6094 13.9719 13.4281 13.875 13.2969 13.6937L13.2031 13.5562L13.1844 12.9281C13.1656 12.35 13.1594 12.275 13.0813 12.0469C12.9187 11.5719 12.6 11.1719 12.1844 10.9281C11.8719 10.7438 11.6406 10.6844 11.1562 10.6594C10.8875 10.6469 10.7094 10.6219 10.6687 10.5969C10.5063 10.4906 10.5156 10.7656 10.5 5.70312C10.4844 1.14375 10.4812 0.978125 10.425 0.84375C10.2656 0.46875 9.99063 0.20625 9.61563 0.0656252L9.43437 0L5.83437 0.00312519C3.02188 0.00312519 2.20625 0.0124998 2.10938 0.0437498ZM8.96875 1.39062C9.1625 1.49062 9.15625 1.39062 9.15625 4C9.15625 6.06563 9.15 6.39062 9.10938 6.46875C9.00625 6.66562 9.175 6.65625 5.84375 6.65625C2.525 6.65625 2.65938 6.6625 2.55938 6.47812C2.49375 6.35312 2.49375 1.64375 2.5625 1.51875C2.65625 1.3375 2.50625 1.34688 5.82188 1.34375C8.49375 1.34375 8.89062 1.35 8.96875 1.39062Z" fill="#5B648A"/>
</svg>
