<svg width="33" height="28" viewBox="0 0 33 28" fill="none" xmlns="http://www.w3.org/2000/svg">
<path d="M15.5598 27.5395C15.5473 27.5395 15.535 27.5362 15.5242 27.53C15.5133 27.5239 15.5042 27.515 15.4978 27.5043L3.92683 7.63599C3.9207 7.625 3.91748 7.61262 3.91748 7.60003C3.91748 7.58745 3.9207 7.57507 3.92683 7.56408L4.6558 6.28098L4.65909 6.27581C4.66884 6.26095 4.68321 6.24972 4.69998 6.24385L18.1086 2.23381C18.1152 2.23195 18.122 2.231 18.1288 2.23099C18.1409 2.23095 18.1527 2.23394 18.1633 2.23969C18.1739 2.24544 18.1829 2.25376 18.1895 2.26389L25.1643 13.135L28.9576 19.0462C28.9645 19.0569 28.9684 19.0693 28.9689 19.082C28.9694 19.0947 28.9665 19.1073 28.9604 19.1186L28.2686 20.4284C28.2621 20.4406 28.2524 20.4507 28.2404 20.4576L15.5974 27.5306C15.5859 27.5369 15.5729 27.54 15.5598 27.5395Z" fill="#684FB7"/>
<path d="M18.1268 2.30291L25.0631 13.1129L28.5636 18.5677C28.6749 18.7413 28.7861 18.9147 28.8973 19.088L28.2055 20.3965L21.0502 24.3976L15.5601 27.47L15.5507 27.454L3.98874 7.60216C4.23095 7.17383 4.47315 6.74613 4.71536 6.31906C4.71604 6.31774 4.71682 6.31648 4.71771 6.3153L18.1259 2.30526M18.1259 2.16144C18.112 2.16139 18.0982 2.16345 18.085 2.16755L14.4321 3.25701L4.67729 6.17524C4.64523 6.18485 4.61749 6.20528 4.5988 6.23305C4.5988 6.2354 4.59504 6.23869 4.59363 6.24151C4.59348 6.24291 4.59348 6.24433 4.59363 6.24574L4.22985 6.88729C4.10922 7.10098 3.98811 7.31483 3.86654 7.52884C3.85448 7.55038 3.84814 7.57465 3.84814 7.59934C3.84814 7.62402 3.85448 7.6483 3.86654 7.66984L15.4285 27.5217L15.4379 27.5386C15.4503 27.5602 15.4681 27.5782 15.4895 27.5909C15.5109 27.6036 15.5353 27.6105 15.5601 27.611C15.5848 27.6112 15.6092 27.6048 15.6306 27.5927L21.1202 24.5231L28.2755 20.5201C28.2998 20.5065 28.3197 20.4863 28.3329 20.4618L28.6788 19.809L29.0247 19.1548C29.0365 19.1321 29.0421 19.1068 29.041 19.0813C29.04 19.0558 29.0322 19.0311 29.0186 19.0095L28.8503 18.7477L28.6849 18.4897L25.1843 13.0335L18.2481 2.22348C18.2352 2.20295 18.2174 2.18607 18.1961 2.17447C18.1749 2.16286 18.151 2.15692 18.1268 2.15721L18.1259 2.16144Z" fill="black"/>
<g style="mix-blend-mode:multiply" opacity="0.72">
<path d="M28.8969 19.0861L28.205 20.3946L15.5597 27.47L15.5503 27.454C15.6067 27.3365 15.6871 27.203 15.7538 27.0742C16.1961 26.2202 16.6802 25.3771 17.326 24.658C18.4098 23.4519 19.8776 22.6703 21.3351 21.9592C22.0871 21.5917 22.848 21.2359 23.607 20.8782L28.2887 18.6871C28.3785 18.6448 28.4697 18.6025 28.5618 18.5658C28.6739 18.7394 28.7857 18.9128 28.8969 19.0861Z" fill="#684FB7"/>
</g>
<path d="M16.281 26.2442C16.2684 26.2443 16.2561 26.241 16.2452 26.2348C16.2343 26.2285 16.2252 26.2194 16.219 26.2085L4.6471 6.34067C4.64178 6.3316 4.63851 6.32147 4.63752 6.31099C4.63654 6.30052 4.63786 6.28996 4.6414 6.28006C4.64494 6.27015 4.65061 6.26115 4.65801 6.25367C4.66541 6.2462 4.67436 6.24044 4.68423 6.2368L6.59384 5.5318L7.50752 5.19528L8.91329 4.67828L14.7906 2.51628L17.863 1.38781C17.8709 1.38504 17.8791 1.38361 17.8875 1.38358C17.8997 1.38352 17.9117 1.38659 17.9224 1.39252C17.9331 1.39845 17.9421 1.40702 17.9486 1.41742L28.9583 19.0481C28.9635 19.0563 28.967 19.0655 28.9684 19.0751C28.9699 19.0848 28.9693 19.0946 28.9668 19.104C28.9647 19.1138 28.9605 19.123 28.9546 19.1311C28.9487 19.1392 28.9412 19.146 28.9325 19.151L16.3163 26.2353C16.3055 26.2412 16.2933 26.2443 16.281 26.2442Z" fill="#986CFF"/>
<path d="M17.8874 1.45548L25.2133 13.1867L28.8972 19.0861L20.455 23.8279L16.2809 26.1723L12.9642 20.4783L4.71613 6.31669L4.70908 6.30447L6.1454 5.77572L7.53237 5.2653L14.8174 2.5863L17.8893 1.45595M17.8893 1.31213C17.8732 1.3124 17.8573 1.31542 17.8423 1.32106L16.2809 1.8954L14.7657 2.45047L9.02697 4.56218L7.48349 5.12994L6.56182 5.46975L6.09652 5.64083L5.38353 5.90309L4.6602 6.16911C4.64039 6.17637 4.62243 6.18791 4.60758 6.20289C4.59273 6.21787 4.58136 6.23594 4.57428 6.25581C4.56719 6.27568 4.56456 6.29686 4.56658 6.31786C4.56859 6.33886 4.5752 6.35916 4.58594 6.37732L4.59299 6.38954L12.841 20.5506L16.1569 26.2447C16.1693 26.2666 16.1873 26.2848 16.2092 26.2973C16.231 26.3099 16.2558 26.3164 16.2809 26.3161C16.3056 26.3163 16.33 26.31 16.3514 26.2978L20.5255 23.9534L28.9677 19.2116C28.9846 19.202 28.9995 19.1891 29.0114 19.1737C29.0233 19.1582 29.0319 19.1405 29.0367 19.1216C29.0415 19.1027 29.0425 19.083 29.0395 19.0638C29.0365 19.0445 29.0297 19.0261 29.0194 19.0095L27.1864 16.0744L25.336 13.1105L18.0091 1.37934C17.9964 1.35841 17.9784 1.34117 17.957 1.3293C17.9356 1.31743 17.9114 1.31135 17.8869 1.31166L17.8893 1.31213Z" fill="black"/>
<path d="M16.5403 24.7703C16.5292 24.7703 16.5182 24.7674 16.5086 24.7619C16.4989 24.7564 16.4909 24.7484 16.4853 24.7388L6.27313 7.20782C6.26852 7.19982 6.26571 7.19092 6.2649 7.18173C6.26408 7.17253 6.26528 7.16327 6.26842 7.15459C6.27155 7.14591 6.27654 7.13802 6.28303 7.13146C6.28953 7.12491 6.29738 7.11985 6.30603 7.11664L17.9357 2.83964C17.9427 2.83725 17.95 2.83598 17.9573 2.83588C17.9682 2.83582 17.9788 2.83856 17.9883 2.84383C17.9978 2.84909 18.0057 2.85672 18.0114 2.86596L27.7277 18.423C27.7361 18.4371 27.7388 18.4539 27.7352 18.47C27.7332 18.4783 27.7294 18.4861 27.7241 18.4929C27.7189 18.4997 27.7122 18.5054 27.7047 18.5094L16.5713 24.7623C16.5618 24.7676 16.5511 24.7704 16.5403 24.7703Z" fill="#F5F6FF"/>
<path d="M17.9567 2.89463C21.195 8.08124 24.4336 13.2669 27.6726 18.4516L16.5401 24.7069L13.613 19.6821L6.32798 7.17351L15.2467 3.89197L17.9567 2.89463ZM17.9567 2.76773C17.9418 2.76765 17.927 2.77036 17.913 2.77572L16.55 3.27674L15.2011 3.77306L12.2034 4.87568L6.28145 7.0546C6.26402 7.06094 6.24821 7.07104 6.23512 7.08417C6.22203 7.0973 6.21199 7.11315 6.20571 7.1306C6.19943 7.14805 6.19707 7.16666 6.19879 7.18512C6.2005 7.20359 6.20626 7.22144 6.21565 7.23743L13.5006 19.746L16.4273 24.7708C16.4385 24.7901 16.4546 24.8061 16.4739 24.8172C16.4932 24.8283 16.515 24.8342 16.5373 24.8342C16.5591 24.8341 16.5804 24.8284 16.5994 24.8178L22.5322 21.4855L27.7332 18.564C27.7483 18.5557 27.7616 18.5445 27.7722 18.531C27.7828 18.5174 27.7906 18.5019 27.795 18.4853C27.7994 18.4686 27.8003 18.4513 27.7978 18.4343C27.7952 18.4172 27.7893 18.4009 27.7802 18.3863L22.9232 10.6069L18.0653 2.82742C18.0538 2.80912 18.0379 2.79404 18.019 2.7836C18 2.77316 17.9788 2.7677 17.9572 2.76773H17.9567Z" fill="black"/>
<g style="mix-blend-mode:multiply" opacity="0.4">
<path d="M28.8969 19.0861L28.205 20.3946L21.0498 24.3976C20.8614 24.1975 20.6628 24.0074 20.4547 23.828C20.0787 23.5018 19.6821 23.1986 19.2957 22.888C15.2457 19.6506 12.1729 15.3778 9.15312 11.161C8.8166 10.691 7.86391 9.74441 7.93112 9.15408C8.37628 9.11513 8.81477 9.02039 9.23631 8.87208C9.76506 8.69536 10.3408 8.72498 10.8926 8.8077C12.4633 9.0427 13.941 9.68142 15.4676 10.1176C17.2037 10.613 19.0067 10.8451 20.741 11.3466C22.2412 11.7804 23.6672 12.4084 25.065 13.1096L25.2154 13.1853L28.8969 19.0861Z" fill="#40407F"/>
</g>
<path d="M22.4925 20.373C22.4864 20.3729 22.4804 20.372 22.4746 20.3702C20.4747 19.7776 18.5505 18.9545 16.7406 17.9177C12.458 15.4591 8.83897 11.7555 6.28217 7.20782C6.27771 7.19996 6.27499 7.19124 6.27418 7.18224C6.27337 7.17325 6.27449 7.16418 6.27747 7.15565C6.28048 7.14712 6.28527 7.13932 6.2915 7.13276C6.29774 7.1262 6.30529 7.12103 6.31366 7.11758C9.32777 5.89558 12.4133 4.73374 15.4838 3.66778C16.296 3.38578 17.1218 3.10378 17.9377 2.83447C17.9442 2.8322 17.951 2.83109 17.9579 2.83118C17.969 2.83119 17.9798 2.8341 17.9894 2.83963C17.999 2.84515 18.0069 2.8531 18.0124 2.86267C18.974 4.51942 20.73 6.87788 23.644 8.70571C27.0421 10.8395 30.4289 11.2879 32.6713 11.2879C32.7361 11.2879 32.7977 11.2879 32.8564 11.2879C32.868 11.2879 32.8793 11.291 32.8892 11.2969C32.8992 11.3029 32.9073 11.3114 32.9127 11.3216C32.9181 11.3318 32.9206 11.3433 32.92 11.3548C32.9194 11.3664 32.9156 11.3775 32.9091 11.3871C30.3159 15.259 26.728 18.3611 22.5221 20.3678C22.5128 20.372 22.5026 20.3737 22.4925 20.373Z" fill="#F5F6FF"/>
<path d="M17.9569 2.89462C19.3386 5.27795 21.2778 7.29054 23.6081 8.75976C27.3409 11.1036 30.997 11.3513 32.6693 11.3513H32.8573C31.7976 12.9329 30.5669 14.3929 29.1875 15.7049C27.2113 17.581 24.9529 19.1352 22.4947 20.3109C20.4993 19.7201 18.5794 18.899 16.7739 17.8641C11.0399 14.5718 7.86972 9.89856 6.33987 7.17773C9.28019 5.98487 12.3352 4.83541 15.5049 3.72935C16.3271 3.44421 17.1449 3.16644 17.9583 2.89603M17.9569 2.76772C17.9433 2.76784 17.9298 2.77006 17.9169 2.7743C17.1005 3.04549 16.2747 3.32562 15.4621 3.60809C12.3907 4.67405 9.30511 5.83541 6.28912 7.05883C6.27243 7.06565 6.25738 7.07594 6.24497 7.08901C6.23256 7.10208 6.22306 7.11764 6.21711 7.13465C6.21115 7.15167 6.20888 7.16975 6.21044 7.18771C6.21199 7.20567 6.21734 7.2231 6.22614 7.23883C7.25905 9.0802 8.48464 10.8066 9.88227 12.3891C11.8389 14.6091 14.1446 16.4951 16.7085 17.9727C18.5229 19.0121 20.4519 19.8371 22.4566 20.4313C22.4683 20.4346 22.4803 20.4363 22.4924 20.4364C22.5114 20.4365 22.5302 20.4321 22.5474 20.4237C26.7621 18.4125 30.358 15.3041 32.9579 11.4247C32.9738 11.4032 32.9823 11.3771 32.9823 11.3504C32.9824 11.3337 32.9791 11.3171 32.9728 11.3017C32.9664 11.2862 32.9571 11.2722 32.9453 11.2604C32.9335 11.2485 32.9195 11.2391 32.9041 11.2327C32.8886 11.2263 32.8721 11.223 32.8554 11.223C32.7971 11.223 32.7355 11.223 32.6712 11.223C30.4368 11.223 27.0631 10.777 23.6772 8.65119C20.7773 6.83041 19.0271 4.4804 18.0692 2.83023C18.0581 2.81093 18.042 2.7949 18.0227 2.78377C18.0034 2.77263 17.9815 2.76677 17.9592 2.76678L17.9569 2.76772Z" fill="black"/>
<path d="M10.3983 9.1545C10.6863 9.01787 10.7799 8.61225 10.6073 8.2485C10.4348 7.88476 10.0614 7.70065 9.77341 7.83727C9.48542 7.9739 9.39184 8.37953 9.5644 8.74327C9.73697 9.10701 10.1103 9.29113 10.3983 9.1545Z" fill="black"/>
<path d="M13.7344 7.84673C14.0167 7.69875 14.0941 7.28972 13.9072 6.93313C13.7203 6.57654 13.3399 6.40743 13.0576 6.5554C12.7753 6.70338 12.6979 7.11241 12.8848 7.46899C13.0717 7.82558 13.4521 7.9947 13.7344 7.84673Z" fill="black"/>
<path d="M17.3321 6.5157C17.6144 6.36773 17.6917 5.9587 17.5048 5.60211C17.318 5.24552 16.9376 5.0764 16.6552 5.22438C16.3729 5.37235 16.2956 5.78138 16.4824 6.13797C16.6693 6.49456 17.0497 6.66368 17.3321 6.5157Z" fill="black"/>
<path opacity="0.74" d="M8.60387 12.5376C10.0571 15.1847 11.5104 17.8323 12.9636 20.4806L4.70898 6.30449L14.814 2.58585C14.4023 2.80863 13.334 3.22928 11.625 3.90185C10.5934 4.30793 9.56549 4.72576 8.53055 5.12385C6.50015 5.90781 5.99255 6.07137 5.79609 6.59871C5.61279 7.09597 5.83557 7.57396 6.55185 8.90171C7.07731 9.87414 7.76304 11.1098 8.60387 12.5376Z" fill="white"/>
<g style="mix-blend-mode:multiply" opacity="0.51">
<path d="M10.8427 7.59417C10.7222 7.90345 10.5534 8.19169 10.3427 8.44816C10.2341 8.58023 10.1077 8.70713 9.94551 8.76024C9.70534 8.83826 9.4459 8.73815 9.22124 8.62347C8.35127 8.1765 7.63734 7.49077 7.00378 6.7571C6.81578 6.53996 6.31946 6.10192 6.14697 5.77574L7.53394 5.26532C7.89562 5.86021 8.37615 6.37408 8.94548 6.7748C9.51481 7.17551 10.1607 7.45445 10.8427 7.59417Z" fill="#40407F"/>
</g>
<g style="mix-blend-mode:multiply" opacity="0.51">
<path d="M14.0453 6.29885C13.9244 6.60852 13.755 6.89696 13.5433 7.15331C13.4348 7.28491 13.3083 7.41181 13.1462 7.46492C12.906 7.54294 12.6466 7.4433 12.4224 7.32815C11.5524 6.88165 10.838 6.19545 10.2045 5.46178C10.0165 5.24464 9.52062 4.8066 9.34766 4.48042C9.81014 4.31028 10.2725 4.14014 10.7346 3.97C11.4514 5.15863 12.6818 6.03142 14.0453 6.29885Z" fill="#40407F"/>
</g>
<g style="mix-blend-mode:multiply" opacity="0.51">
<path d="M17.8949 4.9316C17.7741 5.24118 17.6047 5.52948 17.393 5.78559C17.2844 5.91766 17.158 6.04456 16.9958 6.09767C16.7561 6.17569 16.4967 6.07558 16.272 5.9609C15.402 5.51393 14.6876 4.8282 14.0541 4.09453C13.8661 3.87739 13.3702 3.43935 13.1973 3.11317L14.5847 2.60275C15.301 3.79138 16.5314 4.66417 17.8949 4.9316Z" fill="#40407F"/>
</g>
<path d="M17.211 6.38062C17.0841 6.36417 16.9642 6.31335 16.8641 6.23366C16.764 6.15397 16.6876 6.04844 16.6432 5.92848C16.613 5.8361 16.6015 5.73859 16.6096 5.64172C16.6177 5.54485 16.6451 5.45058 16.6902 5.36448L16.6973 5.35132L16.7132 5.33957L16.7203 5.33534C17.3863 4.94571 17.5033 3.88492 16.9825 2.9703C16.6042 2.30525 15.9744 1.87567 15.3784 1.87567C15.1876 1.87293 14.9996 1.92164 14.8342 2.01667C14.6026 2.15767 14.4287 2.37639 14.3435 2.63378L14.3327 2.66386L13.0942 3.13104L13.1003 3.02576C13.1055 2.94069 13.1144 2.85468 13.1281 2.76256C13.1476 2.62971 13.1765 2.49841 13.2146 2.36964L13.2193 2.3546C13.3983 1.7624 13.7565 1.29569 14.2533 1.00335C14.5912 0.805022 14.9763 0.701435 15.3681 0.703491C15.695 0.705191 16.0186 0.768989 16.3217 0.891491C16.9981 1.15986 17.5879 1.69049 17.9827 2.38233C18.2065 2.77119 18.3558 3.19835 18.4231 3.64193C18.4704 3.95452 18.4712 4.2724 18.4254 4.58522C18.3913 4.81566 18.3281 5.04086 18.2374 5.25544C18.0509 5.71092 17.7209 6.0931 17.2974 6.34396L17.266 6.36229L17.234 6.38015L17.211 6.38062Z" fill="#8D9EBE"/>
<path d="M15.3682 0.773988C15.6865 0.776417 16.0014 0.83909 16.2964 0.958698C16.9587 1.2219 17.5363 1.74031 17.9236 2.41993C18.1425 2.80161 18.2888 3.22056 18.355 3.65556C18.4015 3.96158 18.4025 4.27281 18.3578 4.57911C18.3252 4.8036 18.2644 5.0231 18.1769 5.23241C17.9959 5.67477 17.6752 6.04581 17.2637 6.28897L17.2209 6.31294C17.1064 6.2981 16.9981 6.25232 16.9077 6.18052C16.8172 6.10872 16.7481 6.01362 16.7077 5.90545C16.6803 5.82213 16.6699 5.73418 16.677 5.64677C16.6841 5.55936 16.7086 5.47424 16.749 5.39644L16.7537 5.39362C17.4512 4.98613 17.5795 3.88351 17.04 2.93646C16.6381 2.23146 15.9764 1.80846 15.3766 1.80846C15.1736 1.80648 14.9737 1.85924 14.7981 1.96121C14.5524 2.10995 14.3677 2.34142 14.2773 2.61404L13.1667 3.02999C13.1719 2.94351 13.1813 2.85797 13.194 2.77337C13.213 2.64353 13.2413 2.51521 13.2786 2.38938C13.2786 2.38421 13.2818 2.37904 13.2833 2.37387C13.4557 1.80329 13.804 1.34645 14.2881 1.06304C14.616 0.871194 14.9893 0.770883 15.3691 0.772578M15.3691 0.635808C14.9652 0.633538 14.5682 0.740386 14.22 0.945068C13.7058 1.24587 13.3373 1.72621 13.1531 2.33392V2.34097C13.1518 2.3445 13.1507 2.34811 13.1498 2.35178C13.111 2.48334 13.0814 2.61746 13.0614 2.75316C13.0478 2.84716 13.0379 2.93599 13.0332 3.022L13.021 3.23256L13.2179 3.1583L14.3285 2.73953L14.3878 2.71697L14.4089 2.65728C14.4888 2.4152 14.652 2.20934 14.8695 2.07636C15.0244 1.98669 15.2005 1.94041 15.3795 1.94241C15.951 1.94241 16.5577 2.35883 16.9239 3.00273C17.4268 3.88539 17.3206 4.90388 16.6889 5.27424C16.6827 5.27761 16.6767 5.28138 16.671 5.28552L16.6466 5.30432L16.632 5.33158C16.5832 5.4262 16.5539 5.52967 16.5458 5.63584C16.5377 5.742 16.5511 5.84871 16.585 5.94963C16.6334 6.08153 16.7171 6.19762 16.8269 6.28529C16.9367 6.37297 17.0684 6.42886 17.2078 6.44689L17.2548 6.45347L17.2952 6.43044L17.3055 6.42433L17.3398 6.40506C17.7738 6.14651 18.1119 5.75369 18.3029 5.28599C18.3942 5.06609 18.4574 4.83553 18.4909 4.59979C18.5386 4.28039 18.5386 3.95568 18.4909 3.63629C18.4224 3.18429 18.2704 2.74901 18.0425 2.35272C17.6397 1.64772 17.0376 1.10628 16.3472 0.831798C16.036 0.705831 15.7038 0.639966 15.3682 0.637689L15.3691 0.635808Z" fill="black"/>
<g style="mix-blend-mode:multiply" opacity="0.72">
<path d="M18.2467 5.08953C17.9647 5.76304 17.5812 6.10472 17.2635 6.28896L17.2207 6.31294C17.1062 6.2981 16.9979 6.25232 16.9075 6.18052C16.817 6.10872 16.7479 6.01361 16.7075 5.90544C16.6801 5.82213 16.6697 5.73418 16.6768 5.64676C16.6839 5.55935 16.7084 5.47424 16.7488 5.39644L16.7535 5.39362C17.451 4.98613 17.5793 3.8835 17.0398 2.93645C16.6379 2.23145 15.9762 1.80845 15.3764 1.80845C15.1734 1.80647 14.9735 1.85924 14.7979 1.9612C14.5522 2.10995 14.3675 2.34141 14.2771 2.61403L13.1665 3.02999C13.1717 2.94351 13.1811 2.85796 13.1938 2.77336C13.2137 2.63818 13.2435 2.50465 13.2831 2.37386C13.2779 2.39125 13.2285 2.56421 13.3174 2.64129C13.3481 2.66557 13.3863 2.67837 13.4255 2.67749C13.6605 2.6883 13.8818 2.53179 13.9293 2.49748C14.0609 2.40327 14.1815 2.29465 14.2889 2.17365C14.5582 1.86392 15.0775 1.59132 15.5842 1.5979C16.2647 1.60683 16.7263 2.1149 16.8062 2.2089C16.9726 2.40066 17.0844 2.62296 17.2019 2.85655C17.3331 3.11741 17.4054 3.26123 17.4538 3.46756C17.5535 3.89526 17.4106 3.98973 17.5258 4.47524C17.5766 4.65767 17.6621 4.82858 17.7777 4.9786C17.8209 5.04457 17.8839 5.0951 17.9577 5.1229C18.0547 5.15043 18.1586 5.13843 18.2467 5.08953Z" fill="#684FB7"/>
</g>
<path opacity="0.74" d="M18.3186 4.72999C18.2716 4.73704 18.3074 4.36057 18.031 4.08233C17.8872 3.93757 17.6902 3.85015 17.6437 3.62784C17.6354 3.58799 17.6326 3.5472 17.6353 3.50658C17.6437 3.29978 17.545 2.57927 17.0243 1.99506C16.5035 1.41085 15.8394 1.27972 15.6213 1.23977C15.3689 1.19277 14.8754 1.11052 14.326 1.3474C14.0158 1.48281 13.7437 1.69268 13.534 1.9584C13.4983 2.01762 13.4621 2.07778 13.4264 2.13841C13.3761 2.22254 13.3272 2.30667 13.2793 2.38986C13.2793 2.38469 13.2826 2.37952 13.284 2.37435C13.4565 1.80377 13.8048 1.34693 14.2889 1.06352C14.8815 0.716662 15.5945 0.679062 16.2972 0.957772C16.9594 1.22097 17.537 1.73938 17.9243 2.419C18.1432 2.80069 18.2895 3.21964 18.3558 3.65463C18.3158 4.30652 18.3703 4.722 18.3186 4.72999Z" fill="white"/>
<path d="M13.6489 7.67594C13.522 7.65948 13.4021 7.60866 13.302 7.52897C13.2019 7.44928 13.1256 7.34376 13.0811 7.2238C13.0509 7.13142 13.0395 7.03391 13.0475 6.93704C13.0556 6.84017 13.083 6.7459 13.1281 6.6598L13.1352 6.64664L13.1512 6.63442L13.1577 6.63066C13.8242 6.24103 13.9412 5.18024 13.4205 4.26562C13.0402 3.60057 12.4109 3.17099 11.8145 3.17099C11.6237 3.16832 11.4357 3.21702 11.2702 3.31199C11.0386 3.45299 10.8647 3.67171 10.7795 3.9291L10.7687 3.95918L9.53027 4.42636L9.53638 4.32108C9.54155 4.23601 9.55048 4.15 9.56411 4.05788C9.5837 3.92488 9.61259 3.79343 9.65059 3.66449L9.65529 3.64992C9.83436 3.05772 10.1925 2.59101 10.6893 2.29867C11.0272 2.1004 11.4123 1.99682 11.8041 1.99881C12.131 2.00051 12.4547 2.06431 12.7578 2.18681C13.4341 2.45518 14.0239 2.98581 14.4192 3.67765C14.6427 4.06662 14.7918 4.49374 14.8591 4.93725C14.9067 5.24982 14.9075 5.56773 14.8615 5.88054C14.8293 6.11227 14.7675 6.33893 14.6777 6.55499C14.4912 7.01046 14.1612 7.39264 13.7377 7.64351L13.7062 7.66184L13.6743 7.6797L13.6489 7.67594Z" fill="#8D9EBE"/>
<path d="M11.8061 2.0693C12.1244 2.07173 12.4393 2.1344 12.7343 2.25401C13.397 2.51721 13.9742 3.03562 14.3615 3.71524C14.5805 4.0969 14.727 4.51585 14.7934 4.95087C14.8398 5.25692 14.8405 5.56814 14.7957 5.87442C14.7631 6.09892 14.7023 6.31841 14.6148 6.52772C14.4338 6.97008 14.1131 7.34112 13.7016 7.58428L13.6588 7.60825C13.5443 7.59337 13.436 7.54757 13.3456 7.47577C13.2552 7.40398 13.186 7.3089 13.1456 7.20076C13.1182 7.11744 13.1078 7.02949 13.1149 6.94208C13.122 6.85467 13.1465 6.76956 13.1869 6.69175L13.1916 6.68893C13.8891 6.28144 14.0174 5.17882 13.4783 4.23177C13.076 3.52677 12.4143 3.10377 11.8145 3.10377C11.6116 3.10136 11.4117 3.15364 11.236 3.25511C10.9903 3.40385 10.8056 3.63532 10.7152 3.90794L9.60506 4.32671C9.60976 4.24023 9.61916 4.15469 9.63185 4.07009C9.65114 3.94029 9.6794 3.81199 9.71645 3.6861C9.71645 3.68093 9.71974 3.67576 9.72115 3.67059C9.89364 3.10001 10.2419 2.64317 10.726 2.35976C11.0539 2.16796 11.4272 2.06765 11.807 2.0693M11.807 1.93253C11.4031 1.93026 11.0061 2.03711 10.6579 2.24179C10.1442 2.54259 9.7752 3.02293 9.59096 3.63064V3.63769C9.58965 3.64122 9.58855 3.64484 9.58767 3.6485C9.54806 3.78 9.51774 3.91413 9.49696 4.04988C9.48333 4.14388 9.47346 4.23271 9.46876 4.31872L9.45654 4.52928L9.65347 4.45502L10.766 4.03625L10.8252 4.01369L10.8463 3.954C10.9262 3.71179 11.0897 3.50589 11.3074 3.37308C11.4621 3.2834 11.6381 3.23713 11.8169 3.23913C12.3889 3.23913 12.9952 3.65555 13.3613 4.29945C13.8642 5.18164 13.758 6.2006 13.1263 6.57096C13.1202 6.57423 13.1144 6.578 13.1089 6.58224L13.084 6.60104L13.0694 6.6283C13.0206 6.72293 12.9913 6.82639 12.9832 6.93256C12.9752 7.03873 12.9885 7.14543 13.0224 7.24635C13.071 7.37816 13.1547 7.49418 13.2645 7.58183C13.3742 7.66948 13.5059 7.72543 13.6452 7.74361L13.6922 7.75019L13.7326 7.72716L13.7434 7.72105L13.7773 7.70178C14.214 7.44385 14.5545 7.05021 14.7469 6.58083C14.8393 6.36098 14.9032 6.13022 14.9372 5.89416C14.9841 5.57481 14.9833 5.25025 14.9349 4.93113C14.8643 4.47858 14.7097 4.04322 14.479 3.64756C14.0766 2.94256 13.4741 2.40112 12.7837 2.12664C12.4725 2.00067 12.1403 1.93481 11.8047 1.93253H11.807Z" fill="black"/>
<g style="mix-blend-mode:multiply" opacity="0.72">
<path d="M14.6847 6.38484C14.4027 7.05835 14.0192 7.40004 13.7015 7.58428L13.6587 7.60825C13.5442 7.59336 13.436 7.54756 13.3455 7.47577C13.2551 7.40398 13.1859 7.3089 13.1455 7.20076C13.1181 7.11744 13.1077 7.02949 13.1148 6.94208C13.1219 6.85466 13.1464 6.76955 13.1869 6.69175L13.1916 6.68893C13.889 6.28144 14.0173 5.17882 13.4783 4.23177C13.0759 3.52677 12.4142 3.10377 11.8145 3.10377C11.6115 3.10136 11.4117 3.15363 11.2359 3.25511C10.9902 3.40385 10.8055 3.63531 10.7151 3.90794L9.60498 4.32671C9.60968 4.24023 9.61908 4.15469 9.63177 4.07009C9.65189 3.93495 9.68174 3.80143 9.72107 3.67059C9.7159 3.68798 9.66655 3.86094 9.75538 3.93802C9.78611 3.96229 9.82433 3.97509 9.86348 3.97421C10.0985 3.98502 10.3199 3.82851 10.3673 3.7942C10.4989 3.69999 10.6195 3.59137 10.7269 3.47037C10.9962 3.16064 11.5155 2.88804 12.0222 2.89462C12.7028 2.90355 13.1648 3.41162 13.2442 3.50562C13.4106 3.69738 13.5224 3.91969 13.6399 4.15328C13.7711 4.41413 13.8434 4.55795 13.8919 4.76428C13.9915 5.19151 13.8486 5.28645 13.9638 5.77196C14.0146 5.95439 14.1001 6.1253 14.2157 6.27533C14.2591 6.3411 14.3221 6.39157 14.3957 6.41962C14.4928 6.44673 14.5968 6.43422 14.6847 6.38484Z" fill="#684FB7"/>
</g>
<path opacity="0.74" d="M14.7566 6.02531C14.7096 6.03236 14.7453 5.65589 14.469 5.37765C14.3252 5.23289 14.1282 5.14547 14.0817 4.92316C14.0734 4.88331 14.0706 4.84252 14.0732 4.8019C14.0817 4.5951 13.983 3.87459 13.4622 3.29038C12.9415 2.70617 12.2774 2.57504 12.0593 2.53509C11.8069 2.48809 11.3134 2.40584 10.764 2.64272C10.4539 2.77811 10.182 2.98799 9.97249 3.25372C9.93615 3.31294 9.90012 3.37294 9.8644 3.43373C9.81411 3.51786 9.76523 3.60199 9.71729 3.68518C9.71729 3.68001 9.72058 3.67484 9.72199 3.66967C9.89448 3.09909 10.2427 2.64225 10.7268 2.35884C11.3195 2.01198 12.0325 1.97438 12.7352 2.25309C13.3979 2.51629 13.975 3.0347 14.3623 3.71432C14.5814 4.09598 14.7278 4.51493 14.7942 4.94995C14.7538 5.60184 14.8079 6.01732 14.7566 6.02531Z" fill="white"/>
<path d="M10.3032 8.93507C10.1761 8.91873 10.056 8.86785 9.95591 8.78796C9.8558 8.70806 9.77954 8.60223 9.73542 8.48199C9.70508 8.38962 9.6936 8.2921 9.70167 8.19522C9.70975 8.09833 9.73721 8.00405 9.78242 7.91799L9.78947 7.90436L9.80545 7.89214L9.81203 7.88838C10.478 7.49875 10.5955 6.43843 10.0748 5.52381C9.69594 4.85829 9.06614 4.42871 8.47018 4.42871C8.27954 4.42598 8.09169 4.47469 7.92639 4.56971C7.69293 4.71139 7.51813 4.93223 7.43383 5.19199L7.42302 5.2216L6.18457 5.68878L6.19068 5.5835C6.19538 5.49843 6.20431 5.41242 6.21794 5.32077C6.23786 5.1878 6.26691 5.05635 6.30489 4.92738L6.30912 4.91281C6.48866 4.32061 6.8468 3.85343 7.34547 3.56156C7.68327 3.36297 8.06847 3.25936 8.46031 3.2617C8.78708 3.26338 9.11054 3.32718 9.41347 3.4497C10.0903 3.71807 10.6801 4.2487 11.0749 4.94054C11.2988 5.3295 11.448 5.75685 11.5148 6.20061C11.5624 6.51318 11.5632 6.83109 11.5172 7.1439C11.4833 7.37423 11.4201 7.5993 11.3292 7.81365C11.1431 8.26984 10.8135 8.65297 10.3901 8.90499L10.3577 8.92332L10.3262 8.94071L10.3032 8.93507Z" fill="#8D9EBE"/>
<path d="M8.45985 3.32845C8.77814 3.33092 9.0931 3.39359 9.3881 3.51315C10.0503 3.77635 10.628 4.29523 11.0148 4.97438C11.234 5.35615 11.3804 5.77528 11.4467 6.21049C11.4933 6.51636 11.4941 6.82746 11.449 7.13356C11.4169 7.35817 11.3561 7.57772 11.2681 7.78686C11.0874 8.22941 10.7666 8.60054 10.3549 8.84342C10.3375 8.85377 10.3225 8.86176 10.3121 8.8674C10.1977 8.85248 10.0895 8.80666 9.99914 8.73487C9.90879 8.66307 9.83972 8.56801 9.79935 8.4599C9.77173 8.37663 9.76116 8.28864 9.76827 8.20119C9.77538 8.11375 9.80001 8.02862 9.84071 7.9509L9.84541 7.94808C10.5424 7.54059 10.6712 6.43796 10.1316 5.49091C9.72979 4.78591 9.06755 4.36291 8.46783 4.36291C8.2648 4.36123 8.06501 4.41398 7.88926 4.51566C7.64356 4.66441 7.45892 4.89587 7.36851 5.16849L6.25837 5.58774C6.26354 5.50126 6.27294 5.41572 6.28516 5.33065C6.30444 5.20085 6.33271 5.07254 6.36976 4.94665C6.36976 4.94148 6.37305 4.93632 6.37446 4.93115C6.54742 4.36104 6.89569 3.90419 7.37932 3.62031C7.70718 3.42854 8.08049 3.32823 8.46032 3.32986M8.46032 3.19309C8.05632 3.19 7.65898 3.29604 7.31023 3.49999C6.79652 3.80126 6.42757 4.2816 6.2438 4.88931L6.24144 4.8959C6.24144 4.89966 6.2391 4.90341 6.23816 4.9067C6.1996 5.03833 6.17008 5.17244 6.1498 5.30808C6.13617 5.40208 6.12677 5.49139 6.1216 5.5774L6.10938 5.78749L6.30678 5.71322L7.41692 5.29445L7.47614 5.2719L7.49776 5.21268C7.57733 4.97031 7.74062 4.7642 7.95835 4.63129C8.1131 4.54182 8.2891 4.49571 8.46783 4.49781C9.03982 4.49781 9.64613 4.91375 10.0127 5.55765C10.5152 6.44031 10.4089 7.45927 9.77773 7.82916C9.77158 7.8326 9.76561 7.83637 9.75987 7.84045L9.73496 7.85924L9.72085 7.8865C9.67162 7.98104 9.64188 8.08451 9.63341 8.19076C9.62493 8.29701 9.63789 8.40388 9.67151 8.50502C9.72006 8.63684 9.80376 8.75285 9.91353 8.8405C10.0233 8.92815 10.155 8.9841 10.2943 9.00229L10.3413 9.00886L10.3821 8.98536L10.3925 8.97972L10.4268 8.96045C10.8632 8.70202 11.2035 8.30854 11.3964 7.8395C11.4883 7.61948 11.5523 7.38879 11.5868 7.15283C11.6333 6.83328 11.6323 6.50861 11.5839 6.18933C11.5157 5.73737 11.3638 5.30208 11.136 4.90577C10.7332 4.20077 10.1312 3.65932 9.44026 3.38531C9.12938 3.25898 8.79729 3.19295 8.46173 3.19073L8.46032 3.19309Z" fill="black"/>
<g style="mix-blend-mode:multiply" opacity="0.72">
<path d="M11.339 7.64397C11.057 8.31748 10.6735 8.65917 10.3553 8.84341C10.3412 8.85187 10.3271 8.85986 10.3125 8.86738C10.1981 8.85247 10.0899 8.80665 9.99956 8.73485C9.90921 8.66306 9.84014 8.568 9.79977 8.45989C9.77216 8.37662 9.76159 8.28863 9.76869 8.20118C9.7758 8.11373 9.80043 8.02861 9.84113 7.95088L9.84583 7.94806C10.5428 7.54057 10.6716 6.43795 10.1321 5.4909C9.73021 4.7859 9.06798 4.3629 8.46826 4.3629C8.26522 4.36122 8.06544 4.41397 7.88969 4.51565C7.64398 4.6644 7.45934 4.89586 7.36893 5.16848L6.25879 5.58772C6.26396 5.50124 6.27336 5.4157 6.28558 5.33063C6.3057 5.19549 6.33554 5.06198 6.37488 4.93113C6.36971 4.94852 6.32083 5.12148 6.40966 5.19903C6.44032 5.22304 6.47836 5.23566 6.51729 5.23475C6.75229 5.24556 6.97413 5.08905 7.02113 5.05521C7.15264 4.96079 7.27337 4.85219 7.38115 4.73138C7.65046 4.42165 8.16934 4.14905 8.67647 4.15563C9.35703 4.16409 9.81857 4.67263 9.89847 4.76663C10.0653 4.95839 10.1772 5.1807 10.2947 5.41429C10.4258 5.67514 10.4982 5.81896 10.5461 6.02529C10.6462 6.45252 10.5034 6.54699 10.6185 7.0325C10.6693 7.21499 10.7547 7.38604 10.87 7.53634C10.9134 7.60194 10.9764 7.65224 11.05 7.68016C11.1473 7.70669 11.2512 7.69368 11.339 7.64397Z" fill="#684FB7"/>
</g>
<path opacity="0.74" d="M11.4109 7.28444C11.3639 7.29149 11.3991 6.91502 11.1228 6.63678C10.9818 6.49202 10.782 6.4046 10.736 6.18229C10.7278 6.14242 10.7248 6.10167 10.727 6.06103C10.736 5.8547 10.6373 5.13372 10.116 4.54998C9.59481 3.96624 8.9307 3.83417 8.71262 3.79422C8.46022 3.74722 7.96672 3.66497 7.41729 3.90232C7.10718 4.03771 6.83531 4.24759 6.62582 4.51332C6.58963 4.57301 6.5539 4.6327 6.51771 4.69333C6.46789 4.77793 6.41855 4.86159 6.37061 4.94478C6.37061 4.93961 6.37389 4.93444 6.3753 4.92927C6.54826 4.35916 6.89653 3.90232 7.38016 3.61844C7.97283 3.27158 8.6863 3.23445 9.38895 3.51269C10.0512 3.77589 10.6288 4.29477 11.0156 4.97392C11.2348 5.35569 11.3813 5.77482 11.4475 6.21002C11.4081 6.86144 11.4626 7.27692 11.4109 7.28444Z" fill="white"/>
<path d="M17.4556 14.4444L21.8111 15.6321C21.5475 14.8641 21.2837 14.0965 21.0196 13.3291C20.4556 11.7101 19.8916 10.091 19.3276 8.47165" stroke="#434959" stroke-width="1.43914" stroke-linecap="round" stroke-linejoin="round"/>
<path d="M12.176 25.2478C12.1384 25.2479 12.1009 25.2454 12.0637 25.2403H12.0548C11.9736 25.2285 11.8945 25.2054 11.8198 25.1717L8.08701 23.4985C8.07482 23.493 8.0644 23.4842 8.05693 23.4731L4.14935 17.7776L3.60791 16.989L2.49119 15.3614L2.09874 14.7889L2.03717 14.6991C2.02649 14.6837 2.02228 14.6648 2.02544 14.6463C2.02861 14.6279 2.03889 14.6114 2.05409 14.6004L3.51626 13.5368L5.81926 11.8627L5.95415 11.7649C5.96632 11.7557 5.98118 11.7508 5.99645 11.7508H6.00773C6.0171 11.7523 6.02608 11.7557 6.03414 11.7607C6.04221 11.7657 6.04921 11.7722 6.05473 11.78L6.77101 12.7632C6.93175 12.985 7.0928 13.2066 7.25417 13.4278C7.35068 13.5613 7.44734 13.6943 7.54416 13.8268L8.26279 14.8138C9.49732 16.5146 10.7326 18.2158 11.9687 19.9175C12.0251 19.9951 12.0811 20.0726 12.1375 20.1497C12.1434 20.1578 12.1476 20.1671 12.1497 20.177C12.2277 20.5379 12.306 20.8983 12.3847 21.258C12.3847 21.258 12.3979 21.3186 12.3979 21.3196C12.589 22.205 12.7804 23.0902 12.9722 23.9751L13.0192 24.1969C13.0505 24.3376 13.0458 24.4839 13.0056 24.6222C12.953 24.8019 12.8439 24.9598 12.6944 25.0725C12.545 25.1852 12.3632 25.2467 12.176 25.2478Z" fill="#F7BA23"/>
<path d="M5.99516 11.8213L6.04498 11.8904L6.48678 12.4977L6.7105 12.8055C6.87124 13.0274 7.03229 13.2489 7.19366 13.4701C7.3403 13.6728 7.48725 13.8752 7.63452 14.0773L8.20228 14.858C9.43807 16.5591 10.6742 18.2597 11.9106 19.9599C11.9664 20.0373 12.0224 20.1146 12.0788 20.192C12.1612 20.5727 12.2437 20.9534 12.3261 21.3341C12.5335 22.2942 12.7411 23.2542 12.9488 24.2143C12.9775 24.3431 12.9733 24.4771 12.9366 24.6039C12.8879 24.7683 12.7876 24.9126 12.6506 25.0156C12.5136 25.1186 12.3471 25.1748 12.1757 25.1759C12.1412 25.1759 12.1068 25.1735 12.0727 25.1689H12.0652C11.9909 25.1579 11.9184 25.1367 11.8499 25.1059L10.5871 24.5419L8.11533 23.4327C8.10969 23.4238 8.10358 23.4153 8.09747 23.4064C6.80152 21.5167 5.50526 19.6269 4.20869 17.7372L3.66866 16.9467L3.23955 16.3216C3.11422 16.1374 2.9881 15.9534 2.8612 15.7698C2.75843 15.6197 2.65534 15.4696 2.55194 15.3196C2.41094 15.1131 2.26994 14.9069 2.12894 14.701L2.09886 14.6573L2.18581 14.5939L2.78835 14.1558L3.38102 13.7248L3.56103 13.5937L5.61117 12.101L5.86027 11.9196L5.99516 11.8213ZM5.99516 11.6775C5.9647 11.6774 5.93503 11.6871 5.91056 11.7053L5.77567 11.8035L5.52657 11.9844L3.47361 13.4772L3.29266 13.6083L2.70046 14.0393L2.09745 14.4778L2.01097 14.5408C1.9807 14.5627 1.96019 14.5957 1.95379 14.6325C1.94738 14.6694 1.95558 14.7073 1.97666 14.7382L1.9917 14.7603L2.00674 14.7819V14.7861L2.42974 15.4009L2.58766 15.626L2.74229 15.8511L2.90773 16.0927L3.12064 16.4029L3.33496 16.7155L3.54928 17.028L4.09166 17.8185C5.38855 19.7079 6.68496 21.5977 7.98091 23.4877L7.9983 23.514C8.01351 23.5357 8.0343 23.5529 8.05846 23.5638L9.29409 24.1175L10.5307 24.6707L11.1605 24.9527L11.7935 25.2347C11.8741 25.2707 11.9592 25.2955 12.0464 25.3085H12.053H12.0558C12.0963 25.3139 12.1371 25.3166 12.178 25.3165C12.3807 25.3158 12.5777 25.2497 12.7397 25.128C12.9017 25.0063 13.0201 24.8355 13.0771 24.6411C13.1208 24.4912 13.1258 24.3328 13.0917 24.1805L13.0362 23.9229C12.8482 23.0496 12.6594 22.1765 12.4699 21.3036V21.3003C12.3872 20.9187 12.3049 20.5381 12.2231 20.1587C12.2188 20.139 12.2105 20.1205 12.1987 20.1042C12.1423 20.0271 12.0864 19.9495 12.0304 19.8724L8.31837 14.7734L8.03637 14.3828L7.75437 13.9927L7.60726 13.7906L7.31351 13.386C7.15246 13.1641 6.9914 12.9424 6.83035 12.7209L6.60663 12.4131L6.38667 12.1109L6.15966 11.8058L6.13475 11.7715L6.10984 11.7372C6.09886 11.7218 6.08488 11.7087 6.06873 11.6987C6.05258 11.6888 6.03459 11.6822 6.01584 11.6794C6.00834 11.6787 6.00078 11.6787 5.99328 11.6794L5.99516 11.6775Z" fill="black"/>
<path d="M2.79836 15.8163L2.48487 15.3783L1.47108 13.9608L0.774541 12.9869C0.660012 12.8269 0.587147 12.6409 0.562529 12.4457C0.537912 12.2505 0.562318 12.0522 0.633541 11.8688C0.797372 11.4409 1.03984 11.0475 1.34841 10.7088C1.41985 10.6308 1.49787 10.5528 1.58059 10.4776C1.65109 10.4137 1.72723 10.3498 1.80713 10.2896C1.95366 10.1768 2.10876 10.0756 2.27102 9.98693C2.58358 9.81672 2.91946 9.69336 3.26789 9.6208C3.36189 9.60106 3.45871 9.58461 3.55271 9.5738C3.60678 9.56664 3.66126 9.56303 3.7158 9.56299C3.75387 9.56299 3.79194 9.56299 3.82954 9.56863C3.9976 9.58463 4.16066 9.63453 4.30889 9.71531C4.45713 9.79609 4.58745 9.90608 4.69199 10.0386L5.79602 11.4364L6.12032 11.8472L6.59972 12.4544C6.65659 12.5263 6.71393 12.5982 6.7708 12.6706L6.90757 12.8441L6.79148 12.8661L6.72709 12.8793C6.56541 12.9127 6.40138 12.955 6.2397 13.0043H6.23359C6.0513 13.0603 5.872 13.1255 5.69638 13.1998C5.38866 13.3304 5.09352 13.4888 4.81466 13.6731C4.71032 13.7418 4.60692 13.8141 4.50728 13.8912C4.33446 14.023 4.16966 14.1651 4.01378 14.3166C3.97054 14.3584 3.92636 14.4035 3.88171 14.45C3.70502 14.6341 3.54123 14.8301 3.3915 15.0366C3.21575 15.279 3.06013 15.5354 2.9262 15.8032L2.9215 15.8126L2.8651 15.9066L2.79836 15.8163Z" fill="#CF4D47"/>
<path d="M3.7159 9.63303C3.75162 9.63303 3.78734 9.63303 3.82306 9.63773C3.98098 9.65293 4.1342 9.69995 4.27345 9.77596C4.41271 9.85197 4.53514 9.95539 4.63334 10.08L5.71716 11.4524L6.06167 11.8881L6.54107 12.4953L6.77607 12.7924C6.75492 12.7961 6.7333 12.8008 6.71121 12.8055C6.57303 12.8342 6.40571 12.8746 6.21677 12.9324C6.02997 12.9894 5.84627 13.0561 5.6664 13.1322C5.35477 13.2645 5.05586 13.4249 4.7734 13.6116C4.67047 13.6797 4.56613 13.7526 4.46226 13.8325C4.28695 13.9658 4.1198 14.1096 3.96171 14.263C3.91471 14.31 3.87053 14.3528 3.82729 14.3979C3.64851 14.5844 3.48268 14.7829 3.33097 14.992C3.15345 15.2377 2.99626 15.4976 2.86097 15.7689L2.85862 15.7736C2.75428 15.6273 2.64979 15.4812 2.54513 15.3355L2.11085 14.733L1.77339 14.263C1.46006 13.8243 1.14673 13.3857 0.833392 12.947C0.725843 12.7967 0.657375 12.622 0.634156 12.4386C0.610937 12.2552 0.633695 12.0689 0.700382 11.8965C0.861287 11.4773 1.09894 11.0918 1.40115 10.7596C1.47118 10.6825 1.54732 10.6069 1.62863 10.5326C1.69819 10.4696 1.76963 10.4076 1.85047 10.3474C1.99407 10.237 2.14602 10.1378 2.30496 10.0509C2.61142 9.88425 2.94062 9.76343 3.28209 9.69225C3.37985 9.67157 3.47385 9.65606 3.56409 9.64525C3.61459 9.6387 3.66545 9.6354 3.71637 9.63538M3.71637 9.49109C3.65932 9.49109 3.60232 9.49485 3.54576 9.50237C3.45176 9.51459 3.35259 9.53151 3.25483 9.54937C2.89974 9.62357 2.55741 9.74929 2.23869 9.92255C2.07297 10.013 1.91457 10.1162 1.76493 10.2313C1.68362 10.2943 1.60607 10.3592 1.53416 10.4245C1.45003 10.5011 1.37013 10.5805 1.29916 10.6595C0.983125 11.0047 0.734732 11.4061 0.566902 11.843C0.491425 12.0375 0.465651 12.2479 0.491911 12.4549C0.518171 12.662 0.595638 12.8592 0.717302 13.0288L1.40726 13.9932L1.65777 14.3434L1.6667 14.3556C1.77621 14.5088 1.88525 14.6616 1.9957 14.8148L2.42857 15.4201L2.74206 15.8582L2.8699 16.0377L2.9827 15.8497C2.98599 15.8441 2.98881 15.8389 2.99163 15.8328C3.23608 15.3437 3.55299 14.8943 3.93163 14.4999C3.97534 14.4529 4.01905 14.4101 4.06182 14.3687C4.21566 14.219 4.37843 14.0787 4.54921 13.9486C4.64744 13.8734 4.74943 13.801 4.85236 13.7333C5.12762 13.5513 5.41899 13.3949 5.7228 13.2661C5.89387 13.1938 6.06846 13.1301 6.24591 13.0753L6.25907 13.0715C6.4184 13.0245 6.58055 12.9808 6.74035 12.9475L6.75257 12.9451L6.80333 12.9352L7.03598 12.8882L6.88887 12.7002L6.82307 12.618L6.6534 12.4041L6.1787 11.8025L6.17447 11.7974L5.8309 11.3631L5.2904 10.6792L4.74614 9.9907C4.63544 9.85069 4.49754 9.73455 4.34076 9.64925C4.18398 9.56395 4.01155 9.51127 3.83387 9.49438C3.79439 9.49062 3.75397 9.48874 3.71355 9.48874L3.71637 9.49109Z" fill="black"/>
<path d="M4.19282 17.8731C4.1824 17.8731 4.17212 17.8707 4.16275 17.8661C4.15339 17.8616 4.14519 17.8549 4.13877 17.8467C3.94701 17.6 3.75478 17.3481 3.56772 17.098C3.49581 17.004 3.4239 16.9058 3.35199 16.8085C3.16681 16.5589 2.97599 16.2976 2.78799 16.033C2.66673 15.8629 2.54547 15.6909 2.4275 15.5217C2.2724 15.2984 2.13046 15.0916 1.99416 14.8895C1.8964 14.7447 1.79159 14.5887 1.67503 14.4115C1.66927 14.4028 1.66557 14.3929 1.66419 14.3826C1.6628 14.3722 1.66378 14.3617 1.66704 14.3518C1.67879 14.318 1.69242 14.2794 1.7084 14.2362C1.92359 13.6633 2.255 13.1412 2.68177 12.7026C2.74381 12.6391 2.81055 12.5752 2.87964 12.5122C2.98351 12.4182 3.0949 12.3271 3.21099 12.2411C3.78776 11.8175 4.45867 11.5401 5.16618 11.4327C5.34875 11.4051 5.5329 11.3894 5.7175 11.3857H5.76732C5.77763 11.3856 5.78783 11.3878 5.79712 11.3923C5.80641 11.3968 5.81455 11.4034 5.8209 11.4115C5.93432 11.5541 6.04759 11.6979 6.16071 11.843C6.31628 12.0413 6.47561 12.2472 6.63493 12.454C6.8516 12.736 7.07204 13.0278 7.29011 13.3202C7.4753 13.5688 7.64591 13.8005 7.81229 14.028L7.81511 14.0322C8.02661 14.3232 8.21508 14.5849 8.39133 14.8312C8.39897 14.8421 8.40331 14.8549 8.40381 14.8682C8.40431 14.8814 8.40095 14.8946 8.39415 14.906C8.38817 14.9162 8.37959 14.9247 8.36927 14.9306C8.35895 14.9364 8.34726 14.9394 8.3354 14.9393H8.32741C8.29592 14.9356 8.25268 14.9313 8.19863 14.9266C8.10792 14.9196 8.01345 14.9158 7.91663 14.9158C7.81981 14.9158 7.72111 14.9196 7.62335 14.9271C6.94334 14.977 6.28972 15.2109 5.73254 15.6039C5.50233 15.7683 5.2918 15.9587 5.10509 16.1712L5.06561 16.2182C4.91925 16.3903 4.78898 16.5755 4.67645 16.7714C4.49813 17.0791 4.36351 17.4102 4.27648 17.7551C4.27037 17.7805 4.2652 17.8021 4.26097 17.8209C4.2582 17.8336 4.25186 17.8452 4.2427 17.8543C4.23353 17.8635 4.22193 17.8698 4.20927 17.8726C4.20384 17.8736 4.19829 17.8737 4.19282 17.8731Z" fill="#8D9EBE"/>
<path d="M5.7656 11.4519C5.87871 11.5939 5.99183 11.7374 6.10494 11.8824C6.26161 12.0836 6.41953 12.2873 6.5787 12.4934C6.79615 12.7773 7.01439 13.0659 7.23341 13.3592C7.41013 13.5961 7.58403 13.8318 7.75511 14.0665L7.75793 14.0708C7.95314 14.339 8.1449 14.6053 8.33321 14.8698C8.30078 14.866 8.25707 14.8608 8.20208 14.8566C8.12594 14.8505 8.02865 14.8458 7.91538 14.8458C7.82561 14.8458 7.72503 14.8486 7.61646 14.8571C6.92314 14.9063 6.2566 15.1447 5.68946 15.5466C5.45447 15.7136 5.23994 15.9076 5.05026 16.1247C5.03569 16.1402 5.02206 16.1566 5.00843 16.1717C4.86 16.3473 4.72786 16.5361 4.61363 16.7357C4.43188 17.0489 4.29488 17.386 4.20661 17.7372C4.20003 17.7636 4.19486 17.7842 4.19063 17.8044C4.00263 17.561 3.81244 17.3117 3.62005 17.0567C3.54814 16.9627 3.47905 16.8649 3.40479 16.7676C3.21679 16.5148 3.02879 16.2566 2.84079 15.9931C2.71922 15.8226 2.59937 15.6525 2.48124 15.4826C2.33366 15.2708 2.18937 15.0604 2.04837 14.8514C1.94027 14.6913 1.83389 14.5321 1.72924 14.3739C1.74052 14.341 1.75415 14.3025 1.77013 14.2597C1.92298 13.8526 2.13555 13.4706 2.40087 13.1261C2.50176 12.9946 2.61019 12.869 2.72564 12.7501C2.78831 12.6874 2.85332 12.6247 2.92069 12.5621C3.02127 12.4709 3.12984 12.3819 3.2464 12.2951C3.81429 11.8768 4.47582 11.6036 5.1734 11.4994C5.35299 11.4721 5.53416 11.4564 5.71578 11.4524H5.76278M5.76278 11.3152H5.71249C5.52509 11.3189 5.33812 11.3346 5.15272 11.3622C4.434 11.4713 3.75246 11.753 3.1665 12.1832C3.049 12.2707 2.93573 12.3633 2.82998 12.4591C2.76042 12.5221 2.69274 12.5874 2.62929 12.6523C2.50995 12.7747 2.39789 12.904 2.29371 13.0396C2.02055 13.3953 1.80136 13.7893 1.64323 14.2089C1.62678 14.2536 1.61268 14.2926 1.6014 14.3264C1.59445 14.3463 1.59219 14.3675 1.5948 14.3884C1.59741 14.4092 1.60482 14.4292 1.61644 14.4468C1.73253 14.6225 1.83734 14.7791 1.93651 14.9252C2.07093 15.125 2.21851 15.3379 2.37032 15.5578C2.48829 15.7275 2.60955 15.9 2.73081 16.0697C2.91881 16.3348 3.1101 16.5961 3.29481 16.8466C3.36296 16.9406 3.43581 17.0374 3.51101 17.1366C3.69901 17.3876 3.89171 17.6399 4.08253 17.8858C4.09537 17.9022 4.11178 17.9154 4.13051 17.9245C4.14924 17.9337 4.1698 17.9384 4.19063 17.9384C4.20075 17.9385 4.21084 17.9374 4.22071 17.9351C4.24608 17.9302 4.26954 17.9182 4.28835 17.9005C4.30716 17.8827 4.32054 17.86 4.32693 17.835L4.34244 17.7687C4.42777 17.4306 4.55986 17.106 4.73489 16.8043C4.84518 16.6125 4.9726 16.4312 5.11559 16.2624C5.12875 16.2473 5.14097 16.2323 5.15413 16.2182V16.2158C5.33717 16.0072 5.54378 15.8204 5.76983 15.6594C6.31671 15.2735 6.95833 15.0437 7.62586 14.9948C7.71986 14.9877 7.81903 14.984 7.91444 14.984C8.00985 14.984 8.10244 14.9873 8.18986 14.9948C8.2331 14.9981 8.27399 15.0018 8.31629 15.007H8.33227C8.3574 15.007 8.38204 15.0001 8.4035 14.987C8.42495 14.9739 8.44239 14.9552 8.4539 14.9329C8.46541 14.9105 8.47054 14.8855 8.46873 14.8604C8.46693 14.8353 8.45825 14.8113 8.44366 14.7908C8.26741 14.5426 8.07894 14.2804 7.86744 13.9895V13.9866C7.70153 13.7592 7.53045 13.5274 7.3448 13.2779C7.12625 12.9855 6.90582 12.6937 6.6868 12.4107C6.52888 12.2053 6.36955 11.999 6.2121 11.7997C6.10447 11.6611 5.99308 11.5177 5.87229 11.3678C5.85945 11.3517 5.84315 11.3387 5.8246 11.3297C5.80605 11.3208 5.78573 11.3161 5.76513 11.3161L5.76278 11.3152Z" fill="black"/>
<path d="M6.5788 12.4934H6.5412L6.48715 12.4958C6.34928 12.5039 6.21236 12.518 6.07637 12.5381C5.29903 12.6661 4.56638 12.9875 3.94586 13.4729C3.8387 13.5575 3.73859 13.6449 3.64412 13.7333C3.40413 13.961 3.18936 14.2139 3.00351 14.4876C2.82631 14.7492 2.67459 15.0272 2.55043 15.3177L2.54385 15.3346C2.52223 15.3844 2.50296 15.4333 2.48463 15.4808C2.33705 15.2689 2.19276 15.0585 2.05176 14.8495C2.07103 14.8101 2.0903 14.7696 2.11098 14.7292L2.12649 14.6991C2.14435 14.6639 2.16362 14.6282 2.18336 14.592C2.31269 14.3523 2.46024 14.1229 2.62469 13.9058C2.82579 13.6391 3.05229 13.3926 3.30102 13.1698C3.37841 13.1002 3.45972 13.0319 3.54495 12.9648C4.22037 12.4329 5.01517 12.0735 5.86064 11.9177C5.90294 11.9102 5.94242 11.9036 5.97908 11.8979L6.04535 11.8885H6.0618L6.10504 11.8829C6.26296 12.0838 6.42088 12.2873 6.5788 12.4934Z" fill="#B1BFDD"/>
<path d="M7.75798 14.0708C7.71662 14.0708 7.67573 14.0745 7.63484 14.0773C7.50559 14.0849 7.37775 14.0985 7.25038 14.1178C6.46529 14.2468 5.72488 14.5699 5.09637 15.0578C4.94219 15.1783 4.79603 15.3088 4.6588 15.4483C4.46232 15.6475 4.28454 15.8643 4.1277 16.096C3.94682 16.3636 3.79315 16.6486 3.66898 16.9467C3.653 16.9843 3.63796 17.021 3.62198 17.0567L3.61681 17.0694C3.54631 16.9683 3.47581 16.8677 3.40672 16.7676C3.33026 16.6573 3.25475 16.5477 3.18018 16.4386C3.19851 16.4001 3.21731 16.3615 3.23752 16.3225C3.37709 16.0484 3.53966 15.7866 3.7235 15.54C3.90222 15.2995 4.10163 15.0751 4.31946 14.8693C4.43508 14.7593 4.559 14.6523 4.69123 14.5483C5.40749 13.9885 6.25433 13.6201 7.15214 13.4776L7.19351 13.471L7.27952 13.4602C7.43806 13.6601 7.59645 13.8626 7.75469 14.0675L7.75798 14.0708Z" fill="#B1BFDD"/>
<path opacity="0.56" d="M11.9551 22.2116L11.127 22.785L5.98377 15.359L5.55513 14.7405L5.18384 14.2047L4.77258 13.6111L4.44358 13.1345L4.35898 13.0118L4.07369 12.6001L3.66902 12.0215L2.30273 10.0475C2.60919 9.88094 2.93839 9.76012 3.27986 9.68893L4.61795 11.6206L4.98878 12.1564L5.17068 12.4187L5.37277 12.7101L5.66418 13.1307L6.09657 13.7554L6.48198 14.31L6.93882 14.968L11.9551 22.2116Z" fill="white"/>
<path d="M12.1761 25.214C12.0587 25.2137 11.9427 25.1884 11.8358 25.1397L8.09182 23.4614L8.06315 23.4186V23.4097C8.05106 23.2239 8.07451 23.0376 8.13224 22.8607C8.21355 22.5904 8.35314 22.3475 8.49179 22.1251C8.63655 21.8934 8.81233 21.6321 9.07036 21.4671C9.16958 21.4071 9.27329 21.3548 9.38056 21.3106C9.52767 21.2453 9.66679 21.1837 9.78194 21.0827C9.89709 20.9816 9.9784 20.8477 10.0639 20.7067C10.1199 20.6084 10.1827 20.5141 10.2519 20.4247C10.6148 19.9815 11.2065 19.9025 11.5266 19.8955H11.582C11.695 19.8949 11.8078 19.9048 11.919 19.9251L11.9331 19.9279L11.9416 19.9392C11.9974 20.0166 12.0534 20.094 12.1098 20.1714L12.1145 20.1775V20.185C12.3063 21.0723 12.4982 21.9597 12.6903 22.8471L12.9845 24.2068C13.012 24.327 13.0117 24.4519 12.9836 24.5719C12.9555 24.692 12.9004 24.804 12.8224 24.8996C12.7446 24.9965 12.6464 25.0751 12.5346 25.1294C12.4228 25.1838 12.3004 25.2127 12.1761 25.214Z" fill="#C19A56"/>
<path d="M11.5804 19.9312C11.6907 19.9305 11.8009 19.9401 11.9094 19.9598C11.9652 20.0372 12.0212 20.1146 12.0776 20.192C12.2694 21.0794 12.4613 21.9667 12.6534 22.8541C12.7515 23.3078 12.8495 23.7612 12.9476 24.2143C12.9794 24.3577 12.9705 24.5071 12.9221 24.6458C12.8737 24.7844 12.7876 24.9069 12.6735 24.9993C12.5594 25.0918 12.4218 25.1507 12.2762 25.1693C12.1305 25.188 11.9825 25.1657 11.8488 25.1049L10.9896 24.7205L8.11413 23.4327L8.09627 23.4064C8.08499 23.2252 8.10811 23.0436 8.16442 22.871C8.24244 22.6121 8.37686 22.3738 8.51974 22.1439C8.67296 21.8986 8.84357 21.6533 9.0875 21.4972C9.31639 21.3496 9.59839 21.289 9.80284 21.1095C10.0073 20.9299 10.1041 20.6583 10.2766 20.4477C10.5708 20.0886 11.0601 19.9425 11.5245 19.9307H11.579M11.579 19.8588H11.523C11.1964 19.8663 10.5929 19.9467 10.2207 20.4012C10.1502 20.4919 10.0863 20.5876 10.0294 20.6874C9.94619 20.8251 9.86817 20.9553 9.75537 21.054C9.64257 21.1527 9.50768 21.2119 9.36339 21.2763C9.25442 21.3211 9.14913 21.3744 9.04849 21.4356C8.78388 21.6053 8.60528 21.8699 8.45864 22.1049C8.30518 22.3359 8.18301 22.5863 8.09533 22.8494C8.03597 23.0312 8.01204 23.2226 8.02483 23.4134V23.4322L8.03564 23.4477L8.0535 23.474L8.06478 23.491L8.08358 23.4994L9.51849 24.1419L10.9586 24.7867L11.3877 24.979L11.8182 25.1717C11.9297 25.2223 12.0506 25.2486 12.1731 25.2488C12.3025 25.2477 12.4302 25.2179 12.5467 25.1615C12.6633 25.1051 12.7659 25.0235 12.847 24.9226C12.9288 24.8229 12.9869 24.706 13.0172 24.5807C13.0475 24.4553 13.0491 24.3248 13.0219 24.1988C12.9727 23.9713 12.9235 23.7438 12.8743 23.5163L12.7277 22.8386C12.5356 21.9515 12.3437 21.0643 12.1519 20.177L12.1486 20.1619L12.1397 20.1497C12.0833 20.0726 12.0274 19.9951 11.9714 19.918L11.9545 19.8945L11.9263 19.8893C11.813 19.8685 11.698 19.8584 11.5827 19.8593L11.579 19.8588Z" fill="black"/>
<path d="M11.8503 25.105L10.9911 24.7205C10.9408 24.4 10.9573 24.0663 11.1495 23.8049C11.5128 23.3119 12.0453 22.903 12.6535 22.8541C12.7516 23.3078 12.8496 23.7612 12.9477 24.2143C12.9785 24.3574 12.9692 24.5062 12.9206 24.6443C12.872 24.7824 12.7861 24.9043 12.6724 24.9966C12.5588 25.0888 12.4218 25.1478 12.2766 25.1669C12.1315 25.186 11.9839 25.1646 11.8503 25.105Z" fill="#434959"/>
<g style="mix-blend-mode:multiply" opacity="0.46">
<path d="M12.0995 25.183L12.0657 25.1679L8.11765 23.4327L8.09979 23.4064C6.80384 21.5167 5.50758 19.6269 4.21101 17.7372C4.20443 17.7635 4.19926 17.7842 4.19503 17.8044C4.00703 17.561 3.81684 17.3117 3.62445 17.0567C3.55254 16.9627 3.48345 16.8649 3.40919 16.7676C3.22119 16.5148 3.03319 16.2566 2.84519 15.9931C2.72362 15.8226 2.60377 15.6525 2.48564 15.4826C2.33806 15.2708 2.19377 15.0604 2.05277 14.8514C1.94467 14.6913 1.83829 14.5321 1.73364 14.3739C1.74492 14.341 1.75855 14.3025 1.77453 14.2597C1.4612 13.821 1.14786 13.3824 0.83453 12.9437C0.726983 12.7935 0.658513 12.6188 0.635293 12.4355C0.612073 12.2522 0.634832 12.066 0.70152 11.8937C0.862294 11.4743 1.09995 11.0885 1.40229 10.7563C1.59029 11.0972 1.77829 11.4381 1.96629 11.779C2.16087 12.1325 2.35498 12.4859 2.54862 12.8394L2.40762 13.1246C2.36563 13.2077 2.32365 13.2909 2.28166 13.3742L2.62805 13.9063L2.78926 14.1544L3.00687 14.4881C3.11638 14.6559 3.22495 14.8237 3.33587 14.9915L3.36313 15.0328C3.4847 15.2014 3.60659 15.3697 3.72879 15.5376C3.86321 15.7237 3.99779 15.9096 4.13252 16.095L4.33697 16.377C4.42815 16.4955 4.52215 16.6144 4.61897 16.7338L4.62696 16.7441C4.65469 16.778 4.68242 16.8109 4.71015 16.8438L8.43866 22.3479C9.47633 23.494 10.7075 24.4485 12.076 25.1679L12.0995 25.183Z" fill="#42240B"/>
</g>
<g style="mix-blend-mode:multiply" opacity="0.21">
<path d="M12.937 24.603C12.8828 24.7839 12.7664 24.9398 12.6083 25.0431C12.4501 25.1463 12.2605 25.1902 12.0731 25.167L12.0994 25.1811L12.0656 25.166C11.9913 25.1551 11.9188 25.1339 11.8503 25.1031L10.5874 24.5391L8.1157 23.4327L8.09784 23.4064C6.80189 21.5166 5.50563 19.6269 4.20906 17.7372C4.20248 17.7635 4.19731 17.7842 4.19308 17.8044C4.00508 17.561 3.81488 17.3117 3.6225 17.0567L3.61733 17.0693C3.54683 16.9683 3.47633 16.8677 3.40724 16.7676C3.21924 16.5147 3.03124 16.2566 2.84324 15.993C2.72166 15.8226 2.60181 15.6525 2.48369 15.4826C2.33611 15.2708 2.19182 15.0604 2.05082 14.8514C1.94272 14.6913 1.83634 14.5321 1.73169 14.3739C1.74297 14.341 1.7566 14.3025 1.77258 14.2597C1.45924 13.821 1.14591 13.3824 0.832576 12.9437C0.725029 12.7934 0.65656 12.6188 0.63334 12.4355C0.61012 12.2522 0.632879 12.066 0.699567 11.8937C0.860341 11.4743 1.098 11.0885 1.40034 10.7563C1.47037 10.6792 1.54651 10.6036 1.62782 10.5293C2.00382 11.0811 2.3535 11.6573 2.70882 12.2213C2.78026 12.3344 2.85154 12.4477 2.92267 12.5611C3.048 12.7635 3.17333 12.9664 3.29867 13.1698C3.38483 13.3104 3.47069 13.4514 3.55623 13.5928L3.64177 13.7338C3.74861 13.9102 3.85452 14.0864 3.95949 14.2625C4.07949 14.4637 4.19887 14.6651 4.31763 14.8669C4.43074 15.0596 4.5437 15.2525 4.6565 15.4455C4.7881 15.6714 4.91938 15.8978 5.05036 16.1246C5.08279 16.181 5.11522 16.2379 5.14812 16.2943C6.06603 17.9102 6.93929 19.558 8.07105 21.031C9.01655 22.2594 10.1304 23.3484 11.3798 24.266C11.5631 24.4004 11.7558 24.5334 11.9739 24.5898C12.2855 24.6678 12.6155 24.5842 12.937 24.603Z" fill="#42240B"/>
</g>
</svg>
