<svg width="34" height="31" viewBox="0 0 34 31" fill="none" xmlns="http://www.w3.org/2000/svg">
<path d="M10.1809 7.47228C9.87597 7.46785 9.58296 7.35315 9.35606 7.14939L9.33632 7.132L9.33256 7.10568C9.25875 6.62485 9.23105 6.13807 9.24984 5.65197C9.2536 5.55797 9.2583 5.47384 9.26394 5.39817C9.2818 5.15283 9.31094 4.90561 9.35418 4.66262C9.3852 4.47979 9.42468 4.29226 9.47074 4.10614C9.54593 3.80508 9.639 3.50877 9.74945 3.21878L9.7706 3.16379L11.4156 3.39879L11.362 3.49279C11.136 3.88854 10.983 4.32173 10.9103 4.77166C10.7999 5.47304 10.9101 6.19142 11.2257 6.82744L11.2445 6.86598L11.221 6.90123C11.1876 6.95105 10.8774 7.39332 10.328 7.46523C10.2822 7.47087 10.236 7.47401 10.1898 7.47463L10.1809 7.47228Z" fill="#475789"/>
<path d="M9.81849 3.24511L10.8694 3.39457L11.2976 3.45567C11.0665 3.85886 10.9105 4.30059 10.837 4.75945C10.7893 5.06327 10.7817 5.37203 10.8144 5.67783C10.8598 6.08861 10.9766 6.48831 11.1594 6.85894C11.1312 6.90077 10.8389 7.32283 10.3195 7.38957C10.2766 7.39496 10.2335 7.39795 10.1903 7.3985H10.1809C9.89416 7.39434 9.61868 7.28648 9.40536 7.09488C9.33191 6.61859 9.30406 6.13638 9.32217 5.6548C9.32546 5.5702 9.33016 5.48607 9.33627 5.40382C9.35507 5.14767 9.38562 4.90468 9.42557 4.67532C9.45847 4.48121 9.49795 4.29932 9.54119 4.12401C9.61536 3.82575 9.7075 3.53225 9.81708 3.24511M9.72308 3.08249L9.68078 3.19247C9.56917 3.4854 9.475 3.78469 9.39878 4.08876C9.35178 4.27676 9.3123 4.46476 9.28081 4.65041C9.23851 4.89528 9.20796 5.14532 9.1901 5.39301C9.18446 5.46868 9.17976 5.55234 9.17553 5.64869C9.15685 6.13966 9.18486 6.6313 9.25919 7.11697L9.26718 7.16914L9.30619 7.20439C9.5468 7.42007 9.8573 7.54143 10.1804 7.54608H10.1907C10.2398 7.54555 10.2887 7.54226 10.3374 7.53621C10.9183 7.46148 11.2459 6.9943 11.2811 6.94119L11.3281 6.87069L11.2905 6.79408C10.9818 6.17151 10.8743 5.4684 10.9827 4.78201C11.0538 4.34098 11.2038 3.91636 11.4254 3.52852L11.5331 3.34052L11.3183 3.30997L10.8906 3.24934L10.3632 3.17414L9.83917 3.09894L9.72261 3.08249H9.72308Z" fill="black"/>
<path d="M10.2476 4.91594C9.95565 4.91615 9.66663 4.85749 9.39786 4.74344C9.31805 4.70981 9.24035 4.67136 9.16521 4.62829C8.83101 4.43794 8.55259 4.16325 8.35775 3.83165C8.16265 3.49833 8.05897 3.11943 8.05715 2.73322C8.05534 2.347 8.15547 1.96715 8.34742 1.63201C8.53938 1.29688 8.81637 1.01832 9.15042 0.824483C9.48447 0.630642 9.86375 0.528378 10.25 0.528015C10.2796 0.528015 10.3087 0.528015 10.3379 0.528015C10.6311 0.540497 10.9188 0.611407 11.1843 0.736585C11.4497 0.861763 11.6875 1.03869 11.8837 1.25698C12.1785 1.58497 12.367 1.99467 12.4242 2.43199C12.4911 2.95266 12.3701 3.48013 12.0828 3.91953C11.7956 4.35892 11.361 4.68141 10.8572 4.82899C10.7539 4.85816 10.6487 4.88014 10.5423 4.89478C10.4447 4.90838 10.3462 4.91545 10.2476 4.91594Z" fill="#475789"/>
<path d="M10.2502 0.601822C10.2784 0.601822 10.3071 0.601822 10.3353 0.601822C10.8385 0.622032 11.3181 0.820718 11.6882 1.1623C12.0583 1.50388 12.2947 1.96605 12.3551 2.46604C12.4154 2.96604 12.2959 3.4712 12.0178 3.89108C11.7397 4.31095 11.3212 4.61811 10.8372 4.75756C10.7374 4.78605 10.6356 4.80726 10.5327 4.82101C10.0728 4.88262 9.60543 4.79182 9.2021 4.56251C8.79603 4.33083 8.4779 3.97145 8.29719 3.54028C8.11648 3.1091 8.08332 2.63029 8.20286 2.17832C8.32241 1.72635 8.58796 1.32655 8.95822 1.0411C9.32847 0.755653 9.78268 0.60056 10.2502 0.599942M10.2502 0.452362C9.85085 0.452444 9.4586 0.55798 9.11313 0.758297C8.76766 0.958615 8.48121 1.24661 8.28275 1.59316C8.0843 1.9397 7.98087 2.33251 7.98294 2.73185C7.98501 3.13119 8.09249 3.52291 8.29453 3.86738C8.49587 4.21009 8.78372 4.49389 9.12925 4.69035C9.20686 4.73504 9.28724 4.77476 9.36989 4.80926C9.64747 4.92748 9.94613 4.98824 10.2478 4.98786C10.3497 4.98776 10.4515 4.98085 10.5524 4.96718C10.6623 4.95241 10.771 4.92979 10.8776 4.8995C11.3928 4.74837 11.8376 4.41941 12.1329 3.97114C12.4283 3.52286 12.555 2.98435 12.4906 2.4514C12.4262 1.91845 12.1748 1.42564 11.7812 1.06062C11.3875 0.695609 10.8772 0.482072 10.3409 0.458002C10.3113 0.458002 10.2803 0.458002 10.2502 0.458002V0.452362Z" fill="black"/>
<g style="mix-blend-mode:multiply" opacity="0.53">
<path d="M10.8146 5.67782C10.86 6.0886 10.9768 6.4883 11.1596 6.85893C11.1314 6.90076 10.8391 7.32282 10.3197 7.38956C10.316 7.23869 10.3117 7.08829 10.3084 6.93789C10.2972 6.49045 10.2614 5.98849 9.92539 5.6938C9.75995 5.54857 9.54657 5.47901 9.33789 5.40381C9.35669 5.14766 9.38724 4.90467 9.42719 4.67531C9.00605 4.49756 8.65336 4.18888 8.42139 3.795C8.46939 3.83901 8.52185 3.87792 8.5779 3.91109C8.87508 4.06605 9.20801 4.13952 9.54281 4.124C9.64067 4.11889 9.73787 4.10505 9.83327 4.08264C10.2473 3.97875 10.6132 3.73585 10.8696 3.39456C11.1407 3.04963 11.2842 2.62154 11.2757 2.1829C11.2536 1.5437 10.8743 0.942569 10.3357 0.603699C10.8389 0.623909 11.3185 0.822595 11.6886 1.16418C12.0587 1.50576 12.2951 1.96792 12.3555 2.46792C12.4159 2.96791 12.2963 3.47308 12.0182 3.89295C11.7401 4.31283 11.3216 4.61999 10.8377 4.75944C10.7898 5.06324 10.7821 5.372 10.8146 5.67782Z" fill="#302F5B"/>
</g>
<path opacity="0.74" d="M9.62265 2.3188C9.75599 1.94415 9.67336 1.57257 9.43811 1.48884C9.20285 1.40512 8.90405 1.64096 8.77072 2.01561C8.63738 2.39026 8.72001 2.76184 8.95526 2.84557C9.19052 2.92929 9.48932 2.69345 9.62265 2.3188Z" fill="#F2F2EB"/>
<path opacity="0.74" d="M11.8288 1.30636C11.3499 1.08734 10.8813 0.832595 10.3629 0.848575C10.1695 0.858379 9.97841 0.895891 9.79561 0.959965C9.45812 1.06556 9.14697 1.2418 8.88287 1.47696C8.61902 1.71422 8.43788 2.02957 8.36587 2.37701C8.29114 2.78075 8.39548 3.19622 8.53883 3.58115C8.62467 3.83244 8.74932 4.06873 8.90825 4.28146C8.9811 4.37546 9.15406 4.46946 9.20294 4.56628C8.81737 4.34694 8.51033 4.01216 8.32506 3.6091C8.1398 3.20605 8.08566 2.75503 8.17025 2.31958C8.25485 1.88413 8.47393 1.48619 8.79663 1.18182C9.11933 0.877451 9.52939 0.681991 9.96904 0.622975C10.0906 0.606234 10.2135 0.600415 10.3361 0.605585C10.6191 0.616714 10.897 0.684462 11.1534 0.804825C11.4098 0.925188 11.6395 1.09572 11.8288 1.30636Z" fill="#F2F2EB"/>
<path d="M17.1461 30.4703C16.6291 30.4703 16.0534 30.4511 15.4395 30.4182C10.5294 30.1578 7.71085 29.23 4.72682 28.2477C3.19133 27.742 1.64128 27.1291 1.03028 25.7026C0.990028 25.6088 0.954729 25.513 0.924525 25.4155C0.740285 24.827 0.774125 24.2964 0.801385 23.8701V23.864C0.892095 22.454 1.40533 21.6733 2.05534 20.6849C2.52534 19.9724 3.05503 19.164 3.5302 17.9415C4.12569 16.4084 4.31416 15.0393 4.48054 13.8319C4.56796 13.1941 4.63 12.5506 4.66431 11.9152C4.68969 11.4537 4.70144 10.9841 4.6991 10.5202V10.4262L14.2034 12.631L11.9474 17.4443L10.9393 19.595L11.821 20.0077L13.3081 18.6874L15.7737 13.3882V13.3849C15.8414 13.2744 15.9086 13.1588 15.9739 13.0408C16.0158 12.9652 16.059 12.8839 16.1032 12.7993C16.1676 12.6742 16.208 12.5896 16.2127 12.5802C16.3283 12.3452 16.5718 12.0839 16.937 11.8062C17.2086 11.6024 17.4948 11.4187 17.7933 11.2567C18.3279 10.9629 18.8864 10.7146 19.4627 10.5146C19.8491 10.3825 20.1142 10.3163 20.3698 10.2523C20.7378 10.1664 21.0984 10.0518 21.4485 9.90971C21.4692 9.90125 21.5556 9.85989 21.6863 9.79738C21.8644 9.71184 22.1337 9.58306 22.5116 9.4054C24.4574 8.49172 24.7991 8.38033 25.1295 8.2727C25.3462 8.2022 25.5704 8.1317 26.2726 7.81633C26.7289 7.58133 27.2046 7.36043 27.6826 7.15833C28.4458 6.83638 28.9111 6.69303 29.1917 6.69303C29.2891 6.69135 29.3856 6.7121 29.4737 6.75366C29.5574 6.79267 29.8121 6.91111 30.1393 7.86568C30.3536 8.49125 30.4213 8.95561 30.4889 9.4054C30.5599 9.88245 30.6266 10.3332 30.8701 10.9141C30.9655 11.1421 31.0765 11.3632 31.2024 11.5759V11.5787V11.582C33.2154 15.8646 34.0482 18.2804 33.7484 18.9671C33.6074 19.2961 33.3094 19.9569 33.3066 19.9635L33.3028 19.9715L33.2977 19.9785C33.1764 20.1352 33.0359 20.2759 32.8794 20.3973C30.0692 22.4653 27.456 24.6353 25.1103 26.8509C24.9683 26.9853 24.8273 27.1205 24.6873 27.2565C23.5738 28.3267 22.4223 29.433 20.5513 30.0765C20.211 30.194 19.4139 30.4689 17.2519 30.4689L17.1461 30.4703Z" fill="#0173FA"/>
<path d="M29.1905 6.76775C29.2777 6.76586 29.3641 6.7842 29.4429 6.82133C29.5224 6.85846 29.7597 6.9863 30.0699 7.89058C30.5145 9.18966 30.3308 9.81758 30.8022 10.9456C30.899 11.1765 31.0114 11.4006 31.1387 11.6163C33.5446 16.7332 33.9032 18.4355 33.6838 18.9384C33.539 19.2716 33.2424 19.9343 33.2424 19.9343C33.1249 20.086 32.9888 20.2222 32.8373 20.3399C29.3395 22.9127 26.7837 25.1725 25.0625 26.7982C23.7935 27.9958 22.6185 29.2892 20.5308 30.0088C20.1134 30.1526 19.3088 30.397 17.2554 30.397H17.1463C16.6519 30.397 16.0879 30.3796 15.4431 30.3453C10.6608 30.0915 7.88545 29.2102 4.74961 28.1781C3.25125 27.6842 1.70824 27.0938 1.09724 25.6735C1.05803 25.5814 1.02367 25.4872 0.994311 25.3915C0.818531 24.8308 0.845321 24.3227 0.874461 23.8701C0.874461 23.8701 0.874461 23.8663 0.874461 23.8645C1.03003 21.4482 2.47246 20.8612 3.59811 17.9641C4.19924 16.4234 4.38724 15.0482 4.55409 13.8365C4.64809 13.1442 4.70637 12.5008 4.73833 11.9175C4.76653 11.4005 4.77499 10.9305 4.77311 10.5179L14.0979 12.6799L11.8809 17.4109L10.8418 19.6274L11.8339 20.0922C12.3456 19.6382 12.8571 19.1839 13.3685 18.7292L15.8388 13.4206C15.8928 13.3318 15.9624 13.2152 16.0404 13.0733C16.0818 12.999 16.125 12.9177 16.1706 12.8307C16.2317 12.7118 16.2721 12.6277 16.2811 12.6094C16.4094 12.3471 16.6933 12.083 16.9837 11.8621C17.2522 11.6607 17.5349 11.4792 17.8297 11.3188C18.361 11.0268 18.916 10.7803 19.4888 10.5818C20.3583 10.2843 20.6267 10.3181 21.475 9.97785C21.5277 9.9567 21.8637 9.78985 22.5424 9.47166C25.7878 7.94745 24.5455 8.66608 26.3024 7.88306C26.6361 7.71198 27.1169 7.47698 27.7124 7.22506C28.5523 6.87115 28.9551 6.76587 29.1929 6.76587M29.1929 6.61829C28.8977 6.61829 28.4381 6.75929 27.6551 7.08829C27.1771 7.28992 26.701 7.51129 26.2404 7.74629C25.5448 8.05649 25.3328 8.12558 25.1081 8.19843C24.7758 8.30653 24.4318 8.41839 22.4822 9.33441C22.1039 9.51207 21.8341 9.64133 21.656 9.72687C21.5314 9.78656 21.4412 9.82933 21.421 9.83685C21.075 9.97696 20.7186 10.0898 20.355 10.1743C20.0975 10.2382 19.8314 10.305 19.4418 10.4384C18.8619 10.6396 18.3 10.8893 17.762 11.1848C17.4599 11.3483 17.1703 11.5342 16.8958 11.7408C16.5198 12.0256 16.2703 12.2945 16.1495 12.5398C16.1387 12.5628 16.0992 12.6442 16.0404 12.7584C15.9967 12.842 15.9539 12.9229 15.9126 12.9971C15.8477 13.1146 15.781 13.2293 15.7138 13.3388L15.7095 13.3459L15.7058 13.3534C15.2941 14.242 14.8822 15.1292 14.4702 16.015L13.2482 18.6418L12.5037 19.3031L11.8085 19.9183L11.0377 19.5569L12.0144 17.472L14.2314 12.741L14.3089 12.576L14.1313 12.5346L9.43927 11.4471L4.80601 10.375L4.62459 10.3332V10.5212C4.62694 10.9832 4.61519 11.4513 4.59028 11.9114C4.5555 12.545 4.49393 13.1865 4.40745 13.8187V13.8224C4.24201 15.0256 4.05401 16.3901 3.46134 17.9152C2.99134 19.1306 2.46071 19.9362 1.994 20.645C1.3642 21.6028 0.819001 22.431 0.728291 23.8598C0.728524 23.8621 0.728524 23.8645 0.728291 23.8668C0.701971 24.2767 0.666251 24.8378 0.854721 25.4394C0.885946 25.5393 0.922181 25.6375 0.963291 25.7337C1.25093 26.4053 1.75853 26.951 2.51429 27.4017C3.19767 27.8087 4.00278 28.0888 4.70355 28.3196C6.38803 28.8742 7.80555 29.3277 9.44632 29.699C11.3263 30.122 13.2289 30.3768 15.4355 30.4938C16.0503 30.5267 16.6256 30.5441 17.1454 30.546H17.2554C19.4301 30.546 20.2352 30.2682 20.5787 30.1498C22.463 29.4998 23.6206 28.3877 24.7401 27.3119C24.8811 27.1784 25.0221 27.0407 25.1631 26.9068C27.5065 24.6931 30.1174 22.5245 32.9233 20.4603C33.0849 20.3352 33.2299 20.19 33.3548 20.0283L33.3656 20.0142L33.3726 19.9982C33.3754 19.9917 33.6715 19.3308 33.8149 19.0009C33.9582 18.671 33.8708 18.02 33.5329 16.9658C33.1348 15.7137 32.3729 13.8934 31.2712 11.55L31.2684 11.5439L31.2651 11.5378C31.1406 11.3281 31.0307 11.1101 30.9361 10.8854C30.6964 10.313 30.6302 9.86646 30.5601 9.39411C30.4929 8.9415 30.4234 8.47338 30.2067 7.84311C29.8692 6.85846 29.5957 6.73015 29.5017 6.68785C29.4035 6.64136 29.2959 6.6182 29.1873 6.62017L29.1929 6.61829Z" fill="black"/>
<path d="M12.6371 18.5676C12.6303 18.5676 12.6237 18.5665 12.6173 18.5643C12.4763 18.5173 12.3353 18.4623 12.199 18.4073C11.9504 18.3067 11.776 18.2217 11.588 18.1319C11.4249 18.0534 11.2557 17.9721 11.0174 17.8692C10.9023 17.8193 10.7862 17.7709 10.672 17.7258C10.5175 17.6535 10.3694 17.5683 10.2293 17.4711C10.1432 17.4133 10.0577 17.3503 9.97498 17.2831C9.78144 17.1293 9.60311 16.9573 9.44247 16.7694C9.36069 16.6754 9.28173 16.5724 9.20747 16.4676C9.16658 16.4093 9.12757 16.3515 9.09185 16.2956C8.93696 16.0507 8.80631 15.7913 8.70175 15.521C8.68107 15.4684 8.66086 15.4125 8.64065 15.3551C8.55637 15.1099 8.49146 14.8585 8.44654 14.6031C8.43714 14.5496 8.42821 14.4955 8.42069 14.441C8.38554 14.1969 8.36701 13.9506 8.36523 13.704C8.36523 13.6514 8.36523 13.5983 8.36523 13.5452C8.37062 13.3021 8.39086 13.0596 8.42586 12.819C8.43338 12.7668 8.44184 12.7147 8.45077 12.6625C8.49155 12.4234 8.54616 12.1869 8.61433 11.9542C8.62937 11.903 8.64488 11.8518 8.66133 11.8001C8.7381 11.56 8.8288 11.3246 8.93299 11.0951C8.95602 11.0443 8.97999 10.994 9.00443 10.9442C9.11998 10.7067 9.2501 10.4766 9.39406 10.2552C9.42649 10.2053 9.45939 10.1555 9.4937 10.1066C9.6562 9.87102 9.83443 9.64663 10.0272 9.43501C10.0742 9.38284 10.1183 9.33631 10.1616 9.29401C10.2236 9.22962 10.2908 9.16335 10.3609 9.09708C10.5323 8.93486 10.7133 8.78294 10.9028 8.64212C10.9695 8.59512 11.0353 8.54812 11.0983 8.50394C11.3907 8.30499 11.7025 8.13618 12.0289 8.0001C12.1135 7.96485 12.2023 7.93054 12.293 7.89905C12.3508 7.87884 12.4096 7.86004 12.4674 7.84218C12.4726 7.84218 12.5868 7.80552 12.6859 7.78108C12.8746 7.74072 13.0669 7.71931 13.2598 7.71716C13.5238 7.72197 13.7873 7.74237 14.0489 7.77826C14.2059 7.79988 14.3267 7.82244 14.4066 7.83748C14.4108 7.83748 14.7511 7.90281 15.1304 8.00621C15.3029 8.05321 15.9492 8.24121 17.0071 8.64259C17.0155 8.6458 17.0231 8.65084 17.0292 8.65735C17.0354 8.66385 17.0401 8.67166 17.0428 8.68019C17.0508 8.70322 17.0616 8.738 17.0748 8.7803C17.4123 9.86788 17.4842 10.7614 17.2891 11.4363C17.2421 11.6059 17.221 11.6327 16.2702 12.8632L15.2747 14.151C14.8517 14.6981 14.847 14.7037 14.8127 14.7545C14.604 15.0675 14.4541 15.3185 14.3338 15.5215C14.0734 15.9581 13.9164 16.2213 13.5178 16.5283C13.4553 16.5753 13.398 16.6171 13.3421 16.6566C13.1832 16.7694 13.0601 16.8587 12.9318 17.0391C12.6765 17.4043 12.5966 17.8964 12.6939 18.5013C12.6955 18.5116 12.6944 18.5221 12.6907 18.5318C12.687 18.5416 12.6808 18.5501 12.6728 18.5568C12.6624 18.5642 12.6498 18.568 12.6371 18.5676Z" fill="url(#paint0_linear_116_6722)"/>
<path d="M13.2625 7.77403C13.5237 7.77967 13.7844 7.8007 14.0432 7.83701C14.1997 7.85816 14.3214 7.88119 14.3989 7.89576C14.3989 7.89576 14.7359 7.95921 15.1171 8.06355C15.4865 8.1646 16.1511 8.37845 16.9886 8.69805C16.9962 8.72108 17.007 8.75539 17.0201 8.79722C17.1296 9.15019 17.523 10.4192 17.234 11.4184C17.187 11.5768 17.1569 11.62 16.2254 12.8256C14.8008 14.6694 14.8187 14.6407 14.7655 14.7202C14.1137 15.6973 14.0573 16.0362 13.4839 16.4794C13.2399 16.6674 13.0609 16.7506 12.8851 17.0034C12.5509 17.4823 12.5669 18.0745 12.6369 18.5074C12.4527 18.4435 12.3079 18.3866 12.2214 18.3514C11.7627 18.1634 11.5597 18.0374 11.0417 17.8137C10.8871 17.747 10.7621 17.6967 10.6949 17.6699C10.5444 17.5992 10.4 17.516 10.2634 17.4212C10.1854 17.3691 10.1013 17.308 10.0129 17.2375C9.8224 17.0859 9.64676 16.9166 9.48839 16.7318C9.40614 16.6378 9.32905 16.5362 9.25667 16.4342C9.21766 16.3783 9.1796 16.3219 9.14341 16.2646C8.99028 16.0232 8.86119 15.7674 8.75801 15.5008C8.73686 15.4463 8.71712 15.3918 8.69785 15.3368C8.61475 15.0943 8.55063 14.8457 8.50609 14.5933C8.49669 14.5401 8.48823 14.4866 8.48071 14.433C8.44578 14.1915 8.4274 13.948 8.42572 13.704C8.42572 13.6518 8.42572 13.5997 8.42572 13.547C8.43065 13.3062 8.45027 13.0659 8.48447 12.8275C8.49199 12.7758 8.49998 12.7241 8.50891 12.6728C8.54965 12.4366 8.6041 12.2029 8.672 11.973C8.68657 11.9222 8.70255 11.8715 8.719 11.8207C8.79519 11.5833 8.88527 11.3506 8.98878 11.1237C9.01134 11.0739 9.03578 11.0236 9.05928 10.9738C9.17369 10.7387 9.30256 10.5109 9.44515 10.2918C9.47711 10.2425 9.51001 10.1931 9.54385 10.1447C9.70539 9.91015 9.88251 9.68671 10.074 9.4759C10.1182 9.4289 10.1628 9.3819 10.2084 9.3349C10.2711 9.26878 10.3369 9.20377 10.4058 9.13985C10.5755 8.9793 10.7546 8.82896 10.9421 8.68959C11.0048 8.64227 11.0693 8.59668 11.1357 8.55282C11.4247 8.35605 11.7329 8.18913 12.0555 8.05462C12.142 8.01843 12.2294 7.98553 12.3164 7.95498C12.3737 7.93477 12.4315 7.91597 12.4889 7.89858C12.4889 7.89858 12.6054 7.86286 12.7037 7.83842C12.8878 7.79956 13.0753 7.77878 13.2634 7.77638M13.2658 7.65606C13.2507 7.65606 13.2333 7.65606 13.2141 7.65606C13.0327 7.66112 12.8523 7.68299 12.675 7.72139C12.5744 7.7463 12.4583 7.78155 12.4536 7.78296C12.3949 7.80129 12.3352 7.82056 12.2769 7.84077C12.1829 7.87273 12.095 7.90704 12.009 7.94323C11.6793 8.08097 11.3644 8.25166 11.069 8.45271C11.0051 8.49595 10.9383 8.54295 10.8716 8.59371C10.68 8.73555 10.4971 8.88889 10.324 9.0529C10.2535 9.11964 10.1859 9.18638 10.1224 9.25171C10.0792 9.29871 10.035 9.34571 9.98753 9.39506C9.79269 9.60945 9.61244 9.83666 9.44797 10.0751C9.41413 10.1221 9.38029 10.1748 9.34739 10.2251C9.20223 10.4483 9.07101 10.6803 8.95447 10.9197C8.93003 10.9705 8.90747 11.0217 8.88256 11.0725C8.77721 11.3036 8.68556 11.5408 8.60808 11.7827C8.59069 11.8353 8.57471 11.8879 8.56108 11.9382C8.49206 12.1731 8.43697 12.4118 8.39611 12.6531C8.38718 12.7057 8.37872 12.7593 8.3712 12.811C8.3361 13.0543 8.31601 13.2994 8.31104 13.5452C8.31104 13.5973 8.31104 13.6518 8.31104 13.7059C8.31269 13.9552 8.33153 14.2041 8.36744 14.4508C8.37496 14.5044 8.38342 14.5594 8.39329 14.6149C8.43888 14.8736 8.50472 15.1283 8.59022 15.3767C8.60996 15.4346 8.63064 15.4914 8.65179 15.5445C8.75765 15.8185 8.8902 16.0814 9.04753 16.3294C9.08325 16.3863 9.12273 16.4451 9.16409 16.5038C9.23976 16.6105 9.31966 16.7134 9.40238 16.8102C9.56411 17.0002 9.74334 17.1746 9.93771 17.331C10.0218 17.3982 10.1088 17.4617 10.1962 17.519C10.3389 17.6179 10.4897 17.7045 10.6469 17.778H10.6502C10.764 17.825 10.8796 17.872 10.9943 17.919C11.2293 18.0214 11.3994 18.1027 11.5625 18.1812C11.7505 18.271 11.9263 18.3565 12.1763 18.4576C12.3126 18.5131 12.4546 18.5662 12.5993 18.616C12.6121 18.6202 12.6254 18.6224 12.6388 18.6226C12.6564 18.6226 12.6738 18.6188 12.6897 18.6114C12.7057 18.6041 12.7198 18.5933 12.7312 18.5798C12.7425 18.5664 12.7507 18.5506 12.7553 18.5336C12.7599 18.5167 12.7607 18.4989 12.7577 18.4816C12.6637 17.8927 12.7394 17.4156 12.9857 17.0636C13.1055 16.892 13.2272 16.8051 13.3819 16.6956C13.4378 16.6561 13.4956 16.6147 13.5591 16.5658C13.9665 16.2524 14.1259 15.9849 14.39 15.5422C14.5099 15.3406 14.6598 15.0896 14.8675 14.778C14.9004 14.731 14.9047 14.7234 15.3263 14.1782L16.3227 12.89C17.2627 11.6746 17.2984 11.6271 17.3515 11.4428C17.5498 10.7566 17.4774 9.8519 17.1372 8.75257L17.1047 8.65152C17.0992 8.63452 17.0898 8.61898 17.0775 8.60605C17.0651 8.59312 17.05 8.58312 17.0333 8.57679C15.9725 8.17212 15.3239 7.986 15.1505 7.93853C14.7717 7.83513 14.4375 7.77121 14.4234 7.76886C14.3416 7.75335 14.2199 7.73032 14.0615 7.7087C13.798 7.67243 13.5326 7.65187 13.2667 7.64713L13.2658 7.65606Z" fill="black"/>
<path d="M12.2924 18.3467C11.9301 18.3467 11.5207 17.7484 11.3863 17.5519C11.3736 17.5331 11.3642 17.519 11.3581 17.511C10.0242 15.686 10.6451 12.2813 12.7135 10.0784C13.1416 9.61312 13.6422 9.22028 14.1959 8.91517C14.5114 8.74344 14.8479 8.61371 15.197 8.5293C15.418 8.47654 15.6439 8.44724 15.871 8.44188H15.933C16.4065 8.43695 16.8719 8.56499 17.2762 8.81143C17.6805 9.05786 18.0075 9.41281 18.2201 9.8359L18.236 9.86692L18.2144 9.89418C17.7571 10.4657 16.1685 12.4632 14.9301 14.1862C14.2227 15.1732 14.0169 15.5285 13.866 15.7894C13.755 15.9887 13.6302 16.18 13.4923 16.3618L13.4482 16.4206C13.2916 16.6288 13.1295 16.8436 13.0252 17.1811C13.0026 17.2516 12.988 17.3122 12.9735 17.3691C12.9462 17.4944 12.9059 17.6164 12.8531 17.7333C12.7554 17.9486 12.6078 18.2729 12.378 18.3349C12.3502 18.3429 12.3214 18.3469 12.2924 18.3467Z" fill="#D17F1E"/>
<path d="M15.9319 8.49499C16.3956 8.49007 16.8514 8.61543 17.2473 8.85682C17.6433 9.0982 17.9635 9.4459 18.1715 9.86034C17.9059 10.1917 16.1937 12.3339 14.8857 14.1547C13.6966 15.8091 13.9213 15.6954 13.448 16.3294C13.2811 16.5531 13.0903 16.7858 12.9714 17.1641C12.907 17.3681 12.9042 17.4866 12.8017 17.7122C12.7106 17.9128 12.5667 18.2292 12.3613 18.2842C12.339 18.2902 12.3159 18.2932 12.2927 18.2931C11.9228 18.2931 11.4674 17.5693 11.3997 17.479C10.0898 15.6832 10.6985 12.302 12.7533 10.1151C13.1775 9.65505 13.6734 9.26667 14.2216 8.96499C14.5324 8.79514 14.8643 8.66698 15.2086 8.58382C15.4259 8.53185 15.648 8.50302 15.8713 8.49781H15.9324M15.9324 8.39018H15.8694C15.6385 8.39548 15.4088 8.42526 15.1842 8.47901C14.8309 8.56435 14.4903 8.69583 14.1713 8.87005C13.6124 9.17821 13.1071 9.57503 12.6753 10.045C10.5913 12.262 9.96717 15.6968 11.3147 17.5425C11.3208 17.5505 11.3302 17.5641 11.3424 17.582C11.5826 17.9335 11.9426 18.4002 12.2927 18.4002C12.3254 18.4003 12.358 18.3961 12.3895 18.3875C12.6433 18.3194 12.7975 17.9805 12.8995 17.7563C12.9538 17.6365 12.9952 17.5112 13.0231 17.3827C13.0372 17.3249 13.0518 17.2652 13.0734 17.1947C13.1768 16.8657 13.3357 16.6551 13.4898 16.4507L13.534 16.3919C13.6727 16.2083 13.7983 16.0151 13.91 15.8138C14.0599 15.5539 14.2653 15.1981 14.9713 14.2158C16.2088 12.4937 17.7964 10.4967 18.2537 9.92567L18.297 9.87162L18.2664 9.81099C18.0493 9.37918 17.7155 9.01689 17.3028 8.76524C16.8902 8.5136 16.4152 8.38268 15.9319 8.38736L15.9324 8.39018Z" fill="black"/>
<path d="M10.3886 20.2784C8.99408 18.3044 7.61792 16.3121 6.29957 14.3512C6.07585 14.0185 5.40187 13.0155 4.65457 11.6332C4.40124 11.1632 4.20807 10.7759 4.09057 10.406C3.96253 10.0325 3.92689 9.63355 3.9867 9.24325C4.04488 8.89054 4.1727 8.55294 4.3627 8.25014C4.37586 8.22852 4.38855 8.20878 4.39936 8.19186L4.405 8.18293C4.95349 7.32659 5.81829 6.97738 6.285 6.78985C6.3884 6.74802 6.81892 6.60561 7.77537 6.29071L8.1556 6.16569L8.28109 6.12433C10.9451 5.26893 16.6471 3.87538 16.8882 3.81663L16.9573 3.79971L17.7201 6.49845L17.6463 6.51678C12.7202 7.75711 8.82065 8.8273 8.36851 9.0623C8.16056 9.17051 7.98078 9.32582 7.84352 9.51585C7.76302 9.64537 7.70412 9.78713 7.66915 9.93556C7.63753 10.0858 7.62568 10.2396 7.6339 10.3929C7.65599 10.7421 8.10108 11.6252 8.90854 12.6376L10.0882 14.2502C10.9809 15.4703 11.8739 16.6904 12.7672 17.9105L12.8044 17.9613L10.4403 20.3503L10.3886 20.2784Z" fill="#475789"/>
<path d="M16.9001 3.889L17.2113 4.98833L17.2178 5.01183L17.623 6.4458C12.4925 7.7383 8.7771 8.76713 8.3353 8.99696C8.11561 9.11058 7.92601 9.27472 7.78212 9.47589C7.69707 9.61249 7.63484 9.76203 7.59787 9.91863C7.56441 10.0759 7.55209 10.237 7.56121 10.3976C7.58424 10.7632 8.03122 11.6543 8.85137 12.6836L12.7054 17.9542L12.0225 18.647L10.4503 20.2361C9.04547 18.2499 7.67025 16.2561 6.3613 14.3103C6.15074 13.9964 5.4683 12.9821 4.72006 11.5979C4.4766 11.1472 4.28014 10.7581 4.16029 10.3835C4.03612 10.0211 4.00145 9.63411 4.05924 9.25546C4.11561 8.91252 4.23924 8.58411 4.42302 8.28914C4.43853 8.26376 4.45263 8.24214 4.46438 8.22287C5.00018 7.38627 5.83819 7.04787 6.30819 6.85987C6.41112 6.81804 6.87924 6.66341 7.79433 6.36214L8.1741 6.23712L8.29864 6.19623C10.9443 5.34694 16.549 3.97548 16.8996 3.88994M17.003 3.71275L16.8649 3.74659C16.6233 3.80534 10.9189 5.19936 8.25212 6.0557C8.1976 6.07309 8.12615 6.09706 8.12615 6.09706L7.98186 6.14406L7.74687 6.22161C6.78807 6.53698 6.35707 6.67986 6.25132 6.72263C5.77897 6.91298 4.90007 7.26783 4.33889 8.14391L4.33372 8.15237C4.32244 8.16976 4.30928 8.19044 4.29518 8.21394C4.1012 8.52483 3.97099 8.87121 3.91213 9.2329C3.85023 9.63434 3.88668 10.0448 4.01835 10.4291C4.13867 10.8051 4.33325 11.1966 4.58893 11.6694C5.33764 13.054 6.01304 14.0593 6.23393 14.3897L6.23628 14.3935C7.55557 16.3553 8.9322 18.35 10.3253 20.3221L10.4268 20.4631L10.5509 20.3381L12.124 18.7485L12.8083 18.0567L12.8967 17.9669L12.8229 17.8659L10.1077 14.1529L8.9698 12.5962V12.5939C8.18067 11.6045 7.7323 10.72 7.71162 10.3905C7.70367 10.2445 7.71473 10.098 7.74451 9.95482C7.77763 9.81452 7.83335 9.68055 7.90948 9.55814C8.04013 9.3791 8.21029 9.23258 8.40674 9.12997C8.79073 8.93069 12.0934 7.99445 17.6625 6.59197L17.81 6.55484L17.7687 6.40867L17.3593 4.97L17.3523 4.94603L17.0416 3.8467L17.003 3.70993V3.71275Z" fill="black"/>
<path opacity="0.63" d="M17.2111 4.98785C15.7301 5.54151 14.1434 5.81223 12.6084 6.21925C8.47613 7.31482 8.05971 7.62126 7.62213 8.07199C7.28609 8.41744 6.68214 9.15299 6.19616 8.99836C5.79102 8.87005 5.79478 8.22615 5.45873 8.15001C5.22373 8.09643 4.80073 8.3225 4.021 9.77245C4.02711 9.41854 4.09056 8.81224 4.46327 8.2238C4.90037 7.53478 5.5109 7.18134 6.30708 6.8608C6.42364 6.8138 7.00644 6.62204 8.17298 6.23805L8.29753 6.19716C10.9432 5.34787 16.5479 3.97641 16.8985 3.89087L17.2111 4.98785Z" fill="#94A5C9"/>
<path opacity="0.39" d="M16.2864 5.03768C15.6101 5.42261 14.8176 5.534 14.052 5.675C12.2486 6.004 7.80618 7.06527 6.88874 7.99164C6.50898 8.37516 6.41874 8.73987 6.41874 8.73987C6.31957 9.13514 6.44694 9.42842 6.34495 9.4773C6.17246 9.56002 5.84769 8.70368 5.34949 8.70321C4.79959 8.70321 4.35873 9.74567 4.31549 9.84625C4.24383 10.0196 4.19119 10.2002 4.15851 10.3849C4.03433 10.0225 3.99966 9.63552 4.05746 9.25687C4.11382 8.91393 4.23745 8.58553 4.42124 8.29055C4.43675 8.26517 4.45085 8.24355 4.4626 8.22428C4.9984 7.38768 5.8364 7.04928 6.3064 6.86128C6.40933 6.81945 6.87746 6.66482 7.79255 6.36355C7.71907 6.50681 7.61079 6.62931 7.47765 6.71982C7.26991 6.87022 7.02597 6.99336 6.90142 7.21755C7.14112 7.26878 7.38882 7.20485 7.62523 7.13812C10.119 6.43312 12.5264 5.39206 15.0827 4.96577C15.4874 4.89574 15.9235 4.84874 16.2864 5.03768Z" fill="url(#paint1_linear_116_6722)"/>
<path d="M8.85238 12.6836L12.7064 17.9542L12.0225 18.647C10.9937 17.2323 9.98602 15.8214 9.01453 14.4353C9.00203 14.4181 8.98853 14.4016 8.97411 14.386C8.49612 13.798 6.89624 11.284 6.89624 11.284C6.35151 10.391 6.09724 9.98725 6.01123 9.32972C5.97645 9.05665 5.95718 8.90296 6.01123 8.70321C6.05823 8.53213 6.23307 8.0532 8.29684 7.22835C9.06952 6.92003 9.8234 6.6761 10.5091 6.45426C10.8005 6.36026 11.0431 6.28459 11.2094 6.23289C12.1306 5.95935 13.0647 5.6891 14.0116 5.42214C15.055 5.12792 16.0872 4.84592 17.1084 4.57614C17.2795 5.20061 17.4507 5.82493 17.6221 6.44909C12.4925 7.7383 8.77718 8.76713 8.33538 8.99696C8.11568 9.11058 7.92609 9.27472 7.78219 9.47589C7.69715 9.61249 7.63492 9.76203 7.59795 9.91863C7.56449 10.0759 7.55217 10.237 7.56129 10.3976C7.58338 10.7632 8.02988 11.6543 8.85238 12.6836Z" fill="#302F5B"/>
<path d="M15.4636 9.012C15.4551 9.012 15.4468 9.00973 15.4396 9.00542C14.8861 8.6673 14.3587 8.2882 13.8618 7.87132C13.7857 7.8074 13.7095 7.74206 13.6362 7.67721C13.5383 7.58516 13.4484 7.48501 13.3674 7.37782C13.3171 7.31296 13.2682 7.24481 13.2226 7.17525C13.1153 7.01201 13.0239 6.83889 12.9495 6.65825C12.9119 6.5666 12.8776 6.47024 12.8475 6.37389C12.8311 6.31984 12.8165 6.26673 12.8034 6.21644C12.7473 5.99441 12.7131 5.76741 12.7014 5.5387C12.7014 5.4917 12.6971 5.44471 12.6967 5.39771C12.6938 5.1933 12.7072 4.98899 12.7366 4.78671C12.7427 4.74394 12.7493 4.70116 12.7568 4.65839C12.7911 4.46744 12.8382 4.27901 12.8978 4.09439C12.9105 4.05444 12.9237 4.01496 12.9378 3.97501C13.0015 3.7939 13.0762 3.61684 13.1615 3.44485C13.1798 3.40725 13.1991 3.37012 13.2184 3.33346C13.3079 3.16408 13.4072 3.00009 13.5159 2.84231C13.5398 2.80706 13.5629 2.77275 13.5892 2.73844C13.7054 2.57751 13.8309 2.42356 13.9652 2.27737C13.9948 2.24541 14.0254 2.21298 14.0559 2.18337C14.2013 2.03394 14.3555 1.89346 14.5179 1.76272C14.5546 1.73311 14.5917 1.70444 14.6293 1.67577C14.8097 1.53804 14.9991 1.41243 15.1961 1.29977C15.2431 1.27439 15.2864 1.24995 15.332 1.22598C15.3954 1.19261 15.4617 1.15924 15.5298 1.12728C15.6979 1.04788 15.8705 0.978507 16.0468 0.919545C16.1089 0.898865 16.17 0.880065 16.2278 0.863615C16.4962 0.786509 16.7718 0.736749 17.0503 0.715094C17.1222 0.709454 17.1974 0.705695 17.2735 0.704285H17.3431H17.4183C17.4225 0.704285 17.517 0.704285 17.5974 0.712275C17.7488 0.728469 17.8983 0.759963 18.0434 0.806275C18.2404 0.874845 18.4331 0.955043 18.6205 1.04644C18.8851 1.17472 19.139 1.3237 19.3801 1.492L20.0052 1.91876L20.6359 2.34881C20.6451 2.35503 20.6518 2.36429 20.6548 2.37495C20.6578 2.38562 20.6569 2.397 20.6524 2.40709C20.5983 2.53164 20.5081 2.73891 18.1811 7.83371C18.1689 7.86097 18.1383 7.88071 18.0575 7.92536C18.0166 7.94886 17.9635 7.97894 17.9014 8.01936C16.7048 8.76196 16.3946 8.87711 16.1789 8.9321C15.9598 8.98629 15.7348 9.01313 15.5091 9.012H15.4636Z" fill="url(#paint2_linear_116_6722)"/>
<path d="M17.3476 0.7461H17.4218C17.4218 0.7461 17.5186 0.7461 17.5981 0.75409C17.7458 0.770191 17.8915 0.800731 18.0333 0.84527C18.2282 0.913169 18.4189 0.992582 18.6043 1.08309C18.8664 1.21183 19.1179 1.36113 19.3563 1.52959C19.6929 1.75989 20.1168 2.04659 20.6098 2.38499C20.5558 2.5086 20.4688 2.70741 18.1386 7.81067C18.1287 7.83323 18.038 7.87459 17.8772 7.97423C16.6552 8.73187 16.369 8.8301 16.1683 8.88133C15.9532 8.93548 15.7322 8.96248 15.5103 8.9617H15.4657C14.914 8.6258 14.3884 8.24872 13.8935 7.8337C13.8169 7.76931 13.7422 7.70492 13.6684 7.64006C13.5731 7.54983 13.4854 7.4519 13.4061 7.34725C13.3591 7.28897 13.3121 7.22223 13.2651 7.1475C13.1594 6.98693 13.0692 6.81665 12.9958 6.63896C12.9582 6.54496 12.9249 6.45096 12.8957 6.35696C12.8797 6.30589 12.8652 6.25419 12.852 6.20186C12.7959 5.98315 12.7614 5.75945 12.7491 5.53399C12.7467 5.48699 12.7448 5.44234 12.7444 5.39628C12.7414 5.19376 12.7546 4.99133 12.7839 4.79092C12.7895 4.74862 12.7965 4.70679 12.8041 4.66449C12.837 4.47484 12.8829 4.28766 12.9413 4.10425C12.954 4.06477 12.9672 4.02529 12.9808 3.98628C13.0439 3.80683 13.1178 3.63135 13.2022 3.46082C13.2205 3.42416 13.2393 3.3875 13.259 3.35084C13.347 3.18298 13.4449 3.02054 13.5523 2.86439C13.5758 2.82961 13.5993 2.7953 13.6252 2.76146C13.7413 2.60202 13.8669 2.44963 14.0012 2.30509C14.0308 2.27313 14.0608 2.24117 14.0914 2.21109C14.235 2.06261 14.3879 1.92337 14.5492 1.7942C14.5855 1.76506 14.6222 1.73639 14.6592 1.70819C14.8379 1.57231 15.0255 1.44858 15.2208 1.33783C15.2678 1.31245 15.311 1.28801 15.3571 1.26404C15.4217 1.2302 15.487 1.19761 15.5531 1.16628C15.7201 1.08775 15.8917 1.01916 16.0668 0.96089C16.1265 0.94115 16.1862 0.92235 16.2459 0.9059C16.5112 0.829426 16.7837 0.780136 17.059 0.75879C17.1328 0.75268 17.2066 0.749389 17.2794 0.748449H17.348M17.348 0.654449H17.2775C17.2009 0.654449 17.1248 0.65962 17.0515 0.66526C16.7698 0.687315 16.4911 0.737703 16.2196 0.81566C16.1613 0.83258 16.0997 0.85138 16.0372 0.87206C15.8584 0.931578 15.6833 1.00157 15.5127 1.08168C15.4436 1.11458 15.3764 1.14795 15.3129 1.18132H15.3106C15.2673 1.20388 15.2227 1.22832 15.1743 1.25558C14.9752 1.36788 14.784 1.4935 14.6018 1.63158C14.5642 1.65978 14.5261 1.68939 14.4895 1.71947C14.3254 1.85061 14.1697 1.99188 14.0232 2.14247C13.9922 2.17443 13.9612 2.20686 13.9316 2.23929C13.7956 2.38666 13.6683 2.54187 13.5504 2.70412C13.5246 2.73984 13.4997 2.77509 13.4762 2.8094C13.3666 2.96914 13.2664 3.13518 13.1763 3.30666C13.1566 3.34379 13.1368 3.38186 13.1185 3.41899C13.0331 3.59296 12.9583 3.77188 12.8943 3.95479C12.8807 3.9938 12.867 4.03469 12.8544 4.07558C12.7943 4.26296 12.7472 4.45423 12.7134 4.64804C12.7058 4.69034 12.6988 4.73358 12.6922 4.77776C12.6627 4.98304 12.6493 5.19032 12.6523 5.39769C12.6523 5.44469 12.6523 5.49169 12.657 5.53869C12.6692 5.77038 12.7039 6.00033 12.7604 6.22536C12.7735 6.27659 12.7886 6.33064 12.8074 6.38469C12.8374 6.48339 12.8722 6.58021 12.9103 6.67327C12.9858 6.85668 13.0787 7.03247 13.1876 7.19826C13.2346 7.26923 13.2839 7.33926 13.3347 7.40412C13.4174 7.51354 13.5092 7.61574 13.6092 7.70962C13.6839 7.77542 13.76 7.84122 13.8362 7.90514C14.335 8.3234 14.8645 8.70375 15.4201 9.04301C15.4343 9.05162 15.4505 9.05633 15.4671 9.05664H15.5141C15.7432 9.05699 15.9715 9.02904 16.1937 8.97345C16.4193 8.91799 16.7215 8.80284 17.9233 8.05601C17.9858 8.01747 18.037 7.98786 18.0784 7.96201C18.1686 7.90984 18.2025 7.89057 18.2194 7.84921C20.5497 2.75535 20.6404 2.54808 20.6963 2.42447C20.7056 2.40423 20.7073 2.38135 20.7013 2.35992C20.6953 2.33849 20.6819 2.31989 20.6634 2.30744L20.0298 1.87504L19.4099 1.45204H19.4076C19.1669 1.28153 18.9131 1.13034 18.6485 0.9999C18.4587 0.907423 18.2636 0.826132 18.0643 0.75644C17.9146 0.709821 17.7606 0.67833 17.6046 0.66244C17.5205 0.65633 17.4223 0.654449 17.4213 0.654449H17.3471H17.348Z" fill="black"/>
<path d="M17.2274 9.52336C16.8949 9.52484 16.5639 9.47926 16.2442 9.388C16.0473 9.33127 15.8564 9.25556 15.6741 9.16193C15.0362 8.8353 14.5361 8.29136 14.2641 7.62832C13.4298 5.63599 14.602 3.0806 16.8242 2.04801C17.3005 1.82308 17.8141 1.68766 18.3395 1.64851C18.4255 1.64287 18.5124 1.64005 18.598 1.64005C18.8291 1.63974 19.0596 1.66177 19.2865 1.70585C19.4937 1.74619 19.6966 1.80631 19.8923 1.88539C20.7778 2.244 21.4147 2.95605 21.6859 3.89041C22.217 5.72059 21.1543 7.95779 19.2672 8.98333C18.6427 9.32987 17.9417 9.51546 17.2274 9.52336Z" fill="#FEBF1F"/>
<path d="M18.5979 1.6861C18.826 1.68581 19.0536 1.70753 19.2775 1.75096C19.4816 1.79095 19.6814 1.85012 19.8744 1.92768C20.7204 2.26937 21.3662 2.95698 21.6402 3.90168C22.168 5.72199 21.1124 7.92441 19.2432 8.93961C18.6261 9.2834 17.9328 9.46758 17.2264 9.47541C16.8988 9.47645 16.5727 9.4312 16.2578 9.34099C16.0638 9.28503 15.8757 9.21043 15.6961 9.11821C15.4419 8.98831 15.2079 8.82223 15.0014 8.62518C14.7025 8.3379 14.4665 7.99173 14.3082 7.60857C13.488 5.65055 14.6419 3.11302 16.8462 2.08983C17.3172 1.86741 17.8251 1.73343 18.3446 1.69456C18.4307 1.68892 18.5158 1.6861 18.5998 1.6861M18.5998 1.5921C18.5133 1.5921 18.4254 1.59492 18.3384 1.60103C17.8072 1.64008 17.2877 1.77696 16.8062 2.00476C14.5615 3.04769 13.3781 5.63128 14.2212 7.64476C14.3847 8.04007 14.6284 8.39713 14.9371 8.69333C15.1501 8.89672 15.3916 9.06817 15.6538 9.20234C15.8385 9.29746 16.0319 9.37443 16.2314 9.43217C16.5554 9.52521 16.8908 9.57189 17.2278 9.57082C17.95 9.56251 18.6586 9.37431 19.2897 9.02327C20.2211 8.51267 20.9685 7.72237 21.4263 6.76398C21.8846 5.80283 21.9927 4.77729 21.7314 3.87536C21.456 2.9269 20.8092 2.20404 19.9101 1.83979C19.7116 1.75971 19.5059 1.69881 19.2958 1.6579C19.0659 1.61307 18.8321 1.59072 18.5979 1.59116L18.5998 1.5921Z" fill="black"/>
<path d="M18.7646 7.96438C17.4044 8.64494 15.9093 8.22194 15.4107 6.96986C14.8894 5.66091 15.6499 3.96186 17.1262 3.23571C18.6024 2.50956 20.1257 3.0698 20.529 4.42716C20.9148 5.72577 20.1201 7.28664 18.7646 7.96438Z" fill="url(#paint3_linear_116_6722)"/>
<path d="M18.7381 7.76838C18.3794 7.958 17.9837 8.06722 17.5786 8.08845C16.6959 8.12699 15.8974 7.68707 15.5665 6.85C15.0739 5.60309 15.8151 4.00039 17.2115 3.33581C17.5665 3.16308 17.9547 3.06897 18.3494 3.05992C19.2894 3.04629 20.0818 3.57457 20.3483 4.46992C20.706 5.66983 19.9911 7.12072 18.7381 7.76838Z" fill="#6B3300"/>
<path d="M20.2549 4.47274C20.0232 3.69865 19.3995 3.19857 18.6278 3.08436C18.5846 3.0806 18.5408 3.07825 18.4971 3.07684C18.1038 3.08599 17.7172 3.17994 17.3635 3.35226C15.9704 4.0159 15.2297 5.61437 15.7185 6.85846C16.0127 7.60811 16.6834 8.03863 17.4528 8.0908C17.4946 8.0908 17.5369 8.0908 17.5792 8.0908C17.9512 8.0575 18.3129 7.95062 18.6433 7.77637C19.8973 7.12589 20.6131 5.675 20.2549 4.47274Z" fill="#FCD638"/>
<path d="M15.7181 6.85845C15.2298 5.61436 15.9705 4.01589 17.3631 3.35225C17.7168 3.17992 18.1034 3.08597 18.4967 3.07683C18.5404 3.07683 18.5842 3.08059 18.6274 3.08435C18.5357 3.07045 18.4433 3.06228 18.3506 3.05991C17.9559 3.06896 17.5677 3.16307 17.2127 3.3358C15.8149 4.00038 15.0737 5.60308 15.5677 6.84999C15.8826 7.64664 16.6219 8.08374 17.4533 8.09079C16.683 8.03862 16.0123 7.6081 15.7181 6.85845Z" fill="#F9F9F2"/>
<path d="M10.9484 12.7133C10.812 12.7125 10.6758 12.7039 10.5404 12.6874C10.437 12.6757 10.3322 12.6592 10.2288 12.6404C9.98627 12.5922 9.74881 12.5212 9.51959 12.4284C9.40115 12.3814 9.28459 12.3255 9.17273 12.2677C9.11069 12.2353 9.04959 12.2019 8.99131 12.1676C8.74078 12.0207 8.50528 11.8496 8.28819 11.6567C8.2473 11.621 8.20453 11.582 8.158 11.5373C7.97062 11.3581 7.79775 11.1643 7.641 10.9578C7.60763 10.9141 7.5752 10.8704 7.54324 10.8253C7.44043 10.6816 7.3449 10.5329 7.25701 10.3797C7.22505 10.3242 7.19168 10.2641 7.15596 10.1964C7.13105 10.1494 7.10896 10.1024 7.08358 10.0554C7.03658 9.95858 6.98958 9.85659 6.94493 9.75178C6.89417 9.63146 6.84623 9.50738 6.80393 9.3833C6.78701 9.33301 6.77009 9.28319 6.75411 9.2329C6.68059 9.0016 6.62064 8.7662 6.57457 8.5279C6.56423 8.47573 6.55436 8.42262 6.5459 8.36904C6.50428 8.12096 6.47728 7.87064 6.46506 7.61939C6.46224 7.56393 6.45989 7.508 6.45895 7.45254C6.45252 7.18868 6.46225 6.92467 6.48809 6.662C6.49326 6.60889 6.49984 6.55061 6.50877 6.48434C6.54481 6.19971 6.60009 5.91785 6.67421 5.64069C6.69301 5.5716 6.71087 5.50909 6.72873 5.44987C6.75411 5.36433 6.78278 5.27738 6.81521 5.18385C6.89341 4.9611 6.98459 4.74311 7.08828 4.53102C7.12729 4.45206 7.16301 4.3825 7.19826 4.31811C7.36689 4.0073 7.5664 3.71427 7.79375 3.44344C7.85297 3.37341 7.91642 3.30244 7.98175 3.23241C8.02405 3.18823 8.06682 3.14452 8.11006 3.10222C8.11382 3.09846 8.19983 3.0148 8.27644 2.94759C8.42584 2.82468 8.58724 2.71713 8.75819 2.62658C8.99508 2.50972 9.23865 2.40693 9.48763 2.31873C9.72732 2.23344 9.97202 2.16296 10.2204 2.1077H10.2246C10.3468 2.07997 10.4596 2.05741 10.5644 2.0372L11.6139 1.82899L12.4491 1.66449C12.453 1.664 12.457 1.664 12.4609 1.66449C12.4728 1.66455 12.4844 1.66816 12.4943 1.67486C12.5042 1.68155 12.5118 1.69103 12.5163 1.70209C12.5633 1.81583 12.631 1.98409 13.5752 4.44924C13.947 5.41744 14.4537 6.74096 15.1488 8.55469L15.223 8.74974C15.2367 8.78546 15.2259 8.82823 15.1958 8.94338C15.1807 9.00166 15.1619 9.07451 15.1413 9.16616C14.7493 10.9052 14.5773 11.2882 14.4363 11.5307C14.2823 11.7933 14.0942 12.0343 13.877 12.2475C13.8693 12.255 13.8597 12.2604 13.8492 12.263C13.712 12.2973 13.5757 12.3297 13.4446 12.3593C12.7782 12.5085 12.1033 12.6162 11.4236 12.6818C11.3018 12.6935 11.1754 12.7039 11.0476 12.7133C11.0471 12.7109 11.0142 12.7133 10.9484 12.7133Z" fill="url(#paint4_linear_116_6722)"/>
<path d="M12.4603 1.72231C12.5073 1.83464 12.5708 1.99632 13.5188 4.46805C13.9037 5.47103 14.4334 6.85424 15.1666 8.76902C15.1779 8.79816 15.1351 8.9166 15.082 9.15066C14.682 10.9259 14.518 11.2713 14.384 11.4983C14.2329 11.7566 14.0481 11.9937 13.8346 12.2033C13.7014 12.2365 13.567 12.2679 13.4313 12.2973C12.768 12.4462 12.096 12.5534 11.4193 12.6183C11.2933 12.6305 11.1688 12.6409 11.0433 12.6498C11.0433 12.6498 11.009 12.6522 10.9493 12.6522C10.8153 12.6514 10.6814 12.6429 10.5484 12.6268C10.4544 12.6164 10.3524 12.6009 10.2415 12.5798C10.0029 12.5319 9.76922 12.462 9.5435 12.3711C9.42647 12.3241 9.31273 12.2701 9.20134 12.2122C9.14071 12.1812 9.08102 12.1483 9.02227 12.114C8.77553 11.9695 8.5435 11.8012 8.32949 11.6116C8.28625 11.5735 8.24348 11.534 8.20118 11.4936C8.01581 11.3167 7.84482 11.1252 7.68982 10.9212C7.65692 10.8779 7.62449 10.8351 7.59347 10.791C7.49209 10.6487 7.39797 10.5014 7.31147 10.3496C7.27716 10.2899 7.24379 10.2298 7.21136 10.1682C7.18692 10.1212 7.16436 10.0742 7.14039 10.0272C7.09339 9.92851 7.04639 9.8284 7.00268 9.72594C6.95224 9.60656 6.90524 9.48499 6.86168 9.36122C6.84476 9.31187 6.82831 9.26205 6.81233 9.21223C6.73946 8.98343 6.68014 8.75053 6.63467 8.51475C6.62433 8.46258 6.61493 8.41041 6.60647 8.35777C6.56472 8.11193 6.53788 7.86378 6.5261 7.6147C6.52328 7.55971 6.52093 7.50472 6.51999 7.44973C6.51386 7.1882 6.5239 6.92653 6.55007 6.66624C6.55524 6.60749 6.56229 6.54874 6.57028 6.49046C6.60589 6.20835 6.6607 5.92899 6.73431 5.65433C6.75123 5.59135 6.76862 5.52884 6.78789 5.46633C6.81468 5.3775 6.84335 5.29008 6.8739 5.20219C6.95123 4.98166 7.04146 4.76587 7.14415 4.55594C7.1794 4.48497 7.21512 4.41494 7.25272 4.34585C7.41944 4.03851 7.61674 3.74878 7.84163 3.48105C7.90242 3.4093 7.96509 3.33974 8.02963 3.27237C8.07146 3.22866 8.11376 3.18542 8.15653 3.14359C8.15653 3.14359 8.24395 3.05852 8.32009 2.99131C8.46627 2.8723 8.62368 2.76778 8.79009 2.67923C9.02423 2.56365 9.26498 2.46195 9.51107 2.37467C9.74883 2.29045 9.99148 2.22077 10.2377 2.16599C10.3622 2.13732 10.4755 2.11476 10.5794 2.09455L11.6251 1.88728L12.4603 1.72231ZM12.4603 1.60199C12.4527 1.6013 12.445 1.6013 12.4373 1.60199L12.0448 1.68001L11.6016 1.76743L10.5521 1.97517C10.4473 1.99585 10.3345 2.01794 10.2128 2.04567H10.2067C9.95603 2.10171 9.70898 2.17281 9.46689 2.25858C9.21631 2.34751 8.97118 2.45109 8.73275 2.56878H8.72993C8.55523 2.66158 8.39036 2.77181 8.23784 2.89778C8.15982 2.9664 8.07287 3.051 8.06911 3.05476C8.0254 3.09753 7.98169 3.14218 7.93892 3.18683C7.87218 3.25733 7.80779 3.32783 7.74763 3.40068C7.51766 3.67449 7.31595 3.97085 7.14556 4.28522C7.10984 4.35055 7.07318 4.42058 7.03417 4.50001C6.92963 4.71379 6.83767 4.9335 6.75875 5.15801C6.72538 5.25201 6.69671 5.34084 6.67086 5.42732C6.653 5.48654 6.63514 5.54952 6.61634 5.61955C6.54124 5.90024 6.48534 6.18572 6.44902 6.47401C6.44009 6.54075 6.43351 6.59997 6.42834 6.65402C6.40171 6.91947 6.39151 7.18631 6.39779 7.45302C6.39779 7.50002 6.40061 7.5536 6.4039 7.62081C6.41623 7.87459 6.44354 8.12742 6.48568 8.37798C6.49367 8.42874 6.50354 8.48138 6.51482 8.53872C6.56127 8.77892 6.62169 9.0162 6.69577 9.24936C6.71128 9.29636 6.72773 9.34665 6.74606 9.4007C6.79024 9.52713 6.84006 9.65215 6.88941 9.77341C6.93406 9.87916 6.98341 9.98256 7.03041 10.0808C7.05438 10.1306 7.07741 10.179 7.10279 10.2218C7.13945 10.2904 7.17282 10.351 7.20572 10.4098C7.29459 10.5648 7.39122 10.7152 7.49524 10.8605C7.52391 10.9005 7.55493 10.9432 7.59347 10.9935C7.75256 11.2026 7.92778 11.3989 8.11752 11.5806C8.16452 11.6276 8.20823 11.6652 8.24959 11.7014C8.46935 11.8965 8.70768 12.0696 8.96117 12.2184C9.02039 12.2527 9.08243 12.287 9.14541 12.3194C9.25868 12.3786 9.37712 12.4331 9.49744 12.4825C9.72943 12.5764 9.96971 12.6483 10.2151 12.6973C10.3199 12.7184 10.4266 12.7354 10.5319 12.7476C10.6695 12.7641 10.8079 12.7727 10.9465 12.7734C11.0118 12.7734 11.0494 12.7734 11.0508 12.7706C11.1796 12.7617 11.3065 12.7509 11.4291 12.7391C12.1115 12.6735 12.7892 12.5655 13.4581 12.4158C13.5907 12.3857 13.7274 12.3532 13.8642 12.3189C13.8851 12.3136 13.9042 12.3029 13.9197 12.2879C14.1406 12.071 14.332 11.8259 14.4888 11.5589C14.6383 11.3023 14.8056 10.9268 15.2 9.17698C15.2202 9.08627 15.239 9.01389 15.254 8.95608C15.2874 8.82777 15.301 8.77983 15.2794 8.72625L15.2028 8.52509C14.5091 6.71418 14.0029 5.39254 13.6316 4.42528C12.6855 1.95872 12.6178 1.78999 12.5727 1.67813C12.5635 1.65576 12.548 1.63659 12.528 1.62304C12.508 1.60948 12.4845 1.60216 12.4603 1.60199Z" fill="black"/>
<path d="M13.0032 12.3833C12.5096 12.3818 12.0208 12.2861 11.5631 12.1013C10.6912 11.7526 9.93689 11.1143 9.38135 10.2556C8.38166 8.70932 8.15935 6.63333 8.79667 4.83699C9.01595 4.2071 9.34942 3.62301 9.78038 3.11397C10.0417 2.80812 10.3419 2.53777 10.6734 2.3098C10.8936 2.15856 11.1278 2.02872 11.3727 1.92205C11.4489 1.88915 11.5269 1.85813 11.6054 1.82805C12.023 1.67615 12.4639 1.59821 12.9082 1.59775C13.5609 1.60063 14.2025 1.76724 14.7741 2.08232C15.2238 2.32713 15.6289 2.64622 15.9722 3.02608C16.8529 3.98958 17.3948 5.35728 17.4588 6.77903C17.4905 7.45634 17.4119 8.13429 17.2261 8.7864C16.9761 9.65778 16.5404 10.4389 15.9665 11.0447C15.6578 11.3731 15.3013 11.6529 14.909 11.8748C14.6828 12.0019 14.445 12.1072 14.1988 12.1892C13.9515 12.2713 13.6963 12.3278 13.4374 12.3579C13.3336 12.3701 13.2269 12.3781 13.1202 12.3814C13.0821 12.3828 13.0426 12.3833 13.0032 12.3833Z" fill="#FEBF1F"/>
<path d="M12.9078 1.66026C13.5505 1.66289 14.1824 1.82624 14.7459 2.13543C15.1897 2.37703 15.5895 2.69181 15.9285 3.0665C16.8074 4.02859 17.3361 5.37514 17.3991 6.78185C17.4304 7.45249 17.3526 8.12376 17.1688 8.76948C16.9136 9.65872 16.4779 10.4178 15.9233 11.0034C15.6189 11.3275 15.2671 11.6036 14.8799 11.8221C14.6574 11.9479 14.4232 12.0516 14.1805 12.1319C13.9372 12.2128 13.6861 12.2686 13.4314 12.2982C13.328 12.3105 13.2238 12.3181 13.1188 12.3213C13.0803 12.3213 13.0417 12.3213 13.0032 12.3213C12.5172 12.3201 12.0359 12.226 11.5852 12.044C10.695 11.6882 9.96087 11.0396 9.43165 10.2213C8.47614 8.74833 8.19038 6.72075 8.85214 4.85767C9.06903 4.23467 9.39883 3.65695 9.82505 3.15345C10.0827 2.85166 10.3786 2.58479 10.7054 2.35962C10.9225 2.21075 11.1534 2.08296 11.3948 1.97798C11.4707 1.94508 11.547 1.91484 11.6237 1.88727C12.0348 1.73756 12.4689 1.66074 12.9064 1.66026M12.9064 1.53994C12.4547 1.54055 12.0066 1.62008 11.5824 1.77494C11.5034 1.80314 11.424 1.83463 11.3474 1.86894C11.0988 1.97696 10.8612 2.10854 10.6377 2.26186C10.3024 2.49306 9.99857 2.76686 9.73387 3.07637C9.29799 3.59109 8.9607 4.18171 8.73887 4.81866C8.41268 5.74243 8.30223 6.7286 8.41598 7.70164C8.51962 8.62269 8.83212 9.50793 9.32967 10.2899C9.89367 11.1594 10.6565 11.8057 11.5387 12.1587C12.0042 12.346 12.5013 12.4426 13.0032 12.443C13.0427 12.443 13.0831 12.443 13.1226 12.443C13.2307 12.4397 13.3392 12.4317 13.4455 12.419C13.7082 12.3884 13.9671 12.3309 14.2181 12.2475C14.4683 12.1638 14.7097 12.0562 14.9391 11.926C15.3368 11.7016 15.6981 11.4181 16.0107 11.0852C16.5912 10.4742 17.032 9.68269 17.2844 8.80191C17.4724 8.14363 17.5518 7.4591 17.5194 6.77527C17.455 5.33989 16.9084 3.95809 16.0154 2.98425C15.6676 2.59934 15.2571 2.27611 14.8014 2.02827C14.2212 1.70947 13.5703 1.54125 12.9082 1.539L12.9064 1.53994Z" fill="black"/>
<path d="M15.8622 8.33708C15.269 10.1701 13.5592 11.1439 11.9875 10.4826C10.3425 9.7922 9.48522 7.59871 10.1381 5.61954C10.7885 3.64554 12.6507 2.76382 14.2336 3.60465C15.7489 4.40882 16.453 6.5116 15.8622 8.33708Z" fill="url(#paint5_linear_116_6722)"/>
<path d="M15.6621 8.18667C15.5148 8.67892 15.2622 9.13325 14.9219 9.51818C14.1732 10.3487 13.0668 10.6796 12.0182 10.2354C10.4545 9.57364 9.66539 7.48214 10.3055 5.6294C10.4652 5.15628 10.7247 4.72302 11.0665 4.35899C11.8871 3.49983 13.0691 3.25167 14.1154 3.80721C15.5131 4.54699 16.1871 6.48292 15.6621 8.18667Z" fill="#6B3300"/>
<path d="M14.032 3.89276C13.1272 3.4143 12.1219 3.53415 11.3337 4.12776C11.2924 4.16395 11.2515 4.20108 11.211 4.23962C10.8704 4.60333 10.6122 5.03615 10.4539 5.50862C9.81655 7.35525 10.6029 9.44299 12.1595 10.1062C13.0972 10.5057 14.0813 10.2819 14.8112 9.63381C14.8488 9.59621 14.8855 9.55767 14.9217 9.51772C15.2214 9.15202 15.4458 8.73065 15.582 8.27786C16.1089 6.57129 15.4321 4.63395 14.032 3.89276Z" fill="#FCD638"/>
<path d="M12.1597 10.1066C10.603 9.44347 9.81673 7.35573 10.4541 5.5091C10.6124 5.03662 10.8706 4.60381 11.2112 4.2401C11.2516 4.20156 11.2925 4.16442 11.3339 4.12823C11.2404 4.19913 11.1511 4.2754 11.0665 4.35665C10.7244 4.72137 10.4649 5.15546 10.3055 5.62941C9.66539 7.48122 10.4545 9.57271 12.0182 10.2354C13.0165 10.6584 14.0674 10.3788 14.8114 9.63428C14.0815 10.281 13.0973 10.5061 12.1597 10.1066Z" fill="#F9F9F2"/>
<g style="mix-blend-mode:multiply" opacity="0.42">
<path d="M17.399 6.78184C17.3473 6.91532 17.2956 7.04833 17.2486 7.18322C16.9333 8.08468 16.8092 9.04677 16.4567 9.93413C16.3054 10.3031 16.1271 10.6605 15.9232 11.0034C15.6189 11.3275 15.2671 11.6036 14.8798 11.8221C14.6574 11.9479 14.4231 12.0516 14.1805 12.1318C13.9371 12.2128 13.6861 12.2686 13.4313 12.2982C12.768 12.4471 12.096 12.5543 11.4192 12.6192C11.2933 12.6315 11.1687 12.6418 11.0432 12.6507C10.8771 12.6568 10.7108 12.6491 10.546 12.6277C10.452 12.6174 10.35 12.6018 10.2391 12.5807C10.0005 12.5328 9.76683 12.4629 9.54111 12.372C9.42408 12.325 9.31034 12.271 9.19895 12.2132C9.13832 12.1821 9.07863 12.1492 9.01988 12.1149C8.77313 11.9704 8.5411 11.8021 8.3271 11.6125C8.28386 11.5744 8.24109 11.5349 8.19879 11.4945C8.01342 11.3176 7.84243 11.1261 7.68743 10.9221C7.65453 10.8788 7.6221 10.8361 7.59108 10.7919C7.4897 10.6496 7.39558 10.5023 7.30908 10.3505C7.38005 10.3148 7.48392 10.3078 7.63526 10.3313C8.22417 10.421 8.88029 10.4756 9.4316 10.2241C9.53798 10.1768 9.63872 10.1176 9.73193 10.0479C10.0083 9.84248 10.2085 9.55108 10.3777 9.25122C10.8007 8.49922 11.062 7.66356 11.4648 6.90122C11.9658 5.95041 12.6784 5.13872 13.5187 4.47085C14.2529 3.89391 15.0639 3.42218 15.9284 3.06931C16.8073 4.02999 17.3361 5.37512 17.399 6.78184Z" fill="url(#paint6_linear_116_6722)"/>
</g>
<path d="M16.9065 12.5779C16.8982 12.5778 16.89 12.5761 16.8824 12.5728C16.8748 12.5694 16.868 12.5646 16.8623 12.5586C16.7589 12.4482 16.656 12.3325 16.5653 12.2244C16.3918 12.0191 16.2757 11.8616 16.1526 11.6948C16.045 11.5495 15.9336 11.3991 15.7719 11.198C15.652 11.0499 15.5651 10.9475 15.5331 10.9103C15.4299 10.7744 15.3384 10.6299 15.2596 10.4784C15.2098 10.3844 15.1632 10.2904 15.1219 10.1964C15.0226 9.96923 14.945 9.73318 14.8902 9.49139C14.8624 9.36966 14.8399 9.24276 14.8234 9.1154C14.8136 9.04207 14.8065 8.97439 14.8018 8.90953C14.7786 8.62067 14.7838 8.33023 14.8173 8.04238C14.8244 7.98316 14.8324 7.92394 14.8408 7.86707C14.8808 7.61088 14.9406 7.35819 15.0199 7.11131C15.0368 7.05867 15.0542 7.00697 15.073 6.95527C15.1556 6.72304 15.2541 6.49675 15.3677 6.278C15.3917 6.231 15.4147 6.184 15.4424 6.137C15.5602 5.92413 15.691 5.71867 15.8339 5.52177C15.8645 5.479 15.8964 5.43717 15.9279 5.39487C16.0751 5.20228 16.2336 5.01865 16.4026 4.84497C16.4398 4.80596 16.4778 4.76789 16.5164 4.73029C16.6959 4.55418 16.8859 4.38892 17.0851 4.23538C17.1288 4.20154 17.1734 4.16817 17.2181 4.1348C17.4313 3.97877 17.6539 3.83593 17.8845 3.7071C17.9362 3.67796 17.9884 3.64976 18.0415 3.62203C18.2962 3.49004 18.5593 3.3751 18.8292 3.27799C18.8913 3.2559 18.9538 3.23428 19.0172 3.2136H19.021C19.1108 3.18399 19.1977 3.15767 19.2856 3.13323C19.3829 3.10644 19.4816 3.08153 19.5789 3.05944C19.7143 3.02889 19.8482 3.00351 19.9775 2.98377C20.0574 2.97155 20.1373 2.96121 20.2125 2.95275C20.3535 2.9363 20.5053 2.92596 20.6557 2.92126C20.7027 2.92126 20.7497 2.92126 20.7967 2.92126C20.9546 2.92126 21.1134 2.92831 21.2667 2.94241C21.3574 2.95087 21.449 2.96168 21.5487 2.97625C21.6168 2.98706 21.676 2.99693 21.7301 3.00727C21.7348 3.00727 21.8523 3.03077 21.951 3.05427C22.1366 3.10675 22.3165 3.17744 22.4882 3.2653C22.7198 3.39291 22.9436 3.53416 23.1584 3.6883C23.2928 3.78512 23.3934 3.86549 23.4479 3.90826C23.4503 3.90826 23.7215 4.12587 24.0086 4.39424C24.1398 4.51738 24.6262 4.98362 25.3716 5.83291C25.3776 5.83959 25.382 5.84755 25.3845 5.85619C25.3869 5.86482 25.3874 5.87391 25.3857 5.88274C25.382 5.9067 25.3754 5.94289 25.3674 5.98613C25.1583 7.1052 24.8034 7.92911 24.3184 8.4353C24.1957 8.56267 24.1666 8.5763 22.7519 9.22255L21.2671 9.89888C20.6406 10.1837 20.634 10.187 20.5805 10.2161C20.2515 10.3952 20 10.548 19.7993 10.6706C19.3655 10.9357 19.1033 11.0936 18.6079 11.181C18.5299 11.1947 18.4603 11.2036 18.3931 11.2125C18.1994 11.2384 18.0467 11.2595 17.8507 11.3596C17.4545 11.5641 17.1546 11.9617 16.9577 12.5422C16.9543 12.5519 16.9484 12.5607 16.9407 12.5676C16.933 12.5745 16.9236 12.5793 16.9135 12.5816C16.9111 12.5806 16.9087 12.5793 16.9065 12.5779Z" fill="url(#paint7_linear_116_6722)"/>
<path d="M20.8001 2.97625C20.9587 2.97625 21.1142 2.9833 21.2668 2.9974C21.3608 3.00586 21.4548 3.01714 21.5441 3.03077C21.6043 3.04017 21.664 3.05004 21.7227 3.06132C21.7227 3.06132 21.8426 3.08435 21.9413 3.10832C22.1221 3.15964 22.2975 3.22859 22.4649 3.31418C22.6939 3.43991 22.9152 3.57928 23.1275 3.73154C23.2559 3.82554 23.3532 3.90074 23.4147 3.94962C23.4147 3.94962 23.6831 4.163 23.9717 4.43278C24.2537 4.69457 24.7396 5.19371 25.3314 5.86675C25.3276 5.89072 25.321 5.92644 25.313 5.96921C25.2454 6.33299 25.0014 7.63818 24.279 8.38783C24.1648 8.50674 24.1164 8.52883 22.7309 9.16239C20.6102 10.1287 20.6394 10.1118 20.5552 10.1574C19.5212 10.7181 19.3149 10.993 18.6014 11.1162C18.2978 11.1683 18.1014 11.1594 17.8274 11.3004C17.308 11.5683 17.0462 12.0994 16.9057 12.5172C16.7722 12.3762 16.6707 12.2573 16.6105 12.1854C16.2919 11.8094 16.1715 11.5993 15.8181 11.1599C15.7119 11.0283 15.6249 10.9249 15.5779 10.8708C15.4777 10.7374 15.3887 10.596 15.3119 10.4478C15.2677 10.3651 15.2212 10.2716 15.1766 10.1658C15.0787 9.94296 15.0022 9.71131 14.9481 9.474C14.9204 9.35086 14.8983 9.22678 14.8823 9.1027C14.8734 9.03502 14.8659 8.96734 14.8607 8.89966C14.8379 8.6147 14.8431 8.3282 14.8762 8.04426C14.8828 7.98645 14.8908 7.92864 14.8997 7.8713C14.9388 7.61807 14.9979 7.36834 15.0764 7.12447C15.0929 7.07277 15.1103 7.02154 15.1291 6.97078C15.2105 6.74077 15.3077 6.51667 15.42 6.30009C15.444 6.25309 15.467 6.20609 15.4943 6.16144C15.6108 5.95081 15.7401 5.74754 15.8816 5.55279C15.9121 5.51002 15.9436 5.46866 15.9756 5.42683C16.1215 5.23628 16.2785 5.0544 16.4456 4.8821C16.4827 4.84356 16.5203 4.80596 16.5588 4.76883C16.7368 4.59406 16.9251 4.4302 17.1228 4.27815L17.2549 4.17851C17.4654 4.02425 17.6852 3.88298 17.9129 3.75551C17.9641 3.72684 18.0163 3.69864 18.0685 3.67138C18.3203 3.53972 18.5806 3.4251 18.8477 3.32828C18.9093 3.30619 18.9709 3.28457 19.0334 3.26436C19.1208 3.23553 19.2092 3.20858 19.2985 3.18352C19.3962 3.15657 19.4932 3.13229 19.5894 3.11067C19.7213 3.07933 19.8526 3.05442 19.9833 3.03594C20.0622 3.02372 20.1402 3.01338 20.2183 3.00492C20.3658 2.988 20.512 2.97813 20.6568 2.9739C20.7038 2.9739 20.7508 2.9739 20.7978 2.9739M20.7978 2.85358C20.7508 2.85358 20.7014 2.85358 20.6535 2.85358C20.5007 2.85828 20.3503 2.86909 20.2046 2.88507C20.1261 2.894 20.0458 2.90434 19.9649 2.91703C19.8347 2.93677 19.6994 2.96403 19.5626 2.99317C19.4644 3.01573 19.3647 3.04017 19.2665 3.06743C19.1781 3.09234 19.0912 3.11866 19.0005 3.14874C18.9989 3.14827 18.9973 3.14827 18.9958 3.14874C18.938 3.16754 18.8764 3.18869 18.8078 3.2136C18.5353 3.3122 18.2698 3.42903 18.013 3.56328C17.9585 3.59195 17.9049 3.62062 17.8546 3.64929C17.6219 3.77909 17.3974 3.92319 17.1825 4.08075C17.1294 4.11976 17.0885 4.15172 17.0481 4.1818C16.8472 4.33894 16.6559 4.50797 16.4752 4.68799C16.4343 4.72794 16.3967 4.76601 16.36 4.80361C16.1896 4.97921 16.0297 5.16471 15.8811 5.35915C15.8454 5.40615 15.8139 5.44751 15.7871 5.48746C15.6428 5.68616 15.5108 5.8935 15.3918 6.10833C15.3636 6.15909 15.3387 6.20562 15.3157 6.24933C15.2012 6.47061 15.1018 6.69939 15.0182 6.93412C15.0008 6.98112 14.9829 7.0347 14.9646 7.0911C14.8842 7.34114 14.8237 7.59715 14.7836 7.85673C14.7747 7.91454 14.7667 7.97423 14.7597 8.03392C14.7258 8.32582 14.7204 8.62034 14.7437 8.91329C14.7489 8.97909 14.7559 9.04771 14.7658 9.12197C14.7827 9.25216 14.8057 9.38094 14.8339 9.50455C14.8896 9.74923 14.9683 9.98811 15.0689 10.218C15.1108 10.312 15.1578 10.4107 15.2099 10.5061C15.2899 10.6602 15.3829 10.8072 15.4877 10.9456L15.4905 10.9484C15.515 10.9771 15.6047 11.0823 15.7283 11.2346C15.8891 11.4348 16 11.5848 16.1067 11.7295C16.2308 11.8973 16.3478 12.0552 16.5226 12.2625C16.5856 12.3377 16.6895 12.4576 16.8216 12.599C16.8328 12.611 16.8465 12.6206 16.8616 12.6271C16.8767 12.6337 16.893 12.6371 16.9094 12.6371C16.918 12.6371 16.9265 12.6361 16.9348 12.6343C16.9551 12.6299 16.9739 12.6203 16.9894 12.6064C17.0049 12.5926 17.0165 12.575 17.0232 12.5553C17.214 11.9913 17.504 11.604 17.8861 11.4071C18.0741 11.3108 18.2208 11.291 18.4088 11.2661C18.4764 11.2572 18.5469 11.2478 18.6254 11.2341C19.1325 11.1467 19.3981 10.9846 19.838 10.7171C20.0387 10.5949 20.2878 10.4427 20.6168 10.2641C20.6685 10.2359 20.6751 10.233 21.3016 9.94776C21.6142 9.80676 22.0813 9.59338 22.7844 9.27237C24.1822 8.63505 24.2368 8.61014 24.3693 8.47337C24.8651 7.95872 25.2233 7.12447 25.4343 5.99318C25.4423 5.94947 25.4489 5.91328 25.4531 5.88931C25.4562 5.87157 25.4552 5.85338 25.4503 5.83606C25.4455 5.81874 25.4368 5.80273 25.4249 5.7892C24.6767 4.9385 24.1888 4.46991 24.0567 4.34677C23.7677 4.07652 23.5035 3.86643 23.4927 3.8575C23.4424 3.81755 23.3376 3.73389 23.2009 3.63566C22.9847 3.48136 22.7595 3.34011 22.5264 3.21266H22.5236C22.3479 3.12228 22.1635 3.04985 21.9732 2.99646C21.8726 2.97155 21.7537 2.94946 21.7486 2.94946C21.6945 2.93865 21.6344 2.92878 21.5657 2.91797C21.4661 2.90293 21.373 2.89165 21.2809 2.88366C21.1239 2.86909 20.9632 2.86204 20.8034 2.86204L20.7978 2.85358Z" fill="black"/>
<path opacity="0.32" d="M22.7826 4.76227C22.4188 4.76227 22.041 4.76932 21.7157 4.93147C21.5126 4.58287 21.2702 4.25865 20.9933 3.96515C20.7156 3.67067 20.375 3.44269 19.9969 3.29822C19.9969 3.27472 19.6614 3.20093 19.5918 3.11492C19.7237 3.08359 19.855 3.05868 19.9857 3.04019C20.0646 3.02797 20.1426 3.01763 20.2207 3.00917C20.3682 2.99225 20.5144 2.98238 20.6592 2.97815L22.1265 4.26736C22.2294 4.36418 22.3421 4.45017 22.4626 4.52398C22.5801 4.59025 22.7201 4.64101 22.7826 4.76227Z" fill="#F2F2EB"/>
<path d="M16.828 12.2517C16.8033 12.252 16.7787 12.2493 16.7546 12.2437C16.3683 12.1568 16.2757 11.3531 16.2452 11.0889C16.2428 11.0668 16.2409 11.0499 16.2395 11.0396C15.9105 8.80237 18.0476 6.08107 20.9047 5.09689C21.5003 4.88495 22.1263 4.77099 22.7584 4.75943H22.7946C23.1411 4.75753 23.4865 4.79954 23.8225 4.88445C24.0426 4.94017 24.2562 5.01894 24.4598 5.11945C24.8954 5.33054 25.2614 5.66203 25.5145 6.07468C25.7675 6.48733 25.897 6.96386 25.8877 7.44783V7.48308L25.8557 7.49671C25.1846 7.78858 22.8477 8.81553 20.9489 9.76211C19.8637 10.3035 19.5149 10.5235 19.2602 10.6838C19.0688 10.8084 18.8689 10.9194 18.6619 11.0161L18.5956 11.0476C18.3606 11.1585 18.1162 11.2736 17.8657 11.5218C17.8131 11.574 17.7717 11.6205 17.7318 11.6656C17.6493 11.7638 17.5567 11.853 17.4554 11.9316C17.2914 12.0599 17.0442 12.2517 16.828 12.2517Z" fill="#D17F1E"/>
<path d="M22.795 4.81256C23.1371 4.81057 23.4781 4.85195 23.8098 4.9357C24.0263 4.99172 24.2363 5.07049 24.4363 5.1707C24.8134 5.35752 25.1387 5.63417 25.3838 5.97628C25.6833 6.40912 25.8408 6.92436 25.8345 7.45067C25.4435 7.61846 22.9318 8.71497 20.9254 9.71701C19.1022 10.626 19.3537 10.6302 18.6393 10.9705C18.3878 11.0908 18.1101 11.2055 17.8285 11.4875C17.6767 11.6384 17.6189 11.7413 17.4229 11.8931C17.2655 12.0153 17.0263 12.2005 16.8284 12.2005C16.8077 12.2007 16.787 12.1985 16.7668 12.1939C16.3833 12.1074 16.31 11.1515 16.293 11.034C15.9702 8.83388 18.0847 6.12762 20.9226 5.15002C21.5126 4.94012 22.1327 4.82712 22.7588 4.81538H22.795M22.795 4.70822H22.7584C22.1205 4.72013 21.4888 4.83537 20.8878 5.04944C18.0076 6.04114 15.855 8.78923 16.1878 11.0499C16.1878 11.0603 16.1896 11.0759 16.1934 11.0969C16.2249 11.3705 16.3208 12.2028 16.7442 12.2983C16.7722 12.3044 16.8007 12.3074 16.8293 12.3072C17.0643 12.3072 17.32 12.1088 17.4897 11.9782C17.5929 11.8972 17.6874 11.8057 17.7717 11.7051C17.8107 11.6605 17.8516 11.6149 17.9028 11.5641C18.1472 11.3221 18.3864 11.2093 18.6181 11.1002L18.6849 11.0687C18.8935 10.9711 19.0952 10.8591 19.2884 10.7336C19.5417 10.5734 19.8895 10.3543 20.9724 9.8143C22.8698 8.86819 25.2057 7.8403 25.8764 7.55031L25.9403 7.52258V7.45255C25.95 6.95857 25.8179 6.47215 25.5596 6.05091C25.3014 5.62968 24.9279 5.29127 24.4833 5.07576C24.2765 4.97295 24.0594 4.89229 23.8356 4.83512C23.4952 4.74893 23.1452 4.70629 22.7941 4.70822H22.795Z" fill="black"/>
<path d="M13.2163 15.804C13.2067 15.804 13.1973 15.8014 13.1891 15.7964C13.0889 15.7353 12.9931 15.6728 12.9042 15.6084C12.7379 15.4914 12.6255 15.396 12.5061 15.295C12.4018 15.2071 12.2942 15.1159 12.1381 14.9984C12.0408 14.9246 11.96 14.8677 11.9097 14.8329C11.8081 14.7501 11.7168 14.6554 11.6376 14.5509C11.5869 14.4877 11.5398 14.4216 11.4966 14.3531C11.3932 14.1892 11.3102 14.0134 11.2494 13.8295C11.217 13.7309 11.1899 13.6306 11.1681 13.5292C11.154 13.4615 11.1446 13.4093 11.137 13.3595C11.0998 13.1124 11.088 12.8622 11.1018 12.6127C11.1046 12.5605 11.1084 12.5083 11.1131 12.4552C11.1351 12.2177 11.1742 11.9821 11.2301 11.7502C11.2418 11.6999 11.2541 11.6501 11.2682 11.5998C11.3295 11.3702 11.4042 11.1444 11.4919 10.9235C11.5102 10.8765 11.53 10.8271 11.5502 10.7792C11.6442 10.5606 11.7471 10.3402 11.8637 10.124C11.8881 10.077 11.9144 10.03 11.9407 9.98302C12.0258 9.83168 12.1193 9.67705 12.2194 9.52383C12.2556 9.4679 12.2932 9.4115 12.3313 9.35557C12.3619 9.30857 12.3938 9.26533 12.4253 9.22021C12.5724 9.01341 12.7327 8.80754 12.9028 8.60921C12.94 8.5655 12.9771 8.52226 13.0152 8.47902C13.1961 8.27457 13.3869 8.07717 13.5829 7.89199C13.6271 7.84969 13.6722 7.80786 13.7178 7.7665L13.8217 7.6725C14.0097 7.50659 14.2033 7.35008 14.397 7.20673C14.4501 7.16725 14.5036 7.12871 14.5582 7.09064L14.5765 7.07748C14.5856 7.0709 14.5945 7.06479 14.6033 7.05915C14.6602 7.01873 14.7231 6.97643 14.7936 6.9299C14.9962 6.79736 15.2002 6.67657 15.3999 6.57082C15.4662 6.53557 15.5344 6.50079 15.6091 6.46413C15.9114 6.31582 16.2259 6.19379 16.5491 6.09941C16.6318 6.07544 16.7169 6.05241 16.801 6.03408C16.8555 6.02139 16.9096 6.01011 16.9636 5.9993C16.9683 5.9993 17.0741 5.97862 17.1638 5.96593C17.2396 5.95598 17.3159 5.95127 17.3923 5.95183C17.4803 5.95188 17.5683 5.95643 17.6559 5.96545C17.8665 5.9959 18.0746 6.04129 18.2787 6.10129C18.4046 6.13842 18.4996 6.17367 18.5508 6.19247C18.5508 6.19247 18.8074 6.28647 19.0796 6.41995C19.1985 6.47823 19.4556 6.61218 19.8555 6.85705C20.0158 6.95481 20.1921 7.06761 20.3786 7.19122C20.3867 7.19654 20.3931 7.20394 20.3972 7.21263C20.4014 7.22133 20.4031 7.23098 20.4021 7.24057C20.4021 7.26266 20.396 7.29556 20.3913 7.33457C20.2687 8.3587 20.0022 9.17838 19.5984 9.77152C19.4993 9.91675 19.4617 9.95012 18.2524 10.9644C17.6414 11.479 17.2334 11.8184 16.9622 12.0454C16.4241 12.4966 16.4184 12.5013 16.3714 12.5445C16.0871 12.8091 15.8723 13.0239 15.7003 13.1964C15.3304 13.5668 15.1071 13.7905 14.6733 14.0283C14.6047 14.0659 14.5431 14.0974 14.4853 14.1275C14.3111 14.2072 14.1495 14.3122 14.0059 14.4391C13.66 14.7507 13.4123 15.1958 13.269 15.7621C13.2668 15.7702 13.2629 15.7776 13.2574 15.7839C13.252 15.7902 13.2451 15.7951 13.2375 15.7983C13.2308 15.8015 13.2237 15.8034 13.2163 15.804Z" fill="url(#paint8_linear_116_6722)"/>
<path d="M17.3933 6.00399C17.4793 6.00402 17.5653 6.00857 17.6509 6.01762C17.8583 6.04771 18.0634 6.09232 18.2647 6.1511C18.3845 6.18682 18.4752 6.21972 18.5335 6.24134C18.5335 6.24134 18.7845 6.33299 19.0571 6.46647C19.2348 6.55342 19.5012 6.70147 19.8288 6.90122C19.9891 6.99945 20.1639 7.11084 20.3501 7.23445C20.3501 7.25607 20.3444 7.2885 20.3393 7.32845C20.2998 7.66121 20.1564 8.85924 19.5558 9.7419C19.4618 9.8829 19.419 9.91815 18.2191 10.9244C16.3861 12.4632 16.4091 12.4388 16.3363 12.5064C15.448 13.3318 15.2778 13.6368 14.649 13.9822C14.3811 14.1293 14.2058 14.1872 13.9693 14.4001C13.5219 14.8033 13.3189 15.3452 13.2173 15.7494C13.0909 15.6724 12.9936 15.6061 12.9353 15.5652C12.6298 15.3495 12.5123 15.2118 12.1707 14.9542C12.0691 14.8776 11.9855 14.8188 11.9404 14.7878C11.8434 14.7079 11.7559 14.6173 11.6795 14.5176C11.6305 14.4557 11.5848 14.3912 11.5427 14.3244C11.4415 14.1632 11.3601 13.9904 11.3002 13.8097C11.2686 13.713 11.2421 13.6146 11.2208 13.5151C11.209 13.4601 11.1987 13.4046 11.1902 13.3487C11.1531 13.1052 11.1415 12.8585 11.1555 12.6127C11.1578 12.561 11.162 12.5093 11.1663 12.4571C11.1883 12.222 11.227 11.9887 11.2824 11.7591C11.2941 11.7098 11.3063 11.66 11.32 11.6106C11.3808 11.3829 11.4549 11.159 11.5418 10.9399C11.5601 10.8929 11.5799 10.8459 11.5996 10.7966C11.6908 10.5794 11.7947 10.3618 11.9107 10.1456C11.9357 10.0986 11.9615 10.0516 11.9874 10.007C12.0732 9.85376 12.1655 9.70164 12.2642 9.55061C12.3004 9.49468 12.338 9.43875 12.3756 9.38329C12.4061 9.33629 12.4381 9.29305 12.4696 9.24887C12.6172 9.04113 12.7754 8.83746 12.9443 8.63787C12.9809 8.59463 13.0185 8.55139 13.0561 8.50815C13.2338 8.30746 13.4223 8.11194 13.6201 7.92488C13.6643 7.88258 13.709 7.84122 13.7541 7.80033C13.7884 7.76931 13.8227 7.73829 13.8575 7.70633C14.0408 7.54512 14.2335 7.39002 14.429 7.24385C14.4826 7.20437 14.5366 7.16536 14.5912 7.12682L14.633 7.09815C14.6957 7.05397 14.7591 7.01104 14.8233 6.96937C15.0254 6.83683 15.2261 6.71776 15.4254 6.61217C15.4945 6.57551 15.5641 6.54026 15.6327 6.50689C15.9323 6.35961 16.2441 6.23868 16.5647 6.14546C16.6488 6.12102 16.7315 6.09846 16.8138 6.0806C16.8678 6.06838 16.9214 6.05663 16.975 6.04629C16.975 6.04629 17.0831 6.02561 17.1719 6.01339C17.2453 6.00376 17.3193 5.9992 17.3933 5.99976M17.3933 5.89354C17.3147 5.89297 17.2362 5.89783 17.1583 5.90811C17.0676 5.9208 16.9604 5.94101 16.9557 5.94195C16.9021 5.95229 16.8481 5.96404 16.7908 5.9772C16.7057 5.99647 16.6201 6.01903 16.536 6.043C16.2098 6.13822 15.8925 6.26151 15.5876 6.41148C15.5124 6.44767 15.4433 6.48292 15.3765 6.51864C15.1754 6.62486 14.97 6.74706 14.7655 6.88054C14.6955 6.92754 14.6325 6.9689 14.5738 7.01073L14.547 7.02906L14.5319 7.0394L14.5272 7.04269C14.4802 7.077 14.4257 7.11507 14.3665 7.15878C14.1719 7.30307 13.9769 7.46052 13.7875 7.62878L13.6836 7.72278C13.6366 7.76461 13.5896 7.80691 13.5473 7.84921C13.3504 8.03721 13.1586 8.23367 12.9767 8.43953C12.9386 8.4823 12.9006 8.52648 12.863 8.57066C12.6924 8.77135 12.5307 8.97862 12.3831 9.18683C12.3516 9.23148 12.3187 9.27707 12.2891 9.32313C12.2468 9.38517 12.2097 9.44063 12.1763 9.49233C12.0762 9.64602 11.9817 9.80159 11.8943 9.95481C11.8713 9.99523 11.8435 10.0441 11.8167 10.0958C11.6997 10.3134 11.5935 10.5353 11.5014 10.7538C11.4779 10.8097 11.4591 10.8558 11.4422 10.9004C11.3542 11.123 11.2788 11.3504 11.2166 11.5815C11.2048 11.6252 11.1931 11.6722 11.1785 11.7333C11.1221 11.9692 11.083 12.2089 11.0615 12.4505C11.0572 12.5013 11.053 12.5553 11.0502 12.6098C11.036 12.8631 11.048 13.1171 11.0859 13.3679C11.0934 13.4182 11.1033 13.4713 11.1174 13.5395C11.1396 13.643 11.1672 13.7453 11.2001 13.8459C11.2626 14.035 11.3478 14.2157 11.4539 14.3841C11.4979 14.454 11.5458 14.5215 11.5973 14.5862C11.6791 14.693 11.7729 14.79 11.8769 14.8752L11.8807 14.8781C11.931 14.9128 12.0113 14.9692 12.1077 15.0421C12.2628 15.1586 12.3699 15.2494 12.4733 15.3368C12.5937 15.4388 12.7083 15.5346 12.8752 15.6536C12.965 15.717 13.0632 15.7805 13.1628 15.8416C13.1794 15.8517 13.1984 15.857 13.2178 15.8571C13.2317 15.8572 13.2455 15.8545 13.2582 15.8491C13.2736 15.8428 13.2873 15.833 13.2982 15.8205C13.3091 15.8081 13.317 15.7932 13.3212 15.7772C13.4622 15.2207 13.7043 14.7845 14.0417 14.4804C14.1826 14.3567 14.341 14.2544 14.5117 14.1768C14.5719 14.1463 14.6339 14.1148 14.7035 14.0767C15.1434 13.8351 15.369 13.6095 15.7422 13.2359C15.9142 13.0634 16.1281 12.8495 16.4119 12.5854C16.4589 12.5431 16.4632 12.5384 16.9999 12.0886L18.2905 11.0076C19.5172 9.97878 19.5426 9.95622 19.6469 9.80347C20.0549 9.20328 20.3247 8.37561 20.4459 7.34302C20.4506 7.3026 20.4544 7.26923 20.4568 7.24902C20.4588 7.22977 20.4555 7.21032 20.4472 7.19283C20.4389 7.17533 20.426 7.16046 20.4098 7.14985C20.2218 7.02577 20.0464 6.91485 19.8852 6.81427C19.5887 6.63238 19.3118 6.47634 19.105 6.37482C18.8291 6.23899 18.5815 6.14499 18.5697 6.14499C18.5185 6.12572 18.4226 6.09047 18.2952 6.05099C18.089 5.99023 17.8787 5.94436 17.6659 5.91375H17.6631C17.5734 5.90444 17.4834 5.89973 17.3933 5.89965V5.89354Z" fill="black"/>
<path d="M16.0759 8.26282C15.7751 8.48675 15.4923 8.73378 15.2299 9.00166C15.2299 8.93774 15.1152 8.80943 15.0795 8.75679C15.0228 8.67376 14.962 8.59355 14.8971 8.51615C14.6683 8.24452 14.3939 8.01472 14.0864 7.837C14.0337 7.80692 13.8918 7.76556 13.8594 7.71762V7.71386C14.0427 7.55265 14.2354 7.39755 14.4309 7.25138C14.4845 7.2119 14.5385 7.17289 14.593 7.13435L14.6349 7.10568C14.6467 7.11844 14.6558 7.13347 14.6617 7.14986C14.6976 7.21547 14.7463 7.27317 14.805 7.31953C15.0071 7.50236 15.2106 7.68237 15.416 7.86285C15.487 7.92956 15.5643 7.98922 15.6468 8.04098C15.7845 8.119 15.9532 8.15566 16.0759 8.26282Z" fill="#F2F2EB"/>
<path opacity="0.32" d="M19.8363 6.93882C19.8424 7.05538 19.6859 7.09627 19.5698 7.10379C19.0448 7.13998 18.5391 7.31717 18.0574 7.52679C16.4133 8.24949 14.9765 9.3725 13.8781 10.7933C13.9251 10.7345 13.5087 10.2927 13.4589 10.2425C13.2904 10.0745 13.1006 9.92948 12.8944 9.81099C12.7121 9.70665 12.4489 9.65871 12.2637 9.55437C12.2999 9.49844 12.3375 9.44251 12.3751 9.38705C12.4056 9.34005 12.4376 9.29681 12.4691 9.25263C12.6166 9.04489 12.7749 8.84123 12.9438 8.64163C12.9804 8.59839 13.018 8.55515 13.0556 8.51191C13.2333 8.31122 13.4218 8.1157 13.6196 7.92864C13.6638 7.88634 13.7085 7.84498 13.7536 7.80409C13.9684 7.60904 14.194 7.42292 14.4285 7.24902C14.4821 7.20954 14.5361 7.17053 14.5906 7.13199C14.6671 7.07841 14.7445 7.02593 14.8228 6.97454C15.0249 6.842 15.2256 6.72294 15.4249 6.61734C15.494 6.58068 15.5635 6.54543 15.6322 6.51206C15.9318 6.36479 16.2436 6.24385 16.5642 6.15063C16.6483 6.12619 16.731 6.10363 16.8133 6.08577C16.8673 6.07355 16.9209 6.0618 16.9745 6.05146C16.9745 6.05146 17.0826 6.03078 17.1714 6.01856C17.3306 6.00126 17.4912 6.00126 17.6503 6.01856C17.8578 6.04866 18.0629 6.09326 18.2642 6.15204C18.384 6.18776 18.4747 6.22066 18.533 6.24228C18.533 6.24228 18.784 6.33393 19.0566 6.46741C19.2342 6.55436 19.5007 6.70241 19.8283 6.90216C19.8329 6.91388 19.8356 6.92626 19.8363 6.93882Z" fill="#F2F2EB"/>
<path d="M13.039 15.5755C12.7043 15.5755 12.5812 14.9467 12.5408 14.7399C12.5375 14.7216 12.5347 14.7079 12.5328 14.6999C12.114 12.8994 13.861 9.85893 16.3478 8.06071C16.8497 7.68852 17.3976 7.38253 17.9777 7.15032C18.285 7.02763 18.606 6.94257 18.9337 6.89699C19.0505 6.88186 19.168 6.87417 19.2857 6.87396C19.3631 6.87386 19.4405 6.87762 19.5175 6.88524C19.8873 6.92237 20.1971 7.05115 20.4382 7.26829C20.8391 7.62831 20.9256 8.14014 20.9411 8.41321V8.44047L20.9199 8.45786C20.3385 8.93303 18.3128 10.5964 16.674 12.044C15.7368 12.8716 15.4379 13.1771 15.2198 13.4004C15.0731 13.5498 14.9575 13.6683 14.707 13.884L14.6497 13.931C14.4447 14.1063 14.2328 14.2873 14.0217 14.5862C13.9776 14.6487 13.9433 14.7028 13.9104 14.7549C13.8418 14.8664 13.765 14.9726 13.6805 15.0726C13.524 15.2569 13.2876 15.5356 13.0799 15.5685C13.0665 15.5719 13.0528 15.5743 13.039 15.5755Z" fill="#D17F1E"/>
<path d="M19.2862 6.92943C19.3642 6.92943 19.4394 6.93319 19.5127 6.94024C19.664 6.95575 20.0678 7.00886 20.4029 7.31013C20.8141 7.68002 20.8757 8.20594 20.8879 8.41791C20.5505 8.6938 18.372 10.476 16.6401 12.0054C15.0665 13.3952 15.2907 13.3144 14.6736 13.845C14.456 14.033 14.2153 14.2257 13.9799 14.5589C13.853 14.7385 13.8074 14.8461 13.6415 15.0416C13.4939 15.2155 13.2612 15.4895 13.0737 15.5196C13.0623 15.5211 13.0509 15.5219 13.0394 15.522C12.7189 15.522 12.607 14.7794 12.5854 14.6877C12.1732 12.9168 13.9051 9.89372 16.3797 8.10396C16.878 7.73469 17.4217 7.43094 17.9974 7.20015C18.3008 7.08009 18.6175 6.99677 18.9407 6.95199C19.0553 6.93729 19.1707 6.92975 19.2862 6.92943ZM19.2862 6.82227C19.1663 6.82264 19.0465 6.83049 18.9276 6.84577C18.5956 6.89142 18.2704 6.97679 17.9589 7.10004C17.3745 7.33415 16.8226 7.64232 16.3167 8.017C13.8144 9.82697 12.0576 12.8928 12.481 14.7122C12.481 14.7197 12.4853 14.7328 12.4886 14.7498C12.5623 15.1258 12.6996 15.6291 13.0394 15.6291C13.0564 15.6293 13.0734 15.628 13.0902 15.6254C13.3172 15.5892 13.5602 15.3015 13.7232 15.1112C13.8097 15.0094 13.8883 14.9011 13.9582 14.7874C13.9911 14.7357 14.025 14.6821 14.0682 14.621C14.2755 14.3272 14.4846 14.151 14.6872 13.9757L14.7446 13.9263C14.925 13.773 15.0976 13.6107 15.2616 13.4399C15.4792 13.2171 15.7786 12.9125 16.7129 12.0858C18.3513 10.6391 20.3761 8.97628 20.958 8.50111L21.0003 8.46633L20.997 8.41181C20.9805 8.12981 20.8917 7.60341 20.4767 7.23023C20.2266 7.00557 19.9066 6.87209 19.5249 6.83355C19.4488 6.82603 19.3689 6.82227 19.2899 6.82227H19.2862Z" fill="black"/>
<g style="mix-blend-mode:multiply" opacity="0.42">
<path d="M10.7036 11.6802C10.8323 11.6485 10.9634 11.6279 11.0956 11.6186C11.5572 11.6097 11.9693 11.981 12.4295 11.9476C13.0184 11.9006 13.3347 11.2623 13.6247 10.7482C14.2399 9.6573 15.2152 8.79908 16.3037 8.17821C17.3922 7.55734 18.5921 7.15972 19.8033 6.84012C19.2758 6.35181 18.6116 6.03645 17.8998 5.93631C18.7364 5.31403 19.6858 4.81677 20.7142 4.63958C21.7425 4.46239 22.8527 4.63018 23.7038 5.23178C23.9243 5.38782 24.1447 5.61812 24.109 5.88602C24.0878 6.04535 23.9793 6.17695 23.874 6.29821C23.4162 6.82696 22.934 7.34631 22.361 7.74346C21.7693 8.15189 21.0944 8.42026 20.4585 8.75537C19.5756 9.2209 18.7676 9.81628 18.0615 10.5216C16.1951 12.3861 15.131 14.9227 13.3286 16.8488C13.1406 17.0513 12.7745 17.5632 12.3839 17.4983C12.0145 17.4372 11.9205 16.9211 11.2846 15.8923C11.1957 15.748 10.9673 15.4275 10.5105 14.7864C9.76129 13.7336 9.10893 12.866 9.10893 12.866C8.30006 11.7916 7.91513 11.338 8.00302 11.2435C8.05707 11.1862 8.21781 11.3399 8.63517 11.4955C9.29739 11.7335 10.0097 11.7971 10.7036 11.6802Z" fill="#CE7B0D"/>
</g>
<g style="mix-blend-mode:multiply" opacity="0.47">
<path d="M33.8482 18.9384C33.7034 19.2716 33.4064 19.9343 33.4064 19.9343C33.2891 20.0862 33.1529 20.2225 33.0012 20.3399C29.5039 22.9127 26.9471 25.1725 25.2269 26.7982C23.9579 27.9958 22.7829 29.2892 20.6947 30.0088C20.1721 30.1893 19.0375 30.5258 15.6075 30.3448C10.8252 30.091 8.04939 29.2098 4.91402 28.1777C3.41566 27.6842 1.8703 27.0938 1.26212 25.6735C0.974477 25.0019 1.0055 24.3989 1.03934 23.8725C1.12159 24.1427 1.20196 24.4106 1.30865 24.5902C1.65193 25.1594 2.09821 25.6597 2.62465 26.0655C4.18317 27.2814 6.20652 27.6823 6.20652 27.6823C11.3206 28.8737 11.5805 28.4343 17.0729 29.1633C17.7699 29.2573 18.8646 29.4086 19.8379 28.7948C20.1669 28.587 20.9405 28.0024 21.3861 26.3616C21.8937 24.4929 21.6747 22.3614 19.1743 16.1123C18.7043 14.9373 18.0261 13.2984 17.1467 11.3564C17.072 11.3662 16.9173 11.3808 16.8882 11.3192C16.8558 11.2497 16.9822 11.0795 17.1467 11.0245C17.487 10.9094 17.964 11.3037 17.9927 11.3192C18.524 11.0273 19.079 10.7808 19.6518 10.5823C20.5213 10.2848 20.7897 10.3186 21.638 9.97833C21.6902 9.95718 22.0267 9.79033 22.7054 9.47214C25.9484 7.94793 24.7085 8.66656 26.4654 7.88354C26.7991 7.71246 27.2799 7.47746 27.8754 7.22554C29.1054 6.70854 29.3982 6.72217 29.6083 6.81993C29.6877 6.85706 29.9251 6.9849 30.2353 7.88918C30.6799 9.18826 30.4961 9.81617 30.9675 10.9442C31.0643 11.1751 31.1768 11.3992 31.304 11.6149C33.709 16.7332 34.0676 18.4355 33.8482 18.9384Z" fill="#790682"/>
</g>
<path d="M11.2559 20.7526L9.67432 19.8267L10.9593 17.4086C11.6152 15.7518 12.4186 14.1575 13.3601 12.6446C13.7995 11.9396 14.2014 11.3686 14.5548 10.9414C14.6192 10.8633 14.6826 10.7895 14.7489 10.7153C14.8532 10.5973 14.9369 10.5113 14.9924 10.4563C15.0074 10.4413 16.5255 8.91989 18.3848 8.24262L18.3947 8.23933C19.0997 7.91362 19.8334 7.59825 20.5769 7.30356C20.9144 7.16961 21.1122 7.09629 21.2467 7.04741L21.4347 6.98067C21.6053 6.91957 21.7665 6.86176 22.0527 6.74943C22.6839 6.50174 23.2578 6.24982 23.8124 6.00589C24.7012 5.61579 25.5406 5.24684 26.5177 4.93758C26.8681 4.81888 27.2353 4.7573 27.6053 4.75522C28.1777 4.75522 28.613 4.90327 29.0336 5.04709C29.5873 5.23509 29.8646 5.32909 30.1297 5.57819C30.1801 5.62527 30.2273 5.67584 30.2707 5.72953C30.4102 5.90815 30.519 6.10877 30.5926 6.32314C30.6396 6.45427 30.6899 6.60796 30.7397 6.79314C30.8807 7.31551 30.9739 7.84957 31.0184 8.38879C31.0405 8.66797 31.0391 8.83388 31.0391 8.84093C31.0339 9.40916 31.0335 9.94214 31.0391 10.4699L31.0419 10.8615L30.8953 10.4967C30.3209 9.05478 29.9421 8.06966 29.8345 7.62504C29.6997 7.41662 29.5085 7.25071 29.2832 7.14658C29.1161 7.07123 28.9349 7.0326 28.7516 7.03331C28.6381 7.03313 28.525 7.0475 28.4151 7.07608C27.1865 7.563 25.9485 8.08282 24.735 8.62191C24.7138 8.63084 24.6936 8.63977 24.673 8.64964C24.1137 8.89921 23.7245 9.09238 23.3476 9.27897C22.8616 9.52008 22.4029 9.74897 21.6682 10.0465C21.3947 10.1579 21.1188 10.2768 20.8514 10.3924C20.5059 10.5414 20.1487 10.6955 19.7915 10.8351C19.4409 10.9803 19.0995 11.1468 18.7693 11.3338C18.5512 11.4513 18.3261 11.573 18.0981 11.6811C17.9675 11.7432 17.67 11.8837 17.5421 12.1281C17.5177 12.1751 17.3964 12.4186 17.395 12.4214C17.3936 12.4242 17.0345 13.1071 17.0256 13.1236L12.914 20.903H12.5211L12.3284 21.0191L11.2559 20.7526Z" fill="#475789"/>
<path d="M27.6054 4.82901C28.1623 4.82901 28.5924 4.97518 29.0083 5.11665C29.5521 5.3023 29.8238 5.39489 30.0776 5.63365C30.126 5.67835 30.1712 5.72641 30.2129 5.77747C30.3478 5.94966 30.4527 6.14335 30.5231 6.3504C30.5701 6.48153 30.6171 6.6324 30.6684 6.81241C30.8076 7.32983 30.8994 7.8589 30.9424 8.39302C30.9645 8.6722 30.9631 8.83905 30.9631 8.83905C30.9584 9.37579 30.9584 9.91911 30.9631 10.469C30.4315 9.13562 30.0099 8.04945 29.9027 7.5959C29.7604 7.36984 29.5553 7.19017 29.3124 7.0789C29.1353 6.99864 28.9429 6.9576 28.7484 6.95858C28.6269 6.95833 28.5058 6.97413 28.3884 7.00558C27.1883 7.48122 25.9594 7.99728 24.7017 8.55376L24.6392 8.58196C23.3345 9.16429 22.9199 9.45569 21.6373 9.97786C21.0089 10.2331 20.3932 10.5193 19.7615 10.766C19.1726 10.9959 18.6368 11.3432 18.0658 11.612C17.9375 11.6727 17.6165 11.8231 17.4759 12.0914C17.451 12.1384 17.3284 12.3861 17.3284 12.3861L17.153 12.725L16.9618 13.0878L12.8695 20.8311H12.501L12.3167 20.942L12.0907 20.8856L11.2842 20.684L9.77263 19.799L11.0261 17.4396C11.6802 15.7853 12.4824 14.1935 13.4231 12.6836C13.9401 11.856 14.3265 11.3333 14.6122 10.9884C14.6823 10.9038 14.7462 10.8295 14.8045 10.7642C14.8985 10.6579 14.9784 10.5762 15.0451 10.5085C15.0451 10.5085 16.5453 8.99133 18.4108 8.31218L18.4225 8.30748C18.9198 8.07765 19.6708 7.74348 20.6047 7.37218C20.9159 7.24857 21.1119 7.17525 21.2721 7.11697C21.525 7.02297 21.689 6.9708 22.0786 6.81805C23.7138 6.17697 24.9518 5.51004 26.5385 5.00808C26.8823 4.89189 27.2425 4.83144 27.6054 4.82901ZM27.6054 4.68143C27.2279 4.68484 26.8533 4.7483 26.4957 4.86943C25.5148 5.17963 24.6735 5.54905 23.7829 5.94056C23.2287 6.18402 22.6549 6.43547 22.026 6.68222C21.7402 6.79455 21.5795 6.85236 21.4094 6.91299L21.2214 6.9802C21.0865 7.0272 20.8881 7.10287 20.5497 7.23682C19.8067 7.53151 19.0716 7.84782 18.3652 8.17353H18.3619H18.3595C16.4847 8.85597 15.0023 10.3416 14.9398 10.4046C14.8853 10.4596 14.7988 10.5456 14.694 10.6664C14.6273 10.7411 14.5629 10.8159 14.498 10.8944C14.1427 11.3239 13.7385 11.8997 13.2976 12.6052C12.3546 14.1209 11.5496 15.7183 10.8922 17.378L10.2774 18.5342L9.64244 19.728L9.57617 19.853L9.69837 19.9245L10.4504 20.3639L11.2099 20.809L11.2282 20.8198L11.2484 20.825L11.6498 20.9256L12.055 21.0266L12.1678 21.0548L12.281 21.083L12.3398 21.0981L12.3924 21.0666L12.4864 21.0111L12.5438 20.9768H12.9602L13.002 20.8983L17.0943 13.156L17.2851 12.7932L17.4628 12.4552C17.4966 12.3871 17.5887 12.201 17.6085 12.1638C17.725 11.9415 18.007 11.808 18.1255 11.7507H18.1292C18.3591 11.6421 18.5851 11.5199 18.8037 11.402C19.1307 11.2167 19.4686 11.0515 19.8156 10.907C20.1742 10.766 20.5319 10.6128 20.8778 10.4634C21.1448 10.3482 21.4206 10.2284 21.6932 10.1179C22.4307 9.81806 22.8908 9.58964 23.3777 9.34806C23.7537 9.16006 24.1424 8.96924 24.6998 8.72014L24.7614 8.69288C25.974 8.15426 27.2096 7.63538 28.4354 7.1494C28.5378 7.12325 28.6432 7.11015 28.7489 7.11039C28.9215 7.10853 29.0925 7.14379 29.2504 7.21379C29.4605 7.3096 29.6396 7.46232 29.7674 7.65465C29.8802 8.10961 30.2581 9.09238 30.8282 10.524L31.1177 11.2511L31.1102 10.469C31.1069 9.9459 31.1073 9.39835 31.1102 8.8414C31.1102 8.83435 31.1102 8.66468 31.089 8.38268C31.0441 7.8388 30.9497 7.30015 30.807 6.7734C30.7563 6.5854 30.7074 6.43124 30.6576 6.29823C30.5811 6.07618 30.4681 5.86841 30.3234 5.68347C30.2775 5.62726 30.2277 5.57434 30.1744 5.52508C29.8976 5.26658 29.5977 5.16412 29.0534 4.97847C28.6253 4.83277 28.1844 4.68237 27.6021 4.68237L27.6054 4.68143Z" fill="black"/>
<g style="mix-blend-mode:multiply" opacity="0.47">
<path d="M33.684 18.9384C33.5392 19.2716 33.2426 19.9343 33.2426 19.9343C33.1251 20.086 32.989 20.2222 32.8375 20.3399C29.3398 22.9127 26.7839 25.1725 25.0628 26.7982C23.7938 27.9958 22.6188 29.2892 20.531 30.0088C20.108 30.155 19.2789 30.4055 17.147 30.3965C17.7425 30.2678 18.3535 30.083 18.9123 30.083C20.3951 29.4502 21.7544 28.5602 22.9275 27.4543C23.2251 27.1723 24.3596 26.0749 25.4054 24.2969C25.8707 23.5054 26.2984 22.3205 27.1378 19.9832C27.1378 19.9832 28.5314 16.0991 28.4284 13.9371C28.3866 13.0648 28.0994 12.6428 27.949 12.4623C27.761 12.232 27.5312 12.0712 27.2487 11.8724C27.2487 11.8724 26.7223 11.5021 26.2147 11.2826C25.5097 10.9771 24.2177 11.1345 20.9799 12.5727C18.9217 13.4869 18.5495 13.8206 18.3253 14.0476C17.7533 14.6276 17.7754 14.8936 16.7743 16.665C15.9086 18.201 15.4607 18.9845 14.7096 19.7623C13.8772 20.6276 12.5185 21.6625 12.243 21.42C11.6612 20.9157 16.2202 15.138 16.9835 11.8626C17.2519 11.6612 17.5347 11.4796 17.8295 11.3192C18.3608 11.0273 18.9158 10.7808 19.4886 10.5823C20.3581 10.2848 20.6264 10.3186 21.4748 9.97833C21.5274 9.95718 21.8635 9.79033 22.5421 9.47214C25.7875 7.94793 24.5453 8.66656 26.3021 7.88354C26.6358 7.71246 27.1167 7.47746 27.7121 7.22554C28.9421 6.70854 29.2349 6.72217 29.445 6.81993C29.5245 6.85706 29.7618 6.9849 30.072 7.88918C30.5166 9.18826 30.3329 9.81617 30.8043 10.9442C30.9011 11.1751 31.0135 11.3992 31.1408 11.6149C33.5448 16.7332 33.9035 18.4355 33.684 18.9384Z" fill="url(#paint9_linear_116_6722)"/>
</g>
<path opacity="0.39" d="M30.5229 6.34899C30.4349 6.34796 30.3477 6.33207 30.2649 6.30199C29.6407 6.12856 28.9738 6.27473 28.3544 6.46461C27.4994 6.7264 26.6732 7.07044 25.8474 7.41401C22.9743 8.61063 20.0753 9.82135 17.5284 11.6083C17.4461 11.6661 17.3564 11.7267 17.2558 11.7225C17.1782 11.7182 17.1042 11.6884 17.0452 11.6379C16.7867 11.3944 17.5453 10.5395 17.2586 9.9929C17.0917 9.67471 16.6575 9.62677 16.6316 9.62442C16.3792 9.59998 16.156 9.74333 15.7099 10.03C15.459 10.1912 15.0548 10.453 14.9725 10.6199C14.9617 10.642 14.9091 10.7609 14.8273 10.7661C14.8201 10.7671 14.8128 10.7671 14.8057 10.7661C14.8328 10.7264 14.8643 10.69 14.8997 10.6575C14.9114 10.6462 14.9189 10.6406 14.9302 10.6307C14.9722 10.5938 15.0112 10.5535 15.0468 10.5104C15.0468 10.5104 16.547 8.99321 18.4124 8.31406L18.4242 8.30936C18.9215 8.07953 19.6725 7.74536 20.6064 7.37406C21.4092 7.0554 21.4439 7.0695 22.0803 6.81993C23.7155 6.17885 24.9534 5.51192 26.5402 5.00996C26.8833 4.89333 27.2428 4.83225 27.6052 4.82901C28.1631 4.82901 28.5922 4.97471 29.01 5.11665C29.5538 5.3023 29.8255 5.39489 30.0793 5.63365C30.1277 5.67836 30.1729 5.72642 30.2146 5.77747C30.3487 5.94937 30.4529 6.14256 30.5229 6.34899Z" fill="#94A5C9"/>
<path opacity="0.39" d="M24.7041 7.89059C24.3172 8.09128 23.7335 8.38268 23.0083 8.70181C21.4634 9.38096 20.7387 9.5417 20.0473 9.85613C19.1689 10.2547 18.0174 11.0495 16.9364 12.8054C16.9227 12.7288 16.6948 11.5834 15.5969 11.135C15.2843 11.0081 14.9458 10.9578 14.6099 10.9884C14.6799 10.9038 14.7438 10.8295 14.8021 10.7642C14.8961 10.658 14.976 10.5762 15.0427 10.5085C15.0427 10.5085 16.543 8.99133 18.4084 8.31218L18.4202 8.30748C18.9174 8.07765 19.6685 7.74348 20.6024 7.37218C20.9135 7.24857 21.1095 7.17525 21.2698 7.11697C21.1838 7.26643 21.0658 7.52352 21.1654 7.71904C21.298 7.97942 21.7463 7.99164 22.3794 8.00104C22.8494 8.00809 23.0943 7.96485 23.7067 7.92725C24.1325 7.9014 24.4789 7.89341 24.7041 7.89059Z" fill="url(#paint10_linear_116_6722)"/>
<path d="M30.9646 8.83905C30.9599 9.37579 30.9599 9.91911 30.9646 10.469C30.433 9.13562 30.0114 8.04945 29.9043 7.5959C29.7619 7.36984 29.5568 7.19018 29.314 7.0789C29.0242 6.94972 28.6989 6.92368 28.3923 7.00511C27.1922 7.48075 25.9633 7.99681 24.7056 8.55329L24.6431 8.58149C23.6091 9.04052 22.6085 9.50583 21.6412 9.97739C21.0128 10.2326 20.3971 10.5188 19.7654 10.7656C19.1765 10.9954 18.6407 11.3427 18.0697 11.6116C17.9414 11.6722 17.6204 11.8226 17.4798 12.091C17.4549 12.138 17.3322 12.3857 17.3322 12.3857L17.1527 12.725L16.9614 13.0879L12.8691 20.8311H12.5006L12.3164 20.942L12.0903 20.8856C13.2349 18.717 14.3802 16.5483 15.526 14.3794L16.1897 13.0893C16.5585 12.3438 17.0724 11.6794 17.7012 11.135C18.5608 10.4004 19.5812 9.96752 20.038 9.772L20.0503 9.76683C20.5527 9.51961 21.3146 9.15583 22.263 8.75492C23.0832 8.40618 23.117 8.42075 23.7698 8.14674C25.4571 7.43845 26.7581 6.70102 28.4134 6.13138C28.7682 6.00088 29.1419 5.92943 29.5198 5.91988C29.7608 5.91669 30.0013 5.94241 30.2361 5.99649C30.4133 6.21316 30.5491 6.50832 30.6915 7.03049C30.8107 7.47738 30.8945 7.93296 30.942 8.39302C30.966 8.6722 30.9646 8.83905 30.9646 8.83905Z" fill="#302F5B"/>
<path d="M11.3764 21.6752C11.0303 21.6754 10.6895 21.5913 10.3832 21.4303C10.2784 21.3755 10.178 21.3127 10.0829 21.2423C9.45264 20.7752 9.07617 20.0015 9.07617 19.1743C9.07617 18.3565 9.44418 17.5895 10.0608 17.1214C10.4379 16.8304 10.9005 16.6721 11.3768 16.6711C11.6092 16.6711 11.84 16.7091 12.0602 16.7834C13.0275 17.1101 13.677 18.0708 13.677 19.1743C13.6765 20.5524 12.6449 21.6752 11.3764 21.6752Z" fill="#475789"/>
<path d="M11.3761 16.7388C11.601 16.7387 11.8244 16.7755 12.0374 16.8478C12.9464 17.1548 13.6067 18.0797 13.6067 19.1725C13.6067 20.5162 12.608 21.6057 11.3761 21.6057C11.0412 21.6055 10.7114 21.5241 10.4149 21.3683C10.3134 21.3151 10.2162 21.2541 10.124 21.1859C9.53369 20.7484 9.14594 20.0109 9.14594 19.1725C9.14594 18.3448 9.52194 17.6144 10.1024 17.175C10.4674 16.8933 10.9151 16.74 11.3761 16.7388ZM11.3761 16.5978C10.8846 16.5986 10.4071 16.762 10.0183 17.0626C9.3847 17.5434 9.00635 18.3316 9.00635 19.1706C9.00635 20.0213 9.39316 20.8156 10.0403 21.2959C10.1382 21.3687 10.2416 21.4336 10.3496 21.49C10.6658 21.6564 11.0178 21.7432 11.3751 21.7429C12.6817 21.7429 13.7449 20.589 13.7449 19.1706C13.7477 18.6228 13.5838 18.0871 13.2749 17.6346C12.9857 17.2072 12.5664 16.8843 12.0792 16.7139C11.8521 16.6369 11.614 16.5977 11.3742 16.5978H11.3761Z" fill="black"/>
<g style="mix-blend-mode:multiply" opacity="0.6">
<path d="M24.4495 7.43422C24.5454 7.47473 24.6333 7.53203 24.709 7.60342C24.8382 7.74066 24.8641 7.94135 24.9261 8.12042C24.9882 8.29949 25.1325 8.48326 25.3195 8.46399C25.4107 8.45459 25.4882 8.39819 25.5639 8.34696C26.0551 8.01373 26.6285 7.82667 27.153 7.54796C27.2056 7.52023 27.2663 7.4737 27.2512 7.41589C27.2403 7.38766 27.2203 7.36386 27.1943 7.34821L26.4602 6.79126C26.3489 6.701 26.2288 6.62226 26.1016 6.55626C25.7444 6.38424 25.3237 6.42372 24.9336 6.49516C24.4542 6.58305 23.8799 6.68551 23.4536 6.92662C23.7375 7.13953 24.1271 7.27536 24.4495 7.43422Z" fill="#302F5B"/>
</g>
<path d="M13.6068 19.1725C13.6068 20.5162 12.6081 21.6056 11.3762 21.6056C11.0413 21.6055 10.7115 21.5241 10.415 21.3683C10.5525 21.3747 10.6903 21.3736 10.8277 21.365C11.0591 21.3559 11.2874 21.3083 11.5031 21.224C11.9331 21.0435 12.2518 20.66 12.4591 20.2431C12.7881 19.5781 12.8487 18.7965 12.6692 18.0811C12.5812 17.7274 12.4334 17.3913 12.2321 17.0875C12.202 17.0405 12.1047 16.9428 12.0375 16.8492C12.9465 17.1547 13.6068 18.0797 13.6068 19.1725Z" fill="#302F5B"/>
<path opacity="0.63" d="M12.8695 19.1758C12.8695 20.2859 12.1057 21.2019 11.1197 21.3317C10.7808 21.3767 10.436 21.3262 10.1242 21.186C10.0449 21.127 9.96958 21.0629 9.8986 20.9942C9.65743 20.7565 9.46656 20.4728 9.33737 20.1598C9.20817 19.8468 9.1433 19.511 9.1466 19.1725C9.1466 18.3448 9.5226 17.6144 10.1031 17.175C10.3459 17.0617 10.6106 17.0027 10.8786 17.002C11.3043 17.0034 11.7168 17.1496 12.0484 17.4166C12.359 17.6655 12.5948 17.9953 12.7299 18.3697C12.8236 18.6281 12.8708 18.901 12.8695 19.1758Z" fill="#94A5C9"/>
<path d="M24.2435 7.16162C24.1973 7.16155 24.1512 7.15857 24.1054 7.15269C23.7999 7.10995 23.5208 6.95659 23.3209 6.7217L23.304 6.70196V6.67564C23.2951 6.18925 23.3326 5.70311 23.4159 5.22381C23.4328 5.12981 23.4478 5.04803 23.4629 4.97424C23.5136 4.7336 23.5766 4.49202 23.6509 4.25702C23.7059 4.07983 23.7698 3.89935 23.8389 3.72122C23.9533 3.43276 24.0849 3.15136 24.2327 2.87851L24.2609 2.82681L25.8589 3.27754L25.7931 3.36402C25.5164 3.72595 25.3072 4.13481 25.1756 4.57098C24.9728 5.25154 24.9864 5.97826 25.2146 6.65073L25.2282 6.69115L25.2 6.72264C25.1605 6.76964 24.7967 7.16162 24.2478 7.16162H24.2435Z" fill="#475789"/>
<path d="M24.2983 2.91375L25.3205 3.20186L25.7365 3.31889C25.454 3.68799 25.2406 4.10518 25.1067 4.55029C25.0187 4.84497 24.9701 5.14997 24.9619 5.45739C24.9522 5.87062 25.0146 6.28238 25.1462 6.67422C25.1133 6.71135 24.7702 7.08829 24.2494 7.08829H24.2433C24.2001 7.08774 24.1569 7.08491 24.114 7.07983C23.8264 7.03958 23.5636 6.89527 23.3752 6.67422C23.3662 6.19238 23.4033 5.71078 23.4861 5.23602C23.5009 5.15236 23.5165 5.07011 23.5331 4.98927C23.5858 4.73782 23.6487 4.50094 23.7211 4.2791C23.7794 4.0911 23.8433 3.91391 23.9091 3.748C24.0223 3.46234 24.1526 3.18375 24.2992 2.91375M24.2259 2.73938L24.17 2.84325C24.0205 3.11865 23.8876 3.40272 23.7719 3.69395C23.7004 3.87396 23.6361 4.05585 23.5801 4.23539C23.5059 4.47039 23.4419 4.71573 23.3921 4.95872C23.3766 5.03345 23.3606 5.1157 23.3451 5.21064C23.2608 5.69472 23.2231 6.18576 23.2323 6.67704V6.72968L23.2662 6.76963C23.4777 7.01787 23.7728 7.18018 24.0957 7.226C24.1444 7.23201 24.1933 7.23515 24.2424 7.2354H24.2494C24.8308 7.2354 25.2153 6.81898 25.2571 6.77151L25.313 6.70806L25.2862 6.62722C25.1598 6.2518 25.1 5.85717 25.1095 5.46115C25.1181 5.16653 25.1655 4.87433 25.2505 4.59212C25.3795 4.16443 25.5845 3.76352 25.8559 3.40866L25.9875 3.23617L25.7788 3.17695L25.3628 3.05992L24.8501 2.91516L24.3411 2.77181L24.2273 2.73938H24.2259Z" fill="black"/>
<path d="M24.7961 4.64617C24.4045 4.64653 24.0199 4.54167 23.6827 4.34255C23.608 4.29867 23.5361 4.25016 23.4674 4.19732C23.1022 3.91934 22.8333 3.53375 22.6988 3.0949C22.5643 2.65605 22.5709 2.18605 22.7176 1.75113C22.8644 1.31621 23.1439 0.938298 23.5168 0.67064C23.8896 0.402981 24.3371 0.259072 24.7961 0.25919C24.9231 0.25895 25.0499 0.26996 25.1749 0.292089C25.6881 0.38223 26.1525 0.652073 26.4849 1.05332C26.8173 1.45456 26.9961 1.96101 26.9892 2.48201C26.9823 3.00301 26.7902 3.50455 26.4472 3.89686C26.1043 4.28916 25.633 4.54662 25.1176 4.62314C25.0111 4.63855 24.9037 4.64625 24.7961 4.64617Z" fill="#475789"/>
<path d="M24.796 0.332979C24.9184 0.332569 25.0406 0.342949 25.1612 0.363999C25.6574 0.450781 26.1065 0.711415 26.428 1.09921C26.7496 1.487 26.9225 1.97661 26.9159 2.48032C26.9093 2.98403 26.7235 3.46893 26.3919 3.84814C26.0603 4.22736 25.6045 4.4761 25.1062 4.54982C25.0033 4.56457 24.8995 4.57195 24.7955 4.57191C24.417 4.5727 24.0454 4.47138 23.7197 4.27863C23.6474 4.23601 23.5779 4.18892 23.5115 4.13763C23.1582 3.86902 22.8982 3.49631 22.768 3.07205C22.6379 2.6478 22.6441 2.19339 22.786 1.77288C22.9278 1.35238 23.198 0.986998 23.5585 0.728244C23.9191 0.46949 24.3517 0.330415 24.7955 0.330628M24.7955 0.183048C24.3203 0.182151 23.8569 0.330597 23.4707 0.607409C23.0845 0.884221 22.795 1.2754 22.6432 1.72567C22.4914 2.17594 22.4849 2.66253 22.6247 3.11667C22.7645 3.57082 23.0434 3.96956 23.4222 4.25654C23.4933 4.31101 23.5677 4.36108 23.6449 4.40647C23.9935 4.61204 24.3908 4.7203 24.7955 4.71996C24.9065 4.71996 25.0174 4.71195 25.1273 4.69599C25.6606 4.61754 26.1484 4.35169 26.5034 3.94611C26.8584 3.54054 27.0573 3.02178 27.0644 2.48285C27.0715 1.94392 26.8864 1.42007 26.5423 1.00525C26.1982 0.590431 25.7175 0.31177 25.1865 0.219239C25.0574 0.196541 24.9266 0.185217 24.7955 0.185399V0.183048Z" fill="black"/>
<g style="mix-blend-mode:multiply" opacity="0.53">
<path d="M24.9619 5.4574C24.9522 5.87063 25.0146 6.28239 25.1462 6.67423C25.1133 6.71183 24.7669 7.09112 24.2433 7.0883C24.2597 6.9379 24.2757 6.78844 24.2903 6.63851C24.3373 6.19389 24.3702 5.69146 24.076 5.35494C23.9317 5.18903 23.7296 5.09174 23.5322 4.98928C23.5848 4.73783 23.6478 4.50095 23.7202 4.27911C23.3263 4.04697 23.0179 3.69388 22.8408 3.27237C22.8829 3.32246 22.9302 3.36798 22.9818 3.4082C23.2552 3.60118 23.5748 3.71842 23.9082 3.74801C24.0058 3.75592 24.104 3.75513 24.2015 3.74566C24.6257 3.69773 25.0207 3.50579 25.3205 3.20187C25.6353 2.89618 25.8346 2.49099 25.8845 2.05507C25.948 1.41869 25.6495 0.772438 25.1626 0.363068C25.6588 0.44985 26.108 0.710484 26.4295 1.09828C26.751 1.48607 26.924 1.97568 26.9174 2.47939C26.9107 2.9831 26.725 3.468 26.3934 3.84721C26.0618 4.22643 25.606 4.47517 25.1076 4.54889C25.0192 4.84398 24.9702 5.14946 24.9619 5.4574Z" fill="#302F5B"/>
</g>
<path opacity="0.68" d="M11.0262 2.02875C10.2807 2.43558 9.65704 3.03373 9.21949 3.76164C8.96981 3.67816 8.70192 3.66531 8.4454 3.72451C7.86307 3.86269 7.57778 4.33222 7.52373 4.42528C7.26203 5.10294 7.0771 5.80779 6.97242 6.52665C6.76703 7.94276 6.92119 9.13139 7.00015 9.70808C7.00015 9.71654 7.00015 9.72312 7.0025 9.72688C6.95206 9.6075 6.90506 9.48592 6.8615 9.36216C6.84458 9.31281 6.82813 9.26299 6.81215 9.21317C6.73928 8.98437 6.67995 8.75147 6.63449 8.51569C6.62415 8.46352 6.61475 8.41135 6.60629 8.35871C6.56454 8.11287 6.5377 7.86472 6.52592 7.61564C6.5231 7.56065 6.52075 7.50566 6.51981 7.45067C6.51368 7.18913 6.52372 6.92747 6.54989 6.66718C6.55506 6.60843 6.56211 6.54968 6.5701 6.4914C6.60571 6.20928 6.66051 5.92992 6.73413 5.65527C6.75105 5.59229 6.76844 5.52978 6.78771 5.46727C6.8145 5.37844 6.84317 5.29102 6.87372 5.20313C6.95104 4.98259 7.04128 4.7668 7.14397 4.55688C7.17922 4.48591 7.21494 4.41588 7.25254 4.34679C7.41926 4.03945 7.61656 3.74971 7.84145 3.48199C7.90224 3.41023 7.9649 3.34067 8.02945 3.27331C8.07128 3.2296 8.11358 3.18636 8.15635 3.14453C8.15635 3.14453 8.24377 3.05946 8.31991 2.99225C8.46609 2.87323 8.6235 2.76871 8.78991 2.68017C9.02405 2.56458 9.2648 2.46289 9.51089 2.37561C9.53345 2.36762 9.69607 2.31075 9.8836 2.2567C10.2581 2.15185 10.6401 2.07565 11.0262 2.02875Z" fill="#F2F2EB"/>
<path opacity="0.74" d="M24.2253 1.96694C24.4073 1.61335 24.3748 1.23407 24.1528 1.11982C23.9307 1.00556 23.6032 1.19958 23.4213 1.55318C23.2393 1.90677 23.2718 2.28604 23.4938 2.4003C23.7159 2.51456 24.0434 2.32054 24.2253 1.96694Z" fill="#F2F2EB"/>
<path opacity="0.74" d="M26.5486 1.25981C26.1036 0.977812 25.673 0.663852 25.157 0.610742C24.9639 0.594509 24.7695 0.606383 24.5798 0.645992C24.2315 0.705027 23.8998 0.837701 23.6069 1.03515C23.3134 1.23485 23.0916 1.52324 22.9738 1.85812C22.846 2.24822 22.8939 2.67404 22.9846 3.07448C23.0363 3.33506 23.1284 3.58595 23.2577 3.81802C23.3179 3.9186 23.4763 4.03657 23.512 4.13903C23.1587 3.87042 22.8987 3.49771 22.7685 3.07346C22.6384 2.6492 22.6446 2.19479 22.7865 1.77429C22.9283 1.35378 23.1985 0.988401 23.5591 0.729646C23.9196 0.470892 24.3522 0.331819 24.796 0.332032C24.9184 0.331932 25.0406 0.342627 25.1612 0.363992C25.4406 0.412896 25.7074 0.51738 25.9457 0.671255C26.1841 0.82513 26.3891 1.02527 26.5486 1.25981Z" fill="#F2F2EB"/>
<path opacity="0.69" d="M4.82424 14.3343C4.62214 15.953 3.95568 16.9663 4.34014 17.3009C4.7246 17.6356 5.78116 16.9179 5.90148 17.1078C5.99548 17.2563 5.38448 17.7554 4.72178 18.3979C3.39591 19.681 2.69091 20.715 1.89614 21.8844C1.65704 22.2275 1.4564 22.5958 1.29783 22.9828C1.08294 23.5132 0.96713 24.0786 0.956137 24.6508C0.95171 24.8991 0.965218 25.1475 0.996557 25.3939C0.820777 24.8331 0.847567 24.3251 0.876707 23.8725C0.876707 23.8725 0.876707 23.8687 0.876707 23.8668C1.03228 21.4506 2.47471 20.8635 3.60036 17.9664C4.19914 16.4234 4.38714 15.0482 4.55399 13.8366C4.64799 13.1442 4.70627 12.5008 4.73823 11.9175C5.3356 12.0496 4.87547 13.9235 4.82424 14.3343Z" fill="white"/>
<g opacity="0.57">
<path d="M18.5767 14.464C19.0819 15.6695 19.5528 16.8868 20.0116 18.1088C20.2466 18.7198 20.4642 19.3308 20.6902 19.9451C20.9163 20.5594 21.1316 21.1789 21.3012 21.8185C21.6476 23.0974 21.7318 24.4623 21.4836 25.7665C21.3635 26.419 21.1589 27.0531 20.875 27.6527L20.7612 27.8726L20.7043 27.9826L20.6418 28.0893L20.5173 28.3027C20.4736 28.3736 20.4261 28.4437 20.3763 28.5085C20.2768 28.6437 20.1562 28.7619 20.0191 28.8587C19.8824 28.9554 19.7161 29.0013 19.5491 28.9884C19.711 28.9822 19.8659 28.9205 19.9876 28.8136C20.1086 28.7099 20.212 28.5872 20.2936 28.4502C20.3359 28.3826 20.3744 28.3125 20.4115 28.2416L20.5173 28.023L20.5699 27.914L20.6169 27.8026L20.7109 27.5798L20.7955 27.3533L20.8378 27.24L20.8745 27.1248L20.9478 26.8955L21.0103 26.6605L21.0413 26.5439L21.0681 26.4264L21.1212 26.1914L21.164 25.9564L21.1856 25.838L21.2016 25.7191L21.2336 25.4808L21.2557 25.2411L21.2674 25.1217C21.2702 25.0818 21.2721 25.0418 21.2745 25.0019L21.2881 24.7622C21.2986 24.4421 21.2922 24.1218 21.2688 23.8024C21.2604 23.6426 21.2397 23.4838 21.2246 23.3244C21.2152 23.245 21.2021 23.166 21.1913 23.0871C21.1805 23.0081 21.1696 22.9287 21.1537 22.8521C21.1015 22.5367 21.0296 22.2242 20.9469 21.9121C20.7828 21.2898 20.5709 20.6769 20.3627 20.0593C20.1545 19.4418 19.9425 18.8242 19.7423 18.2028C19.3334 16.9653 18.9381 15.7212 18.5767 14.464Z" fill="white"/>
</g>
<path opacity="0.54" d="M12.0481 17.4166C11.1682 17.3014 10.2395 17.7545 9.79206 18.5196C9.34979 19.2716 9.39726 20.2836 9.90251 20.9942C9.66134 20.7565 9.47047 20.4728 9.34127 20.1598C9.21208 19.8468 9.1472 19.511 9.15051 19.1725C9.15051 18.3448 9.52651 17.6144 10.107 17.175C10.3486 17.0623 10.6117 17.0033 10.8782 17.002C11.3039 17.0034 11.7165 17.1496 12.0481 17.4166Z" fill="#F2F2EB"/>
<defs>
<linearGradient id="paint0_linear_116_6722" x1="14.9049" y1="6.97531" x2="10.3721" y2="17.8413" gradientUnits="userSpaceOnUse">
<stop stop-color="#FAA50B"/>
<stop offset="0.31" stop-color="#F89C0C"/>
<stop offset="0.34" stop-color="#F7990C"/>
<stop offset="0.45" stop-color="#F58C0E"/>
<stop offset="0.6" stop-color="#F3850F"/>
<stop offset="0.95" stop-color="#F3830F"/>
</linearGradient>
<linearGradient id="paint1_linear_116_6722" x1="3.71624" y1="10.2223" x2="14.468" y2="4.10614" gradientUnits="userSpaceOnUse">
<stop stop-color="white"/>
<stop offset="0.99" stop-color="#94A5C9" stop-opacity="0.6"/>
</linearGradient>
<linearGradient id="paint2_linear_116_6722" x1="19.7954" y1="0.744879" x2="13.6992" y2="7.80143" gradientUnits="userSpaceOnUse">
<stop stop-color="#FAA50B"/>
<stop offset="0.26" stop-color="#F89C0C"/>
<stop offset="0.95" stop-color="#F3830F"/>
</linearGradient>
<linearGradient id="paint3_linear_116_6722" x1="21.2426" y1="5.58918" x2="15.0254" y2="5.61049" gradientUnits="userSpaceOnUse">
<stop stop-color="#FAA50B"/>
<stop offset="0.95" stop-color="#F3830F"/>
</linearGradient>
<linearGradient id="paint4_linear_116_6722" x1="10.257" y1="1.00132" x2="11.2177" y2="12.7687" gradientUnits="userSpaceOnUse">
<stop stop-color="#FAA50B"/>
<stop offset="0.26" stop-color="#F89C0C"/>
<stop offset="0.95" stop-color="#F3830F"/>
</linearGradient>
<linearGradient id="paint5_linear_116_6722" x1="15.8485" y1="4.08315" x2="10.3272" y2="9.7022" gradientUnits="userSpaceOnUse">
<stop stop-color="#FAA50B"/>
<stop offset="0.95" stop-color="#F3830F"/>
</linearGradient>
<linearGradient id="paint6_linear_116_6722" x1="10.75" y1="3.99756" x2="14.1617" y2="12.7287" gradientUnits="userSpaceOnUse">
<stop stop-color="#FAA50B"/>
<stop offset="0.31" stop-color="#F89C0C"/>
<stop offset="0.34" stop-color="#F7990C"/>
<stop offset="0.45" stop-color="#F58C0E"/>
<stop offset="0.6" stop-color="#F3850F"/>
<stop offset="0.95" stop-color="#F3830F"/>
</linearGradient>
<linearGradient id="paint7_linear_116_6722" x1="19.687" y1="2.36619" x2="20.509" y2="12.4406" gradientUnits="userSpaceOnUse">
<stop stop-color="#FAA50B"/>
<stop offset="0.31" stop-color="#F89C0C"/>
<stop offset="0.34" stop-color="#F7990C"/>
<stop offset="0.45" stop-color="#F58C0E"/>
<stop offset="0.6" stop-color="#F3850F"/>
<stop offset="0.95" stop-color="#F3830F"/>
</linearGradient>
<linearGradient id="paint8_linear_116_6722" x1="15.3722" y1="5.47666" x2="16.2083" y2="15.7194" gradientUnits="userSpaceOnUse">
<stop stop-color="#FAA50B"/>
<stop offset="0.31" stop-color="#F89C0C"/>
<stop offset="0.34" stop-color="#F7990C"/>
<stop offset="0.45" stop-color="#F58C0E"/>
<stop offset="0.6" stop-color="#F3850F"/>
<stop offset="0.95" stop-color="#F3830F"/>
</linearGradient>
<linearGradient id="paint9_linear_116_6722" x1="13.1534" y1="23.8015" x2="32.9334" y2="13.6575" gradientUnits="userSpaceOnUse">
<stop offset="0.03" stop-color="#C906D1" stop-opacity="0.6"/>
<stop offset="0.04" stop-color="#C606CE" stop-opacity="0.61"/>
<stop offset="0.23" stop-color="#9A06A3" stop-opacity="0.72"/>
<stop offset="0.48" stop-color="#800689" stop-opacity="0.78"/>
<stop offset="0.99" stop-color="#790682" stop-opacity="0.8"/>
</linearGradient>
<linearGradient id="paint10_linear_116_6722" x1="15.4582" y1="12.7574" x2="23.1916" y2="6.48153" gradientUnits="userSpaceOnUse">
<stop stop-color="white"/>
<stop offset="0.99" stop-color="#94A5C9" stop-opacity="0.6"/>
</linearGradient>
</defs>
</svg>
