<svg width="33" height="32" viewBox="0 0 33 32" fill="none" xmlns="http://www.w3.org/2000/svg">
<path d="M24.6284 7.22226C26.5077 7.22226 28.0312 5.69877 28.0312 3.81946C28.0312 1.94014 26.5077 0.416656 24.6284 0.416656C22.7491 0.416656 21.2256 1.94014 21.2256 3.81946C21.2256 5.69877 22.7491 7.22226 24.6284 7.22226Z" fill="#D6B792"/>
<path d="M24.631 0.496101C25.2884 0.496101 25.9311 0.691052 26.4777 1.0563C27.0243 1.42155 27.4503 1.94069 27.7019 2.54807C27.9534 3.15545 28.0192 3.82379 27.8909 4.46856C27.7626 5.11334 27.446 5.70559 26.9811 6.17042C26.5162 6.63525 25.9239 6.95177 25.2792 7.07997C24.6344 7.20817 23.966 7.14228 23.3587 6.89063C22.7513 6.63899 22.2323 6.21289 21.8671 5.66622C21.5019 5.11956 21.3071 4.47688 21.3072 3.81947C21.3072 3.383 21.3931 2.9508 21.5602 2.54756C21.7272 2.14432 21.9721 1.77794 22.2807 1.46933C22.5894 1.16072 22.9558 0.915929 23.359 0.748942C23.7623 0.581955 24.1945 0.496039 24.631 0.496101ZM24.631 0.33771C23.9421 0.336873 23.2684 0.540403 22.6952 0.922547C22.122 1.30469 21.675 1.84828 21.4108 2.48452C21.1466 3.12077 21.077 3.82109 21.211 4.49687C21.3449 5.17264 21.6762 5.79351 22.1631 6.28092C22.65 6.76832 23.2705 7.10035 23.9461 7.23501C24.6218 7.36966 25.3222 7.30088 25.9587 7.03737C26.5952 6.77386 27.1393 6.32746 27.5221 5.75466C27.9048 5.18186 28.1091 4.50839 28.109 3.81947C28.108 2.89701 27.7414 2.01255 27.0894 1.35992C26.4375 0.707286 25.5535 0.3397 24.631 0.33771Z" fill="black"/>
<path d="M20.1428 20.606V12.9356C20.1383 11.5936 19.6755 10.2934 18.8311 9.25031C18.2623 8.54662 17.7656 7.78769 17.3482 6.98491C17.164 6.62959 17.1964 6.22962 17.4422 5.82777C17.9381 5.01279 19.1986 4.3562 19.9116 4.3562C20.2542 4.3562 20.3863 4.50378 20.4366 4.62739L20.4432 4.64384V4.6617C20.313 7.07327 20.602 7.51695 20.7863 7.56724H20.7943C20.8398 7.56038 20.8848 7.55065 20.9292 7.5381C21.0311 7.51319 21.2018 7.47183 21.5007 7.4065C21.7882 7.33765 22.0792 7.28461 22.3725 7.24764H22.3749C22.5608 7.22663 22.7476 7.21518 22.9346 7.21333H26.5654C26.6566 7.20816 26.7534 7.20534 26.8474 7.20534C27.5169 7.20341 28.1794 7.34174 28.7923 7.61142C28.8933 7.6556 28.9929 7.70542 29.0893 7.75242C29.1936 7.80694 29.2937 7.86428 29.3868 7.92209C29.7175 8.12597 30.0215 8.37039 30.2916 8.64965C30.7855 9.16665 31.1343 9.78846 31.4224 10.6645C32.1607 12.9074 32.1951 15.9755 32.1744 17.1877C32.1742 17.5432 32.0663 17.8903 31.8651 18.1834C31.6638 18.4764 31.3785 18.7017 31.0468 18.8295C30.715 18.9573 30.3524 18.9817 30.0065 18.8995C29.6606 18.8173 29.3477 18.6322 29.109 18.3688V20.606H20.1428Z" fill="#0173FA"/>
<path d="M19.91 4.43799C20.1337 4.43799 20.2992 4.50614 20.3617 4.65983C20.2386 6.93651 20.4778 7.56819 20.7631 7.64574C20.7724 7.64856 20.782 7.64998 20.7917 7.64997C20.8416 7.64997 20.9407 7.61284 21.5151 7.48735C21.8 7.41951 22.0884 7.36695 22.3789 7.3299H22.386C22.5687 7.30926 22.7524 7.29812 22.9364 7.29653H26.5666C26.6489 7.29183 26.7443 7.28807 26.8486 7.28807C27.5071 7.28721 28.1585 7.42326 28.7615 7.68757C28.864 7.73238 28.9613 7.77938 29.0534 7.82857C29.1577 7.88309 29.2555 7.93902 29.3462 7.99542C29.6717 8.19534 29.9706 8.43553 30.2359 8.71029C30.6364 9.13 31.0213 9.70011 31.3484 10.6956C32.1432 13.11 32.1084 16.5236 32.0976 17.1924C32.0982 17.5481 31.986 17.8948 31.777 18.1827C31.5681 18.4705 31.2733 18.6847 30.9349 18.7944C30.5966 18.9041 30.2321 18.9037 29.894 18.7932C29.556 18.6827 29.2616 18.4678 29.0534 18.1794L29.0323 18.1498V20.5327H20.2221V12.9356C20.2191 11.5751 19.7498 10.2568 18.8925 9.2005C18.3265 8.50125 17.8326 7.74668 17.4181 6.94826C16.8071 5.76386 18.9221 4.43564 19.9091 4.43564M19.9091 4.27725C19.1759 4.27725 17.8806 4.95029 17.3711 5.78642C17.1116 6.21318 17.0783 6.64041 17.2771 7.02111C17.697 7.82842 18.1966 8.59173 18.7684 9.29967C19.6019 10.3286 20.0587 11.6114 20.0632 12.9356V20.6864H29.193V18.561C29.4576 18.7977 29.7851 18.9528 30.1358 19.0075C30.4866 19.0622 30.8458 19.0142 31.1699 18.8693C31.494 18.7244 31.7692 18.4888 31.9624 18.1909C32.1555 17.893 32.2583 17.5455 32.2583 17.1905C32.2781 15.9718 32.2447 12.898 31.5012 10.642C31.2093 9.75369 30.8549 9.12295 30.3525 8.59702C30.0777 8.31277 29.7684 8.06408 29.4318 7.85677C29.3378 7.79802 29.2358 7.74021 29.1295 7.68428C29.0323 7.63305 28.9307 7.5837 28.8273 7.53858C28.2053 7.26502 27.5329 7.12446 26.8533 7.12592C26.7593 7.12592 26.6602 7.12874 26.5643 7.13438H22.9387C22.749 7.13615 22.5595 7.14761 22.3709 7.16869H22.3639C22.1703 7.19031 21.9724 7.22274 21.4859 7.32849C21.1861 7.39429 21.0159 7.43565 20.9125 7.46056C20.8627 7.47278 20.8214 7.48265 20.8021 7.48641C20.7142 7.45163 20.3899 7.15741 20.5243 4.66641V4.63116L20.5112 4.59826C20.4642 4.47841 20.3199 4.27772 19.9128 4.27772L19.9091 4.27725Z" fill="black"/>
<path opacity="0.42" d="M25.7704 0.709964C24.2664 0.601394 22.6731 1.29041 21.9422 2.57351C21.5032 3.34478 21.4182 4.2735 21.6376 5.12984C21.4133 4.68953 21.2967 4.20226 21.2974 3.70809C21.2974 1.93572 22.7722 0.498935 24.5921 0.498935C24.9943 0.498428 25.3933 0.569897 25.7704 0.709964Z" fill="#F9F9F9"/>
<path d="M30.4186 18.9502C30.2483 18.947 30.079 18.9223 29.9148 18.8769C29.6259 18.7883 29.3648 18.6264 29.1571 18.4069L29.136 18.3848L29.0171 12.6348C28.1061 11.0571 27.7311 9.2266 27.9483 7.41778L27.9591 7.32755L28.047 7.35057C28.7168 7.52353 29.3419 7.83796 29.88 8.27271C30.0266 8.39085 30.1655 8.51816 30.296 8.65389C30.7895 9.17089 31.1382 9.7927 31.4263 10.6688C32.1647 12.9116 32.199 15.9798 32.1783 17.1919C32.1771 17.6581 31.9912 18.1048 31.6614 18.4343C31.3317 18.7638 30.8848 18.9493 30.4186 18.9502Z" fill="#D6B792"/>
<path d="M28.0264 7.42577C28.6852 7.59636 29.3 7.90562 29.8298 8.33287C29.9736 8.44953 30.1101 8.57511 30.2382 8.70887C30.6386 9.12858 31.0236 9.69869 31.3507 10.6941C32.1455 13.1085 32.1107 16.5222 32.0999 17.191C32.0999 17.4118 32.0565 17.6306 31.972 17.8346C31.8875 18.0387 31.7636 18.2242 31.6075 18.3804C31.4513 18.5366 31.2659 18.6605 31.0619 18.745C30.8578 18.8296 30.6391 18.8731 30.4182 18.8731C30.2553 18.8696 30.0935 18.8459 29.9365 18.8026C29.6607 18.7165 29.4118 18.5606 29.2141 18.35C29.1746 16.4386 29.1351 14.5257 29.0956 12.6113C28.1861 11.0446 27.8109 9.22446 28.0268 7.42577M27.8915 7.22649L27.8699 7.40697C27.6512 9.22572 28.0259 11.0664 28.9382 12.655L29.0552 18.295V18.3533V18.4144L29.0975 18.4614C29.3143 18.691 29.5868 18.8606 29.8885 18.9539C30.0606 19.0015 30.2379 19.0274 30.4163 19.031C30.904 19.0305 31.3716 18.8366 31.7166 18.4919C32.0615 18.1471 32.2556 17.6796 32.2564 17.1919C32.278 15.9713 32.2446 12.898 31.5011 10.642C31.2092 9.75368 30.8548 9.12294 30.3524 8.59701C30.2199 8.45874 30.0786 8.32922 29.9294 8.20926C29.3827 7.76708 28.7476 7.44733 28.0668 7.27161L27.891 7.22461L27.8915 7.22649Z" fill="black"/>
<g style="mix-blend-mode:multiply" opacity="0.25">
<path d="M32.1002 17.1891C32.1008 17.5448 31.9886 17.8915 31.7796 18.1794C31.5707 18.4672 31.2759 18.6814 30.9375 18.7911C30.5992 18.9008 30.2347 18.9004 29.8967 18.7899C29.5586 18.6794 29.2642 18.4645 29.056 18.1761L29.0349 18.1465V20.5294H20.918C23.1893 19.2248 25.1307 17.416 26.5926 15.2426C28.0545 13.0692 28.9978 10.5891 29.3498 7.99353C29.6752 8.19345 29.9742 8.43363 30.2395 8.7084C30.6399 9.12811 31.0248 9.69822 31.352 10.6937C32.1458 13.1067 32.111 16.5217 32.1002 17.1891Z" fill="#333D6A"/>
</g>
<path d="M24.4246 10.5532C23.2242 10.5532 22.2476 9.36312 22.2476 7.90095C22.2475 7.70389 22.2654 7.50724 22.3011 7.31345L22.3115 7.25846L22.3693 7.24906H22.3749C22.5608 7.22805 22.7476 7.2166 22.9347 7.21475H26.5274L26.5401 7.27867C26.5803 7.4838 26.6005 7.69238 26.6002 7.90142C26.6016 9.36312 25.625 10.5532 24.4246 10.5532Z" fill="#D6B792"/>
<path d="M26.464 7.29371C26.5037 7.49367 26.5236 7.69708 26.5232 7.90095C26.5232 9.32176 25.5832 10.4737 24.4251 10.4737C23.267 10.4737 22.328 9.32176 22.328 7.90095C22.3277 7.70862 22.3452 7.51668 22.3801 7.32755H22.3872C22.5699 7.30691 22.7536 7.29577 22.9376 7.29418H26.4626M26.5927 7.13579H22.939C22.7493 7.13756 22.5598 7.14902 22.3712 7.1701H22.358L22.2481 7.18843L22.2279 7.29747C22.1916 7.49611 22.1733 7.69762 22.1733 7.89954C22.1733 9.40354 23.1852 10.6307 24.4293 10.6307C25.6734 10.6307 26.6853 9.40542 26.6853 7.89954C26.6854 7.68528 26.6647 7.47152 26.6233 7.26128L26.5979 7.13391L26.5927 7.13579Z" fill="black"/>
<path d="M19.8416 10.2573C21.8033 9.44471 22.7349 7.19574 21.9223 5.23405C21.1098 3.27237 18.8608 2.34081 16.8991 3.15337C14.9374 3.96593 14.0059 6.21489 14.8184 8.17658C15.631 10.1383 17.88 11.0698 19.8416 10.2573Z" fill="#D6B792"/>
<path d="M18.3703 2.9401C19.1152 2.94001 19.8433 3.16079 20.4626 3.57453C21.0819 3.98827 21.5646 4.57637 21.8497 5.26447C22.1348 5.95257 22.2094 6.70976 22.0641 7.44026C21.9188 8.17077 21.5602 8.84178 21.0335 9.36845C20.5069 9.89511 19.8358 10.2538 19.1053 10.399C18.3748 10.5443 17.6176 10.4697 16.9295 10.1846C16.2414 9.89958 15.6533 9.41685 15.2396 8.79752C14.8259 8.17819 14.6051 7.45008 14.6052 6.70527C14.6052 5.70668 15.0019 4.749 15.708 4.04289C16.4141 3.33678 17.3718 2.9401 18.3703 2.9401ZM18.3703 2.78171C17.5943 2.78171 16.8358 3.01182 16.1905 3.44295C15.5453 3.87407 15.0424 4.48685 14.7454 5.20379C14.4485 5.92072 14.3708 6.70962 14.5222 7.47072C14.6736 8.23181 15.0472 8.93092 15.596 9.47964C16.1447 10.0284 16.8438 10.402 17.6049 10.5534C18.366 10.7048 19.1549 10.6271 19.8718 10.3302C20.5888 10.0332 21.2015 9.53031 21.6327 8.88508C22.0638 8.23985 22.2939 7.48127 22.2939 6.70527C22.2927 5.66506 21.8789 4.66781 21.1433 3.93227C20.4078 3.19673 19.4105 2.78295 18.3703 2.78171Z" fill="black"/>
<path opacity="0.42" d="M19.5797 3.19249C17.923 3.06935 16.1647 3.85049 15.3586 5.30185C14.8745 6.17511 14.7805 7.22603 15.0226 8.19564C14.699 7.54024 14.5805 6.8025 14.6826 6.07873C14.7847 5.35497 15.1027 4.67881 15.595 4.13853C16.0873 3.59826 16.7311 3.21898 17.4423 3.05021C18.1535 2.88144 18.899 2.93102 19.5816 3.19249H19.5797Z" fill="#F9F9F9"/>
<path d="M13.2989 25.7135V17.034C13.2937 15.5108 12.7686 14.0351 11.8104 12.851C11.1666 12.0542 10.6042 11.195 10.1316 10.2862C9.84957 9.74522 10.0056 8.96314 10.5767 8.02455C11.3287 6.78657 12.679 5.52885 13.0051 5.52885C13.0374 5.52717 13.0689 5.53819 13.0931 5.55955C13.1173 5.58091 13.1321 5.61089 13.1344 5.64307L13.1386 5.68301C13.2012 6.34332 13.3574 6.99136 13.6025 7.60767C14.5853 8.49597 15.0981 9.263 15.1267 9.8881V9.91301C15.1314 10.0399 15.1441 10.3774 15.342 10.5066C15.3655 10.5217 15.436 10.5673 15.9332 10.5729H16.0211C16.1593 10.5729 16.2994 10.5691 16.4479 10.5616H20.5646C20.6685 10.5555 20.7785 10.5522 20.887 10.5522C21.6441 10.5501 22.3932 10.7065 23.0862 11.0114C23.1722 11.049 23.2591 11.0899 23.3447 11.1331C23.8799 11.4005 24.3656 11.7572 24.781 12.1878C25.3389 12.7716 25.7337 13.4742 26.0599 14.4664C26.364 15.3899 26.5914 16.5344 26.7367 17.8673C26.8746 19.1911 26.9335 20.522 26.9129 21.8529C26.9128 22.2559 26.7899 22.6494 26.5606 22.9809C26.3313 23.3123 26.0065 23.5661 25.6294 23.7084C25.2523 23.8507 24.8408 23.8747 24.4497 23.7773C24.0586 23.68 23.7064 23.4658 23.4401 23.1633V25.713L13.2989 25.7135Z" fill="#BD1EF9"/>
<path d="M13.0054 5.60782C13.0117 5.60695 13.018 5.60743 13.0241 5.60922C13.0301 5.61102 13.0357 5.61409 13.0405 5.61823C13.0453 5.62237 13.0491 5.62749 13.0517 5.63324C13.0543 5.63898 13.0557 5.64522 13.0557 5.65153C13.1182 6.33908 13.281 7.01377 13.5388 7.6542C14.7355 8.73238 15.0297 9.43456 15.0504 9.8914C15.056 10.0122 15.056 10.4117 15.3028 10.5729C15.3436 10.5992 15.433 10.6462 15.9363 10.6519H16.0247C16.2 10.6519 16.3471 10.6462 16.4561 10.6406H20.5686C20.6626 10.6354 20.7698 10.6312 20.8911 10.6312C21.637 10.6303 22.375 10.7844 23.0582 11.0838C23.1466 11.1223 23.2317 11.1628 23.313 11.2041C23.8389 11.4681 24.3163 11.8193 24.7248 12.2428C25.1789 12.718 25.615 13.3638 25.9859 14.4913C26.329 15.5338 26.5358 16.7402 26.6589 17.8753C26.7966 19.1959 26.8553 20.5235 26.8347 21.851C26.8342 22.2437 26.7124 22.6267 26.486 22.9475C26.2595 23.2683 25.9394 23.5113 25.5695 23.6432C25.1996 23.7751 24.7979 23.7894 24.4196 23.6842C24.0412 23.579 23.7046 23.3595 23.4558 23.0556C23.4239 23.0162 23.3938 22.9757 23.3651 22.9344V25.635H13.3786V17.034C13.3753 15.4936 12.8445 14.0007 11.8746 12.804C11.2323 12.0111 10.6719 11.1553 10.2018 10.2495C9.40285 8.70747 12.5627 5.60782 13.0049 5.60782M13.0049 5.44943C12.7342 5.44943 12.142 6.00779 11.9 6.24843C11.5841 6.56192 10.983 7.20394 10.5088 7.98367C9.92267 8.94764 9.76757 9.75651 10.0613 10.3229C10.536 11.2367 11.1013 12.1005 11.7486 12.9013C12.6956 14.071 13.2148 15.529 13.2202 17.034V25.7924H23.5207V23.3593C23.8143 23.6339 24.1817 23.8167 24.5777 23.8854C24.9738 23.9541 25.3813 23.9056 25.7502 23.7458C26.1191 23.5861 26.4333 23.322 26.6542 22.9862C26.875 22.6503 26.993 22.2572 26.9935 21.8553C27.0145 20.5213 26.9554 19.1872 26.8168 17.8603C26.6716 16.5217 26.4408 15.3721 26.1367 14.4429C25.8077 13.439 25.4064 12.7269 24.84 12.1342C24.4185 11.6975 23.9258 11.3356 23.383 11.0641C23.2961 11.0203 23.2077 10.9785 23.1203 10.94C22.4173 10.6309 21.6575 10.4722 20.8897 10.4742C20.7811 10.4742 20.6711 10.4775 20.5607 10.4836H16.4458C16.2982 10.4911 16.1596 10.4944 16.0228 10.4944H15.9358C15.4955 10.4897 15.4043 10.4521 15.3869 10.4408C15.2233 10.3341 15.2116 10.0268 15.2073 9.91067V9.88529C15.1773 9.23246 14.6744 8.47247 13.6704 7.56208C13.432 6.95771 13.2798 6.32278 13.2183 5.67597L13.2141 5.63555C13.2097 5.58399 13.1857 5.53608 13.147 5.50164C13.1084 5.46721 13.0581 5.44886 13.0063 5.45037L13.0049 5.44943Z" fill="black"/>
<path d="M11.5401 14.1153C10.7091 14.1162 9.89432 13.8844 9.18824 13.446C8.48216 13.0077 7.91296 12.3803 7.54513 11.6351C7.24056 11.0218 7.08317 10.3459 7.08547 9.66109C7.08538 8.7803 7.34648 7.91926 7.83575 7.18687C8.32503 6.45447 9.0205 5.88362 9.83421 5.54649C10.6479 5.20936 11.5433 5.1211 12.4072 5.29288C13.2711 5.46466 14.0646 5.88875 14.6875 6.51153C15.3103 7.13431 15.7345 7.9278 15.9064 8.79166C16.0782 9.65552 15.9901 10.5509 15.653 11.3647C15.316 12.1784 14.7452 12.874 14.0129 13.3633C13.2805 13.8527 12.4195 14.1139 11.5387 14.1139L11.5401 14.1153Z" fill="#D6B792"/>
<path d="M11.5404 5.28821C12.406 5.28793 13.2522 5.54436 13.972 6.02506C14.6918 6.50576 15.2528 7.18914 15.5842 7.98875C15.9156 8.78836 16.0023 9.66829 15.8335 10.5172C15.6647 11.3662 15.248 12.146 14.6359 12.758C14.0239 13.37 13.2441 13.7868 12.3952 13.9556C11.5462 14.1244 10.6663 14.0376 9.86668 13.7063C9.06707 13.3749 8.38369 12.8138 7.90299 12.094C7.42229 11.3742 7.16586 10.5281 7.16614 9.6625C7.16571 9.08794 7.27856 8.51893 7.49823 7.98802C7.71791 7.45711 8.0401 6.97472 8.44638 6.56845C8.85265 6.16217 9.33504 5.83998 9.86595 5.6203C10.3969 5.40063 10.9659 5.28778 11.5404 5.28821ZM11.5404 5.12982C10.3384 5.13069 9.18579 5.60846 8.33564 6.45826C7.48549 7.30806 7.00724 8.46046 7.00587 9.6625C7.00436 10.3592 7.16529 11.0467 7.47587 11.6703C7.83364 12.3954 8.37878 13.0115 9.05478 13.455C9.73079 13.8985 10.5131 14.1531 11.3206 14.1926C12.1281 14.2321 12.9315 14.0549 13.6475 13.6794C14.3636 13.3039 14.9662 12.7438 15.3929 12.0571C15.8196 11.3704 16.055 10.5821 16.0746 9.77385C16.0942 8.9656 15.8973 8.16681 15.5044 7.46023C15.1114 6.75365 14.5367 6.165 13.8397 5.75525C13.1428 5.3455 12.3489 5.12957 11.5404 5.12982Z" fill="black"/>
<path d="M24.9301 23.8166C24.7323 23.8104 24.5359 23.7807 24.345 23.7282C24.1358 23.6713 23.499 23.4989 23.436 23.1308C23.4339 23.1099 23.4339 23.0888 23.436 23.0679V22.9226V22.5269C23.436 22.3506 23.429 22.047 23.421 21.695C23.412 21.2884 23.4008 20.7818 23.3961 20.3108C23.3937 20.0223 23.3961 19.6557 23.3961 18.9248C23.3961 18.6428 23.3961 18.4111 23.3989 18.2504V18.1752L23.4722 18.193C23.5624 18.2148 23.6539 18.2305 23.7462 18.24C23.7462 18.24 23.8679 18.2485 24.0108 18.2485H24.0729C24.9456 18.2322 25.8112 18.0876 26.6419 17.8194L26.7114 17.7968L26.7194 17.8697C26.8574 19.1926 26.9163 20.5225 26.8957 21.8524C26.8951 22.3734 26.6877 22.8729 26.3192 23.2411C25.9507 23.6094 25.4511 23.8163 24.9301 23.8166Z" fill="#D6B792"/>
<path d="M26.6593 17.8762C26.7969 19.1968 26.8556 20.5244 26.835 21.8519C26.835 22.3572 26.6344 22.8418 26.2771 23.1991C25.9199 23.5564 25.4354 23.7572 24.9301 23.7573C24.7375 23.7508 24.5464 23.7218 24.3605 23.6708C24.1687 23.6187 23.5507 23.4518 23.4943 23.1209C23.4943 23.113 23.4943 23.1158 23.4943 22.9226V22.5269C23.4943 22.1429 23.4628 21.1836 23.4548 20.3103C23.452 20.0222 23.4548 19.6566 23.4548 18.9248C23.4548 18.6428 23.4548 18.4111 23.4548 18.2508C23.5476 18.2729 23.6418 18.2886 23.7368 18.2978C23.7368 18.2978 23.8599 18.3067 24.0075 18.3067H24.0705C24.9487 18.2901 25.8196 18.1445 26.6555 17.8748M26.758 17.7169L26.617 17.7639C25.7918 18.0302 24.9318 18.1737 24.0649 18.1897H24.0038C23.8708 18.1897 23.7594 18.1822 23.7434 18.1812C23.6544 18.1715 23.5661 18.1558 23.4792 18.1342L23.3331 18.0981V18.2489C23.3331 18.4092 23.3331 18.6423 23.3331 18.9234C23.3331 19.6538 23.3307 20.0208 23.3331 20.3099C23.3373 20.7799 23.3491 21.2884 23.358 21.6954C23.366 22.0465 23.3726 22.3497 23.3726 22.5255C23.3726 22.8953 23.3726 22.9203 23.3726 22.9212C23.3726 22.9922 23.3726 23.0363 23.3726 23.0645C23.3711 23.0895 23.3719 23.1145 23.3749 23.1393C23.4369 23.5031 23.9483 23.6812 24.3271 23.7836C24.523 23.8378 24.7247 23.8683 24.9278 23.8744C25.4643 23.8737 25.9788 23.6603 26.3582 23.2809C26.7376 22.9015 26.951 22.3871 26.9516 21.8505C26.9724 20.5187 26.9135 19.1869 26.7754 17.8621L26.7594 17.7169H26.758Z" fill="black"/>
<g style="mix-blend-mode:multiply" opacity="0.25">
<path d="M26.8353 21.852C26.8348 22.2447 26.7129 22.6277 26.4863 22.9485C26.2597 23.2693 25.9395 23.5122 25.5696 23.6439C25.1996 23.7757 24.7979 23.7899 24.4196 23.6846C24.0412 23.5793 23.7047 23.3596 23.456 23.0556C23.424 23.0162 23.394 22.9757 23.3653 22.9344V23.8166C23.3512 23.8166 23.3491 24.4227 23.3592 25.635H13.939C16.6043 24.2863 18.8705 22.2638 20.5125 19.7684C22.1545 17.273 23.1151 14.3915 23.299 11.41C23.3032 11.3418 23.3075 11.2732 23.3108 11.2046C23.8375 11.4682 24.3157 11.8192 24.725 12.2428C25.179 12.718 25.6152 13.3638 25.986 14.4913C26.3291 15.5338 26.5359 16.7403 26.659 17.8753C26.7969 19.1962 26.8558 20.5241 26.8353 21.852Z" fill="#333D6A"/>
</g>
<path d="M5.66212 31.7299V21.6592C5.65587 19.8874 5.04485 18.1707 3.93017 16.7933C3.18267 15.8687 2.52986 14.8714 1.98155 13.8164C1.0956 12.1051 0.55134 9.78658 0.52455 7.61236C0.517604 7.07019 0.543186 6.52809 0.60116 5.98898C0.665379 5.39314 0.945424 4.8414 1.38847 4.43784C1.83151 4.03428 2.40692 3.8068 3.00615 3.79831H3.04328C3.13042 3.79844 3.21749 3.80315 3.30413 3.81241C3.95088 3.88304 4.54323 4.20724 4.95133 4.71392C5.35942 5.22061 5.54996 5.86843 5.48117 6.51538C5.44968 6.80772 5.429 7.06669 5.41819 7.30827C5.3978 7.68268 5.40691 8.05812 5.44545 8.4311L5.45015 8.4781C5.5236 9.25311 5.70817 10.0135 5.99817 10.736C6.00428 10.751 6.62985 12.2701 7.73482 13.3064C7.97599 13.5379 8.24977 13.7328 8.54745 13.885C8.70328 13.9626 8.86518 14.0273 9.03155 14.0786C9.12978 14.1087 9.22754 14.1341 9.32154 14.1538H14.0911C14.2124 14.1463 14.3397 14.1425 14.4671 14.1425C15.345 14.1406 16.2135 14.3224 17.0168 14.6765C17.212 14.7624 17.4028 14.8581 17.5884 14.9632C18.1024 15.2528 18.5716 15.6155 18.9814 16.0399C19.6282 16.7167 20.0855 17.5317 20.4643 18.6823C21.2135 20.958 21.4151 23.8875 21.4513 25.9442C21.4635 26.6079 21.4555 27.0976 21.4513 27.2602C21.4512 27.7288 21.3076 28.186 21.0397 28.5704C20.7718 28.9548 20.3925 29.2478 19.9529 29.41C19.5133 29.5722 19.0346 29.5958 18.5813 29.4775C18.1279 29.3593 17.7217 29.1049 17.4173 28.7487V31.7318L5.66212 31.7299Z" fill="#E2A90A"/>
<path d="M3.04324 3.87399C3.12755 3.87428 3.2118 3.87898 3.29562 3.88809C3.60589 3.92153 3.90653 4.01578 4.18035 4.16547C4.45417 4.31516 4.6958 4.51735 4.89144 4.76047C5.08707 5.0036 5.23287 5.2829 5.32051 5.58241C5.40814 5.88191 5.43589 6.19575 5.40216 6.50599C5.37115 6.79739 5.35 7.06059 5.33919 7.30499C5.31846 7.68348 5.32774 8.06301 5.36692 8.44004C5.43806 9.23805 5.62603 10.0213 5.9248 10.7647C5.9248 10.7647 6.54943 12.302 7.68072 13.3633C7.92711 13.6012 8.20727 13.8014 8.51215 13.9574C8.67181 14.0371 8.83782 14.1035 9.00847 14.1557C9.12315 14.191 9.22655 14.2163 9.31351 14.2342H14.0911C14.1987 14.2276 14.3261 14.2229 14.4671 14.2229C15.3337 14.2219 16.1911 14.401 16.9848 14.7489C17.1775 14.8332 17.3658 14.9273 17.5488 15.0309C18.0559 15.3168 18.5186 15.6749 18.9227 16.094C19.4495 16.6458 19.9567 17.3964 20.3872 18.7067C21.1641 21.0671 21.3385 24.154 21.3709 25.9447C21.3826 26.5651 21.3765 27.0304 21.3732 27.2565C21.3736 27.7162 21.2308 28.1645 20.9646 28.5393C20.6985 28.9141 20.3222 29.1967 19.8881 29.3479C19.454 29.4991 18.9836 29.5113 18.5422 29.3828C18.1009 29.2544 17.7105 28.9917 17.4252 28.6312C17.3947 28.5936 17.3655 28.5537 17.3378 28.5137V31.651H5.74103V21.6593C5.7371 19.8689 5.11969 18.1339 3.99169 16.7435C3.24673 15.8235 2.59671 14.8305 2.05153 13.7797C1.24454 12.2212 0.632605 9.97271 0.604405 7.61284C0.597209 7.07305 0.62232 6.53331 0.679605 5.99651C0.741756 5.41987 1.01277 4.88591 1.44152 4.49534C1.87027 4.10477 2.42713 3.88459 3.00704 3.87634H3.04324M3.04324 3.71842H3.00469C2.38611 3.72726 1.79214 3.96214 1.33482 4.37877C0.877494 4.7954 0.588433 5.36497 0.522155 5.98006C0.464245 6.5231 0.43882 7.06912 0.446015 7.61519C0.460894 8.76813 0.607227 9.91561 0.882175 11.0354C1.1341 12.0656 1.48989 13.0399 1.91101 13.853C2.4618 14.9127 3.11761 15.9145 3.86855 16.8432C4.9718 18.2066 5.57651 19.9059 5.58264 21.6597V31.8117H17.4976V28.948C17.8309 29.2758 18.2536 29.4979 18.7126 29.5862C19.1716 29.6744 19.6465 29.6251 20.0776 29.4443C20.5087 29.2635 20.8767 28.9593 21.1354 28.5699C21.3941 28.1806 21.532 27.7235 21.5316 27.256C21.534 27.0934 21.5415 26.6023 21.5316 25.94C21.4945 23.8777 21.2919 20.9397 20.5399 18.655C20.1573 17.4922 19.6939 16.6683 19.0392 15.9826C18.6245 15.5526 18.1496 15.1852 17.6292 14.8917C16.6659 14.3451 15.5766 14.0592 14.4689 14.0622C14.3434 14.0622 14.2161 14.0659 14.0901 14.073H9.32996C9.24065 14.0542 9.14806 14.0302 9.05501 14.0016C8.89259 13.9522 8.73459 13.8893 8.58265 13.8136C8.29184 13.6639 8.02441 13.4726 7.78883 13.2458C6.69748 12.2221 6.07755 10.7181 6.07144 10.7031C5.78403 9.98699 5.60136 9.23319 5.52906 8.46495L5.52437 8.41795C5.4863 8.04903 5.47718 7.67769 5.4971 7.30734C5.50791 7.06764 5.5286 6.80961 5.55962 6.51915C5.59773 6.16582 5.56107 5.80843 5.45201 5.4702C5.34295 5.13197 5.16393 4.82047 4.92659 4.55596C4.68926 4.29145 4.39891 4.07985 4.07444 3.9349C3.74996 3.78996 3.39861 3.71492 3.04324 3.71466V3.71842Z" fill="black"/>
<path d="M19.1599 29.5299C18.8324 29.5297 18.5088 29.4592 18.2109 29.3233C17.913 29.1873 17.6478 28.989 17.4331 28.7417L17.4181 28.7248V28.4644C17.4181 28.3887 17.4106 28.1857 17.4021 27.9507C17.3936 27.7157 17.3838 27.4553 17.3786 27.2391C17.3725 26.9933 17.3725 26.826 17.3786 26.6417C17.3819 26.5477 17.3861 26.458 17.3918 26.3701L17.3951 26.316H17.4496C17.5074 26.316 17.6 26.3123 17.7132 26.3085C18.6532 26.2794 19.3921 26.2568 20.2094 26.1294C20.5954 26.0694 20.978 25.9894 21.3557 25.8897L21.4291 25.8705V25.9461C21.4413 26.6093 21.4333 27.0986 21.4291 27.2598C21.4278 27.8613 21.1884 28.4378 20.7631 28.8633C20.3379 29.2887 19.7614 29.5284 19.1599 29.5299Z" fill="#D6B792"/>
<path d="M21.3708 25.9457C21.3826 26.5661 21.3765 27.0314 21.3732 27.2574C21.3732 27.5481 21.3159 27.8358 21.2047 28.1043C21.0935 28.3728 20.9304 28.6168 20.7249 28.8223C20.5194 29.0277 20.2754 29.1907 20.0069 29.3019C19.7384 29.4131 19.4506 29.4703 19.16 29.4702C18.9442 29.4686 18.7297 29.437 18.5226 29.3762C18.1189 29.2516 17.7574 29.018 17.4778 28.7013V28.4644C17.4778 28.3135 17.4487 27.6757 17.4379 27.2372C17.4322 27.006 17.4318 26.8363 17.4379 26.6436C17.4416 26.5294 17.4473 26.4359 17.451 26.3738L17.7152 26.3668C18.6514 26.3376 19.3978 26.3146 20.2184 26.1868C20.6065 26.1264 20.9911 26.0459 21.3708 25.9457ZM21.4869 25.7924L21.3408 25.831C20.9648 25.9298 20.5841 26.0095 20.2001 26.0697C19.387 26.1962 18.6491 26.2187 17.7091 26.2479C17.5958 26.2516 17.5037 26.254 17.4459 26.2554H17.3368L17.3302 26.364C17.3246 26.4542 17.3199 26.5463 17.3171 26.6375C17.311 26.8255 17.311 26.9919 17.3171 27.2382C17.3223 27.4548 17.3321 27.718 17.3406 27.9502C17.349 28.1824 17.3566 28.3878 17.3566 28.462V28.744L17.3866 28.7779C17.6068 29.0315 17.8788 29.2349 18.1843 29.3743C18.4899 29.5137 18.8218 29.5858 19.1576 29.5858C19.7758 29.5851 20.3684 29.3392 20.8055 28.9021C21.2426 28.4649 21.4885 27.8723 21.4893 27.2541C21.4921 27.0943 21.4996 26.6032 21.4893 25.9405L21.4865 25.7892L21.4869 25.7924Z" fill="black"/>
<path d="M17.4183 28.7614L17.3394 20.8053L17.4183 28.7614Z" fill="#333D6A"/>
<path d="M17.4183 28.7614L17.3394 20.8053" stroke="black" stroke-width="0.25275" stroke-linecap="round" stroke-linejoin="round"/>
<path d="M23.4349 23.1802C23.4086 20.8449 23.3821 18.5095 23.3555 16.1739L23.4349 23.1802Z" fill="#333D6A"/>
<path d="M23.4349 23.1802C23.4086 20.8449 23.3821 18.5095 23.3555 16.1739" stroke="black" stroke-width="0.237" stroke-linecap="round" stroke-linejoin="round"/>
<path d="M29.1346 18.4299L29.0557 11.582L29.1346 18.4299Z" fill="#333D6A"/>
<path d="M29.1346 18.4299L29.0557 11.582" stroke="black" stroke-width="0.23475" stroke-linecap="round" stroke-linejoin="round"/>
<path d="M11.4539 18.0774C10.6166 16.7846 9.77924 15.4918 8.9417 14.199L8.82373 14.0166L9.03147 14.0801C9.1297 14.1101 9.22746 14.1355 9.32146 14.1553H14.052L11.5215 18.1813L11.4539 18.0774Z" fill="#D6B792"/>
<path d="M9.00858 14.1557C9.12326 14.191 9.22666 14.2164 9.31361 14.2342H13.9088C13.1132 15.501 12.3171 16.7677 11.5203 18.0342L9.00858 14.1557ZM8.63916 13.877L8.87416 14.2417C9.71076 15.5333 10.5472 16.8249 11.3835 18.1164L11.3863 18.1202L11.5212 18.3289L11.6533 18.1183L12.849 16.2162L14.0418 14.3183L14.1941 14.0758H9.33006C9.24076 14.057 9.14817 14.0331 9.05511 14.0044L8.63916 13.877Z" fill="black"/>
<path d="M0.525646 7.61378C0.518331 7.07116 0.5436 6.52859 0.601316 5.98899C0.664766 5.38711 0.948946 4.83007 1.39899 4.42542C1.84904 4.02077 2.43305 3.79719 3.03827 3.79785C3.12713 3.79786 3.21592 3.80257 3.30429 3.81195C3.95103 3.88258 4.54339 4.20678 4.95148 4.71346C5.35958 5.22015 5.55012 5.86798 5.48133 6.51492C5.44984 6.80726 5.42916 7.06623 5.41835 7.30781L5.41365 7.40604L5.31965 7.38066C4.70989 7.21823 4.08148 7.13638 3.45046 7.1372C2.78586 7.13706 2.12427 7.22637 1.48351 7.40275C1.35587 7.44083 1.23035 7.4857 1.10751 7.53717C0.934546 7.60626 0.770986 7.67112 0.618236 7.69227L0.529406 7.70449L0.525646 7.61378Z" fill="#D6B792"/>
<path d="M3.03806 3.874C3.37172 3.87414 3.70161 3.94448 4.00631 4.08044C4.311 4.2164 4.58369 4.41494 4.80664 4.66317C5.0296 4.91139 5.19785 5.20374 5.30044 5.52123C5.40304 5.83872 5.4377 6.17424 5.40216 6.506C5.37114 6.7974 5.35 7.0606 5.33918 7.305C4.72277 7.14118 4.0876 7.05854 3.44978 7.05919C2.77792 7.05899 2.10907 7.1491 1.46121 7.32709C1.159 7.41028 0.855385 7.57995 0.604405 7.61473C0.597209 7.07493 0.62232 6.53519 0.679605 5.9984C0.741511 5.41577 1.01656 4.87657 1.45191 4.48443C1.88725 4.0923 2.45215 3.87489 3.03806 3.874ZM3.03806 3.71561C2.41334 3.71526 1.8106 3.9462 1.34604 4.36389C0.881483 4.78159 0.587995 5.35647 0.522155 5.97772C0.464245 6.52076 0.43882 7.06677 0.446015 7.61285V7.79192L0.623675 7.76748C0.785825 7.74539 0.952675 7.67865 1.13127 7.60815C1.25213 7.55756 1.3756 7.51347 1.50117 7.47608C2.13519 7.30153 2.78983 7.21316 3.44743 7.21335C4.07147 7.21296 4.69289 7.29402 5.29594 7.45446L5.48394 7.50522L5.49287 7.30829C5.50368 7.06906 5.52436 6.81103 5.55539 6.52057C5.59279 6.16696 5.55547 5.80945 5.44585 5.47119C5.33624 5.13294 5.15677 4.82149 4.91908 4.55703C4.68139 4.29258 4.39078 4.08102 4.06609 3.93607C3.7414 3.79111 3.38988 3.71601 3.0343 3.71561H3.03806Z" fill="black"/>
<g style="mix-blend-mode:multiply" opacity="0.25">
<path d="M15.9142 9.66251C15.9138 10.2943 15.7766 10.9185 15.512 11.4922C15.2474 12.066 14.8617 12.5756 14.3815 12.9861C13.9012 13.3967 13.3378 13.6984 12.7299 13.8705C12.122 14.0426 11.484 14.0811 10.8599 13.9832C12.3451 13.3017 13.6042 12.1136 14.25 10.6166C14.8812 9.15491 14.8069 7.66783 14.2801 6.25125C14.7908 6.66092 15.2029 7.18022 15.4858 7.77071C15.7686 8.36121 15.9151 9.00776 15.9142 9.66251Z" fill="#333D6A"/>
</g>
<g style="mix-blend-mode:multiply" opacity="0.25">
<path d="M22.1156 6.69398C22.115 7.24023 21.9962 7.77988 21.7673 8.27586C21.5384 8.77184 21.2048 9.21239 20.7895 9.56726C20.3743 9.92213 19.8871 10.1829 19.3615 10.3317C18.8359 10.4804 18.2843 10.5137 17.7446 10.4291C19.0287 9.83969 20.1172 8.81274 20.6751 7.51883C21.2208 6.25547 21.1564 4.96955 20.7009 3.74567C21.1429 4.09941 21.4996 4.54812 21.7445 5.05851C21.9894 5.5689 22.1162 6.12787 22.1156 6.69398Z" fill="#333D6A"/>
</g>
<g style="mix-blend-mode:multiply" opacity="0.25">
<path d="M28.0264 3.83638C28.0263 4.31506 27.9225 4.78804 27.7221 5.22276C27.5217 5.65749 27.2296 6.04363 26.8656 6.3546C26.5017 6.66558 26.0748 6.894 25.6141 7.02415C25.1535 7.1543 24.6701 7.18309 24.1973 7.10853C25.3224 6.59153 26.2756 5.69288 26.7649 4.55924C27.2424 3.45192 27.1879 2.32581 26.7874 1.25327C27.1745 1.56331 27.4868 1.95648 27.7013 2.40363C27.9157 2.85078 28.0268 3.34046 28.0264 3.83638Z" fill="#333D6A"/>
</g>
<g style="mix-blend-mode:multiply" opacity="0.25">
<path d="M21.3734 27.2574C21.3738 27.7171 21.231 28.1655 20.9648 28.5403C20.6987 28.9151 20.3224 29.1977 19.8883 29.3488C19.4542 29.5 18.9838 29.5122 18.5424 29.3838C18.1011 29.2553 17.7106 28.9927 17.4254 28.6322C17.3949 28.5946 17.3657 28.5546 17.338 28.5147V31.651H5.74121V31.4334C6.11063 31.3342 6.49321 31.2534 6.79401 31.1302C9.78358 29.9148 12.369 27.8796 14.2525 25.2591C16.136 22.6385 17.2409 19.5392 17.44 16.3182C17.4668 15.8924 17.4799 15.4538 17.5471 15.0323C18.0547 15.3176 18.5181 15.6753 18.9228 16.094C19.4497 16.6458 19.9568 17.3964 20.3874 18.7067C21.1643 21.0671 21.3386 24.154 21.3711 25.9447C21.3828 26.5661 21.3767 27.0314 21.3734 27.2574Z" fill="#663819"/>
</g>
<path opacity="0.25" d="M6.38281 22.7271C6.36715 24.5513 6.34772 26.3755 6.32453 28.1998C6.3109 29.3527 6.17648 30.5028 6.08718 31.651H5.74079V21.6592C5.73686 19.8689 5.11945 18.1339 3.99145 16.7435C3.03265 15.5563 2.75958 15.2635 2.05129 13.7797C1.2161 12.0304 0.936454 10.4042 0.832584 9.80068C0.713674 9.10931 0.675134 8.57868 0.604164 7.61283C0.578017 7.30014 0.575032 6.98595 0.595234 6.67283C0.606828 6.44533 0.634945 6.21898 0.679364 5.99556C0.755504 5.63225 0.867364 5.10256 1.2678 4.65418C1.7049 4.16632 2.26091 4.0272 2.45549 3.98114C3.48949 3.73674 4.33549 4.25985 4.51362 4.37688C4.24666 4.31954 2.68062 4.00417 1.7613 4.92255C1.19213 5.49031 1.16957 6.23244 1.1503 7.54374C1.11223 9.98774 1.83415 11.8048 2.02121 12.2541C2.57017 13.5762 3.28128 14.581 3.6836 15.1436C4.25136 15.9379 4.26828 15.8143 4.6706 16.4103C4.88915 16.7318 5.85218 18.1963 6.23382 20.3743C6.32688 20.8974 6.39456 21.514 6.38281 22.7271Z" fill="#F9F9F9"/>
<path opacity="0.42" d="M8.10478 12.7711L8.49065 13.4324C8.3073 13.1915 8.14695 12.9339 8.01172 12.663L8.10478 12.7711Z" fill="#F9F9F9"/>
<path opacity="0.42" d="M13.1039 5.57634C11.1092 5.42829 8.99231 6.36688 8.02223 8.11434C7.43943 9.16526 7.32616 10.431 7.61756 11.598C7.2292 10.8092 7.08743 9.92175 7.21073 9.05124C7.33402 8.18073 7.71666 7.36755 8.30879 6.71764C8.90091 6.06774 9.67506 5.61126 10.5304 5.40769C11.3857 5.20411 12.2825 5.26288 13.1039 5.57634Z" fill="#F9F9F9"/>
</svg>
